/* XPM */
static char *character_right_1_4Nbzx[] = {
/* columns rows colors chars-per-pixel */
"40 40 11 1 ",
"  c black",
". c #321A12",
"X c #5E3821",
"o c #801A1A",
"O c #C42A2A",
"+ c #BEA37F",
"@ c #585896",
"# c #467EB8",
"$ c #EDD6B0",
"% c white",
"& c None",
/* pixels */
"&&&&&&&&&&&&&&&&&&&&&&&&.&&&&&&&&&&&&&&&",
"&&&&&&&&&&&&&&&&&&&&&&&&.&&&&&&&&&&&&&&&",
"&&&&&&&&&&&&&&&.........X  &&&&&&&&&&&&&",
"&&&&&&&&&&&&&&&.........X  &&&&&&&&&&&&&",
"&&&&&&&&&&&....XXXXXXXXX   &&&&&&&&&&&&&",
"&&&&&&&&&..XXXXXXXXXXXXXXXX  &&&&&&&&&&&",
"&&&&&&&&&..XXXXXXXXXXXXXXXX  &&&&&&&&&&&",
"&&&&&&&&&..XXXXXXXXXXX.....  &&&&&&&&&&&",
"&&&&&&&&&..XXXXXXXXXXX.....  &&&&&&&&&&&",
"&&&&&&&..XXXXXXXXX....+++++..  &&&&&&&&&",
"&&&&&&&..XXXXXXXXX....+++++..  &&&&&&&&&",
"&&&&&&&..XXXXXXX..++++$$$$$++  &&&&&&&&&",
"&&&&&&&..XXXXXXX..++++$$$$$++  &&&&&&&&&",
"&&&&&&&..XXXXXX...$$$$$$$$$$$  &&&&&&&&&",
"&&&&&&&..XXXXXX...$$$$$$$$$$$  &&&&&&&&&",
"&&&&&&&  ..XXXX.++$$$$  $$$$$  &&&&&&&&&",
"&&&&&&&&&  .....++$$$$  $$$  &&&&&&&&&&&",
"&&&&&&&&&  .....++$$$$  $$$  &&&&&&&&&&&",
"&&&&&&&&&  ++...++$$$$$$$$$  &&&&&&&&&&&",
"&&&&&&&&&  ++...++$$$$$$$$$  &&&&&&&&&&&",
"&&&&&&&&&&&  +++++++$$$$$  &&&&&&&&&&&&&",
"&&&&&&&&&&&  +++++++$$$$$  &&&&&&&&&&&&&",
"&&&&&&&&&&&&&   OOoo++++ &&&&&&&&&&&&&&&",
"&&&&&&&&&&&&&   OOoo++++ &&&&&&&&&&&&&&&",
"&&&&&&&&&&&&&     OOOOOO &&&&&&&&&&&&&&&",
"&&&&&&&&&&&&&  +$$  OOOO &&&&&&&&&&&&&&&",
"&&&&&&&&&&&&&  +$$  OOOO &&&&&&&&&&&&&&&",
"&&&&&&&&&&&&&  $$$  ..%% &&&&&&&&&&&&&&&",
"&&&&&&&&&&&&&  $$$  ..%% &&&&&&&&&&&&&&&",
"&&&&&&&&&&&&&     oooooo &&&&&&&&&&&&&&&",
"&&&&&&&&&&&&&     oooooo &&&&&&&&&&&&&&&",
"&&&&&&&&&&&&&&& @@@@##  &&&&&&&&&&&&&&&&",
"&&&&&&&&&&&&&&& @@@@##  &&&&&&&&&&&&&&&&",
"&&&&&&&&&&&&&&& XXXXXX  &&&&&&&&&&&&&&&&",
"&&&&&&&&&&&&&&& XXXXXX  &&&&&&&&&&&&&&&&",
"&&&&&&&&&&&&&&&&      &&&&&&&&&&&&&&&&&&",
"&&&&&&&&&&&&&&&&&&&&&&&&&&&&&&&&&&&&&&&&",
"&&&&&&&&&&&&&&&&&&&&&&&&&&&&&&&&&&&&&&&&",
"&&&&&&&&&&&&&&&&&&&&&&&&&&&&&&&&&&&&&&&&",
"&&&&&&&&&&&&&&&&&&&&&&&&&&&&&&&&&&&&&&&&"
};
