/* XPM */
static char *character_8GMMv[] = {
/* columns rows colors chars-per-pixel */
"60 60 12 1 ",
"  c black",
". c #321A12",
"X c #5C0606",
"o c #5E3821",
"O c #801A1A",
"+ c #C42A2A",
"@ c #BEA37F",
"# c #585896",
"$ c #467EB8",
"% c #EDD6B0",
"& c white",
"* c None",
/* pixels */
"*********************************.....**********************",
"*********************************.....**********************",
"*********************************.....**********************",
"**********************...........ooooo.....   **************",
"**********************...........ooooo.....   **************",
"****************......ooooooooooo..   oooooooo   ***********",
"****************......ooooooooooo..   oooooooo   ***********",
"****************......ooooooooooo..   oooooooo   ***********",
"*************...ooooooooooooooooooooooooo..   **************",
"*************...ooooooooooooooooooooooooo..   **************",
"*************...ooooooooooooooooooooooooo..   **************",
"*************...oooooo.............oooooooo...   ***********",
"*************...oooooo.............oooooooo...   ***********",
"***********..ooo......@@@@@@@@@@@@@..............   ********",
"***********..ooo......@@@@@@@@@@@@@..............   ********",
"***********..ooo......@@@@@@@@@@@@@..............   ********",
"***********.....@@@@@@%%%%%%%%%%%%%@@@@@@........   ********",
"***********.....@@@@@@%%%%%%%%%%%%%@@@@@@........   ********",
"***********.....@@@@@@%%%%%%%%%%%%%@@@@@@........   ********",
"***********  ...@@@%%%%%%%%%%%%%%%%%%%%%%@@      ***********",
"***********  ...@@@%%%%%%%%%%%%%%%%%%%%%%@@      ***********",
"***********  ...@@@%%%%%%%%%%%%%%%%%%%%%%@@      ***********",
"***********  @@@%%%%%%   %%%%%%%%%%   %%%%%@@@   ***********",
"***********  @@@%%%%%%   %%%%%%%%%%   %%%%%@@@   ***********",
"***********  @@@%%%%%%   %%%%%%%%%%   %%%%%@@@   ***********",
"*************   %%%%%%   %%%%%%%%%%   %%%%%   **************",
"*************   %%%%%%   %%%%%%%%%%   %%%%%   **************",
"*************   @@@%%%%%%%%%%%%%%%%%%%%%%@@   **************",
"*************   @@@%%%%%%%%%%%%%%%%%%%%%%@@   **************",
"*************   @@@%%%%%%%%%%%%%%%%%%%%%%@@   **************",
"****************   @@@%%%%%%%%%%%%%%%%@@@  *****************",
"****************   @@@%%%%%%%%%%%%%%%%@@@  *****************",
"****************   @@@%%%%%%%%%%%%%%%%@@@  *****************",
"*************XXX+++++++++@@%%%%%%@@++++++++   **************",
"*************XXX+++++++++@@%%%%%%@@++++++++   **************",
"*************XXX+++OOO++++++++++++++++OOO++   **************",
"*************XXX+++OOO++++++++++++++++OOO++   **************",
"*************XXX+++OOO++++++++++++++++OOO++   **************",
"***********  %%%@@@   OOO++++++++++OOO   @@%%%   ***********",
"***********  %%%@@@   OOO++++++++++OOO   @@%%%   ***********",
"***********  %%%@@@   OOO++++++++++OOO   @@%%%   ***********",
"***********  @@@@@@   .....&&&&&&.....   @@@@@   ***********",
"***********  @@@@@@   .....&&&&&&.....   @@@@@   ***********",
"*************         OOOOOOOOOOOOOOOO        **************",
"*************         OOOOOOOOOOOOOOOO        **************",
"*************         OOOOOOOOOOOOOOOO        **************",
"*******************   $$$##      ##$$$   *******************",
"*******************   $$$##      ##$$$   *******************",
"*******************   $$$##      ##$$$   *******************",
"*******************   ooooo      ooooo   *******************",
"*******************   ooooo      ooooo   *******************",
"*******************   ooooo      ooooo   *******************",
"**********************     ******     **********************",
"**********************     ******     **********************",
"**********************     ******     **********************",
"************************************************************",
"************************************************************",
"************************************************************",
"************************************************************",
"************************************************************"
};
