/* XPM */
static char *b64de384c509486cff6b204dacf8063fzZP02ciZObxTmLLD[] = {
/* columns rows colors chars-per-pixel */
"80 80 12 1 ",
"  c None",
". c gray9",
"X c #681C1C",
"o c #432E27",
"O c #6A4834",
"+ c #882E2E",
"@ c #C43C3C",
"# c #65659B",
"$ c #5586B9",
"% c #BFA787",
"& c #E8D4B2",
"* c #F8F8F8",
/* pixels */
"                                            ooooooo                             ",
"                                            ooooooo                             ",
"                                            ooooooo                             ",
"                                            ooooooo                             ",
"                             oooooooooooooooOOOOOOOooooooo....                  ",
"                             oooooooooooooooOOOOOOOooooooo....                  ",
"                             oooooooooooooooOOOOOOOooooooo....                  ",
"                      oooooooOOOOOOOOOOOOOOOooo....OOOOOOOOOOO...               ",
"                      oooooooOOOOOOOOOOOOOOOooo....OOOOOOOOOOO...               ",
"                      oooooooOOOOOOOOOOOOOOOooo....OOOOOOOOOOO...               ",
"                      oooooooOOOOOOOOOOOOOOOooo....OOOOOOOOOOO...               ",
"                  ooooOOOOOOOOOOOOOOOOOOOOOOOOOOOOOOOOOooo....                  ",
"                  ooooOOOOOOOOOOOOOOOOOOOOOOOOOOOOOOOOOooo....                  ",
"                  ooooOOOOOOOOOOOOOOOOOOOOOOOOOOOOOOOOOooo....                  ",
"                  ooooOOOOOOOOOOOOOOOOOOOOOOOOOOOOOOOOOooo....                  ",
"                  ooooOOOOOOOooooooooooooooooooOOOOOOOOOOOoooo...               ",
"                  ooooOOOOOOOooooooooooooooooooOOOOOOOOOOOoooo...               ",
"                  ooooOOOOOOOooooooooooooooooooOOOOOOOOOOOoooo...               ",
"               oooOOOOooooooo%%%%%%%%%%%%%%%%%%oooooooooooooooooo....           ",
"               oooOOOOooooooo%%%%%%%%%%%%%%%%%%oooooooooooooooooo....           ",
"               oooOOOOooooooo%%%%%%%%%%%%%%%%%%oooooooooooooooooo....           ",
"               oooOOOOooooooo%%%%%%%%%%%%%%%%%%oooooooooooooooooo....           ",
"               ooooooo%%%%%%%&&&&&&&&&&&&&&&&&&%%%%%%%%oooooooooo....           ",
"               ooooooo%%%%%%%&&&&&&&&&&&&&&&&&&%%%%%%%%oooooooooo....           ",
"               ooooooo%%%%%%%&&&&&&&&&&&&&&&&&&%%%%%%%%oooooooooo....           ",
"               ...oooo%%%&&&&&&&&&&&&&&&&&&&&&&&&&&&&&&%%%.......               ",
"               ...oooo%%%&&&&&&&&&&&&&&&&&&&&&&&&&&&&&&%%%.......               ",
"               ...oooo%%%&&&&&&&&&&&&&&&&&&&&&&&&&&&&&&%%%.......               ",
"               ...oooo%%%&&&&&&&&&&&&&&&&&&&&&&&&&&&&&&%%%.......               ",
"               ...%%%%&&&&&&&....&&&&&&&&&&&&&&....&&&&&&&%%%%...               ",
"               ...%%%%&&&&&&&....&&&&&&&&&&&&&&....&&&&&&&%%%%...               ",
"               ...%%%%&&&&&&&....&&&&&&&&&&&&&&....&&&&&&&%%%%...               ",
"               ...%%%%&&&&&&&....&&&&&&&&&&&&&&....&&&&&&&%%%%...               ",
"                  ....&&&&&&&....&&&&&&&&&&&&&&....&&&&&&&....                  ",
"                  ....&&&&&&&....&&&&&&&&&&&&&&....&&&&&&&....                  ",
"                  ....&&&&&&&....&&&&&&&&&&&&&&....&&&&&&&....                  ",
"                  ....%%%&&&&&&&&&&&&&&&&&&&&&&&&&&&&&&%%%....                  ",
"                  ....%%%&&&&&&&&&&&&&&&&&&&&&&&&&&&&&&%%%....                  ",
"                  ....%%%&&&&&&&&&&&&&&&&&&&&&&&&&&&&&&%%%....                  ",
"                  ....%%%&&&&&&&&&&&&&&&&&&&&&&&&&&&&&&%%%....                  ",
"                      ...%%%%&&&&&&&&&&&&&&&&&&&&&&%%%%...                      ",
"                      ...%%%%&&&&&&&&&&&&&&&&&&&&&&%%%%...                      ",
"                      ...%%%%&&&&&&&&&&&&&&&&&&&&&&%%%%...                      ",
"                      ...%%%%&&&&&&&&&&&&&&&&&&&&&&%%%%...                      ",
"                  XXXX@@@@@@@@@@@%%%&&&&&&&&%%%@@@@@@@@@@@....                  ",
"                  XXXX@@@@@@@@@@@%%%&&&&&&&&%%%@@@@@@@@@@@....                  ",
"                  XXXX@@@@@@@@@@@%%%&&&&&&&&%%%@@@@@@@@@@@....                  ",
"                  XXXX@@@++++@@@@@@@@@@@@@@@@@@@@@@++++@@@....                  ",
"                  XXXX@@@++++@@@@@@@@@@@@@@@@@@@@@@++++@@@....                  ",
"                  XXXX@@@++++@@@@@@@@@@@@@@@@@@@@@@++++@@@....                  ",
"                  XXXX@@@++++@@@@@@@@@@@@@@@@@@@@@@++++@@@....                  ",
"               ...&&&&%%%....++++@@@@@@@@@@@@@@++++....%%%&&&&...               ",
"               ...&&&&%%%....++++@@@@@@@@@@@@@@++++....%%%&&&&...               ",
"               ...&&&&%%%....++++@@@@@@@@@@@@@@++++....%%%&&&&...               ",
"               ...&&&&%%%....++++@@@@@@@@@@@@@@++++....%%%&&&&...               ",
"               ...%%%%%%%....ooooooo********ooooooo....%%%%%%%...               ",
"               ...%%%%%%%....ooooooo********ooooooo....%%%%%%%...               ",
"               ...%%%%%%%....ooooooo********ooooooo....%%%%%%%...               ",
"                  ...........++++++++++++++++++++++...........                  ",
"                  ...........++++++++++++++++++++++...........                  ",
"                  ...........++++++++++++++++++++++...........                  ",
"                  ...........++++++++++++++++++++++...........                  ",
"                         ....$$$$###........###$$$$....                         ",
"                         ....$$$$###........###$$$$....                         ",
"                         ....$$$$###........###$$$$....                         ",
"                         ....OOOOOOO........OOOOOOO....                         ",
"                         ....OOOOOOO........OOOOOOO....                         ",
"                         ....OOOOOOO........OOOOOOO....                         ",
"                         ....OOOOOOO........OOOOOOO....                         ",
"                             .......        .......                             ",
"                             .......        .......                             ",
"                             .......        .......                             ",
"                             .......        .......                             ",
"                                                                                ",
"                                                                                ",
"                                                                                ",
"                                                                                ",
"                                                                                ",
"                                                                                ",
"                                                                                "
};
