/* XPM */
static char *character_right_3_CgOgt[] = {
/* columns rows colors chars-per-pixel */
"40 40 9 1 ",
"  c black",
". c #321A12",
"X c #5E3821",
"o c #801A1A",
"O c #C42A2A",
"+ c #BEA37F",
"@ c #585896",
"# c #EDD6B0",
"$ c None",
/* pixels */
"$$$$$$$$$$$$$$$$$$$$$$$$$..$$$$$$$$$$$$$",
"$$$$$$$$$$$$$$$$$$$$$$$$$..$$$$$$$$$$$$$",
"$$$$$$$$$$$$$$$..........XX  $$$$$$$$$$$",
"$$$$$$$$$$$$$$$..........XX  $$$$$$$$$$$",
"$$$$$$$$$$$....XXXXXXXXXX    $$$$$$$$$$$",
"$$$$$$$$$$$....XXXXXXXXXX    $$$$$$$$$$$",
"$$$$$$$$$$.XXXXXXXXXXXXXXXXXX $$$$$$$$$$",
"$$$$$$$$$$.XXXXXXXXXXXXXXXXXX $$$$$$$$$$",
"$$$$$$$$$$.XXXXXXXXXXXX...... $$$$$$$$$$",
"$$$$$$$$$$.XXXXXXXXXXXX...... $$$$$$$$$$",
"$$$$$$$$..XXXXXXXXX....++++++.  $$$$$$$$",
"$$$$$$$$..XXXXXXX..++++######+  $$$$$$$$",
"$$$$$$$$..XXXXXXX..++++######+  $$$$$$$$",
"$$$$$$$$..XXXXX....###########  $$$$$$$$",
"$$$$$$$$..XXXXX....###########  $$$$$$$$",
"$$$$$$$$  .XXXX..++####  #####  $$$$$$$$",
"$$$$$$$$  .XXXX..++####  #####  $$$$$$$$",
"$$$$$$$$$$ ......++####  #### $$$$$$$$$$",
"$$$$$$$$$$ ......++####  #### $$$$$$$$$$",
"$$$$$$$$$$ ++....++########## $$$$$$$$$$",
"$$$$$$$$$$ ++....++########## $$$$$$$$$$",
"$$$$$$$$$$$  ++++++++######  $$$$$$$$$$$",
"$$$$$$$$$$$  ++++++++######  $$$$$$$$$$$",
"$$$$$$$$$$$$$    ooOO++    $$$$$$$$$$$$$",
"$$$$$$$$$$$$$    ooOO++    $$$$$$$$$$$$$",
"$$$$$$$$$$$$$  ooOOOO  ++##  $$$$$$$$$$$",
"$$$$$$$$$$$$$  ooOOOO  ++##  $$$$$$$$$$$",
"$$$$$$$$$$$    OOOOOO  ####  $$$$$$$$$$$",
"$$$$$$$$$$$    OOOOOO  ####  $$$$$$$$$$$",
"$$$$$$$$$$$    ........    $$$$$$$$$$$$$",
"$$$$$$$$$$$$$  oooooooo    $$$$$$$$$$$$$",
"$$$$$$$$$$$$$  oooooooo    $$$$$$$$$$$$$",
"$$$$$$$$$$$  ..@@@@    ....  $$$$$$$$$$$",
"$$$$$$$$$$$  ..@@@@    ....  $$$$$$$$$$$",
"$$$$$$$$$$$  ....      ....  $$$$$$$$$$$",
"$$$$$$$$$$$  ....      ....  $$$$$$$$$$$",
"$$$$$$$$$$$$$    $$$$$$    $$$$$$$$$$$$$",
"$$$$$$$$$$$$$    $$$$$$    $$$$$$$$$$$$$",
"$$$$$$$$$$$$$$$$$$$$$$$$$$$$$$$$$$$$$$$$",
"$$$$$$$$$$$$$$$$$$$$$$$$$$$$$$$$$$$$$$$$"
};
