/* XPM */
static char *character_left_2_ZhOVW[] = {
/* columns rows colors chars-per-pixel */
"40 40 11 1 ",
"  c black",
". c #321A12",
"X c #5E3821",
"o c #801A1A",
"O c #C42A2A",
"+ c #BEA37F",
"@ c #585896",
"# c #467EB8",
"$ c #EDD6B0",
"% c white",
"& c None",
/* pixels */
"&&&&&&&&&&&&&&&&&....&&&&&&&&&&&&&&&&&&&",
"&&&&&&&&&&&&&&&&&....&&&&&&&&&&&&&&&&&&&",
"&&&&&&&&&&&&&&&..XXXX....&&&&&&&&&&&&&&&",
"&&&&&&&&&&&&&&&..XXXX....&&&&&&&&&&&&&&&",
"&&&&&&&&&&&....XXXX..  XX....&&&&&&&&&&&",
"&&&&&&&&&&&....XXXX..  XX....&&&&&&&&&&&",
"&&&&&&&&&&.XXXXXXXXXX....XXXX.&&&&&&&&&&",
"&&&&&&&&&&.XXXXXXXXXX....XXXX.&&&&&&&&&&",
"&&&&&&&&&&.....XXXXXX    ..XX.&&&&&&&&&&",
"&&&&&&&&&&.....XXXXXX    ..XX.&&&&&&&&&&",
"&&&&&&&&  .++++      ....XXXX.  &&&&&&&&",
"&&&&&&&&  +$$$$$$++++..XXXX...  &&&&&&&&",
"&&&&&&&&  +$$$$$$++++..XXXX...  &&&&&&&&",
"&&&&&&&&  $$$$$$$$$$$....XX...  &&&&&&&&",
"&&&&&&&&  $$$$$$$$$$$....XX...  &&&&&&&&",
"&&&&&&&&  $$$$$  $$$$++.......  &&&&&&&&",
"&&&&&&&&  $$$$$  $$$$++.......  &&&&&&&&",
"&&&&&&&&&& $$$$  $$$$++...... &&&&&&&&&&",
"&&&&&&&&&& $$$$  $$$$++...... &&&&&&&&&&",
"&&&&&&&&&& $$$$$$$$$$++....++ &&&&&&&&&&",
"&&&&&&&&&& $$$$$$$$$$++....++ &&&&&&&&&&",
"&&&&&&&&&&&  $$$$$$++++++++  &&&&&&&&&&&",
"&&&&&&&&&&&  $$$$$$++++++++  &&&&&&&&&&&",
"&&&&&&&&&&&&&  ++++ooOO    &&&&&&&&&&&&&",
"&&&&&&&&&&&&&  ++++ooOO    &&&&&&&&&&&&&",
"&&&&&&&&&&&&&  OOOOOO      &&&&&&&&&&&&&",
"&&&&&&&&&&&&&  OOOOOO      &&&&&&&&&&&&&",
"&&&&&&&&&&&&&  OOOO  $$++  &&&&&&&&&&&&&",
"&&&&&&&&&&&&&  OOOO  $$++  &&&&&&&&&&&&&",
"&&&&&&&&&&&&&  %%..  $$$$  &&&&&&&&&&&&&",
"&&&&&&&&&&&  ##oooooo      &&&&&&&&&&&&&",
"&&&&&&&&&&&  ##oooooo      &&&&&&&&&&&&&",
"&&&&&&&&&& XXXX@@@@  @@@@..  &&&&&&&&&&&",
"&&&&&&&&&& XXXX@@@@  @@@@..  &&&&&&&&&&&",
"&&&&&&&&&& XXXX..      ....  &&&&&&&&&&&",
"&&&&&&&&&& XXXX..      ....  &&&&&&&&&&&",
"&&&&&&&&&&&      &&&&&&    &&&&&&&&&&&&&",
"&&&&&&&&&&&      &&&&&&    &&&&&&&&&&&&&",
"&&&&&&&&&&&&&&&&&&&&&&&&&&&&&&&&&&&&&&&&",
"&&&&&&&&&&&&&&&&&&&&&&&&&&&&&&&&&&&&&&&&"
};
