/* XPM */
static char *character_left_3_nSCZF[] = {
/* columns rows colors chars-per-pixel */
"40 40 9 1 ",
"  c black",
". c #321A12",
"X c #5E3821",
"o c #801A1A",
"O c #C42A2A",
"+ c #BEA37F",
"@ c #585896",
"# c #EDD6B0",
"$ c None",
/* pixels */
"$$$$$$$$$$$$$$$$$....$$$$$$$$$$$$$$$$$$$",
"$$$$$$$$$$$$$$$$$....$$$$$$$$$$$$$$$$$$$",
"$$$$$$$$$$$$$$$..XXXX....$$$$$$$$$$$$$$$",
"$$$$$$$$$$$$$$$..XXXX....$$$$$$$$$$$$$$$",
"$$$$$$$$$$$....XXXX..  XX....$$$$$$$$$$$",
"$$$$$$$$$$$....XXXX..  XX....$$$$$$$$$$$",
"$$$$$$$$$$.XXXXXXXXXX....XXXX.$$$$$$$$$$",
"$$$$$$$$$$.XXXXXXXXXX....XXXX.$$$$$$$$$$",
"$$$$$$$$$$.....XXXXXX    ..XX.$$$$$$$$$$",
"$$$$$$$$$$.....XXXXXX    ..XX.$$$$$$$$$$",
"$$$$$$$$  .++++      ....XXXX.  $$$$$$$$",
"$$$$$$$$  +######++++..XXXX...  $$$$$$$$",
"$$$$$$$$  +######++++..XXXX...  $$$$$$$$",
"$$$$$$$$  ###########....XX...  $$$$$$$$",
"$$$$$$$$  ###########....XX...  $$$$$$$$",
"$$$$$$$$  #####  ####++.......  $$$$$$$$",
"$$$$$$$$  #####  ####++.......  $$$$$$$$",
"$$$$$$$$$$ ####  ####++...... $$$$$$$$$$",
"$$$$$$$$$$ ####  ####++...... $$$$$$$$$$",
"$$$$$$$$$$ ##########++....++ $$$$$$$$$$",
"$$$$$$$$$$ ##########++....++ $$$$$$$$$$",
"$$$$$$$$$$$  ######++++++++  $$$$$$$$$$$",
"$$$$$$$$$$$  ######++++++++  $$$$$$$$$$$",
"$$$$$$$$$$$$$    ++OOoo    $$$$$$$$$$$$$",
"$$$$$$$$$$$$$    ++OOoo    $$$$$$$$$$$$$",
"$$$$$$$$$$$  ##++  OOOOoo  $$$$$$$$$$$$$",
"$$$$$$$$$$$  ##++  OOOOoo  $$$$$$$$$$$$$",
"$$$$$$$$$$$  ####  OOOOOO    $$$$$$$$$$$",
"$$$$$$$$$$$  ####  OOOOOO    $$$$$$$$$$$",
"$$$$$$$$$$$$$    ........    $$$$$$$$$$$",
"$$$$$$$$$$$$$    oooooooo  $$$$$$$$$$$$$",
"$$$$$$$$$$$$$    oooooooo  $$$$$$$$$$$$$",
"$$$$$$$$$$$  ....    @@@@..  $$$$$$$$$$$",
"$$$$$$$$$$$  ....    @@@@..  $$$$$$$$$$$",
"$$$$$$$$$$$  ....      ....  $$$$$$$$$$$",
"$$$$$$$$$$$  ....      ....  $$$$$$$$$$$",
"$$$$$$$$$$$$$    $$$$$$    $$$$$$$$$$$$$",
"$$$$$$$$$$$$$    $$$$$$    $$$$$$$$$$$$$",
"$$$$$$$$$$$$$$$$$$$$$$$$$$$$$$$$$$$$$$$$",
"$$$$$$$$$$$$$$$$$$$$$$$$$$$$$$$$$$$$$$$$"
};
