/* XPM */
static char *character_top_2_iV4ck[] = {
/* columns rows colors chars-per-pixel */
"40 40 11 1 ",
"  c black",
". c #321A12",
"X c #5C0606",
"o c #5E3821",
"O c #801A1A",
"+ c #C42A2A",
"@ c #BEA37F",
"# c #585896",
"$ c #467EB8",
"% c #EDD6B0",
"& c None",
/* pixels */
"&&&&&&&&&&&&&&&...&&&&&&&&&&&&&&&&&&&&&&",
"&&&&&&&&&&&&&&&...&&&&&&&&&&&&&&&&&&&&&&",
"&&&&&&&&&......ooo    ...&&&&&&&&&&&&&&&",
"&&&&&&&&&......ooo    ...&&&&&&&&&&&&&&&",
"&&&&&&&..oooo..   ooooooo....&&&&&&&&&&&",
"&&&&&&&&&  ..oooooooooooooooo..&&&&&&&&&",
"&&&&&&&&&  ..oooooooooooooooo..&&&&&&&&&",
"&&&&&&&..oooooooooooooooooooo..&&&&&&&&&",
"&&&&&&&..oooooooooooooooooooo..&&&&&&&&&",
"&&&&&..oooooooooooooooooooooo..  &&&&&&&",
"&&&&&..oooooooooooooooooooooo..  &&&&&&&",
"&&&&&....oooooooooooooooooo....  &&&&&&&",
"&&&&&....oooooooooooooooooo....  &&&&&&&",
"&&&&&&&  ..oooooooooooooooo....  &&&&&&&",
"&&&&&&&  ..oooooooooooooooo....  &&&&&&&",
"&&&&&&&  ......ooooooooo.......  &&&&&&&",
"&&&&&&&&&  ..................  &&&&&&&&&",
"&&&&&&&&&  ..................  &&&&&&&&&",
"&&&&&&&&&  @@..............@@  &&&&&&&&&",
"&&&&&&&&&  @@..............@@  &&&&&&&&&",
"&&&&&&&&&&&  @@%........%@@  &&&&&&&&&&&",
"&&&&&&&&&&&  @@%........%@@  &&&&&&&&&&&",
"&&&&&&&&&XX+++++@@%%%%@@+++++  &&&&&&&&&",
"&&&&&&&&&XX+++++@@%%%%@@+++++  &&&&&&&&&",
"&&&&&&&&&  @@  +++++++++O++++  &&&&&&&&&",
"&&&&&&&&&&&    O++++++++ @@%%  &&&&&&&&&",
"&&&&&&&&&&&    O++++++++ @@%%  &&&&&&&&&",
"&&&&&&&&&&&&&  ......... @@@@  &&&&&&&&&",
"&&&&&&&&&&&&&  ......... @@@@  &&&&&&&&&",
"&&&&&&&&&&&&&  OOOOOOOOOO    &&&&&&&&&&&",
"&&&&&&&&&&&&&  OOOOOOOOOO    &&&&&&&&&&&",
"&&&&&&&&&&&&&  $##    ...  &&&&&&&&&&&&&",
"&&&&&&&&&&&&&  $##    ...  &&&&&&&&&&&&&",
"&&&&&&&&&&&&&  ooo  &&   &&&&&&&&&&&&&&&",
"&&&&&&&&&&&&&  ooo  &&   &&&&&&&&&&&&&&&",
"&&&&&&&&&&&&&&&   &&&&&&&&&&&&&&&&&&&&&&",
"&&&&&&&&&&&&&&&&&&&&&&&&&&&&&&&&&&&&&&&&",
"&&&&&&&&&&&&&&&&&&&&&&&&&&&&&&&&&&&&&&&&",
"&&&&&&&&&&&&&&&&&&&&&&&&&&&&&&&&&&&&&&&&",
"&&&&&&&&&&&&&&&&&&&&&&&&&&&&&&&&&&&&&&&&"
};
