/* XPM */
static char *ddd31af435ab4801985261db4d489e1bzkwrzfl6Y4Vu3EZn[] = {
/* columns rows colors chars-per-pixel */
"80 80 12 1 ",
"  c None",
". c black",
"X c #321A12",
"o c #5C0606",
"O c #5E3821",
"+ c #801A1A",
"@ c #C42A2A",
"# c #BEA37F",
"$ c #585896",
"% c #467EB8",
"& c #EDD6B0",
"* c white",
/* pixels */
"                                            XXXXXXX                             ",
"                                            XXXXXXX                             ",
"                                            XXXXXXX                             ",
"                                            XXXXXXX                             ",
"                             XXXXXXXXXXXXXXXOOOOOOOXXXXXXX....                  ",
"                             XXXXXXXXXXXXXXXOOOOOOOXXXXXXX....                  ",
"                             XXXXXXXXXXXXXXXOOOOOOOXXXXXXX....                  ",
"                      XXXXXXXOOOOOOOOOOOOOOOXXX....OOOOOOOOOOO...               ",
"                      XXXXXXXOOOOOOOOOOOOOOOXXX....OOOOOOOOOOO...               ",
"                      XXXXXXXOOOOOOOOOOOOOOOXXX....OOOOOOOOOOO...               ",
"                      XXXXXXXOOOOOOOOOOOOOOOXXX....OOOOOOOOOOO...               ",
"                  XXXXOOOOOOOOOOOOOOOOOOOOOOOOOOOOOOOOOXXX....                  ",
"                  XXXXOOOOOOOOOOOOOOOOOOOOOOOOOOOOOOOOOXXX....                  ",
"                  XXXXOOOOOOOOOOOOOOOOOOOOOOOOOOOOOOOOOXXX....                  ",
"                  XXXXOOOOOOOOOOOOOOOOOOOOOOOOOOOOOOOOOXXX....                  ",
"                  XXXXOOOOOOOXXXXXXXXXXXXXXXXXXOOOOOOOOOOOXXXX...               ",
"                  XXXXOOOOOOOXXXXXXXXXXXXXXXXXXOOOOOOOOOOOXXXX...               ",
"                  XXXXOOOOOOOXXXXXXXXXXXXXXXXXXOOOOOOOOOOOXXXX...               ",
"               XXXOOOOXXXXXXX##################XXXXXXXXXXXXXXXXXX....           ",
"               XXXOOOOXXXXXXX##################XXXXXXXXXXXXXXXXXX....           ",
"               XXXOOOOXXXXXXX##################XXXXXXXXXXXXXXXXXX....           ",
"               XXXOOOOXXXXXXX##################XXXXXXXXXXXXXXXXXX....           ",
"               XXXXXXX#######&&&&&&&&&&&&&&&&&&########XXXXXXXXXX....           ",
"               XXXXXXX#######&&&&&&&&&&&&&&&&&&########XXXXXXXXXX....           ",
"               XXXXXXX#######&&&&&&&&&&&&&&&&&&########XXXXXXXXXX....           ",
"               ...XXXX###&&&&&&&&&&&&&&&&&&&&&&&&&&&&&&###.......               ",
"               ...XXXX###&&&&&&&&&&&&&&&&&&&&&&&&&&&&&&###.......               ",
"               ...XXXX###&&&&&&&&&&&&&&&&&&&&&&&&&&&&&&###.......               ",
"               ...XXXX###&&&&&&&&&&&&&&&&&&&&&&&&&&&&&&###.......               ",
"               ...####&&&&&&&....&&&&&&&&&&&&&&....&&&&&&&####...               ",
"               ...####&&&&&&&....&&&&&&&&&&&&&&....&&&&&&&####...               ",
"               ...####&&&&&&&....&&&&&&&&&&&&&&....&&&&&&&####...               ",
"               ...####&&&&&&&....&&&&&&&&&&&&&&....&&&&&&&####...               ",
"                  ....&&&&&&&....&&&&&&&&&&&&&&....&&&&&&&....                  ",
"                  ....&&&&&&&....&&&&&&&&&&&&&&....&&&&&&&....                  ",
"                  ....&&&&&&&....&&&&&&&&&&&&&&....&&&&&&&....                  ",
"                  ....###&&&&&&&&&&&&&&&&&&&&&&&&&&&&&&###....                  ",
"                  ....###&&&&&&&&&&&&&&&&&&&&&&&&&&&&&&###....                  ",
"                  ....###&&&&&&&&&&&&&&&&&&&&&&&&&&&&&&###....                  ",
"                  ....###&&&&&&&&&&&&&&&&&&&&&&&&&&&&&&###....                  ",
"                      ...####&&&&&&&&&&&&&&&&&&&&&&####...                      ",
"                      ...####&&&&&&&&&&&&&&&&&&&&&&####...                      ",
"                      ...####&&&&&&&&&&&&&&&&&&&&&&####...                      ",
"                      ...####&&&&&&&&&&&&&&&&&&&&&&####...                      ",
"                  oooo@@@@@@@@@@@###&&&&&&&&###@@@@@@@@@@@....                  ",
"                  oooo@@@@@@@@@@@###&&&&&&&&###@@@@@@@@@@@....                  ",
"                  oooo@@@@@@@@@@@###&&&&&&&&###@@@@@@@@@@@....                  ",
"                  oooo@@@++++@@@@@@@@@@@@@@@@@@@@@@++++@@@....                  ",
"                  oooo@@@++++@@@@@@@@@@@@@@@@@@@@@@++++@@@....                  ",
"                  oooo@@@++++@@@@@@@@@@@@@@@@@@@@@@++++@@@....                  ",
"                  oooo@@@++++@@@@@@@@@@@@@@@@@@@@@@++++@@@....                  ",
"               ...&&&&###....++++@@@@@@@@@@@@@@++++....###&&&&...               ",
"               ...&&&&###....++++@@@@@@@@@@@@@@++++....###&&&&...               ",
"               ...&&&&###....++++@@@@@@@@@@@@@@++++....###&&&&...               ",
"               ...&&&&###....++++@@@@@@@@@@@@@@++++....###&&&&...               ",
"               ...#######....XXXXXXX********XXXXXXX....#######...               ",
"               ...#######....XXXXXXX********XXXXXXX....#######...               ",
"               ...#######....XXXXXXX********XXXXXXX....#######...               ",
"                  ...........++++++++++++++++++++++...........                  ",
"                  ...........++++++++++++++++++++++...........                  ",
"                  ...........++++++++++++++++++++++...........                  ",
"                  ...........++++++++++++++++++++++...........                  ",
"                         ....%%%%$$$........$$$%%%%....                         ",
"                         ....%%%%$$$........$$$%%%%....                         ",
"                         ....%%%%$$$........$$$%%%%....                         ",
"                         ....OOOOOOO........OOOOOOO....                         ",
"                         ....OOOOOOO........OOOOOOO....                         ",
"                         ....OOOOOOO........OOOOOOO....                         ",
"                         ....OOOOOOO........OOOOOOO....                         ",
"                             .......        .......                             ",
"                             .......        .......                             ",
"                             .......        .......                             ",
"                             .......        .......                             ",
"                                                                                ",
"                                                                                ",
"                                                                                ",
"                                                                                ",
"                                                                                ",
"                                                                                ",
"                                                                                "
};
