/* XPM */
static char *character_down_2_EyyBH[] = {
/* columns rows colors chars-per-pixel */
"40 40 12 1 ",
"  c black",
". c #321A12",
"X c #5C0606",
"o c #5E3821",
"O c #801A1A",
"+ c #C42A2A",
"@ c #BEA37F",
"# c #585896",
"$ c #467EB8",
"% c #EDD6B0",
"& c white",
"* c None",
/* pixels */
"***********************....*************",
"***********************....*************",
"***************........oooo...  ********",
"***************........oooo...  ********",
"***********....oooooooo..  ooooo  ******",
"***********....oooooooo..  ooooo  ******",
"**********.oooooooooooooooooo.  ********",
"**********.oooooooooooooooooo.  ********",
"**********.oooo..........ooooo..  ******",
"**********.oooo..........ooooo..  ******",
"********..o....@@@@@@@@@@.........  ****",
"********...@@@@%%%%%%%%%%@@@@.....  ****",
"********...@@@@%%%%%%%%%%@@@@.....  ****",
"********  .@@%%%%%%%%%%%%%%%%@    ******",
"********  .@@%%%%%%%%%%%%%%%%@    ******",
"********  @%%%%  %%%%%%%%  %%%@@  ******",
"********  @%%%%  %%%%%%%%  %%%@@  ******",
"********** %%%%  %%%%%%%%  %%%  ********",
"********** %%%%  %%%%%%%%  %%%  ********",
"********** @@%%%%%%%%%%%%%%%%@  ********",
"********** @@%%%%%%%%%%%%%%%%@  ********",
"***********  @@%%%%%%%%%%%%@@ **********",
"***********  @@%%%%%%%%%%%%@@ **********",
"**********X++++++@@%%%%@@+++++  ********",
"**********X++++++@@%%%%@@+++++  ********",
"**********X++++OO++++++++++  @  ********",
"**********X++++OO++++++++++  @  ********",
"********** %%@@  ++++++++OO   **********",
"********** %%@@  ++++++++OO   **********",
"********** @@@@  ..&&&&....  ***********",
"***********    OOOOOOOOOOOO  ***********",
"***********    OOOOOOOOOOOO  ***********",
"*************  ....    ##$$  ***********",
"*************  ....    ##$$  ***********",
"***************    **  oooo  ***********",
"***************    **  oooo  ***********",
"***********************    *************",
"***********************    *************",
"****************************************",
"****************************************"
};
