/* XPM */
static char *character_right_2_r2FlS[] = {
/* columns rows colors chars-per-pixel */
"40 40 11 1 ",
"  c black",
". c #321A12",
"X c #5E3821",
"o c #801A1A",
"O c #C42A2A",
"+ c #BEA37F",
"@ c #585896",
"# c #467EB8",
"$ c #EDD6B0",
"% c white",
"& c None",
/* pixels */
"&&&&&&&&&&&&&&&&&&&&&&&&&..&&&&&&&&&&&&&",
"&&&&&&&&&&&&&&&&&&&&&&&&&..&&&&&&&&&&&&&",
"&&&&&&&&&&&&&&&..........XX  &&&&&&&&&&&",
"&&&&&&&&&&&&&&&..........XX  &&&&&&&&&&&",
"&&&&&&&&&&&....XXXXXXXXXX    &&&&&&&&&&&",
"&&&&&&&&&&&....XXXXXXXXXX    &&&&&&&&&&&",
"&&&&&&&&&&.XXXXXXXXXXXXXXXXXX &&&&&&&&&&",
"&&&&&&&&&&.XXXXXXXXXXXXXXXXXX &&&&&&&&&&",
"&&&&&&&&&&.XXXXXXXXXXXX...... &&&&&&&&&&",
"&&&&&&&&&&.XXXXXXXXXXXX...... &&&&&&&&&&",
"&&&&&&&&..XXXXXXXXX....++++++.  &&&&&&&&",
"&&&&&&&&..XXXXXXX..++++$$$$$$+  &&&&&&&&",
"&&&&&&&&..XXXXXXX..++++$$$$$$+  &&&&&&&&",
"&&&&&&&&..XXXXX....$$$$$$$$$$$  &&&&&&&&",
"&&&&&&&&..XXXXX....$$$$$$$$$$$  &&&&&&&&",
"&&&&&&&&  .XXXX..++$$$$  $$$$$  &&&&&&&&",
"&&&&&&&&  .XXXX..++$$$$  $$$$$  &&&&&&&&",
"&&&&&&&&&& ......++$$$$  $$$$ &&&&&&&&&&",
"&&&&&&&&&& ......++$$$$  $$$$ &&&&&&&&&&",
"&&&&&&&&&& ++....++$$$$$$$$$$ &&&&&&&&&&",
"&&&&&&&&&& ++....++$$$$$$$$$$ &&&&&&&&&&",
"&&&&&&&&&&&  ++++++++$$$$$$  &&&&&&&&&&&",
"&&&&&&&&&&&  ++++++++$$$$$$  &&&&&&&&&&&",
"&&&&&&&&&&&&&    ooOO++    &&&&&&&&&&&&&",
"&&&&&&&&&&&&&    ooOO++    &&&&&&&&&&&&&",
"&&&&&&&&&&&&&    OOOOOOOO    &&&&&&&&&&&",
"&&&&&&&&&&&&&    OOOOOOOO    &&&&&&&&&&&",
"&&&&&&&&&&&  ++$$  OOOOOO    &&&&&&&&&&&",
"&&&&&&&&&&&  ++$$  OOOOOO    &&&&&&&&&&&",
"&&&&&&&&&&&  $$$$  ....%%  &&&&&&&&&&&&&",
"&&&&&&&&&&&&&    oooooooo##  &&&&&&&&&&&",
"&&&&&&&&&&&&&    oooooooo##  &&&&&&&&&&&",
"&&&&&&&&&&&  ..@@@@  @@@@XXXX &&&&&&&&&&",
"&&&&&&&&&&&  ..@@@@  @@@@XXXX &&&&&&&&&&",
"&&&&&&&&&&&  ....      ..XXXX &&&&&&&&&&",
"&&&&&&&&&&&  ....      ..XXXX &&&&&&&&&&",
"&&&&&&&&&&&&&    &&&&&&      &&&&&&&&&&&",
"&&&&&&&&&&&&&    &&&&&&      &&&&&&&&&&&",
"&&&&&&&&&&&&&&&&&&&&&&&&&&&&&&&&&&&&&&&&",
"&&&&&&&&&&&&&&&&&&&&&&&&&&&&&&&&&&&&&&&&"
};
