/* XPM */
static char *character_down_3_OHOEz[] = {
/* columns rows colors chars-per-pixel */
"40 40 12 1 ",
"  c gray9",
". c #681C1C",
"X c #432E27",
"o c #6A4834",
"O c #882E2E",
"+ c #C43C3C",
"@ c #65659B",
"# c #5586B9",
"$ c #BFA787",
"% c #E8D4B2",
"& c #F8F8F8",
"* c None",
/* pixels */
"*********************XXXX***************",
"*********************XXXX***************",
"*************XXXXXXXXooooXXXX **********",
"*************XXXXXXXXooooXXXX **********",
"**********XXXooooooooXX  ooooo  ********",
"**********XXXooooooooXX  ooooo  ********",
"********XXoooooooooooooooooXX **********",
"********XXoooooooooooooooooXX **********",
"********XXoooXXXXXXXXXXooooooX  ********",
"********XXoooXXXXXXXXXXooooooX  ********",
"******XXooXXX$$$$$$$$$$XXXXXXXXX  ******",
"******XXXX$$$%%%%%%%%%%$$$$XXXXX  ******",
"******XXXX$$$%%%%%%%%%%$$$$XXXXX  ******",
"******  XX$%%%%%%%%%%%%%%%%$$   ********",
"******  XX$%%%%%%%%%%%%%%%%$$   ********",
"******  $$%%%  %%%%%%%%  %%%%$  ********",
"******  $$%%%  %%%%%%%%  %%%%$  ********",
"********  %%%  %%%%%%%%  %%%% **********",
"********  %%%  %%%%%%%%  %%%% **********",
"********  $%%%%%%%%%%%%%%%%$$ **********",
"********  $%%%%%%%%%%%%%%%%$$ **********",
"********** $$%%%%%%%%%%%%$$  ***********",
"********** $$%%%%%%%%%%%%$$  ***********",
"********..+++++$$%%%%$$++++++ **********",
"********..+++++$$%%%%$$++++++ **********",
"********  $  ++++++++++OO++++ **********",
"********  $  ++++++++++OO++++ **********",
"**********   OO++++++++  $$%% **********",
"**********   OO++++++++  $$%% **********",
"***********  XXXX&&&&XX  $$$$ **********",
"***********  OOOOOOOOOOOO    ***********",
"***********  OOOOOOOOOOOO    ***********",
"***********  ##@@    XXXX  *************",
"***********  ##@@    XXXX  *************",
"***********  oooo  **    ***************",
"***********  oooo  **    ***************",
"*************    ***********************",
"*************    ***********************",
"****************************************",
"****************************************"
};
