/* XPM */
static char *character_top_1_dxz0u[] = {
/* columns rows colors chars-per-pixel */
"40 40 11 1 ",
"  c black",
". c #321A12",
"X c #5C0606",
"o c #5E3821",
"O c #801A1A",
"+ c #C42A2A",
"@ c #BEA37F",
"# c #585896",
"$ c #467EB8",
"% c #EDD6B0",
"& c None",
/* pixels */
"&&&&&&&&&&&&&&...&&&&&&&&&&&&&&&&&&&&&&&",
"&&&&&&&&&&&&&&...&&&&&&&&&&&&&&&&&&&&&&&",
"&&&&&&&&&.....ooo    ...&&&&&&&&&&&&&&&&",
"&&&&&&&..ooo..   ooooooo....&&&&&&&&&&&&",
"&&&&&&&..ooo..   ooooooo....&&&&&&&&&&&&",
"&&&&&&&&& ..oooooooooooooooo..&&&&&&&&&&",
"&&&&&&&&& ..oooooooooooooooo..&&&&&&&&&&",
"&&&&&&&..ooooooooooooooooooo..&&&&&&&&&&",
"&&&&&&&..ooooooooooooooooooo..&&&&&&&&&&",
"&&&&&..ooooooooooooooooooooo.. &&&&&&&&&",
"&&&&&....ooooooooooooooooo.... &&&&&&&&&",
"&&&&&....ooooooooooooooooo.... &&&&&&&&&",
"&&&&&&&  .oooooooooooooooo.... &&&&&&&&&",
"&&&&&&&  .oooooooooooooooo.... &&&&&&&&&",
"&&&&&&&  .....ooooooooo....... &&&&&&&&&",
"&&&&&&&  .....ooooooooo....... &&&&&&&&&",
"&&&&&&&&& ..................  &&&&&&&&&&",
"&&&&&&&&& @@..............@@  &&&&&&&&&&",
"&&&&&&&&& @@..............@@  &&&&&&&&&&",
"&&&&&&&&&&  @@%%.......%@@  &&&&&&&&&&&&",
"&&&&&&&&&&  @@%%.......%@@  &&&&&&&&&&&&",
"&&&&&&&&&X++++++@%%%%@@+++++  &&&&&&&&&&",
"&&&&&&&&&X++++++@%%%%@@+++++  &&&&&&&&&&",
"&&&&&&&&&X++OO++++++++++OO++  &&&&&&&&&&",
"&&&&&&&  %@@  OO+++++++O  @@%% &&&&&&&&&",
"&&&&&&&  %@@  OO+++++++O  @@%% &&&&&&&&&",
"&&&&&&&  @@@  ..........  @@@@ &&&&&&&&&",
"&&&&&&&  @@@  ..........  @@@@ &&&&&&&&&",
"&&&&&&&&&     OOOOOOOOOO      &&&&&&&&&&",
"&&&&&&&&&     OOOOOOOOOO      &&&&&&&&&&",
"&&&&&&&&&&&&  $$#    ##$  &&&&&&&&&&&&&&",
"&&&&&&&&&&&&  ooo    ooo  &&&&&&&&&&&&&&",
"&&&&&&&&&&&&  ooo    ooo  &&&&&&&&&&&&&&",
"&&&&&&&&&&&&&&   &&&&   &&&&&&&&&&&&&&&&",
"&&&&&&&&&&&&&&   &&&&   &&&&&&&&&&&&&&&&",
"&&&&&&&&&&&&&&&&&&&&&&&&&&&&&&&&&&&&&&&&",
"&&&&&&&&&&&&&&&&&&&&&&&&&&&&&&&&&&&&&&&&",
"&&&&&&&&&&&&&&&&&&&&&&&&&&&&&&&&&&&&&&&&",
"&&&&&&&&&&&&&&&&&&&&&&&&&&&&&&&&&&&&&&&&",
"&&&&&&&&&&&&&&&&&&&&&&&&&&&&&&&&&&&&&&&&"
};
