/* XPM */
static char *exit_cB3o1[] = {
/* columns rows colors chars-per-pixel */
"40 40 23 1 ",
"  c #0B0115",
". c #200A15",
"X c #1C1226",
"o c #46272D",
"O c #0B610F",
"+ c #0B790F",
"@ c #6C483E",
"# c #3F3F51",
"$ c #626B7D",
"% c #8A6B4D",
"& c #0B800F",
"* c #009500",
"= c #009C00",
"- c #00A300",
"; c #00B100",
": c #00CA00",
"> c #00D100",
", c #00D700",
"< c #00DD00",
"1 c #00E400",
"2 c #00F200",
"3 c #00FE00",
"4 c #8A95A0",
/* pixels */
"::::::::::::::::::::::::::::::::::::::::",
"::::::::::::::::::::::::::::::::::::::::",
"::::::::::::::::::::::::::::::::::::::::",
":::::::::::::23:33::::::::::::::**::::::",
"::::::@@:::$$$$$$$$$$$$$$$$$$:::@@::::::",
"::::::@%o:#444444444444444444#:o%@:***-:",
"::::::@%@oo444444444444444444oo@%@:***-:",
"::::::@%@o@oo$$$$$$$$$$$$$$oo@o@%@:***::",
"::::::@%@o@oo.############.oo@o@%@::**::",
"::::::@%@@@oo.############.oo@@@%@::;;::",
"::::::@%@@@oo.            .oo@@@%@::::::",
"::::::@%@@@oo.            .oo@@@%@::::::",
"::::::@%@@@oo.            .oo@@@%@::::::",
"**:::@%@@@@oo.            .oo@@@@%@:::::",
"**:::@%@@@oo.              .oo@@@%@:::::",
";;:*=@%@@@o..              ..o@@@%@:::::",
":::**@%@@@o..              ..o@@@%@:::::",
":::**@%@@ooo.              .ooo@@%@:::::",
"::::@%@@@ooo.              .ooo@@@%@::::",
"::::@%@@@@oo.              .oo@@@@%@::::",
"::::@%@@@@oo.              .oo@@@@%@::::",
"::::@%@@@@.o.              .o.@@@@%@::::",
"::::@%@@@@.o.              .o.@@@@%@::::",
"::::@%@@@@oo.              .oo@@@@%@::::",
"::::@%@o@oo.                .oo@o@%@::::",
":::::@%o@oo.                .oo@o%@:::::",
"::::::o.@oo.                .oo@.o::::::",
":::::::#oo..                ..oo#&::::::",
":::::::#444444444444444444444444#&::::::",
":::::::#$$44444444444444444444$$#&::::::",
":::::::#$$$$$$$$$$$$$$$$$$$$$$$$#&::::::",
":::::::X##$$$$$$$$$$$$$$$$$$$$##X&::::::",
":::::::XX######################XX&::::::",
":::1<:1>&XXXXXXXXXXXXXXXXXXXXXX&&:::::::",
":::32:3,::&&O+&O&&&&&&&&&&&&&&&&::::::::",
"::::,3:::::&&&&OOO&&&&&&&&&&&&::::::::::",
"33::,3:::::::::***::::::::::::::::::::::",
"33::,3:::::::::***::::::::::::::::::::::",
"::::::::::::::::::::::::::::::::::::::::",
"::::::::::::::::::::::::::::::::::::::::"
};
