/* XPM */
static char *ground_2_HroHh[] = {
/* columns rows colors chars-per-pixel */
"40 40 25 1 ",
"  c #200A15",
". c #46272D",
"X c #047A08",
"o c #6C483E",
"O c #8A6B4D",
"+ c #009500",
"@ c #009C00",
"# c #049908",
"$ c #00A300",
"% c #00B100",
"& c #00BD00",
"* c #1F832F",
"= c #00C400",
"- c #00C500",
"; c #02C601",
": c #00C900",
"> c #00CA00",
", c #00D100",
"< c #00D700",
"1 c #00DD00",
"2 c #00E400",
"3 c #00F200",
"4 c #00FE00",
"5 c #1AC522",
"6 c #B6906B",
/* pixels */
">>>>>>>>>>>>>>>>>>>>>>>>>>>>>>>>>>>>>>>>",
">>>>>>>>>>>>>>>>>>>>>>>>>>>>>>>>>>>>>>>>",
">>>>>>>>>>>>>>>>>>>>>>>>>>>>>>>>>>>>>>>>",
">>>>>>>>>>>>>34>44>>>>>>>>>>>>>>++>>>>>>",
">>>>>>>>>>>>>34>44>>>>>>>>>>>>>>++>>>>>>",
">>>>>>>>>>4>>>>4>>>>>>>>>>>>++>+>>>+++$>",
">>>>>>>>>>4>>>>4>>>>>>>>>>>>++>+>>>+++$>",
">>>>>>>>>>>++&>>>>>>>>>>>>>>++>>>>>+++>>",
">>>>>>>>>>>>>>>>>>>>>>>>>>>>>>>>>>>>++>>",
">>>>>>>>>>>>>>>>>>>>>>>>>>>>>>>>>>>>%%>>",
">>>>>>>>>>>>>>>>>>>>>>>>>>>>>>>>>>>>>>>>",
">>>>>>>>>>>>>>>>>>>>ooOOO>>>>>>>>>>>>>>>",
">>>>>>>>>>>>>>>>>>>oOOOOOO>>>>>>>>>>>>>>",
"++>>>>>>>>>>>>>>>>>OOOOO6o.>>>>>>>>>>>>>",
"++>>>>>>>>>>>>>>>>.6666oo.oo>>>>>>>>>>>>",
"%%>+@%+&>>>>>>>>>> .... .OOOO>%+>>>>>>>>",
">>>++++&>>>>>>>>>>.OOOooOOOO6>++>>>>>>>>",
">>>+++>>>>>>>>>>>>o666..666ooX+>>>>>>>>>",
">>>>&+>>>>>>>>>>>>  oo5 .o.5 X>>>>>>>>>>",
">>>>-%>>>>>>>>>>>>  . * 5..*XX>>>>>>>>>>",
">>>oo>>>>>>>>>>>>>>XXXXX*XXXX>>>>>>>>>>>",
">>.6OOo>>>>>>>>OOoo>>>>>>>>>>>>>>>>>>>>>",
">> .oo.<44>>>3oOOO6O>>>>o>>>>>>>>>>>>>>>",
">>>X  ##44>444 oOOOOo>>OOo>>>>>>>>>>>>>>",
">>>>>X#444>444..o6OOo>.6o.->>>>>>>>>>>>>",
">>>>>>>1>>%%2*  o.oo5>X .X->>>>>>>>>>>>>",
">>>>>>>>>>++>>      X>>>>>>>>>>>>>>>>>>>",
">>>>>>>>>>%+>>>>XXXX>>>>>>>>>>>>>>>>>>>>",
">>>>>>oOo>>>>>>>>>>>>>>>>>>>>>4>>>>>>>>>",
">>>>>oO6.>>>>>>>>>>>>>>>>>>>>>4>>>>>>>>>",
">>>>> o.X>>>>>>>>>>>>>>>>>>>44>>>>>>>>>>",
">>>>>>XX>>>>>>>>>>>>>>>>>4>>44>>>>>>>>>>",
">>>>>>>>>>>>+&>>>>>>>>>>>4>>>>>>>>>>>>>>",
">>>21>2,>>>>+&>%>>>>>>>>>2>>>>>>>>>>>>>>",
">>>43>4<>>>>+&>+>>>>>>>>>>>>>>>>>>>>>>>>",
">>>><4>>>>>>>>>+++>>>>>>>o>>>>>>>>>>>>>>",
"44>><4>>>>>>>>>+++>>>>>>OOo>>>>>>>>>>>>>",
"44>><4>>>>>>>>>+++>>>>>.6o.->>>>>>>>>>>>",
">>>>>>>>>>>>>>>>>>>>>>>X .X->>>>>>>>>>>>",
">>>>>>>>>>>>>>>>>>>>>>>>>>>>>>>>>>>>>>>>"
};
