/* XPM */
static char *ground_2_Xk3H9[] = {
/* columns rows colors chars-per-pixel */
"80 80 36 1 ",
"  c #200A15",
". c #46272D",
"X c #045A08",
"o c #047208",
"O c #047A08",
"+ c #6C483E",
"@ c #8A6B4D",
"# c #048507",
"$ c #009500",
"% c #009C00",
"& c #00A300",
"* c #02A404",
"= c #00A900",
"- c #00B100",
"; c #00B700",
": c #00BD00",
"> c #1F832F",
", c #06C303",
"< c #00C400",
"1 c #00C500",
"2 c #01C600",
"3 c #02C601",
"4 c #00C800",
"5 c #00C900",
"6 c #00CA00",
"7 c #00CB00",
"8 c #00CD00",
"9 c #00D100",
"0 c #00D400",
"q c #00D700",
"w c #00DD00",
"e c #00E400",
"r c #00F200",
"t c #00FE00",
"y c #1AC522",
"u c #B6906B",
/* pixels */
"66666666666666666666++++++666666666666666666666666666666666666666666666666666666",
"66666666666666666+++@@@@@@+66666666666666666666666666666666666666666666666666666",
"6666666666666666+@@@@@@@@@@+6666666666666666666666666666666666666666666666666666",
"666666666666666+@@@@@@@@@@@@+666666666666666666666666666666666666666666666666666",
"66666666666666+@@@@@@@@@@@@u+666666666666666666666666666666666666666666666666666",
"66666666666666+@@@@@@@@@@uu++.66666666666666666666666666666666666666666666666666",
"6666666666666+u@@@@@@@uuu+++. 66eeee66666666666666666666666666666---:66666666666",
"6666666666666.+uuuuuuu++++..+++++ttt66666666666666666666666666666$$$-66666666666",
"6666666666666 .++++++++....+@@@@@+tt66666666666666666666666666666$$$-66666666666",
"6666666666666  .......  ..+@@@@@@@+t66666666666666666666666666666$$$-66666666666",
"6666666666666 .+@@@@+. .++@@@@@@@@+t66666666666666666666666666:$$$$$-6&$$6666&66",
"6666666666666.+@@@@@@+.+@@@@@@@@@u+6666666666666666666666$$$$6:$$66666&$$$$$$&66",
"666666666666.+@@@@@@u+.uu@@@@@@uu+y6666666666666666666666$$$$6:$$66666&$$$$$$&66",
"666666666666.++uuuuu+...+uuuuuu+++>O666666666666666666666$$$$6:$$66666&$$$$$$&66",
"666666666666 ..++++++   .++++++...>O666666666666666666666$$$$6:$$66666&$$$$$$&66",
"666666666666    .+++.y   ..++..y  OOO66666666666666666666$$$$666666666&$$$$$$666",
"6666666666666 y..... y  ..++++.> OOOO66666666666666666666----666666666;--$$$$666",
"6666666666666 > ..>  >   y..y. >OOOOO666666666666666666666666666666666666$$$$666",
"6666666666666O> > >OO>O  >  > OOOOOO6666666666666666666666666666666666666$$$$666",
"66666666666666OO>OOOOOOOO>OO>OOOOOO66666666666666666666666666666666666666----666",
"6666666+++66666666OOOOOOOOOOOOOOO66666666666666666666666666666666666666666666666",
"666666+@@@+++++66666666666666666666666666666666666666666666666666666666666666666",
"66666+@@@@@u++@+6666666666666666666666666666666666666666666666666666666666666666",
"66666+@@@@@@@u+@+66666666++66666666666666666666666666666666666666666666666666666",
"66666+uu@@@@@u+@@+66666++@@+6666666666666666666666666666666666666666666666666666",
"66666 ++u@@@@@@@@+6666+@@@u+6666666666666666666666666666666666666666666666666666",
"6666  .++uu@@@@@@+666+@@@u+.6,66666666666666666666666666666666666666666666666666",
"6$$$y...+++uu@@@u+666.uuu+y.6266666666666666666666666666666666666666666666666666",
"6$$y .....+++uuuu+666 .++.>O#266666666666666666666666666666666666666666666666666",
"6$$>    .++.++++.y666Oy ..OO6266666666666666666666666666666666666666666666666666",
"6$$$  y.... ..y. >O666>OOOO66666666666666666666666666666666666:$$666666666666666",
"6---6 >   y   > OOO666666666666666666666666666666666666666666-=$$666666666666666",
"666666oXXX>XXX>oOOO666666666666666666666666666666666666666666$$$$666666666666666",
"666666:$$XXXXXXoO66666666666666666666666666666666666666666666$$$$666666666666666",
"666666:$$$$$$$$:666666666666666666666666666666666666666666666$$$$666666666666666",
"666666:$$$$$66666666666666666666666666666666666666666666-66++++66666666666666666",
"666666:$$$$$66666666666666666666666666666666666666666666-6+@@@@++666666666666666",
"666666666:$$66666666666666666666666666666666666666666666-.+uu@@@@+66666666666666",
"666666666:$$66666666666666666666666666666666666666666666- .++uuuu+.6666666666666",
"666666666<--66666666666666666666666666666666666666666666: y..++++.y6666666666666",
"666666666666666666666666666666666666666666666666666666666O>  .y.. >6666666666666",
"6666666666666666666666666666666666666666666666666666666666OOO >  OOO666666666666",
"66666666666666666666666666666666666666666666666666666666666OOOOOOOOO666666666666",
"66666666666666666666666666666666666666666666666666666666666666OOOO66666666666666",
"666666666666qqq86qqq6666666qqq666666:6666666666666666666666666666666666666666666",
"666666666666tttq6ttt6666666rtt666666$6666666666666666666666666666666666666666666",
"666666666666tttq6ttt6666666rtt666666$6666666666666666666666666666666666666666666",
"666666666666tttttttt66rttttttt666666$6666666666666666666666666666666666666666666",
"666666666666tttttttt66rttttttt6++666$6666666666666666666666666666666666666666666",
"666666666666tttttttt66rtttttt++@@+66$6666666666666666666666666666666666666666666",
"666666666666666rt6666666ettq+@@@u+6666666666666666666666666666666666666666666666",
"666666666666666we666----6ee+@@@u+.6666666666666666666666666666666666666666666666",
"66666666666666666666$$$$-66.uuu+y.6666666666666666666666666666666666666666666666",
"66666666666666666666$$$$-66 .++.>O*666666666666666666666666666666666666666666666",
"66666666666666666666$$$$-66Oy ..OO6666626666666666666666666666666666666666666666",
"66666666666666666666--%$-666>OOOO66666666666666666666666666666666666666666666666",
"6666666666666666666666&$-6666666666666666666666666666666666666666666666666666666",
"66666666666666666666666666666666666666666666666666666666e6666tr66666666666666666",
"66666666666666666666666666666666666666666666666666666666e6666tr66666666666666666",
"66666666666666666666666666666666666666666666666666666666e6666tr66666666666666666",
"666666666666666666666666666666666666666666666666666666666tttt6666666666666666666",
"666666666666666666666666666666666666666666666666666666666tttt6666666666666666666",
"66666666666666666666666666666666666666666666666666qq96666tttt6666666666666666666",
"66666666666666666666666666666666666666666666666666tte6666tttt6666666666666666666",
"666666666666666666666666<::26666666666666666666666tte6666rrrr6666666666666666666",
"666666666666666666666666-$$:6666666666666666666666tte666666666666666666666666666",
"666666666666666666666666-$$:6666666666666666666666tte666666666666666666666666666",
"6666669eew66eee966666666-$$:68-=6666-6666666666666eeq666666666666666666666666666",
"666666qttr66tttq66666666-$$:66$$6666$6666666666666666666666666666666666666666666",
"666666qttr66tttq66666666-$$:66$$6666$6666666666666666666666666666666666666666666",
"6666668qqwrrqqq8666666662::266$$&&&&$6666666666666666666666666666666666666666666",
"666666666qtt666666666666666666$$$$$$$6666666666666666666666666666666666666666666",
"6ttt66666qtt666666666666666666$$$$$$66666666666666666666666666666666666666666666",
"6ttt66666qtt666666666666666666$$$$$$66666666666666666666666666666666666666666666",
"6ttt66666qtt666666666666666666$$$$$$66666666666666666666666666666666666666666666",
"6ttt66666qtt666666666666666666$$$$$$66666666666666666666666666666666666666666666",
"6ttt6666666666666666666666666666$$$$66666666666666666666666666666666666666666666",
"66666666666666666666666666666666666666666666666666666666666666666666666666666666",
"66666666666666666666666666666666666666666666666666666666666666666666666666666666",
"66666666666666666666666666666666666666666666666666666666666666666666666666666666"
};
