/* XPM */
static char *d4b8dc743de3462fae154cec6c81f58fLPrgZEoEtChgltNM[] = {
/* columns rows colors chars-per-pixel */
"80 80 3 1 ",
"  c #328E41",
". c #35A541",
"X c #3ABE41",
/* pixels */
"................................................................................",
"................................................................................",
"................................................................................",
"................................................................................",
"................................................................................",
"................................................................................",
"................................................................................",
"...........................XXX..XXX..............................  .............",
"...........................XXX..XXX..............................  .............",
"...........................XXX..XXX..............................  .............",
"....................XXXXX..XXXXXXXX...........................     ...  ...  ...",
"....................XXXXX..XXXXXXXX...........................     ...  ...  ...",
"....................XX........XX.........................   ..   .....       ...",
"....................XX........XX.........................   ..   .....       ...",
"....................XX........XX.........................   ..   .....       ...",
"......................     ..............................   ..........     .....",
"......................     ..............................   ..........     .....",
"........................................................................   .....",
"........................................................................   .....",
"........................................................................   .....",
"................................................................................",
"................................................................................",
"................................................................................",
"................................................................................",
"................................................................................",
"................................................................................",
"................................................................................",
"..   ...........................................................................",
"..   ...........................................................................",
"..   ...........................................................................",
"..   ..   ..   ...............................................   ...............",
"..   ..   ..   ...............................................   ...............",
".......        .............................................     ...............",
".......        .............................................     ...............",
".......        .............................................     ...............",
".......     ...........................................  ...  ..................",
".......     ...........................................  ...  ..................",
"..........  ...........................................  .......................",
"..........  ...........................................  .......................",
"..........  ...........................................  .......................",
"................................................................................",
"................................................................................",
"................................................................................",
"................................................................................",
"................................................................................",
"............XXX..XXX.......XXX.....  ...........................................",
"............XXX..XXX.......XXX.....  ...........................................",
"............XXXXXXXX..XXXXXXXX.....  ...........................................",
"............XXXXXXXX..XXXXXXXX.....  ...........................................",
"............XXXXXXXX..XXXXXXXX.....  ...........................................",
"...............XX........XX...XX................................................",
"...............XX........XX...XX................................................",
"....................     .......................................................",
"....................     .......................................................",
"....................     .......................................................",
"......................   .......................................................",
"......................   .......................................................",
".......................................................XX...XX..................",
".......................................................XX...XX..................",
".......................................................XX...XX..................",
".........................................................XXX....................",
".........................................................XXX....................",
"..................................................XX.....XXX....................",
"..................................................XX.....XXX....................",
"..................................................XX.....XXX....................",
".........................  .......................XX............................",
".........................  .......................XX............................",
".......XXX..XXX..........  ...  ...  ...........................................",
".......XXX..XXX..........  ...  ...  ...........................................",
".......XXX..XXX..........  ...  ...  ...........................................",
"..........XX..................       ...........................................",
"..........XX..................       ...........................................",
"..XXX.....XX..................     .............................................",
"..XXX.....XX..................     .............................................",
"..XXX.....XX..................     .............................................",
"..XXX...........................   .............................................",
"..XXX...........................   .............................................",
"................................................................................",
"................................................................................",
"................................................................................"
};
