/* XPM */
static char *ground_2_Jm0lL[] = {
/* columns rows colors chars-per-pixel */
"40 40 25 1 ",
"  c #200A15",
". c #46272D",
"X c #045A08",
"o c #047208",
"O c #047A08",
"+ c #6C483E",
"@ c #8A6B4D",
"# c #009500",
"$ c #00A300",
"% c #00B100",
"& c #00BD00",
"* c #1F832F",
"= c #00C400",
"- c #00C500",
"; c #02C601",
": c #00C900",
"> c #00CA00",
", c #00D100",
"< c #00D700",
"1 c #00DD00",
"2 c #00E400",
"3 c #00F200",
"4 c #00FE00",
"5 c #1AC522",
"6 c #B6906B",
/* pixels */
">>>>>>>>++@@@>>>>>>>>>>>>>>>>>>>>>>>>>>>",
">>>>>>>+@@@@@@>>>>>>>>>>>>>>>>>>>>>>>>>>",
">>>>>>>@@@@@6+.>>>>>>>>>>>>>>>>>>>>>>>>>",
">>>>>>.6666++.++44>>>>>>>>>>>>>>##>>>>>>",
">>>>>> .... .@@@@4>>>>>>>>>>>>>>##>>>>>>",
">>>>>>.@@@++@@@@6>>>>>>>>>>>##>#>>>###$>",
">>>>>>+666..666++O>>>>>>>>>>##>#>>>###$>",
">>>>>>  ++5 .+.5 O>>>>>>>>>>##>>>>>###>>",
">>>>>>  . * 5..*OO>>>>>>>>>>>>>>>>>>##>>",
">>>>>>>OOOOO*OOOO>>>>>>>>>>>>>>>>>>>%%>>",
">>>@@++>>>>>>>>>>>>>>>>>>>>>>>>>>>>>>>>>",
">>+@@@6@>>>>+>>>>>>>>>>>>>>>>>>>>>>>>>>>",
">> +@@@@+>>@@+>>>>>>>>>>>>>>>>>>>>>>>>>>",
"##..+6@@+>.6+.->>>>>>>>>>>>>>>>>>>>>>>>>",
"#*  +.++5>O .O->>>>>>>>>>>>>>>>>>>>>>>>>",
"%%      O>>>>>>>>>>>>>>>>>>>>>%#>>>>>>>>",
">>>#XXXo>>>>>>>>>>>>>>>>>>>>>>##>>>>>>>>",
">>>###>>>>>>>>>>>>>>>>>>>>>>>>#>>>>>>>>>",
">>>>&#>>>>>>>>>>>>>>>>>>>>>>>>>>>>>>>>>>",
">>>>-%>>>>>>>>>>>>>>>>>>>>>>>>>>>>>>>>>>",
">>>>>>>>>>>>>>>>>>>>>++>>>>>>>>>>>>>>>>>",
">>>>>>>>>>>>>>>>>>>>.6@@+>>>>>>>>>>>>>>>",
">>>>>>4<44>>>34>>>>> .++.>>>>>>>>>>>>>>>",
">>>>>>4444>4444>>>>>>O  OO>>>>>>>>>>>>>>",
">>>>>>4444>444+@+>>>>>>OO>>>>>>>>>>>>>>>",
">>>>>>>1>>%%2+@6.>>>>>>>>>>>>>>>>>>>>>>>",
">>>>>>>>>>##> +.O>>>>>>>>>>>>>>>>>>>>>>>",
">>>>>>>>>>%#>>OO>>>>>>>>>>>>>>>>>>>>>>>>",
">>>>>>>>>>>>>>>>>>>>>>>>>>>>>>4>>>>>>>>>",
">>>>>>>>>>>>>>>>>>>>>>>>>>>>>>4>>>>>>>>>",
">>>>>>>>>>>>>>>>>>>>>>>>>>>>44>>>>>>>>>>",
">>>>>>>>>>>>>>>>>>>>>>>>>4>>44>>>>>>>>>>",
">>>>>>>>>>>>#&>>>>>>>>>>>4>>>>>>>>>>>>>>",
">>>21>2,>>>>#&>%>>>>>>>>>2>>>>>>>>>>>>>>",
">>>43>4<>>>>#&>#>>>>>>>>>>>>>>>>>>>>>>>>",
">>>><4>>>>>>>>>###>>>>>>>+>>>>>>>>>>>>>>",
"44>><4>>>>>>>>>###>>>>>>@@+>>>>>>>>>>>>>",
"44>><4>>>>>>>>>###>>>>>.6+.->>>>>>>>>>>>",
">>>>>>>>>>>>>>>>>>>>>>>O .O->>>>>>>>>>>>",
">>>>>>>>>>>>>>>>>>>>>>>>>>>>>>>>>>>>>>>>"
};
