/* XPM */
static char *_5ac82aecc714319ce9900b9861e0f76KJpBkcwcDKHnrmQS[] = {
/* columns rows colors chars-per-pixel */
"32 32 3 1 ",
"  c #35A541",
". c #3ABE41",
"X c #328E41",
/* pixels */
"                                ",
"                                ",
"                                ",
"           . .            X     ",
"        .. ...           XX X X ",
"        .   .          X X  XXX ",
"         XX            X    XX  ",
"                             X  ",
"                                ",
"                                ",
"                                ",
" X                              ",
" X X X                   X      ",
"   XXX                  XX      ",
"   XX                 X X       ",
"    X                 X         ",
"                                ",
"                                ",
"     . .   .  X                 ",
"     ... ...  X                 ",
"      .   . .                   ",
"        XX                      ",
"         X                      ",
"                      . .       ",
"                       .        ",
"                    .  .        ",
"          X         .           ",
"   . .    X X X                 ",
"    .       XXX                 ",
" .  .       XX                  ",
" .           X                  ",
"                                "
};
