/* XPM */
static char *ground_1_lE3Cj[] = {
/* columns rows colors chars-per-pixel */
"40 40 13 1 ",
"  c #009500",
". c #009C00",
"X c #00A300",
"o c #00B100",
"O c #00BD00",
"+ c #00C400",
"@ c #00CA00",
"# c #00D100",
"$ c #00D700",
"% c #00DD00",
"& c #00E400",
"* c #00F200",
"= c #00FE00",
/* pixels */
"@@@@@@@@@@@@@@@@@@@@@@@@@@@@@@@@@@@@@@@@",
"@@@@@@@@@@@@@@@@@@@@@@@@@@@@@@@@@@@@@@@@",
"@@@@@@@@@@@@@@@@@@@@@@@@@@@@@@@@@@@@@@@@",
"@@@@@@@@@@@@@*=@==@@@@@@@@@@@@@@  @@@@@@",
"@@@@@@@@@@@@@*=@==@@@@@@@@@@@@@@  @@@@@@",
"@@@@@@@@@@=@@@@=@@@@@@@@@@@@  @ @@@   X@",
"@@@@@@@@@@=@@@@=@@@@@@@@@@@@  @ @@@   X@",
"@@@@@@@@@@@  O@@@@@@@@@@@@@@  @@@@@   @@",
"@@@@@@@@@@@@@@@@@@@@@@@@@@@@@@@@@@@@  @@",
"@@@@@@@@@@@@@@@@@@@@@@@@@@@@@@@@@@@@oo@@",
"@@@@@@@@@@@@@@@@@@@@@@@@@@@@@@@@@@@@@@@@",
"@@@@@@@@@@@@@@@@@@@@@@@@@@@@@@@@@@@@@@@@",
"@@@@@@@@@@@@@@@@@@@@@@@@@@@@@@@@@@@@@@@@",
"  @@@@@@@@@@@@@@@@@@@@@@@@@@@@@@@@@@@@@@",
"  @@@@@@@@@@@@@@@@@@@@@@@@@@@@@@@@@@@@@@",
"oo@ .o O@@@@@@@@@@@@@@@@@@@@@@o @@@@@@@@",
"@@@    O@@@@@@@@@@@@@@@@@@@@@@  @@@@@@@@",
"@@@   @@@@@@@@@@@@@@@@@@@@@@@@ @@@@@@@@@",
"@@@@O @@@@@@@@@@@@@@@@@@@@@@@@@@@@@@@@@@",
"@@@@+o@@@@@@@@@@@@@@@@@@@@@@@@@@@@@@@@@@",
"@@@@@@@@@@@@@@@@@@@@@@@@@@@@@@@@@@@@@@@@",
"@@@@@@@@@@@@@@@@@@@@@@@@@@@@@@@@@@@@@@@@",
"@@@@@@=$==@@@*=@@@@@@@@@@@@@@@@@@@@@@@@@",
"@@@@@@====@====@@@@@@@@@@@@@@@@@@@@@@@@@",
"@@@@@@====@====@@@@@@@@@@@@@@@@@@@@@@@@@",
"@@@@@@@%@@oo&#@&@@@@@@@@@@@@@@@@@@@@@@@@",
"@@@@@@@@@@  @@@@@@@@@@@@@@@@@@@@@@@@@@@@",
"@@@@@@@@@@o @@@@@@@@@@@@@@@@@@@@@@@@@@@@",
"@@@@@@@@@@@@@@@@@@@@@@@@@@@@@@=@@@@@@@@@",
"@@@@@@@@@@@@@@@@@@@@@@@@@@@@@@=@@@@@@@@@",
"@@@@@@@@@@@@@@@@@@@@@@@@@@@@==@@@@@@@@@@",
"@@@@@@@@@@@@@@@@@@@@@@@@@=@@==@@@@@@@@@@",
"@@@@@@@@@@@@ O@@@@@@@@@@@=@@@@@@@@@@@@@@",
"@@@&%@&#@@@@ O@o@@@@@@@@@&@@@@@@@@@@@@@@",
"@@@=*@=$@@@@ O@ @@@@@@@@@@@@@@@@@@@@@@@@",
"@@@@$=@@@@@@@@@   @@@@@@@@@@@@@@@@@@@@@@",
"==@@$=@@@@@@@@@   @@@@@@@@@@@@@@@@@@@@@@",
"==@@$=@@@@@@@@@   @@@@@@@@@@@@@@@@@@@@@@",
"@@@@@@@@@@@@@@@@@@@@@@@@@@@@@@@@@@@@@@@@",
"@@@@@@@@@@@@@@@@@@@@@@@@@@@@@@@@@@@@@@@@"
};
