/* XPM */
static char *ressource_2_mskud[] = {
/* columns rows colors chars-per-pixel */
"40 40 201 2 ",
"   c #353A16",
".  c #363B19",
"X  c #3A3D1C",
"o  c #333615",
"O  c #142127",
"+  c #182B35",
"@  c #1F343F",
"#  c #292D2B",
"$  c #262C29",
"%  c #283B3B",
"&  c #29363A",
"*  c #322F3A",
"=  c #5B3617",
"-  c #633810",
";  c #6D3A13",
":  c #733C13",
">  c #442D2F",
",  c #3F4C20",
"<  c #2A403D",
"1  c #744519",
"2  c #464827",
"3  c #4E4823",
"4  c #484A29",
"5  c #484523",
"6  c #564828",
"7  c #554D37",
"8  c #695432",
"9  c #735535",
"0  c #714F2A",
"q  c #6F603C",
"w  c #70603E",
"e  c #193A42",
"r  c #2A3A41",
"t  c #233B49",
"y  c #2E3F4E",
"u  c #16534D",
"i  c #1C534D",
"p  c #19455B",
"a  c #1A495A",
"s  c #1C4254",
"d  c #174E4D",
"f  c #324346",
"g  c #22564B",
"h  c #2D504F",
"j  c #27425B",
"k  c #334756",
"l  c #265355",
"z  c #3D614A",
"x  c #2D6050",
"c  c #1E4767",
"v  c #274866",
"b  c #384E68",
"n  c #1B6466",
"m  c #1E7076",
"M  c #1F747A",
"N  c #1E6F75",
"B  c #266A67",
"V  c #227074",
"C  c #575647",
"Z  c #50514C",
"A  c #7C5C41",
"S  c #6D554C",
"D  c #796440",
"F  c #497B6E",
"G  c #507A6C",
"H  c #62756F",
"J  c #83491A",
"K  c #814D20",
"L  c #885A27",
"P  c #875D38",
"I  c #975B27",
"U  c #916839",
"Y  c #A87136",
"T  c #836D47",
"R  c #8F6D49",
"E  c #896E46",
"W  c #85714C",
"Q  c #8B744E",
"!  c #93724A",
"~  c #9C7847",
"^  c #8D7B5A",
"/  c #957754",
"(  c #916F48",
")  c #AF7D45",
"_  c #8D7569",
"`  c #009500",
"'  c #009C00",
"]  c #00A300",
"[  c #00B100",
"{  c #00BD00",
"}  c #00CA00",
"|  c #08C906",
" . c #00D600",
".. c #00DD00",
"X. c #11CB0E",
"o. c #00E400",
"O. c #00F200",
"+. c #00FE00",
"@. c #57887F",
"#. c #62817F",
"$. c #7D9568",
"%. c #76A175",
"&. c #AF844E",
"*. c #AB885B",
"=. c #BB9258",
"-. c #B6864E",
";. c #8D8A66",
":. c #908A74",
">. c #A98366",
",. c #B4876D",
"<. c #B38A6C",
"1. c #AE9270",
"2. c #B5987C",
"3. c #AE8F70",
"4. c #C6934E",
"5. c #C39252",
"6. c #C9A164",
"7. c #3C5B8A",
"8. c #3F6694",
"9. c #476C99",
"0. c #596180",
"q. c #737695",
"w. c #797BAB",
"e. c #817BA1",
"r. c #258EAB",
"t. c #3B96BD",
"y. c #3685AD",
"u. c #588A84",
"i. c #53908B",
"p. c #6FB988",
"a. c #4394BC",
"s. c #5C9CA0",
"d. c #7D8FAC",
"f. c #6C8E86",
"g. c #3E9AC5",
"h. c #419DC8",
"j. c #4098C3",
"k. c #6C94C0",
"l. c #4AA0CA",
"z. c #6FA3CA",
"x. c #7DA9C6",
"c. c #77DDDF",
"v. c #81919A",
"b. c #BB9C81",
"n. c #ACA385",
"m. c #8989B2",
"M. c #928EAD",
"N. c #A394B8",
"B. c #80A2AA",
"V. c #A8BAA5",
"C. c #8EB589",
"Z. c #C29C82",
"A. c #C3A98E",
"S. c #C6A996",
"D. c #D1BA9D",
"F. c #D3B896",
"G. c #D1BAA5",
"H. c #8CCA9D",
"J. c #90CB9E",
"K. c #9FCB97",
"L. c #A2C29A",
"P. c #98CCA1",
"I. c #9ADCAE",
"U. c #B8C9B8",
"Y. c #CDC1AB",
"T. c #D7C1A4",
"R. c #D9C6BA",
"E. c #D7C5BA",
"W. c #E8D5BE",
"Q. c #B1A2C0",
"!. c #BCB3CA",
"~. c #ACB5CF",
"^. c #8CACCC",
"/. c #C8BAC9",
"(. c #9ED9CD",
"). c #BDD8CC",
"_. c #ADCCD8",
"`. c #9DE6DE",
"'. c #A7E4DC",
"]. c #BFC9E1",
"[. c #9CE7E0",
"{. c #D5D2CF",
"}. c #E4D8CF",
"|. c #E3DBD3",
" X c #DBE1D7",
".X c #EBE4DE",
"XX c #D9D5E1",
"oX c #D7D6E3",
"OX c #CAD3E9",
"+X c #E4DFEB",
"@X c #D3E7F1",
"#X c #D9F0F5",
"$X c #EDE8E2",
"%X c #EBE9EC",
"&X c #F1ECE8",
"*X c #EAECF4",
"=X c #E5E9F2",
"-X c #E7FBFD",
";X c #E7F7FA",
":X c #FCFBFC",
">X c #F6F6F7",
/* pixels */
"} } } } } } } } } } } } } } } } } } } } } } } } } } } } } } } } } } } } } } } } ",
"} } } } } } } } } } } } } } } } } } } } } } } } } } } } } } } } } } } } } } } } ",
"} } } } } } } } } } } } } } } } } : : : ; : ; } } } } } } } } } } } } } } } } } ",
"} } } } } } } } } } } } } O.+.} : Y 6.6.L Y J : } } } } } } } } ` ` } } } } } } ",
"} } } } } } } } } } } } } O.+.} &.4.4.4.L 6.I : r } } } } } } } ` ` } } } } } } ",
"} } } } } } } } } } +.} } } } X ; Y K -.=.&.J ; ,.} } } ` ` } ` } } } ` ` ` ] } ",
"} } } } } } } } } } +.} } } ;.R.> : - - =.= * ; G.W } } ` ` } ` } } } ` ` ` ] } ",
"} } } } } } } } } } } ` ` . |.$X.XL ; - - = ; * G.G.  } ` ` } } } } } ` ` ` } } ",
"} } } } } } } } } } } } } . |.$X%X= ) I 1 ; = G.T.D.  } } } } } } } } } ` ` } } ",
"} } } } } } } } } } } } } . E.{.+X3.R.{.R.R._ _ 2.A.. } } } } } } } } } [ [ } } ",
"} } } } } } } } } } } } } } 8 T ;.P ) *.U P A S T q } } } } } } } } } } } } } } ",
"} } } } } } } } } } } } } } . 8 W 0 ~ ~ P L 9 C / . } } } } } } } } } } } } } } ",
"} } } } } } } } } } } } } } } o 9 3 3 3 3 3 3 6 ,.} } } } } } } } } } } } } } } ",
"` ` } } } } } } } } } } } } . ,.b.9 ~ ( 1 0 8 > D o } } } } } } } } } } } } } } ",
"` ` } } } } } } } } } } } } ,.G.S.,.P P 6 0 R / q ,.} } } } } } } } } } } } } } ",
"[ [ } ` ' [ ` { } } } } } } ,.R.S.2.,.,.W R ( ! T ,.} } } } [ ` } } } } } } } } ",
"} } } ` ` ` ` { } } } } } <.|.R.G.S.S.b.^ R Q ( / D ,.  } } ` ` } } } } } } } } ",
"} } } ` ` ` } } } } } } . E.&X.X}.+X~.~.i.k b c / >.T ,.} } ` } } } } } } } } } ",
"} } } } { ` } } } } } } <.$X>X:X;X*X@XOXi.H d.d.0.n.>.Q . } } } } } } } } } } } ",
"} } } } } [ } } } } } | Z.$X&X>X:X*X+XXXf.u.B.x.q.,.>.1.2 } } } } } } } } } } } ",
"} } } } } } } } } } | X ;.V.{. X>X:X*X*Xs.d.d.v.w.k / / $.} } } } } } } } } } } ",
"} } } } } } } } } } | X V.>X>X>X=XoX]._.r.!.!.!.s # # ~ C.} } } } } } } } } } } ",
"} } } } } } +. .+.+.} X (.:X:X%Xi.z.a.r.r.y.s Q.7.& % & P.} } } } } } } } } } } ",
"} } } } } } +.+.+.+.} X (.:X:X+Xu.j.h.l.l.a.t N.7.t < * K.} } } } } } } } } } } ",
"} } } } } } +.+.+.+.} X `.:X-X+Xu.M h.h.g.t.c N.9.j % # J.} } } } } } } } } } } ",
"} } } } } } }  .} } [ X [.:X-XXX@.m h.h.g.g.p M.9.v < # J.} } } } } } } } } } } ",
"} } } } } } } } } } ` X `.:X-XXX@.m h.h.g.g.a m.9.v % # P.} } } } } } } } } } } ",
"} } } } } } } } } } [ X '.:X-XXX@.m h.h.h.g.a m.9.v r # H.} } } } } } } } } } } ",
"} } } } } } } } } } } . '.:X=XXXF N g.h.g.t.p w.9.v r # J.} +.} } } } } } } } } ",
"} } } } } } } } } } } X ).:X=XXXF V n B B g a w.8.v & # J.} +.} } } } } } } } } ",
"} } } } } } } } } } } . ).:X#X/.l :.z z z % k w.c v % $ J.+.} } } } } } } } } } ",
"} } } } } } } } } } } X U.>X@X+X@.B g i d d n ^.h e % $ H.+.} } } } } } } } } } ",
"} } } } } } } } } } } . n.#X#XoXV n u u u u n z.e + f $ J.} } } } } } } } } } } ",
"} } } o...} o. .} } | o Q c.@X=Xu.B l u u d a d.e & :.P %.} } } } } } } } } } } ",
"} } } +.O.} +. .} } } X.W.<.].].f.G x g u d s w.% < Q P X } } } } } } } } } } } ",
"} } } }  .+.} } } } } }   *.F.w.z H ;.;.C C f e.f W Q %.} } } } } } } } } } } } ",
"+.+.} }  .+.} } } } } }  .. W./ 2.j + + O O t M.2./ X } } } } } } } } } } } } } ",
"+.+.} }  .+.} } } } } } } } | 5 7 T.G.D.D.L.I.p.6 X.} } } } } } } } } } } } } } ",
"} } } } } } } } } } } } } } } } } 2 4 4 4 2 2 X } } } } } } } } } } } } } } } } ",
"} } } } } } } } } } } } } } } } } } } } } } } } } } } } } } } } } } } } } } } } "
};
