/* XPM */
static char *ressource_1_zOsxK[] = {
/* columns rows colors chars-per-pixel */
"40 40 198 2 ",
"   c #580909",
".  c #6D0204",
"X  c #640A0D",
"o  c #670708",
"O  c #740404",
"+  c #7D040B",
"@  c #730A0B",
"#  c #7B0508",
"$  c #7C0A12",
"%  c #751222",
"&  c #4B3333",
"*  c #543935",
"=  c #705112",
"-  c #6C4A1E",
";  c #7A5525",
":  c #6A563E",
">  c #644C29",
",  c #39364B",
"<  c #3B394C",
"1  c #373347",
"2  c #473544",
"3  c #414154",
"4  c #45465A",
"5  c #47485B",
"6  c #635C56",
"7  c #6B6458",
"8  c #776955",
"9  c #525366",
"0  c #545D72",
"q  c #5D657A",
"w  c #5D687E",
"e  c #686460",
"r  c #777368",
"t  c #8C0105",
"y  c #8D000A",
"u  c #860509",
"i  c #9A0104",
"p  c #960407",
"a  c #850419",
"s  c #900011",
"d  c #970515",
"f  c #831414",
"g  c #A20008",
"h  c #AB0111",
"j  c #B40012",
"k  c #8B0023",
"l  c #870824",
"z  c #930123",
"x  c #9E0025",
"c  c #92162A",
"v  c #8B0E3A",
"b  c #8D192D",
"n  c #AE0225",
"m  c #AA0026",
"M  c #B40026",
"N  c #BB0024",
"B  c #B2002A",
"V  c #BF002C",
"C  c #BB0135",
"Z  c #A00932",
"A  c #852336",
"S  c #CA0039",
"D  c #D2003E",
"F  c #865A16",
"G  c #8F631A",
"H  c #9C6E1D",
"J  c #9A7931",
"K  c #AA7A25",
"L  c #B1164C",
"P  c #BD1859",
"I  c #BA1D51",
"U  c #9A3148",
"Y  c #BA2745",
"T  c #B92358",
"R  c #CD004A",
"E  c #CC074B",
"W  c #C42557",
"Q  c #D30065",
"!  c #D4006C",
"~  c #C92864",
"^  c #CC3768",
"/  c #D12671",
"(  c #CD3275",
")  c #C63B76",
"_  c #806F56",
"`  c #994364",
"'  c #A94768",
"]  c #BD5171",
"[  c #877B64",
"{  c #C25B7F",
"}  c #009500",
"|  c #009C00",
" . c #00A300",
".. c #00B100",
"X. c #00BD00",
"o. c #00CA00",
"O. c #07C908",
"+. c #00D600",
"@. c #00DD00",
"#. c #00E400",
"$. c #00F200",
"%. c #00FE00",
"&. c #B38A2F",
"*. c #BB9536",
"=. c #AD8534",
"-. c #BBA055",
";. c #898062",
":. c #968B68",
">. c #A79B7B",
",. c #D4AB44",
"<. c #CCAD56",
"1. c #D4B45B",
"2. c #6B778D",
"3. c #6D788E",
"4. c #63738C",
"5. c #6C7C92",
"6. c #717F93",
"7. c #D91480",
"8. c #DB318C",
"9. c #E93EB5",
"0. c #BF6A91",
"q. c #9275B0",
"w. c #D44E89",
"e. c #E15197",
"r. c #DA74A5",
"t. c #E56BB0",
"y. c #9F76C0",
"u. c #FA7FF1",
"i. c #6E8197",
"p. c #738296",
"a. c #73869A",
"s. c #79869A",
"d. c #798DA1",
"f. c #8F9092",
"g. c #A89D8F",
"h. c #BFB28D",
"j. c #8296AA",
"k. c #899FB1",
"l. c #9889B4",
"z. c #8FA8B8",
"x. c #8EA7B7",
"c. c #9CA6B9",
"v. c #95ACBB",
"b. c #98A6B8",
"n. c #9CB2BF",
"m. c #E291B9",
"M. c #9CAFC0",
"N. c #ACB7C8",
"B. c #ABBECB",
"V. c #A5B5C5",
"C. c #B2BECF",
"Z. c #AE8BCA",
"A. c #DE8AC3",
"S. c #C28FD9",
"D. c #C292DC",
"F. c #C59CDD",
"G. c #DB97C4",
"H. c #E488C4",
"J. c #EC9DC7",
"K. c #ECAAD9",
"L. c #ECB2DE",
"P. c #F0B3D8",
"I. c #CA9DE3",
"U. c #FD8DFB",
"Y. c #FC95F7",
"T. c #F1B9E7",
"R. c #FCA6F8",
"E. c #FCBBF8",
"W. c #D9B4EB",
"Q. c #B9C5D5",
"!. c #B6C5D3",
"~. c #B3C3D3",
"^. c #C0CEDC",
"/. c #CAD5DD",
"(. c #D5D8DF",
"). c #EBD3DC",
"_. c #C8D5E1",
"`. c #D1DBE3",
"'. c #DADEE3",
"]. c #DEDDF2",
"[. c #F3C2E3",
"{. c #F2CAE9",
"}. c #F4D7E7",
"|. c #FCC8F8",
" X c #F7DBF4",
".X c #E1CFED",
"XX c #D7E1EE",
"oX c #DBE3EE",
"OX c #DBE1E7",
"+X c #DCE5F1",
"@X c #DEE8F2",
"#X c #E4E9EE",
"$X c #F9E7F8",
"%X c #EEF3F6",
"&X c #F3F5F9",
"*X c #FDFBFD",
"=X c #F8F4F8",
"-X c #E4EBF4",
/* pixels */
"o.o.o.o.o.o.o.o.o.o.o.o.o.o.o.o.o.o.o.o.o.o.o.o.o.o.o.o.o.o.o.o.o.o.o.o.o.o.o.o.",
"o.o.o.o.o.o.o.o.o.o.o.o.o.o.o.o.o.-.*.J J *.H F o.o.o.o.o.o.o.o.o.o.o.o.o.o.o.o.",
"o.o.o.o.o.o.o.o.o.o.o.o.o.o.o.o.-.,.,.1.J <.K K ; o.o.o.o.o.o.o.o.o.o.o.o.o.o.o.",
"o.o.o.o.o.o.o.o.o.o.o.o.o.$.%.o.-.<.,.1.1.1.K <.; o.o.o.o.o.o.o.} } o.o.o.o.o.o.",
"o.o.o.o.o.o.o.o.o.o.o.o.o.$.< s.= &.&.=.G G ; ; 2 3.< o.o.o.o.o.} } o.o.o.o.o.o.",
"o.o.o.o.o.o.o.o.o.o.%.o.o.o.s.OX* F ; = <.= > & 2 c.3.O.} } o.} o.o.o.} } }  .o.",
"o.o.o.o.o.o.o.o.o.o.%.o.o.< #X&X%XJ ; ; = = & F N.N.Q., } } o.} o.o.o.} } }  .o.",
"o.o.o.o.o.o.o.o.o.o.o.} } < #X%X%X&X'.J ; > `.].Q.N.C., } } o.o.o.o.o.} } } o.o.",
"o.o.o.o.o.o.o.o.o.o.o.o.o.< /.OX&Xg.h.`.(./.>.f.M.b.N., o.o.o.o.o.o.o.o.} } o.o.",
"o.o.o.o.o.o.o.o.o.o.o.o.o.o.0 2.j.r :.>.;.[ [ r 6.6.q o.o.o.o.o.o.o.o.o.....o.o.",
"o.o.o.o.o.o.o.o.o.o.o.o.o.o., 0 2.6 ;.:._ 8 8 7 6.w , o.o.o.o.o.o.o.o.o.o.o.o.o.",
"o.o.o.o.o.o.o.o.o.o.o.o.o.o.o.1 w 5 5 5 5 5 4 4 q , o.o.o.o.o.o.o.o.o.o.o.o.o.o.",
"o.o.o.o.o.o.o.o.o.o.o.o.o.o.< z.v.7 ;.;.: 7 7 6 q z.1 o.o.o.o.o.o.o.o.o.o.o.o.o.",
"} } o.o.o.o.o.o.o.o.o.o.o.o.3 z.!.[ r [ : 8 7 7 q z.1 o.o.o.o.o.o.o.o.o.o.o.o.o.",
"} } o.o.o.o.o.o.o.o.o.o.o.O.z.`.~.v.v.x.2.k.i.i.s.4.z.O.o.o.o.o.o.o.o.o.o.o.o.o.",
"....o.} | ..} X.o.o.o.o.o.9 /.`.~.~.V.v.p.k.i.5.p.4.q , o.o...} o.o.o.o.o.o.o.o.",
"o.o.o.} } } } X.o.o.o.o.3 z.&XOX/./.^.~.s.k.p.d.a.k.3.z.< o.} } o.o.o.o.o.o.o.o.",
"o.o.o.} } } o.o.o.o.o.o.z.#X*X*X&X).).m.Y ^ Y W g j.j.6.z.O.} o.o.o.o.o.o.o.o.o.",
"o.o.o.o.X.} o.o.o.o.o.< /.&X*X*X*X=X=XJ.W / W ~ W V c.j.6., o.o.o.o.o.o.o.o.o.o.",
"o.o.o.o.o...o.o.o.o.O./.@X-X X=X*X*X*X).~ / ( w.) { 0.^.^.l.o.o.o.o.o.o.o.o.o.o.",
"o.o.o.o.o.o.o.o.o.o.O.XX+X{.}.). X}.T.J.E ^ ~ w.G.@ + f d.q.o.o.o.o.o.o.o.o.o.o.",
"o.o.o.o.o.o.o.o.o.o.+.XX&X$X$X%X}.T.K.t.D e.m.A.G.O o X 6.Z.o.o.o.o.o.o.o.o.o.o.",
"o.o.o.o.o.o.%.+.%.%.O.+XU.=X=X XW 7.S R E R j t t i . @ @ F.o.o.o.o.o.o.o.o.o.o.",
"o.o.o.o.o.o.%.%.%.%.o.XXU.*X*XT.W Q S Q Q Q j t T h $ $ X I.o.o.o.o.o.o.o.o.o.o.",
"o.o.o.o.o.o.%.%.%.%.O.XXU.*X$XT.P B S Q Q Q j t I n u $ X D.o.o.o.o.o.o.o.o.o.o.",
"o.o.o.o.o.o.o.+.o.o...XXR.*X$XL.P B S Q Q Q N t p M p + X D.o.o.o.o.o.o.o.o.o.o.",
"o.o.o.o.o.o.o.o.o.o.} XXY.*X$XL.P B S Q Q Q M t i M i u X F.o.o.o.o.o.o.o.o.o.o.",
"o.o.o.o.o.o.o.o.o.o...XXE.*X XT.P B S ! Q Q S s i M i u X D.o.o.o.o.o.o.o.o.o.o.",
"o.o.o.o.o.o.o.o.o.o.o.XXE.*X XL.L m S Q Q Q N s i M g + X S.%.o.o.o.o.o.o.o.o.o.",
"o.o.o.o.o.o.o.o.o.o.o.+X|.=X XL.L B Q 8.Q R n s i M i + X D.%.o.o.o.o.o.o.o.o.o.",
"o.o.o.o.o.o.o.o.o.o.O.+X|.*X{.A.d ' v v v + @ u g g i # X D.o.o.o.o.o.o.o.o.o.o.",
"o.o.o.o.o.o.o.o.o.o.o.@X|.=XT.A.w.Z k k a a + x i O t u   D.o.o.o.o.o.o.o.o.o.o.",
"o.o.o.o.o.o.o.o.o.o.o.+Xu.R.T.H.C m k z k a l x C # O #   D.o.o.o.o.o.o.o.o.o.o.",
"o.o.o.#.@.o.#.+.o.o.O.XX.XY.|.[.V x k k k k l z m . O U 4.y.o.o.o.o.o.o.o.o.o.o.",
"o.o.o.%.$.o.%.+.o.o.o.XX!.9.P.[.I M x k k k $ d h . O ' 4.y.o.o.o.o.o.o.o.o.o.o.",
"o.o.o.o.+.%.o.o.o.o.o.< k.j.r.r.{ ' b c c l a a d f X j.s., o.o.o.o.o.o.o.o.o.o.",
"%.%.o.o.+.%.o.o.o.o.O.O.oXj.C.~ c A ' ` A % % $ f o 5.a.y.o.o.o.o.o.o.o.o.o.o.o.",
"%.%.o.o.+.%.o.o.o.o.+.o.O., XXa.b.p . o     o p B.V.a., o.o.o.o.o.o.o.o.o.o.o.o.",
"o.o.o.o.o.o.o.o.o.o.o.o.o.o.O.2 9 ^.!.Q.Q.~.W.I.9 5 O.o.o.o.o.o.o.o.o.o.o.o.o.o.",
"o.o.o.o.o.o.o.o.o.o.o.o.o.o.O.O.o.4 4 5 4 5 4 4 o.o.o.o.o.o.o.o.o.o.o.o.o.o.o.o."
};
