/* XPM */
static char *ressource_Czm1v[] = {
/* columns rows colors chars-per-pixel */
"80 80 204 2 ",
"   c #070707",
".  c #0D0D0D",
"X  c #0C0906",
"o  c #140F06",
"O  c #110F0F",
"+  c #0E110E",
"@  c #11110E",
"#  c #1E160B",
"$  c #131707",
"%  c #0E0F11",
"&  c #110E11",
"*  c #0F1112",
"=  c #131313",
"-  c #191614",
";  c #141B14",
":  c #181719",
">  c #171918",
",  c #1C1C1B",
"<  c #181715",
"1  c #20160B",
"2  c #241A0D",
"3  c #251F15",
"4  c #1D211D",
"5  c #1A2A19",
"6  c #162516",
"7  c #113411",
"8  c #2C2213",
"9  c #27251B",
"0  c #322717",
"q  c #3B2C16",
"w  c #3C2F18",
"e  c #342917",
"r  c #243318",
"t  c #38371B",
"y  c #1E1E21",
"u  c #221F23",
"i  c #1F2122",
"p  c #252525",
"a  c #282524",
"s  c #252A25",
"d  c #2A2927",
"f  c #292729",
"g  c #262828",
"h  c #2C2C2B",
"j  c #262428",
"k  c #302E2C",
"l  c #302C26",
"z  c #233323",
"x  c #2C342C",
"c  c #2C3A2C",
"v  c #223A22",
"b  c #34312E",
"n  c #3C3621",
"m  c #2E3131",
"M  c #333333",
"N  c #3A3734",
"B  c #373935",
"V  c #3A3936",
"C  c #3C3C3B",
"Z  c #383738",
"A  c #2F2E31",
"S  c #42331B",
"D  c #4F3A1B",
"F  c #573D1D",
"G  c #4E2418",
"H  c #463B28",
"J  c #403E3C",
"K  c #005300",
"L  c #005B00",
"P  c #0E5A0E",
"I  c #1E471E",
"U  c #1D4C1D",
"Y  c #194F16",
"T  c #1B561B",
"R  c #1B5C1B",
"E  c #195316",
"W  c #004A00",
"Q  c #006300",
"!  c #076D07",
"~  c #196C17",
"^  c #1D641D",
"/  c #1D6B1D",
"(  c #176816",
")  c #1B741B",
"_  c #197B19",
"`  c #147714",
"'  c #0E7509",
"]  c #234223",
"[  c #264D26",
"{  c #2B422B",
"}  c #294929",
"|  c #294C25",
" . c #32462D",
".. c #235B23",
"X. c #255525",
"o. c #3F413E",
"O. c #374632",
"+. c #216721",
"@. c #297523",
"#. c #58411E",
"$. c #57401D",
"%. c #54651B",
"&. c #4F422B",
"*. c #43413E",
"=. c #5A4D35",
"-. c #524A3C",
";. c #524023",
":. c #694C21",
">. c #6F532C",
",. c #7D5C2C",
"<. c #3F3F40",
"1. c #3F4240",
"2. c #414141",
"3. c #494642",
"4. c #4A4943",
"5. c #4C4C4A",
"6. c #464747",
"7. c #56524B",
"8. c #5A5551",
"9. c #5E5A56",
"0. c #595755",
"q. c #6C5F48",
"w. c #635641",
"e. c #615F5E",
"r. c #556153",
"t. c #586D55",
"y. c #66635E",
"u. c #746955",
"i. c #776A46",
"p. c #646362",
"a. c #6D6C6B",
"s. c #6B6967",
"d. c #726E6A",
"f. c #75706B",
"g. c #787B6F",
"h. c #797572",
"j. c #7F7B76",
"k. c #7A7A78",
"l. c #8A6532",
"z. c #876331",
"x. c #9B7231",
"c. c #AC7D33",
"v. c #84765D",
"b. c #0A8B0A",
"n. c #009500",
"m. c #0D9D0D",
"M. c #0A930A",
"N. c #198A17",
"B. c #158915",
"V. c #129212",
"C. c #199618",
"Z. c #1B8C08",
"A. c #20911D",
"S. c #318716",
"D. c #00A300",
"F. c #09AD09",
"G. c #0AA60A",
"H. c #03B303",
"J. c #07B707",
"K. c #19A617",
"L. c #38BC1D",
"P. c #2DBF17",
"I. c #59BD35",
"U. c #538731",
"Y. c #01C301",
"T. c #00CA00",
"R. c #03D803",
"E. c #01E401",
"W. c #00FE00",
"Q. c #00F200",
"!. c #628C45",
"~. c #7B907A",
"^. c #C58F37",
"/. c #9B845E",
"(. c #848E50",
"). c #82A458",
"_. c #89816F",
"`. c #85827D",
"'. c #AB9874",
"]. c #858583",
"[. c #898480",
"{. c #8D8B89",
"}. c #928E8B",
"|. c #959493",
" X c #9D9A97",
".X c #9D9B9A",
"XX c #989893",
"oX c #91908E",
"OX c #A19F9E",
"+X c #A3A19D",
"@X c #A0BC9D",
"#X c #A4A3A2",
"$X c #A8A5A2",
"%X c #AAAAA7",
"&X c #ABAAA9",
"*X c #B0AEAD",
"=X c #B2B0AE",
"-X c #B4B3B2",
";X c #BCBBBA",
":X c #B9B9B6",
">X c #C1BFBE",
",X c #C5C3C2",
"<X c #C9C9C7",
"1X c #D0D0CE",
/* pixels */
"T.T.T.T.T.T.T.T.T.T.T.T.T.T.T.T.T.T.T.T.T.T.T.T.T.T.T.T.T.T.T.T.T.T.T.T.T.T.T.T.T.T.T.T.T.T.T.T.T.T.T.T.T.T.T.T.T.T.T.T.T.T.T.T.T.T.T.T.T.T.T.T.T.T.T.T.T.T.T.T.",
"T.T.T.T.T.T.T.T.T.T.2.2.2.1.<.2.<.*.2.1.<.<.o.o.2.2.<.2.2.2.2.2.2.2.2.2.2.2.1.2.<.1.<.2.2.<.2.C 2.1.2.<.<.1.2.<.<.2.1.<.<.<.2.2.} M A T.T.T.T.T.T.T.T.T.T.T.T.T.",
"T.T.T.T.T.T.T.T.g g p a p p p a d g f f f f h g h h f h h h h h h A h h m h A A h M M h h M M M Z C C C C <.Z Z M A h d f g p a p p j p p T.T.T.T.T.T.T.T.T.T.T.",
"T.T.T.T.T.T.T.T.p p g p f g p g p g g f f f f h f f h h h h h h h h M h h A h b A M h h M h M Z M C C C 1.C Z C M h M g f f g f d g p p j T.T.T.T.T.T.T.T.T.T.T.",
"T.T.T.T.T.T.T.T.' B.s M M M h { c { x A x ^ +.+.) _ _ _ B.V.V.m.m.G.F.F.J.J.Y.T.T.T.T.T.T.T.T.T.T.T.T.T.J.F.C.C.@.C C <.J.F.T.T.c p p ^ ^ T.T.T.T.T.T.T.T.T.T.T.",
"T.T.T.T.T.T.T.T.( ( p x x T.T.J.} } V.V.v F.F.T.T.T.T.T.T.T.T.T.T.T.T.T.T.T.T.T.T.T.T.T.T.T.T.T.T.T.T.T.T.T.T.T.Y.s g B.^ +.T.T.} g a U U T.T.T.T.T.T.T.T.T.T.T.",
"T.T.T.T.T.T.T.T.T T f [ [ T.T.X.) ) T.T.` ` B.T.T.T.T.E.E.E.T.T.E.E.E.E.T.T.T.T.T.T.T.T.T.T.T.T.T.T.T.T.T.T.T.T.m.U U T.} } G.G.X.g f v v T.T.T.T.T.T.T.T.T.T.T.",
"T.T.T.T.T.T.T.T.v z f +.+.) / ..T.T.T.T.m.Y U T.T.T.T.Q.W.W.T.T.W.W.W.W.T.T.2.2.2.2.T.T.T.T.T.T.T.T.T.T.T.T.T.T.` ` ~ T.G.G.} } / f f p p T.T.T.T.T.T.T.T.T.T.T.",
"T.T.T.T.T.T.T.T.j j h ....} } Y.T.T.T.T.T.x i T.T.T.T.Q.W.W.T.T.W.W.W.W.2.<.2.2.<.2.1.<.T.T.T.T.T.T.T.T.T.T.T.T.T M.M.T.T.T.+.+...h z g p T.T.T.T.T.T.T.T.T.T.T.",
"T.T.T.T.T.T.T.T.g p x ....} } Y.T.T.T.T.Y.z x Y.T.T.T.Q.W.W.T.T.W.W.W.W.<.2.2.<.2.J 2.<.T.T.T.T.T.T.T.T.T.T.T.T.R M.M.T.T.T.+.^ ..h h p g T.T.T.T.T.T.T.T.T.T.T.",
"T.T.T.T.T.T.T.T.p p x c M J.H.T.T.T.T.T.W.( ( J.E.T.T.Q.W.W.W.W.W.W.<.2.2.<.T.T.T.T.<.2.<.2.T.T.T.T.T.T.T.T.T.T.z H.F.T.T.T.H.b.x c c j p T.D.n.n.T.T.T.T.D.T.T.",
"T.T.T.T.T.T.T.T.g p x M c ) / F.T.T.T.T.W.K.V.( T.T.T.T.T.T.W.W.T.T.2.<.<.<.T.T.T.T.2.<.1.2.T.T.T.T.T.T.T.T.H.J.z n.n.n.n.T.m.' c z c a p T.D.n.n.n.n.n.n.D.T.T.",
"T.T.T.T.T.T.T.T.p g x F.F._ N.B ....m.C.W.E.Y.v T.T.T.T.T.N.K.@.+...C <.C <.C C C C C Z c ] ( R ^ T.T.T.T.T.M.M.T n.n.n.( N.{ c ` c c p g T.D.n.n.n.n.n.n.D.T.T.",
"T.T.T.T.T.T.T.T.a j c T.T.T.T.T.V.C.X.X. .K.N.] H.F.F.F.Z 1.C 6.6.6.<.C C C C Z Z M M M M M M M M g g ~ T.T.~ ` ` n.n.R { } F.b.n.x x p g T.D.n.n.n.n.n.n.D.T.T.",
"T.T.T.T.T.T.T.T f f } T.T.T.T.T.T.T.T.T.R.@.+.M ..R 1.o.2.C C A A 9 = = = = = * = = = = , , i h h Z M M R R U U V.[ [ [ n.Y.H.n.n.{ } p s T.D.n.n.n.n.n.n.D.T.T.",
"T.T.T.T.T.T.T.R g f [ T.T.T.T.T.T.T.T.T.F.+.R M I I <.C 2.<.C m b u = : = = = = = = = : , , p f h M M M ^ T U U V.[ [ [ b.T.T.T.T.{ { g p T.D.n.n.n.n.n.n.T.T.T.",
"T.T.T.T.T.T.T.] g f +.T.T.T.T.T.T.T.T.T.T.T.H.^ h f 3.1.f = =   .   . .     . = = = = = = = = > > , , Z M M j g { ) ) H.H.T.T.T.T.X...f f T H.H.H.n.n.n.n.T.T.T.",
"T.T.T.T.T.T.T.g h f ) T.T.T.T.T.T.T.T.T.T.T.T.X.g g m M =   .           . . . = . . = = = = : = = = = g Z Z M m ~ T.T.T.T.T.T.T.T./ / f f v T.T.T.n.n.n.n.T.T.T.",
"T.T.T.T.T.T.T.g x x V.T.T.T.T.T.T.T.T.T.T.T.T.h C Z : >           .   . O . . % . . . . = . = = = = = , C Z M M P T.T.T.T.T.T.T.T.) _ h h s T.T.T.n.n.n.n.T.T.T.",
"T.T.T.T.T.T.T.g c x G.T.T.T.T.T.T.T.T.T.T.F.F.h Z C , , .       .   . O . + . O . = = O = = & = = = = , C C M h P T.T.T.T.T.T.T.T.V.V.h x p T.T.T.H.H.H.H.T.T.T.",
"T.T.T.T.T.T.T.p x x J.T.T.T.T.T.T.T.T.T.T.; ; 4 B B p p .   .       . . J 1.<.2.2.C 2.2.O * @ . .     p C C p p = n.n.T.T.T.T.T.T.G.G.x c p T.T.T.T.T.T.T.T.T.T.",
"T.T.T.T.T.T.T.g x M T.T.T.T.T.T.T.T.T.T.; = = p Z M h h , * = . . . 2.2.2.<.. % . = <.2.2.<.= = , g p Z C Z p 4 . + * ' T.T.T.T.T.F.F.x x g T.T.T.T.T.T.T.T.T.T.",
"T.T.T.T.T.T.T.p x x T.T.T.T.T.T.T.T.T.T.; = = f Z Z h h , = = . %   2.2.2.2.. . . * 2.<.1.<.= = = p p Z Z C i i . = . ' T.T.T.T.T.J.J.x c p T.T.T.T.T.T.T.T.T.T.",
"T.T.T.T.T.R R f } } T.T.T.T.T.T.T.T.P P > , , , p p Z Z M h h p p , o.2.2.2.. = . . J 2.<.<.M C C o.2.Z h h , , . = = & T.T.T.T.T.Y.T.c c p T.T.T.T.T.T.T.T.T.T.",
"T.T.T.T.T.I I f +...T.T.T.T.T.T.M.M.4 4 p y , , , , p p f m M m M Z C <.2.6.h M M Z 3.3.Z Z C M M h f p , = % = . = = = W 7 T.T.T.T.T.c c g T.T.T.T.T.T.T.T.T.T.",
"T.T.T.T.T.s s h ) ) T.T.T.T.T.T.5 5 f g x f h p y p p p p g p p p p f f f h h k m A j f p i : , , = = & . O . . . = = = : , b.b.T.T.T.X.X.g T.T.T.T.T.T.T.T.T.T.",
"T.T.T.T.T.p p x B.B.T.T.T.T.T.H.f f M x M Z B m h h j p y : , , , , < < , , 3 : : *     = = * * =     % . . . @ = = = = > = ! ! T.T.T.^ +.d T T T.T.T.T.T.T.T.T.",
"T.n.n.n.T.p p c m.m.T.T.T.T.T.z M h Z Z C o.o.1.M M A h p p p p p : = = , , * % . . > ; + = . + + * = @ . . = & = = = = = ; ; $ T.T.T.) ) f I I T.T.T.T.T.T.T.T.",
"T.n.n.n.T.p p c m.m.T.T.T.T.T.v m b Z M C o.o.1.M N A h i p p p p = = = , < * . . . * = = * . + + = % O . . @ = = = = = = = 6 ; T.T.T.) ) f I I T.T.T.T.T.T.T.T.",
"T.n.n.n.T.p p { J.J.T.T.T.T.T.h m M C Z C Z B o.2.<.Z Z M h h p p p > > , , * > > = ; = ; = % . . ; = % > , = , = = = = * = = = T.T.T.B.V.h v z T.T.T.T.T.T.T.T.",
"T.n.n.n.T.g p k n.D.T.T.n.n.n.h M M M M C 6.3.*.2.2.6.6.C C J Z C Z p p p g p i p y y , = : = ; > y , > = > : : = = = = = + * = P T.T.m.m.h j g T.T.T.T.T.T.T.T.",
"T.H.H.H.T.f g { n.n.H.H.n.U U h m M C C 2.6.6.6.5.5.5.6.2.6.6.6.6.C Z Z M m C h f x A h a a g p p 3 , p , : y 3 = = = = & * = * 7 T.T.F.F.h a p T.T.T.T.T.T.T.T.",
"T.T.T.I I g g [ n.n.n.n.n.f g h k k C C Z 6.6.2.J J 6.6.6.6.2.<.C 2.J C <.J C Z Z M M M x h h u , p p , , > = : , = = & = = . = = T.T.Y.J.x h M ^ T.T.T.T.T.T.T.",
"T.T.T.z z h f T n.n.n.n.n.g g h M M b N Z M M 2.2.2.2.2.V <.<.<.C C 2.<.J <.M M M B M m A h f p p , : 9 , 4 , = * @ & . . = = = : T.T.T.T.m A M ..T.T.T.T.T.T.T.",
"T.T.T.z z h f R n.n.n.n.n.g g h M M M N Z M M 2.2.2.2.2.C 2.2.<.<.C <.<.<.<.M M Z B A M h k f p p , : p , , : < = & @ . = = & = : T.T.T.T.x M h X.T.T.T.T.T.T.T.",
"T.T.T.g j z h ( f.f.`.}.}.p p g A A M M M Z Z Z J J C C <.N Z <.C C C C M M Z M M M M M h f h f p , , : , , = = & . . = . . = = : T.T.T.T.x A M ] T.T.T.T.T.T.T.",
"T.T.T.g p c c 9.;X;X;X;X:X0.7.g f j A h M h h M Z Z Z Z Z M M M M Z M Z M M M A h m h k f f j p a , , i > > = O = O O % = . = = 5.|.oXT.T.c M M c T.T.T.T.T.T.T.",
"T.T.T.g g x c OX=X=X;X;X;Xf.a.p h f M M M A A h A k J C A M M M M m Z Z N M b A m b A k M M h : : p i i < = & % = . . = @ = = = k.,X>X.X X} h h x T.T.T.T.T.T.T.",
"T.T.T.p a M b -X;X;X;X;X;XXX Xs p p h A h h h M f h A h h M M h A M M m N N A A x A f f g p s y i , 4 , - - . . X % % = = = 6 , >X,X>Xj.j.R A A x T.T.T.T.T.T.T.",
"T.T.( g p c c e.,X,X;X+X$X}.}.t.p p x h M h h p a a f f M M M A M h h h A A Z f f h i i i 9 p 4 i 4 4 > = > .   % = = = > = r.r.v.j.j.}.{.) k A A T.T.T.T.T.T.T.",
"T.T.( a g c c 9.,X,X>X+X$X}.}.t.4 p x h m h f p p a f f A M M M M h h h A A Z g f h p y i p p i , 4 i : = : . . + = = * > ; r.r.].k.h.{.{.) M x k T.T.Y.T.T.T.T.",
"T.T.U f f X.X.p.$X$X X*X-X$X$X&Xc c i p x h k d h h f h h A A M M f k x A h h h h g s p i 3 i : , , > : . . = = = . X ; 5 5 g.g.;X:X-X,X>XM.h A b T.T.T.T.Y.T.T.",
"T.T.v h h B.B.6. X X*X X X}.}.*X~.`.4 4 i g f p j j i i h g g h h h f f p p i p p j , , , , p = = = = = > : . % & = = 6 ~.~.*X*X,X;X:X;X;X&Xh h A T.T.T.T.T.T.T.",
"T.T.p A A Z N J y.y.f.8.w.p.p.[.`.[.O.O.4 9 p a u p 9 p p j g h h y u u p p h p p p : : , < , = > * * % * % = @ = 6 6 r.%X&X;X;X;X#X#X.X X:Xh A k Y.Y.T.T.Y.T.Y.",
"T.T.f h h N N 3.3.3.3.3.3.3.3.3.3.3.3.3.{ 5 5 , 4 y > , 9 g g p j j , , y y p , : , , , < : = = * = > * * * * ; 5  .O.s.%X$X-X*X%X-X:X.X.X;XA A h <.C T.Y.T.T.Y.",
"1.3.h h h , , N 3.3.e.3.3.3.3.3.N N N V V 3.3.z 6 6 , , : p p a p y y y i i , , 4 i = > = & = + + . . + $ ; z 5 k a.d.|. X X#X#X#X%X%X.X.X&Xe.e.h C C Y.Y.T.Z.Z.",
"2.<.h f f 3 , N *.-.y.*.3.3.3.3.N N N N N 3.3.z 7 6 , > , p 9 a p y : : i i : 4 4 4 > , = & < . .   . = @ ; r r k d.a.|..X|.#X#X#X%X&X.XOX&Xe.e.h C C Y.Y.Y.Z.S.",
"C <.A g j N N d.N N J N N J N N V N 3.3.3.N N N i.i.l t = ; ; > = > : > > * , > : @ & & & = . = + 7 6 $ $ $ 3 3 d y.p.|.|.|.|.|.|..X.XOXOX&Xp.p.h g f L Q J.S.S.",
"j g p d a  X X Xv.`.y.N N N N N N N N N J N Z i.v._.u.u.0 r r r r r # - O O @ @ @ @ l d ; # $ t t 2 # $ o X 0 q q 8.9.].].].].].].{.oX|.|..XoXoXy p p L L Y.#.F ",
"T.T.j.=X=X=X-X*X.X.X#X6.4.N N N N N N N N ,.z.q.`._.q.q.0 0 0 D D &.8 8 # # o 2 2 ;.w.w.0 0 o q w # 1 # o X q q t 7.7.k.a.a.h.k.k.k.k.].].|.{.oXZ K L L L Q G G ",
"f.f.}.=X=X=X-X*X#X$X.X}.}.[.[.N N N ,.,.z.:.:.=.=.=.&.&.2 e 0 &.&.&.2 2 o o o 2 2 #.=.=.0 0 o 8 8 1 # 3 X o 2 8 S 3.3.a.a.a.e.e.s.a.a.d.a.].].].N K K L L L M.m.",
"v.j.=X=X=X*X*X=X#X$X$X X.X=X=X}.N M ,.,.z.H F H v.v.&.&.S S S &.&.0 2 2 o o o 2 2 2 S S 1 1 1 0 8 # 1 2 X X 8 8 8 *.*.p.p.p.5.5.8.6.5.p.p.a.m M M K K L L L Y.J.",
"`.k.=X=X=X=X=X=X$X$X$X X X=X=X}.V N z.,.l.H =.H v.v.&.&.H S S &.&.0 2 2 o o o 2 2 2 S w 2 2 1 3 8 # 1 2 X o 8 8 8 2.J y.p.p.5.5.0.4.5.p.y.a.k k N K K L L L T.Y.",
"f.f.=X=X=X=X=X=X=X=X}. X X*X=X[.3.3.x.x.>.=.=.=.u.u.&.&.S S S #.#.S o o o o 2 2 2 2 0 0 8 0 2 1 1 # 1 0 X X # 1 l 3 , C 6.1.2.2.C N N 5.5.d k k W K K K L L J.T.",
"].].-X=X=X$X#X,X>X>X X}.}. X.Xf.3.3.z.z.=.v.v.q.u.u.&.F F #.#.#.F e o o o o 1 o o o 2 2 2 1 2 1 1 3 2 3 9 a 3 2 n H J , 3 p 2.3.C J J *.*.d h k M K K K K L Y.J.",
"A.A.$X;X;X X X X{.v.3.3.3.3.3.3.V H v./.v.v.v.#X&.&.H S S F #.#.#.2 $ o o o 1 o o o o o 2 1 0 q q 3 8 e N V 1 # 9 0 0 2 , < , , 9 p 9 p p d 9 p a K K K L L J.T.",
"T.T.6.v.k.v.v.*.p.p.N 3.3.[.[.N J N '.'.v.v.v.&XS S #.#.F >.>.F #.2 o o 2 2 e 2 1 o o o 1 1 8 q S 3 3 n -.-.3 2 3 1 - w 3.6.5.5., , , y , p p a d k h L L L T.J.",
"T.J.<.3.6.Z <.N 8.8.N 3.3.N N J l.l.v./._.v.v.v.S S #.#.:.l.z.:.:.2 o o N N 8.0 0 o o o 1 2 0 D D q e n -.-.7.7.2 0.0.5.e.p.p.p.9.J J 3 3 p a a d k k L L L Y.Y.",
"T.T.N 3.6.Z N J e.7.N 3.6.Z N N l.l./.v._.v.v.[.S S #.#.:.l.z.:.:.2 # o N N 8.0 0 o o o 2 2 0 D D q q S -.-.7.7.3 8.8.8.e.e.p.s.9.C C 3 3 u a a l k b L L L J.T.",
"T.T.J f.f.p.y.3.N N N N J {.v.}..X.Xc.x.v.q.q.v.S S v.v.x.x.c.:.:.2 o o e 0 y.N N 2 2 1 1 2 8 H H 2 8 e H H 0.0.9.s.p.p.s.p.y.e.p.e.p.J <.p M N N J C L L L Y.Y.",
"T.T.3.p.y.}.}.8.3.3.8. X X*X*X,X*X*Xv.].v.=.=.w.S S z.,.c.^.^.:.:.o o o 2 2 e 0 0 2 S S F F w w S 3 0 3 e q 4.5.p.k.k.h.p.s.a.s.s.8.8.p.y.b h l b J J L L Q Y.T.",
"T.T.4.d.f.[.[.y.3.3.}.,X,X;X>X,X1X1X;X-X'._._.H >.>.x.x.^.c.c.#.F o 2 2 2 2 o o o 2 S S ,.,.>.0 0 q S 8 e e v.].].`.`.s.9.9.s.s.a.e.e.[.].`.k k b b b Q Q L T.Y.",
"T.T.N.3.3.3.3.6.N N >X>X>X1X1X1X>X:X,X,X<X.X.XS >.>.z.l.^.x.x.S H o 2 2 2 2 2 o o o w w x.x.z.0 0 F F XXh.h.a.h.h.a.f.k.|.|.a.a.d.].].oX}. Xb k b M N L Q Q T.T.",
"T.T.T.N N Z V Z `.v.*X,X,X1X1X;X*X*X;X>X$X[.].n >.>.`.v.}.>.>.0 0 o 0 0 e e 2 o o o 0 8 x.x.c.:.>.-X=X:X*X*X*X*X:X-X-X{.e.9.{.{.|.OXOXf.h.d.b b N b N Q Q L T.T.",
"T.T.T.N N 8.8.N k.`.f.v.].-X*X#X.X.X#X#X[.y.p.[.=X=X,X,X,X`.k.3 2 o S S S S 0 2 2 o 2 2 :.:.c.`.[.>X>X;X-X*X*X*X-XOXOX{..X.Xh.h.{.v.].e.e.J N N N N b Q Q Q T.T.",
"T.T.T.N N 8.8.N k.v.f.k.k.*X-X&X.X.X$X$X[.y.p.[.=X=X,X,X,Xv.v.2 2 @ S S S S e 2 2 o 2 2 :.:.c.`.`.>X>X>X*X-X*X*X-X#XOX{..XOXh.k.oX].v.e.9.2.N b N N N Q Q Q T.T.",
"T.T.T.3.3.y.p.3.N N 3.3.6.y.y.v.-X-X[.[.k..X.X1X,X>X>X,X-X;X>X&X&X& S H w.w.S e e o 2 2 S S x.f.f.v.k.OX>X>X&X&X$X.X.X,X$X$X#X#XZ 2.2.J J N b N J *.4.Q Q Q T.T.",
"T.T.T.3.3.y.y.3.N N N 3.6.6.3.f.k.v.f.f.d.1X1X;X>X>X,X,X#X*X*Xk.v.2 H &.q.q.F e e 2 o o 0 0 l.w.8.y.p.].|. X&X&X#X<X<X;X;X;X<X<XM 2.3.N N N 3.*. .Y E Q Q Q T.T.",
"T.T.T.N.N.J N N a.h.6.N N f.f.8.0.0.e.y.3.v.v.h.}.}..XOX.X-X-Xd.d.2 F &.=.=.S S S 0 o o 2 3 :.e.y.y.e.d.f.d.v.{.`.+X+X:Xd.d.{.{.N N b N N b N N Y Q Q Q Q Q T.T.",
"T.T.T.T.T.N.A.*.].v.p.3.3.N N N y.p.3.3.<.5.3.3.3.3.k.v.k.v.k.6.3.H >.>.,.,.S 0 0 0 2 3 2 2 F 3.3.y.y.3.3.3.p.p.y.j.v.`.y.y.y.y.N N N N N N 3.*.} E E Q ! Q T.T.",
"T.T.T.T.T.T.T.-.`.k.y.y.y.3.3.N J b J M M Z J 3.3.3.3.3.e.J Z >.>.i.l.l.l.l.S 0 0 0 H &.q 0 >.x.x.H J b 3.3.p.y.e.y.y.y.y.y.N b N b N N N N 3.*.J N V Q Q Q T.T.",
"T.T.T.T.T.T.T.6.`.v.y.y.y.3.3.N M J b H Z Z b *.3.3.3.*.y.J Z >.>.i.l.l.l.l.S 0 0 e &.&.0 0 >.x.x.Z b J 3.3.y.y.y.y.y.q.y.y.N N N N N N N N 3.3.*.N N Q Q Q T.T.",
"T.W.W.W.T.T.T.N.y.y.y.3.3.N N p.v.k.k.v.k.p.p.<.J J J A J <.A >.>.l.x.x.l.l.S S S S v.i.i.i.S x.x.y.y.y.6.6.N N N N N N N N N N N *.3.3.3.3.3.3.J N N Q Q T.T.T.",
"T.W.W.W.T.T.T.T.N.C.3.N N y.y.y.].k.OX X`.v.k.v.k.v.k.k.v.G G l.l.l.l.l.,.z.S S S =.i.i.i.i.S 6.3.y.s.v.p.p.p.y.4.3.3.3.N N N N N N N J N 3.N N } R ^ T.T.T.T.T.",
"T.W.W.W.T.T.T.T.T.R.K.N N y.y.y.6.6.y.y..X.X.X X.X Xv.k.3.N <.z.l.l.,.,.S S ;.:.=./.).).!.!.@X4.3.p.p.k.v.`.`.v.y.y.y.p.N J N N N N N N N N ( ( T.T.T.T.T.T.T.T.",
"T.W.W.W.T.T.T.T.T.R.W.K.N.3.3.y.3.6.3.3.3.6.3.3.<.A <.Z N ( U n S ~ t t %.%.@.U.U.I.T.T.T.T.I.(.(.3.3.3.p.p.p.y.y.y.y.3.N N N V N N H ( ( T.T.T.T.T.T.T.T.T.T.T.",
"T.W.W.W.T.T.T.T.T.T.T.T.T.N.N.3.3.3.3.3.3.3.3.N N N N N ( T.T.T.n.n.n.n.L.L.P.T.T.T.T.T.T.T.T.T.Y.A.A.3.3.3.3.3.3.3.3.3.N N ~ ~ T.T.T.T.T.T.T.T.T.T.T.T.T.T.T.T.",
"T.T.T.T.T.T.T.T.T.T.T.T.T.N.N.3.3.3.3.3.3.3.3.N N N N N ( T.T.T.T.T.T.T.L.L.P.T.T.T.T.T.T.T.T.T.T.A.A.6.3.3.3.3.3.3.3.3.N N ~ ~ T.T.T.T.T.T.T.T.T.T.T.T.T.T.T.T.",
"T.T.T.T.T.T.T.T.T.T.T.T.T.T.T.T.T.T.Y.Y.A.N N N N N ) _ T.T.T.T.T.T.T.T.T.T.T.T.T.T.T.T.T.T.T.T.T.T.T.A.3.3.V N J N N ) T.T.T.T.T.T.T.T.T.T.T.T.T.T.T.T.T.T.T.T.",
"T.T.T.T.T.T.T.T.T.T.T.T.T.T.T.T.T.T.T.T.T.T.T.T.T.T.T.T.T.T.T.T.T.T.T.T.T.T.T.T.T.T.T.T.T.T.T.T.T.T.T.T.T.T.T.T.Y.T.T.T.T.T.T.T.T.T.T.T.T.T.T.T.T.T.T.T.T.T.T.T."
};
