/* XPM */
static char *ressource_1_pVKKn[] = {
/* columns rows colors chars-per-pixel */
"40 40 195 2 ",
"   c #580909",
".  c #6D0204",
"X  c #640A0D",
"o  c #670708",
"O  c #740404",
"+  c #7D040B",
"@  c #730A0B",
"#  c #7B0508",
"$  c #7C0A12",
"%  c #751222",
"&  c #4B3333",
"*  c #543935",
"=  c #705112",
"-  c #6C4A1E",
";  c #7A5525",
":  c #6A563E",
">  c #644C29",
",  c #39364B",
"<  c #3B394C",
"1  c #373347",
"2  c #473544",
"3  c #414154",
"4  c #45465A",
"5  c #47485B",
"6  c #635C56",
"7  c #6B6458",
"8  c #766955",
"9  c #786A55",
"0  c #525366",
"q  c #545D72",
"w  c #5D657A",
"e  c #5D687E",
"r  c #686460",
"t  c #747269",
"y  c #7D7965",
"u  c #8C0105",
"i  c #82030B",
"p  c #8D000A",
"a  c #8A0706",
"s  c #9A0104",
"d  c #960407",
"f  c #850419",
"g  c #900011",
"h  c #970515",
"j  c #831414",
"k  c #A20008",
"l  c #AB0111",
"z  c #B40012",
"x  c #8B0023",
"c  c #870824",
"v  c #930123",
"b  c #9E0025",
"n  c #92162A",
"m  c #8B0E3A",
"M  c #8D192D",
"N  c #AE0225",
"B  c #AA0026",
"V  c #B40026",
"C  c #BB0024",
"Z  c #B2002A",
"A  c #BF002C",
"S  c #BB0135",
"D  c #A00932",
"F  c #852336",
"G  c #CA0039",
"H  c #D2003E",
"J  c #865A16",
"K  c #8F631A",
"L  c #9C6E1D",
"P  c #9A7931",
"I  c #AA7A25",
"U  c #B1164C",
"Y  c #BD1859",
"T  c #BA1D51",
"R  c #9A3148",
"E  c #BA2745",
"W  c #B92358",
"Q  c #CD004A",
"!  c #CC074B",
"~  c #C42557",
"^  c #D30065",
"/  c #D4006C",
"(  c #C92864",
")  c #CC3768",
"_  c #D12671",
"`  c #CD3275",
"'  c #C63B76",
"]  c #806F56",
"[  c #994364",
"{  c #A94768",
"}  c #BD5171",
"|  c #877B64",
" . c #C25B7F",
".. c #B38A2F",
"X. c #BB9536",
"o. c #AD8534",
"O. c #BBA055",
"+. c #898062",
"@. c #968B68",
"#. c #A79B7B",
"$. c #D2AA43",
"%. c #D8AE44",
"&. c #CCAD56",
"*. c #D4B55D",
"=. c #D4B354",
"-. c #63738C",
";. c #6B778D",
":. c #6D788E",
">. c #6C7C92",
",. c #717F93",
"<. c #D91480",
"1. c #DB318C",
"2. c #E93EB5",
"3. c #BF6A91",
"4. c #9275B0",
"5. c #D44E89",
"6. c #E15197",
"7. c #DA74A5",
"8. c #E56BB0",
"9. c #9F76C0",
"0. c #FA7FF1",
"q. c #6E8197",
"w. c #738296",
"e. c #73869A",
"r. c #79869A",
"t. c #798DA1",
"y. c #8F9092",
"u. c #A89D8F",
"i. c #BFB28D",
"p. c #8294AC",
"a. c #8297A8",
"s. c #899FB1",
"d. c #9889B4",
"f. c #8EA7B7",
"g. c #8FA8B8",
"h. c #9CA6B9",
"j. c #95ACBB",
"k. c #98A6B8",
"l. c #9CB2BF",
"z. c #E291B9",
"x. c #AE8BCA",
"c. c #9CAFC0",
"v. c #ACB7C8",
"b. c #ABBECB",
"n. c #A5B5C5",
"m. c #B2BECF",
"M. c #DE8AC3",
"N. c #DB97C4",
"B. c #C28FD9",
"V. c #C292DC",
"C. c #C59CDD",
"Z. c #E488C4",
"A. c #EC9DC7",
"S. c #ECAAD9",
"D. c #ECB2DE",
"F. c #F0B3D8",
"G. c #CA9DE3",
"H. c #FD8DFB",
"J. c #FC95F7",
"K. c #D9B4EB",
"L. c #F1B9E7",
"P. c #FCA6F8",
"I. c #FCBBF8",
"U. c #B9C5D5",
"Y. c #B6C5D3",
"T. c #B3C3D3",
"R. c #C0CEDC",
"E. c #CAD5DD",
"W. c #D5D8DF",
"Q. c #EBD3DC",
"!. c #C8D5E1",
"~. c #D1DBE3",
"^. c #DADEE3",
"/. c #DEDDF2",
"(. c #F3C2E3",
"). c #F2CAE9",
"_. c #F3D8E4",
"`. c #F6D5EC",
"'. c #FCC8F8",
"]. c #F7DBF4",
"[. c #E1CFED",
"{. c #D7E1EE",
"}. c #DBE3EE",
"|. c #DBE1E7",
" X c #DCE5F1",
".X c #DEE8F2",
"XX c #E4E9EE",
"oX c #FDE4FC",
"OX c #F6EAF4",
"+X c #EEF3F6",
"@X c #F3F5F9",
"#X c #FDFBFD",
"$X c #F8F4F8",
"%X c #E4EBF4",
"&X c None",
/* pixels */
"&X&X&X&X&X&X&X&X&X&X&X&X&X&X&X&X&X&X&X&X&X&X&X&X&X&X&X&X&X&X&X&X&X&X&X&X&X&X&X&X",
"&X&X&X&X&X&X&X&X&X&X&X&X&X&X&X&X&XO.X.P P X.L J &X&X&X&X&X&X&X&X&X&X&X&X&X&X&X&X",
"&X&X&X&X&X&X&X&X&X&X&X&X&X&X&X&XO.$.%.=.P &.I I ; &X&X&X&X&X&X&X&X&X&X&X&X&X&X&X",
"&X&X&X&X&X&X&X&X&X&X&X&X&X&X&X&XO.&.%.*.*.*.I &.; &X&X&X&X&X&X&X&X&X&X&X&X&X&X&X",
"&X&X&X&X&X&X&X&X&X&X&X&X&X&X2 r.= ..o.o.K K ; ; 2 :.< &X&X&X&X&X&X&X&X&X&X&X&X&X",
"&X&X&X&X&X&X&X&X&X&X&X&X&X&Xr.^.* ; J = =.- - & 2 h.>.&X&X&X&X&X&X&X&X&X&X&X&X&X",
"&X&X&X&X&X&X&X&X&X&X&X&X&X< XX@X+XP ; = = = & ; v.v.U.< &X&X&X&X&X&X&X&X&X&X&X&X",
"&X&X&X&X&X&X&X&X&X&X&X&X&X, XX+X@X@X^.P ; > ~..XU.v.U.< &X&X&X&X&X&X&X&X&X&X&X&X",
"&X&X&X&X&X&X&X&X&X&X&X&X&X, E.|.+Xu.i.~.~.E.#.y.c.k.v.< &X&X&X&X&X&X&X&X&X&X&X&X",
"&X&X&X&X&X&X&X&X&X&X&X&X&X&Xw -.a.y @.#.+.| | t ,.,.w &X&X&X&X&X&X&X&X&X&X&X&X&X",
"&X&X&X&X&X&X&X&X&X&X&X&X&X&X, q ;.6 | @.] 9 8 7 w.w < &X&X&X&X&X&X&X&X&X&X&X&X&X",
"&X&X&X&X&X&X&X&X&X&X&X&X&X&X&X1 -.5 5 5 5 5 4 4 w 1 &X&X&X&X&X&X&X&X&X&X&X&X&X&X",
"&X&X&X&X&X&X&X&X&X&X&X&X&X&X< g.k.7 | +.: 7 7 6 w f.1 &X&X&X&X&X&X&X&X&X&X&X&X&X",
"&X&X&X&X&X&X&X&X&X&X&X&X&X&X3 g.Y.y t | : 8 6 8 w j.1 &X&X&X&X&X&X&X&X&X&X&X&X&X",
"&X&X&X&X&X&X&X&X&X&X&X&X&X&Xg.~.T.l.j.f.;.s.>.q.r.-.g.&X&X&X&X&X&X&X&X&X&X&X&X&X",
"&X&X&X&X&X&X&X&X&X&X&X&X&X0 E.~.T.T.n.j.,.f.q.>.w.-.e , &X&X&X&X&X&X&X&X&X&X&X&X",
"&X&X&X&X&X&X&X&X&X&X&X&X3 g.+X}.E.E.Y.T.r.f.q.e.e.s.:.j.< &X&X&X&X&X&X&X&X&X&X&X",
"&X&X&X&X&X&X&X&X&X&X&X&Xg.XX#X#X$XQ._.z.E ) E ~ l a.a.,.g.&X&X&X&X&X&X&X&X&X&X&X",
"&X&X&X&X&X&X&X&X&X&X&X< E.@X#X#X#X$X$XA.~ _ ~ ( ~ Z h.a.>.< &X&X&X&X&X&X&X&X&X&X",
"&X&X&X&X&X&X&X&X&X&X&XE..X%X].@X#X#X#XQ.( _ ` 5.' ' 3.!.R.d.&X&X&X&X&X&X&X&X&X&X",
"&X&X&X&X&X&X&X&X&X&X&X{./.)._.Q._.`.L.A.! ` ( 5.N.@ # j t.4.&X&X&X&X&X&X&X&X&X&X",
"&X&X&X&X&X&X&X&X&X&X&X{.@XOX$XOX_.(.S.8.H 6.z.z.A.O o X e.x.&X&X&X&X&X&X&X&X&X&X",
"&X&X&X&X&X&X&X&X&X&X&X}.H.$X#X].~ <.G Q ! Q z u u d . @ @ C.&X&X&X&X&X&X&X&X&X&X",
"&X&X&X&X&X&X&X&X&X&X&X{.H.#X#XL.~ ^ G ^ ^ ^ z u W l $ $ X G.&X&X&X&X&X&X&X&X&X&X",
"&X&X&X&X&X&X&X&X&X&X&X{.H.#XoXD.Y Z G ^ ^ ^ z p T l a $ X C.&X&X&X&X&X&X&X&X&X&X",
"&X&X&X&X&X&X&X&X&X&X&X{.P.#XoXD.Y Z G ^ ^ ^ C p d N d i X V.&X&X&X&X&X&X&X&X&X&X",
"&X&X&X&X&X&X&X&X&X&X&X{.P.#X].L.Y N G ^ ^ ^ C p d V s i X V.&X&X&X&X&X&X&X&X&X&X",
"&X&X&X&X&X&X&X&X&X&X&X{.I.#X].D.Y Z G / ^ ^ A g d V k i X V.&X&X&X&X&X&X&X&X&X&X",
"&X&X&X&X&X&X&X&X&X&X&X{.I.#X].S.U N G / ^ ^ C g s V k i X V.&X&X&X&X&X&X&X&X&X&X",
"&X&X&X&X&X&X&X&X&X&X&X X'.#X].D.U Z ^ 1.^ Q N g s V s + X V.&X&X&X&X&X&X&X&X&X&X",
"&X&X&X&X&X&X&X&X&X&X&X.X'.#X).Z.h { m m m # @ a k k s # X V.&X&X&X&X&X&X&X&X&X&X",
"&X&X&X&X&X&X&X&X&X&X&X/.'.$XL.Z. .D x x f f $ b s O u i   V.&X&X&X&X&X&X&X&X&X&X",
"&X&X&X&X&X&X&X&X&X&X&X XH.P.L.z.S B f v x x c b S # O #   V.&X&X&X&X&X&X&X&X&X&X",
"&X&X&X&X&X&X&X&X&X&X&X{.[.H.'.(.G h x x x x c v B . O R -.9.&X&X&X&X&X&X&X&X&X&X",
"&X&X&X&X&X&X&X&X&X&X&X{.Y.2.F.(.T V b v x f f h l . O { -.9.&X&X&X&X&X&X&X&X&X&X",
"&X&X&X&X&X&X&X&X&X&X&X< s.p.7.7. .{ F n n c $ c h j o a.r., &X&X&X&X&X&X&X&X&X&X",
"&X&X&X&X&X&X&X&X&X&X&X&X/.p.m.( n F { [ F % % j j X :.e.9.&X&X&X&X&X&X&X&X&X&X&X",
"&X&X&X&X&X&X&X&X&X&X&X&X&X, {.e.k.d . o     o u b.n.e., &X&X&X&X&X&X&X&X&X&X&X&X",
"&X&X&X&X&X&X&X&X&X&X&X&X&X&X&X3 0 R.m.U.U.T.K.G.0 4 &X&X&X&X&X&X&X&X&X&X&X&X&X&X",
"&X&X&X&X&X&X&X&X&X&X&X&X&X&X&X&X&X4 5 5 5 5 5 4 &X&X&X&X&X&X&X&X&X&X&X&X&X&X&X&X"
};
