/* XPM */
static char *ressource_2_eFuKv[] = {
/* columns rows colors chars-per-pixel */
"40 40 200 2 ",
"   c #333615",
".  c #353A16",
"X  c #363B19",
"o  c #3A3D1C",
"O  c #142127",
"+  c #182B35",
"@  c #1F343F",
"#  c #292D2B",
"$  c #262C29",
"%  c #37283B",
"&  c #26353B",
"*  c #283B3B",
"=  c #2A373A",
"-  c #2D3639",
";  c #5B3617",
":  c #633810",
">  c #6D3A13",
",  c #733C13",
"<  c #442D2F",
"1  c #3F4C20",
"2  c #2A403D",
"3  c #744519",
"4  c #464827",
"5  c #4E4823",
"6  c #484A29",
"7  c #484523",
"8  c #564828",
"9  c #554D37",
"0  c #695432",
"q  c #735535",
"w  c #714F2A",
"e  c #6F603C",
"r  c #70603E",
"t  c #193A42",
"y  c #2A3A41",
"u  c #233B49",
"i  c #2E3F4E",
"p  c #184C48",
"a  c #16534D",
"s  c #1C534D",
"d  c #19455B",
"f  c #1A495A",
"g  c #1C4254",
"h  c #175358",
"j  c #324346",
"k  c #22564B",
"l  c #2D504F",
"z  c #27425B",
"x  c #334756",
"c  c #265355",
"v  c #3D614A",
"b  c #2D6050",
"n  c #1E4767",
"m  c #274866",
"M  c #384E68",
"N  c #1B6466",
"B  c #1E7076",
"V  c #1F747A",
"C  c #1E6F75",
"Z  c #266A67",
"A  c #217074",
"S  c #226F74",
"D  c #5F4C41",
"F  c #575647",
"G  c #405556",
"H  c #7C5C41",
"J  c #6D554C",
"K  c #796440",
"L  c #497B6E",
"P  c #507A6C",
"I  c #62756F",
"U  c #83491A",
"Y  c #814D20",
"T  c #885A27",
"R  c #875D38",
"E  c #975B27",
"W  c #87663B",
"Q  c #986937",
"!  c #A87136",
"~  c #836D47",
"^  c #8F6D49",
"/  c #896E46",
"(  c #85714C",
")  c #8B744E",
"_  c #93724A",
"`  c #9C7847",
"'  c #8D7B5A",
"]  c #937553",
"[  c #977855",
"{  c #916F48",
"}  c #AF7D45",
"|  c #8D7569",
" . c #57887F",
".. c #62817F",
"X. c #7D9568",
"o. c #76A175",
"O. c #AF844E",
"+. c #AB885B",
"@. c #B08351",
"#. c #BB9258",
"$. c #BC8A4A",
"%. c #8D8A66",
"&. c #908A74",
"*. c #A98366",
"=. c #B4876D",
"-. c #B38A6C",
";. c #AE9270",
":. c #B5987C",
">. c #AE8F70",
",. c #C6934E",
"<. c #C39252",
"1. c #C9A164",
"2. c #3C5B8A",
"3. c #3F6694",
"4. c #476C99",
"5. c #596180",
"6. c #737695",
"7. c #797BAB",
"8. c #817BA1",
"9. c #258EAB",
"0. c #3B96BD",
"q. c #3685AD",
"w. c #588A84",
"e. c #53908B",
"r. c #6C8E86",
"t. c #6FB988",
"y. c #4394BC",
"u. c #5C9CA0",
"i. c #7D8FAC",
"p. c #3E9AC5",
"a. c #419DC8",
"s. c #4098C3",
"d. c #6C94C0",
"f. c #4AA0CA",
"g. c #6FA3CA",
"h. c #7DA9C6",
"j. c #77DDDF",
"k. c #81919A",
"l. c #BB9C81",
"z. c #8EB589",
"x. c #ACA385",
"c. c #8989B2",
"v. c #928EAD",
"b. c #A394B8",
"n. c #80A2AA",
"m. c #A8BAA5",
"M. c #C29C82",
"N. c #C3A98E",
"B. c #C6A996",
"V. c #D1BA9D",
"C. c #D3B896",
"Z. c #D1BAA5",
"A. c #8CCA9D",
"S. c #90CB9E",
"D. c #9FCB97",
"F. c #A2C29A",
"G. c #98CCA1",
"H. c #9ADCAE",
"J. c #B8C9B8",
"K. c #CDC1AB",
"L. c #D7C1A4",
"P. c #D9C6BA",
"I. c #D7C5BA",
"U. c #E8D5BE",
"Y. c #8CACCC",
"T. c #B1A2C0",
"R. c #BCB3CA",
"E. c #ACB5CF",
"W. c #C8BAC9",
"Q. c #9ED9CD",
"!. c #BDD8CC",
"~. c #ADCCD8",
"^. c #9DE6DE",
"/. c #A7E4DC",
"(. c #BFC9E1",
"). c #9CE7E0",
"_. c #D5D2CF",
"`. c #E4D8CF",
"'. c #E3DBD3",
"]. c #DBE1D7",
"[. c #EBE4DE",
"{. c #C2D0E1",
"}. c #D9D5E1",
"|. c #D7D6E3",
" X c #CED5EE",
".X c #E4DFEB",
"XX c #D3E7F1",
"oX c #D8F7F8",
"OX c #DBE4EF",
"+X c #EDE8E2",
"@X c #EBE9EC",
"#X c #F1ECE8",
"$X c #E4EBF2",
"%X c #EAECF4",
"&X c #E9E3F1",
"*X c #E7FBFD",
"=X c #E7F7FA",
"-X c #FCFBFC",
";X c #F6F6F7",
":X c None",
/* pixels */
":X:X:X:X:X:X:X:X:X:X:X:X:X:X:X:X:X:X:X:X:X:X:X:X:X:X:X:X:X:X:X:X:X:X:X:X:X:X:X:X",
":X:X:X:X:X:X:X:X:X:X:X:X:X:X:X:X:X:X:X:X:X:X:X:X:X:X:X:X:X:X:X:X:X:X:X:X:X:X:X:X",
":X:X:X:X:X:X:X:X:X:X:X:X:X:X:X:X:X, , , > > > :X:X:X:X:X:X:X:X:X:X:X:X:X:X:X:X:X",
":X:X:X:X:X:X:X:X:X:X:X:X:X:X:X:X, ! 1.1.T ! U , :X:X:X:X:X:X:X:X:X:X:X:X:X:X:X:X",
":X:X:X:X:X:X:X:X:X:X:X:X:X:X:X:XO.,.,.,.T 1.E 3 % :X:X:X:X:X:X:X:X:X:X:X:X:X:X:X",
":X:X:X:X:X:X:X:X:X:X:X:X:X:X:Xo , ! Y $.#.O.U , >.:X:X:X:X:X:X:X:X:X:X:X:X:X:X:X",
":X:X:X:X:X:X:X:X:X:X:X:X:X:X%.P.< > : : #.: % : K.( :X:X:X:X:X:X:X:X:X:X:X:X:X:X",
":X:X:X:X:X:X:X:X:X:X:X:X:XX '.+X[.T , : ; ; : % K.V.. :X:X:X:X:X:X:X:X:X:X:X:X:X",
":X:X:X:X:X:X:X:X:X:X:X:X:XX '.+X+X; @.E 3 , ; K.L.V.. :X:X:X:X:X:X:X:X:X:X:X:X:X",
":X:X:X:X:X:X:X:X:X:X:X:X:XX I._..X>.P._.P.P.| | :.N.X :X:X:X:X:X:X:X:X:X:X:X:X:X",
":X:X:X:X:X:X:X:X:X:X:X:X:X:X0 ~ %.R +.} Q R q J ~ e :X:X:X:X:X:X:X:X:X:X:X:X:X:X",
":X:X:X:X:X:X:X:X:X:X:X:X:X:XX 0 ( w _ ` T R 0 J ] X :X:X:X:X:X:X:X:X:X:X:X:X:X:X",
":X:X:X:X:X:X:X:X:X:X:X:X:X:X:X  q 5 5 5 5 5 5 8 -.:X:X:X:X:X:X:X:X:X:X:X:X:X:X:X",
":X:X:X:X:X:X:X:X:X:X:X:X:X:XX =.l.q ` Q > w 0 < K   :X:X:X:X:X:X:X:X:X:X:X:X:X:X",
":X:X:X:X:X:X:X:X:X:X:X:X:X:X=.Z.B.=.R R 8 q ^ ] e -.:X:X:X:X:X:X:X:X:X:X:X:X:X:X",
":X:X:X:X:X:X:X:X:X:X:X:X:X:X=.I.B.l.>.=.( ^ { _ ~ =.:X:X:X:X:X:X:X:X:X:X:X:X:X:X",
":X:X:X:X:X:X:X:X:X:X:X:X:X-.'.P.Z.B.B.M.' { _ _ [ r =.X :X:X:X:X:X:X:X:X:X:X:X:X",
":X:X:X:X:X:X:X:X:X:X:X:XX I.#X[.`. XE.E.w.j M n [ -.~ -.:X:X:X:X:X:X:X:X:X:X:X:X",
":X:X:X:X:X:X:X:X:X:X:X:X-.+X;X-X;X$X$X{.e...i.i.I l.*.] X :X:X:X:X:X:X:X:X:X:X:X",
":X:X:X:X:X:X:X:X:X:X:X:XM.+X#X;X;X;X&X Xe...i.Y.6.| *.;.4 :X:X:X:X:X:X:X:X:X:X:X",
":X:X:X:X:X:X:X:X:X:X:Xo %.m._.].;X-X%X%Xu.i.k.n.7.x [ ] X.:X:X:X:X:X:X:X:X:X:X:X",
":X:X:X:X:X:X:X:X:X:X:X1 m.;X;X;X%X X(.~.q.E.R.W.g $ - ` z.:X:X:X:X:X:X:X:X:X:X:X",
":X:X:X:X:X:X:X:X:X:X:Xo Q.-X-X@Xe.g.y.9.9.q.g b.2.& - - G.:X:X:X:X:X:X:X:X:X:X:X",
":X:X:X:X:X:X:X:X:X:X:Xo Q.-X-X.Xw.y.a.f.a.y.g b.2.u 2 - D.:X:X:X:X:X:X:X:X:X:X:X",
":X:X:X:X:X:X:X:X:X:X:Xo ^.-X*X.Xw.V a.a.p.0.d b.4.z = # S.:X:X:X:X:X:X:X:X:X:X:X",
":X:X:X:X:X:X:X:X:X:X:Xo ).-X*X}.w.B a.a.p.p.n v.4.m 2 # S.:X:X:X:X:X:X:X:X:X:X:X",
":X:X:X:X:X:X:X:X:X:X:Xo ).-X*X}. .C a.a.p.p.d c.4.m * # G.:X:X:X:X:X:X:X:X:X:X:X",
":X:X:X:X:X:X:X:X:X:X:Xo /.-X*X}. .C a.a.p.p.d c.4.m y # A.:X:X:X:X:X:X:X:X:X:X:X",
":X:X:X:X:X:X:X:X:X:X:XX /.-X=X}.L C p.a.p.p.d i.4.m y # S.:X:X:X:X:X:X:X:X:X:X:X",
":X:X:X:X:X:X:X:X:X:X:XX !.-X%X|.L C N Z Z s f 7.3.m & # S.:X:X:X:X:X:X:X:X:X:X:X",
":X:X:X:X:X:X:X:X:X:X:XX _.;XOXW.c &.v v v y j 7.n m * # S.:X:X:X:X:X:X:X:X:X:X:X",
":X:X:X:X:X:X:X:X:X:X:XX J.;XXX%XL Z s k s p N Y.l t * $ A.:X:X:X:X:X:X:X:X:X:X:X",
":X:X:X:X:X:X:X:X:X:X:XX x.oXoX|.S N a a a a N g.t + y # S.:X:X:X:X:X:X:X:X:X:X:X",
":X:X:X:X:X:X:X:X:X:X:X. ) j.XX.Xw.Z c s a a h i.t t &.R o.:X:X:X:X:X:X:X:X:X:X:X",
":X:X:X:X:X:X:X:X:X:X:X:XU.-.(.(.r.P b k a p g i.y y ^ W X :X:X:X:X:X:X:X:X:X:X:X",
":X:X:X:X:X:X:X:X:X:X:X:X. *.C.8.v I %.%.F F j 8.y / ] o.:X:X:X:X:X:X:X:X:X:X:X:X",
":X:X:X:X:X:X:X:X:X:X:X:X:X. U.%.:.z + + O O i v.M.[ . :X:X:X:X:X:X:X:X:X:X:X:X:X",
":X:X:X:X:X:X:X:X:X:X:X:X:X:X:Xo 9 L.V.V.C.m.H.t.8 :X:X:X:X:X:X:X:X:X:X:X:X:X:X:X",
":X:X:X:X:X:X:X:X:X:X:X:X:X:X:X:X:X4 6 6 4 4 6 o :X:X:X:X:X:X:X:X:X:X:X:X:X:X:X:X",
":X:X:X:X:X:X:X:X:X:X:X:X:X:X:X:X:X:X:X:X:X:X:X:X:X:X:X:X:X:X:X:X:X:X:X:X:X:X:X:X"
};
