/* XPM */
static char *ressource_W05Ym[] = {
/* columns rows colors chars-per-pixel */
"40 40 186 2 ",
"   c #070707",
".  c #0D0D0D",
"X  c #0E0A04",
"o  c #150F06",
"O  c #0E110E",
"+  c #12100E",
"@  c #1E160B",
"#  c #141808",
"$  c #0E0F11",
"%  c #110F11",
"&  c #0F1112",
"*  c #131313",
"=  c #141B14",
"-  c #18171A",
";  c #171A18",
":  c #1C1B1B",
">  c #181518",
",  c #20160B",
"<  c #24190D",
"1  c #241E18",
"2  c #1D201D",
"3  c #1A2B19",
"4  c #162616",
"5  c #1E341E",
"6  c #0B260B",
"7  c #2B2213",
"8  c #23211E",
"9  c #2E271B",
"0  c #322716",
"q  c #3A2C16",
"w  c #3D2F18",
"e  c #362916",
"r  c #20301D",
"t  c #37381B",
"y  c #1E1E21",
"u  c #221F23",
"i  c #1F2123",
"p  c #252525",
"a  c #282524",
"s  c #252A25",
"d  c #2A2827",
"f  c #2A2729",
"g  c #2C2C2C",
"h  c #272828",
"j  c #302E2C",
"k  c #233323",
"l  c #223B22",
"z  c #2D342D",
"x  c #2C3A2C",
"c  c #34322F",
"v  c #3E3421",
"b  c #2E3030",
"n  c #333333",
"m  c #3A3734",
"M  c #3A3936",
"N  c #3A3739",
"B  c #3C3C3B",
"V  c #373A38",
"C  c #42331B",
"Z  c #4F3A1B",
"A  c #4E2418",
"S  c #483B25",
"D  c #443A28",
"F  c #413E3D",
"G  c #005200",
"H  c #005B00",
"J  c #0E5C0E",
"K  c #1D4C1D",
"L  c #1B4B1A",
"P  c #1C571C",
"I  c #1C5C1C",
"U  c #185116",
"Y  c #006300",
"T  c #0A7B0A",
"R  c #166A16",
"E  c #196C17",
"W  c #1F651F",
"Q  c #1E6A1E",
"!  c #196017",
"~  c #157015",
"^  c #1B741B",
"/  c #1C650C",
"(  c #234323",
")  c #2A432A",
"_  c #294929",
"`  c #254D25",
"'  c #255625",
"]  c #3E423F",
"[  c #374632",
"{  c #216921",
"}  c #58411E",
"|  c #54651B",
" . c #4F422B",
".. c #524023",
"X. c #44413F",
"o. c #584C38",
"O. c #694C21",
"+. c #6F532C",
"@. c #7D5C2C",
"#. c #3F3F40",
"$. c #3F4240",
"%. c #414141",
"&. c #494642",
"*. c #4C4B4A",
"=. c #464844",
"-. c #53514F",
";. c #595348",
":. c #595551",
">. c #5E5B57",
",. c #5A5857",
"<. c #6C5F48",
"1. c #635741",
"2. c #615F5D",
"3. c #53684D",
"4. c #556153",
"5. c #5B7059",
"6. c #786A47",
"7. c #6C7040",
"8. c #66635E",
"9. c #746955",
"0. c #646362",
"q. c #6B6967",
"w. c #6E6D6B",
"e. c #716D6A",
"r. c #75706B",
"t. c #787B6F",
"y. c #797571",
"u. c #7F7B76",
"i. c #7C7C7A",
"p. c #767675",
"a. c #8A6532",
"s. c #9B7231",
"d. c #AD7E34",
"f. c #84765D",
"g. c #009500",
"h. c #099909",
"j. c #198A17",
"k. c #158815",
"l. c #119211",
"z. c #1B9619",
"x. c #0E8707",
"c. c #20911D",
"v. c #398612",
"b. c #00A300",
"n. c #0DA60D",
"m. c #09AC09",
"M. c #07AE07",
"N. c #02B202",
"B. c #06B606",
"V. c #19A417",
"C. c #38BC1D",
"Z. c #538731",
"A. c #5BBC36",
"S. c #01C401",
"D. c #00CA00",
"F. c #00D700",
"G. c #00F200",
"H. c #00FE00",
"J. c #80904D",
"K. c #9B845E",
"L. c #89816F",
"P. c #85817E",
"I. c #868583",
"U. c #898480",
"Y. c #8C8A87",
"T. c #8F8C8B",
"R. c #928E8B",
"E. c #949493",
"W. c #9D9A97",
"Q. c #9D9B9A",
"!. c #9A9794",
"~. c #A19F9E",
"^. c #A2A19C",
"/. c #A3A2A1",
"(. c #A8A5A2",
"). c #ABAAA9",
"_. c #A9AFA7",
"`. c #B0AEAD",
"'. c #B2B0AE",
"]. c #B4B3B2",
"[. c #BCBBB9",
"{. c #B8B8B6",
"}. c #C1BFBE",
"|. c #C5C3C2",
" X c #C9C9C7",
".X c #D0D0CE",
/* pixels */
"D.D.D.D.D.%.%.%.#.#.%.$.$.%.%.%.%.%.%.%.%.%.%.%.%.%.%.%.%.%.%.#.n D.D.D.D.D.D.D.",
"D.D.D.D.p p p h h g f f g g g g g b g b b g b n B B B N b h f p p s D.D.D.D.D.D.",
"D.D.D.D.R z D.B.) l.m.D.D.D.D.D.D.D.D.D.D.D.D.D.D.D.D.D.p k.W D.h K D.D.D.D.D.D.",
"D.D.D.D.l { ^ ' D.D.K D.D.G.H.D.H.H.D.%.%.D.D.D.D.D.D.D.R D.n._ f p D.D.D.D.D.D.",
"D.D.D.D.p ' ` S.D.D.s S.D.G.H.D.H.H.$.%.%.#.D.D.D.D.D.D.l.D.D.Q g p D.D.D.D.D.D.",
"D.D.D.D.p n ^ m.D.D.n.E D.D.D.H.S.%.%.D.D.%.%.D.D.D.D.B.g.g.D.T x f D.g.g.g.b.D.",
"D.D.D.D.f D.D.D.l.' V.l M.m.B =.=.B B N n n n n f ~ D.~ g.I _ x.z s D.g.g.g.b.D.",
"D.D.D.P f D.D.D.D.D.{ n K $.B b y * * * * * : g V n I K _ ` S.D.) p D.g.g.g.D.D.",
"D.D.D.s g D.D.D.D.D.D.' f n         . & $ * * * * h N n D.D.D.D.{ f ( D.g.g.D.D.",
"D.D.D.h x D.D.D.D.D.m.g N :   . . . . + $ $ * * * y B b D.D.D.D.l.g p D.N.N.D.D.",
"D.D.D.p z D.D.D.D.D.* p n b $ .   %.%.. $ F ] ; p N N i O T D.D.B.z h D.D.D.D.D.",
"D.D.I h _ D.D.D.D.J : : h n g p : %.%.. . X.X.N B V g : & * D.D.S.x p D.D.D.D.D.",
"D.D.s g ^ D.D.S.3 f g p y p h p f f g c b f i : * + $ . * * = x.D.' f D.D.D.D.D.",
"g.g.p x h.D.D.5 b V ] $.n g p h > * : . . * * O * + . * * * > 6 D.^ f K D.D.D.D.",
"g.g.p ) B.D.D.g n N N $.%.V g u 8 ; : = * ; = . * & ; > * * % * D.k.g k D.D.D.D.",
"N.N.s x g.B.L z n N =.=.*.*.%.=.B N n g g b a p : p : : * * $ * D.m.z a D.D.D.D.",
"D.k g P g.g.s g n n n %.%.%.%.#.V %.F n V n g a : 1 : : O . * % D.D.z b S.D.D.D.",
"D.p z R r.R.p f b n N B F B N #.B B n n n n g p : : : * . * * * D.D.z b D.D.D.D.",
"D.p z /.].[.r.p f b b g b #.n n n n n b c g n : i i ; $ . * % * |.!.( b D.D.D.D.",
"D.h x >.|.(.R.5.p g f p a f n b g g n g f i p 2 i > * . * * * 4.u.R.^ b D.D.D.D.",
"D.f ' 2.(.'.(._.x p g f g f g n g g g g p h 8 : > : * * . * 3 t.].}.l.z S.D.D.D.",
"D.b N F 8.:.8.U.U.[ p p a u h g u u p p p ; > ; & $ $ * 4 3.).[./.Q.{.g S.D.S.D.",
"X.f : m &.&.&.&.m m X.k 4 : 8 a y : i i : ; % . . & # 3 e.E.W./.).Q.).0.F S.D.k.",
"] a N r.m m m m m &.m m 7.t = > * > * ; + * * O 6 # # 7 0.E.E.E.Q.Q.).0.a Y S.v.",
"D.'.'.'.W.&.m m m m @.<.L.<.e S  .7 @ < ..1.0 w , @ o q -.i.w.p.P.I.E.T.H H H A ",
"u.'.'.'.(.~.`.R.m @.S  .f. .C  .0 < o < < C , 7 , 1 X 7 X.8.0.*.*.8.w.g G H H S.",
"r.'.'.'.`.~.'.P.X.d.o.o.9. .C } C o o < < 0 0 , , 0 X @ : ] X.X.M *.d j G G H S.",
"z.[.W.W.P.&.&.&.m K.f.^. .C ..} < o o o o o , w < e m @ 9 , : : 8 a d p G H H S.",
"D.&.m N :.&.N N a.K.f.L.C Z a.O.< o M 0 o o , Z q v o.;.-.-.8.0.B 1 p a j H H S.",
"D.e.8.&.D N P.R.W.s.<.i.C f.d.O.< o 0 m < , < S 9 e v ,.q.0.0.0.8.F p c B H Y S.",
"D.r.I.0.&.|.}.|..X'.L. .+.s.d...o < < o , C @.9 q 7 q i.P.w.>.q.2.U.P.j c H Y D.",
"D.m N #.f.}..X[.'.[.I.D +.f.+.0 o 0 e o o 7 s.+.].[.).`.].T.>.Y.~.y.e.c m Y Y D.",
"D.m :.m f.I.]./.Q.(.8.U.'.|.u.< + C C < o < O.U.}.}.'.`.~.T.Q.p.f.2.%.n m Y Y D.",
"D.&.8.&.N &.%.p.f.e..X[.[.|.].f.<  .6.7 < o 0 :.8.P.!.`. X}.[. X*.N m &.U Y Y D.",
"D.D.j.&.P.&.m m q.%.&.&.&.i.i.*.C +.@.0 0 < < &.8.&.&.2.f.i.8.8.m m m &.U Y Y D.",
"D.D.D.&.f.8.X.F #.N N &.&.&.N +.6.a.a.e 0  .0 s.m m &.8.8.8.8.m m m n &.V Y Y D.",
"H.H.D.D.z.m 8.8.i.Q.P.f.u.u.C a.a.a.@.C 1.6.6.&.8.f.0.8.&.&.m m m m &.N I D.D.D.",
"H.H.D.D.F.V.&.8.&.&.*.&.N m R C / t | Z.A.D.D.J.&.*.0.0.8.&.m M m R D.D.D.D.D.D.",
"D.D.D.D.D.D.j.&.&.&.&.m m m S.D.D.D.C.D.D.D.D.D.c.&.&.&.&.&.M E S.D.D.D.D.D.D.D.",
"D.D.D.D.D.D.D.D.D.S.D.D.D.D.D.D.D.D.D.D.D.D.D.D.D.D.D.D.D.D.D.D.D.D.D.D.D.D.D.D."
};
