/* XPM */
static char *wall_tree_4_0Femm[] = {
/* columns rows colors chars-per-pixel */
"40 40 176 2 ",
"   c #291B16",
".  c #372319",
"X  c #3E281E",
"o  c #342A1F",
"O  c #263D1F",
"+  c #3F3928",
"@  c #333B22",
"#  c #482E25",
"$  c #4B3021",
"%  c #533526",
"&  c #5B3B27",
"*  c #553629",
"=  c #5B3728",
"-  c #5F3D28",
";  c #623E29",
":  c #16471E",
">  c #154E21",
",  c #175424",
"<  c #195626",
"1  c #165E26",
"2  c #185C27",
"3  c #1B5729",
"4  c #1C5D2A",
"5  c #2A5A23",
"6  c #156425",
"7  c #186127",
"8  c #176826",
"9  c #1C642C",
"0  c #1C6A2D",
"q  c #177320",
"w  c #177923",
"e  c #1C742E",
"r  c #1C7A2D",
"t  c #1E6630",
"y  c #1E6C30",
"u  c #1E7331",
"i  c #1F7C32",
"p  c #206C2E",
"a  c #236531",
"s  c #226C33",
"d  c #227434",
"f  c #227C35",
"g  c #267639",
"h  c #2A723A",
"j  c #247D39",
"k  c #2D7B3D",
"l  c #46751E",
"z  c #66412B",
"x  c #6C452E",
"c  c #634233",
"v  c #694431",
"b  c #644B37",
"n  c #754C35",
"m  c #714938",
"M  c #7E513A",
"N  c #715533",
"B  c #4D7923",
"V  c #557D27",
"C  c #46733D",
"Z  c #69622F",
"A  c #795343",
"S  c #805339",
"D  c #835639",
"F  c #8D5E42",
"G  c #8E6244",
"H  c #009500",
"J  c #009C00",
"K  c #0D8414",
"L  c #10971B",
"P  c #2B8F12",
"I  c #00A300",
"U  c #07A10A",
"Y  c #08AE0C",
"T  c #19AA0B",
"R  c #01B201",
"E  c #01BD01",
"W  c #08B10C",
"Q  c #06BF0A",
"!  c #09BC0C",
"~  c #0DB813",
"^  c #11B41B",
"/  c #15BE1F",
"(  c #1D8C2E",
")  c #1B992A",
"_  c #1E8332",
"`  c #1E9F30",
"'  c #218236",
"]  c #228B36",
"[  c #25843A",
"{  c #2A843D",
"}  c #248A3B",
"|  c #298A3D",
" . c #239336",
".. c #209B35",
"X. c #25933B",
"o. c #2B933F",
"O. c #259B3C",
"+. c #299E3E",
"@. c #19A826",
"#. c #1EAA2B",
"$. c #1AB42A",
"%. c #1FB831",
"&. c #1EB231",
"*. c #26A43D",
"=. c #25AA3B",
"-. c #20BB34",
";. c #28B33E",
":. c #03C404",
">. c #00CA00",
",. c #06C909",
"<. c #00D700",
"1. c #00DD00",
"2. c #0CC513",
"3. c #00E400",
"4. c #00F201",
"5. c #00FE01",
"6. c #06F70A",
"7. c #07F80A",
"8. c #278F40",
"9. c #2C8C42",
"0. c #2B8441",
"q. c #338D46",
"w. c #279740",
"e. c #2C9443",
"r. c #279B41",
"t. c #2B9C44",
"y. c #2E9F48",
"u. c #339247",
"i. c #319847",
"p. c #339349",
"a. c #3A964F",
"s. c #349C4B",
"d. c #399A4E",
"f. c #3C9E50",
"g. c #2AA443",
"h. c #2AAD43",
"j. c #2EA349",
"k. c #2EAC4A",
"l. c #31A447",
"z. c #30AB47",
"x. c #34A44D",
"c. c #39A44F",
"v. c #32AB4D",
"b. c #2BB344",
"n. c #2EB24A",
"m. c #2EBA46",
"M. c #31B44E",
"N. c #38B04D",
"B. c #32BA4F",
"V. c #36A650",
"C. c #3BA453",
"Z. c #36AB52",
"A. c #3CAA55",
"S. c #35B552",
"D. c #3BB355",
"F. c #34B953",
"G. c #3CB358",
"H. c #3BBC5A",
"J. c #39BD53",
"K. c #449B58",
"L. c #40A64E",
"P. c #42A758",
"I. c #43AC5A",
"U. c #48AD5F",
"Y. c #43B45C",
"T. c #4AB75E",
"R. c #42BB5D",
"E. c #46BC61",
"W. c #48BB62",
"Q. c #35C150",
"!. c #3DC25C",
"~. c #36C45A",
"^. c #45C25F",
"/. c #45C363",
"(. c #49C767",
"). c #41D166",
/* pixels */
">.>.>.>.>.>.>.>.>.>.>.>.>.>.>.>.>.>.>.>.>.>.>.>.>.>.>.>.>.>.>.>.>.>.>.>.>.>.>.>.",
">.>.>.>.>.>.>.>.>.>.>.>.>.>.>.>.>.,.-.&.,.>.>.>.>.,.>.>.>.>.>.>.>.>.>.>.>.>.>.>.",
">.>.>.>.>.>.>.>.>.>.>.>.>.>.>.>.>.,.G.Z.>.>.>.>.>.,.>.>.>.>.>.>.>.>.>.>.>.>.>.>.",
">.>.>.>.>.>.>.>.>.>.>.>.>.4.5.>.5.7.d.R.H.,.,.>.>.>.>.>.>.>.>.>.H H >.>.>.>.>.>.",
">.>.>.>.>.>.>.>.>.>.>.>.>.4.5.,.7.Y.E.R.S.;.,.>.>.>.>.>.>.>.>.>.H H >.>.>.>.>.>.",
">.>.>.>.>.>.>.>.>.>.5.>.>.:.,.6.2.c.G.Z.v.k.,.>.,.>.>.>.H H >.H >.>.>.H H H I >.",
">.>.>.>.>.>.>.>.>.>.5.>.>.>.>.7.2.G.R.H.S.n.%.,.>.>.>.>.H H >.H >.>.>.H H H I >.",
">.>.>.>.>.>.>.>.>.>.>.H H E ,.,.x.G.!.!.F.S.F.h.,.>.>.>.H H >.>.>.>.>.H H H >.>.",
">.>.>.>.>.>.>.>.>.>.>.>.>.>.>.x.Z.F.F.F.n.k.Z.k.,.>.>.>.>.>.>.>.>.>.>.>.H H >.>.",
">.>.>.>.>.>.>.>.>.>.>.>.:.2.V.j V.v.k.M.S.k.y.R.` :.>.>.>.>.>.>.>.>.>.>.R R >.>.",
">.>.>.>.>.>.>.>.>.>.>.>.Q y.C.i.e.y.y.k.k.n.j.t.t.,.>.>.>.>.>.>.>.>.>.>.>.>.>.>.",
">.>.>.>.>.>.>.>.>.>.>.>.w 0.[ 9.8.y.k.k.k.Z.v.t.s.d.$.>.>.>.>.>.>.>.>.>.>.>.>.>.",
">.>.>.>.>.>.>.>.>.>.:. .F.e.x.[ [ 8.e.v.v.v.v.x.C.U.T.` >.>.>.>.>.>.>.>.>.>.>.>.",
"H H >.>.>.>.>.>.>.>.>.>.h h , g.0.8.e.8.v.N.D.T.D.] > E >.>.>.>.>.>.>.>.>.>.>.>.",
"H H >.>.>.>.>.>.>.>.>.q q.a , : 9.l.0 s.d i.T.a a 3 , 7 L >.>.>.>.>.>.>.>.>.>.>.",
"R R >.H J R H :.>.U e.} ' d 8 s a > a s s 9 , < 9 e r ] f i R H >.>.>.>.>.>.>.>.",
">.>.>.H H H H E (.x.1 Z.} _ j u t , 2 8 e r _ ] +.O.X.c.[ u H H >.>.>.>.>.>.>.>.",
">.>.>.H H H >.>.>.u a 9 A.x.6 j d f { j } } X.V.*.N.N.c.L.f.> p Q >.>.>.>.>.>.>.",
">.>.>.>.E H >.7 k.8 9 g y 9 1 9.g.} 0.e.e.| r ] *.8 2 p a 4 9 0 >.>.>.>.>.>.>.>.",
">.>.>.>.:.R >.s.g.I.s.i.8.j u 9 9 0 I.Y.t.s 0 s a a 9 j j ' 9...^ >.>.>.>.>.>.>.",
">.>.>.>.>.>.:.p d f.I.I.C.9.[ [ 8.j 1 0 { { e.t.e.t.o.k.r.t.b.i ) >.>.>.>.>.>.>.",
">.>.>.>.>.>.>.>.9 s I.q.D.t.p.e.x.e.x.X.n.^.M.k.M.6 e 9 u 2 K :.>.>.>.>.>.>.>.>.",
">.>.>.>.>.>.5.p f d a 0 w.2 u w.S.w.w.9.S.f J.t.Q.6 p s g a k e.:.>.>.>.>.>.>.>.",
">.>.>.>.>.! | { j j d e y y 9 9 i { B.} 9 t 0 1 e u d { [ { p.d.A.>.>.>.>.>.>.>.",
">.>.>.>.R.D.s.C.C.9.[ ' f j j y y y y i i _ } ( ( X.X.+.o.| 9.p.C.j >.>.>.>.>.>.",
">.>.e 9.D.t.} A.G.P.0.{ 9.d.p.[ i _ ( ( ` *.=.=.*.g.*.g.l.] | i.f.K.W >.>.>.>.>.",
">.>.>.>.>.< 3 4 x.v.s.9.p.f.s.t.y.r.g.g.*.h. .b.b.b.b.*. .h.D.M.H.H.g d ( >.>.>.",
">.>.:.s.0 s 9 9 a.t.e.e.j t.g.k.k.M.k.k.k.h.;.h.h.b.m.z.o.t.e 2 y a.4 s 0.s.y.>.",
">.^ a.u.{ 0 y f 0 2 9 9 8 x.g.n.k.M.v.k.k.h.D.D.X.r z.g.e e u u u g 0.9.9.Y.Z.>.",
">.>.a.v.t.q.{ j 0 0 9 y y x.g._ g.( F.F.M.g.g.i u y 0 0 ' _ ( } } 0.p.s.V.Y.~ >.",
">.@.~.Z.j.e.t.e s f j g 9 9 9 0 0 y ~.M.' 9 0 u ' i } O.O.h.n.S.C.I.C.G.k.>.>.>.",
">.K :.>.s.i.[ y.[ t.p.9.y y u u 0 t y y u u i [ 8.t.v.k.R.S.F.S.s.H.G.!.S.>.>.>.",
">.>.>.>.>.Q Y.S.f s.P.C.A.x.9.} i j 0.j 0._ [ } p.e.P.v.x.M.f /.$.p !.#.' >.>.>.",
">.>.>.3.1.:.Y } )./.q.U.E.R.I.e.i 8.t.C.A.d.e.| C.V.9.{ ! >.>.,.,.>.,.>.>.>.>.>.",
">.>.>.5.4.>.5.<.>.~ >.:.H E 5 T.O E.F.o y.0.+ c.b ! ,.:.>.,.>.>.>.,.>.>.>.>.>.>.",
">.>.>.>.<.5.>.>.>.>.>.>.>.>.A % X @ C ; #   % A x >.>.>.>.>.,.>.>.>.>.>.>.>.>.>.",
"5.5.>.>.<.5.>.>.>.>.>.>.>.>.n % # % M n c . - G ; Z >.>.>.>.>.>.>.>.>.>.>.>.>.>.",
"5.5.>.>.<.5.>.>.>.>.>.>.>.B M & ; & M F S - x D x V >.>.>.>.>.>.>.>.>.>.>.>.>.>.",
">.>.>.>.>.>.>.>.>.>.>.>.>.>.>.T z z M F D z z n >.>.>.>.>.>.>.>.>.>.>.>.>.>.>.>.",
">.>.>.>.>.>.>.>.>.>.>.>.>.>.>.>.>.P N l >.>.>.>.>.>.>.>.>.>.>.>.>.>.>.>.>.>.>.>."
};
