/* XPM */
static char *wall_tree_2_QE0Oq[] = {
/* columns rows colors chars-per-pixel */
"40 40 226 2 ",
"   c #1F0900",
".  c #091E16",
"X  c #1C170D",
"o  c #2A0E01",
"O  c #240C00",
"+  c #2B1204",
"@  c #221609",
"#  c #341505",
"$  c #391807",
"%  c #3D1807",
"&  c #0D251C",
"*  c #0C291E",
"=  c #06251A",
"-  c #162519",
";  c #12281D",
":  c #1B2A1D",
">  c #182518",
",  c #24301F",
"<  c #0B2C22",
"1  c #052D22",
"2  c #142D22",
"3  c #063224",
"4  c #0D3124",
"5  c #0C352A",
"6  c #0B3B2C",
"7  c #073D2B",
"8  c #143125",
"9  c #1D3423",
"0  c #153329",
"q  c #1F3528",
"w  c #153A2B",
"e  c #18392C",
"r  c #0D3E30",
"t  c #123B31",
"y  c #183D30",
"u  c #491E0B",
"i  c #441D0B",
"p  c #4C240E",
"a  c #4E290F",
"s  c #44260C",
"d  c #54260F",
"f  c #4F2A12",
"g  c #4D2610",
"h  c #542B12",
"j  c #5C3116",
"k  c #5A341A",
"l  c #622E12",
"z  c #623216",
"x  c #6A391B",
"c  c #65371A",
"v  c #743D1D",
"b  c #793F1C",
"n  c #703618",
"m  c #0B521D",
"M  c #096F15",
"N  c #256608",
"B  c #0D402D",
"V  c #0C4533",
"C  c #0C4C38",
"Z  c #0B4934",
"A  c #134233",
"S  c #1B4335",
"D  c #134C3A",
"F  c #1B4C3B",
"G  c #164639",
"H  c #0D533C",
"J  c #13513E",
"K  c #125527",
"L  c #224734",
"P  c #13732F",
"I  c #16633C",
"U  c #7A411F",
"Y  c #7A4221",
"T  c #724223",
"R  c #164F40",
"E  c #0E5741",
"W  c #155542",
"Q  c #1C5543",
"!  c #145B45",
"~  c #1B5B47",
"^  c #165E49",
"/  c #1C5C4B",
"(  c #1B5748",
")  c #235A48",
"_  c #0D6A4B",
"`  c #14644B",
"'  c #1A634D",
"]  c #146B4E",
"[  c #1C684E",
"{  c #146847",
"}  c #09764A",
"|  c #13734E",
" . c #166C52",
".. c #1B6C53",
"X. c #1E6452",
"o. c #157355",
"O. c #1A7256",
"+. c #1D755A",
"@. c #167C5C",
"#. c #1C7B5D",
"$. c #187B55",
"%. c #0D7253",
"&. c #22614E",
"*. c #226C55",
"=. c #236A56",
"-. c #23725A",
";. c #237A5D",
":. c #217055",
">. c #1E7E61",
",. c #237D62",
"<. c #287B63",
"1. c #009500",
"2. c #079705",
"3. c #088A18",
"4. c #0A971A",
"5. c #238709",
"6. c #00A300",
"7. c #04AA0A",
"8. c #00B100",
"9. c #04BC02",
"0. c #06B608",
"q. c #07A515",
"w. c #14AA06",
"e. c #0D8B24",
"r. c #108F27",
"t. c #12B92E",
"y. c #03C402",
"u. c #00CA00",
"i. c #00D600",
"p. c #00DD00",
"a. c #00E400",
"s. c #00FE00",
"d. c #00F200",
"f. c #10C928",
"g. c #0E8254",
"h. c #0B8A56",
"j. c #0B895B",
"k. c #14865C",
"l. c #1B815E",
"z. c #19895F",
"x. c #128959",
"c. c #0A9259",
"v. c #0F9056",
"b. c #0D8C62",
"n. c #1D8363",
"m. c #158B63",
"M. c #1C8B65",
"N. c #1D8C6A",
"B. c #158662",
"V. c #0D9464",
"C. c #1C936C",
"Z. c #149D6C",
"A. c #1A9A6E",
"S. c #159666",
"D. c #1D9B71",
"F. c #1E9571",
"G. c #238364",
"H. c #298465",
"J. c #258569",
"K. c #238C6B",
"L. c #298D6C",
"P. c #268869",
"I. c #23926D",
"U. c #2A8F71",
"Y. c #249472",
"T. c #299573",
"R. c #239B75",
"E. c #299B76",
"W. c #259D79",
"Q. c #2B9C79",
"!. c #0EA165",
"~. c #0EAA6A",
"^. c #0FA26A",
"/. c #13A36C",
"(. c #17AF6F",
"). c #11B06B",
"_. c #16A573",
"`. c #1BA275",
"'. c #15A975",
"]. c #1FA37A",
"[. c #14AD78",
"{. c #1BAA7B",
"}. c #12B277",
"|. c #14B37C",
" X c #1BB47D",
".X c #12BA7C",
"XX c #19BF7E",
"oX c #0FB773",
"OX c #24A47C",
"+X c #2AA37D",
"@X c #24AA7D",
"#X c #31A37F",
"$X c #27B163",
"%X c #1EAD81",
"&X c #1DB283",
"*X c #16BB83",
"=X c #1CBD8C",
"-X c #19BB84",
";X c #24AB82",
":X c #2BAB85",
">X c #2CA985",
",X c #32AD8B",
"<X c #31A984",
"1X c #2CB48C",
"2X c #24BA8B",
"3X c #27B386",
"4X c #31B88F",
"5X c #32B18C",
"6X c #2DB990",
"7X c #32BC94",
"8X c #37BD97",
"9X c #1BC18E",
"0X c #17C08C",
"qX c #1EC292",
"wX c #24C28E",
"eX c #28C899",
"rX c #34C49D",
"tX c #30C79B",
"yX c #2BD39C",
"uX c #2FCEA1",
"iX c #37CBA3",
"pX c #36CBA4",
"aX c #2CD5A6",
"sX c #3AD3AB",
"dX c #34D8AA",
"fX c #32DEB2",
/* pixels */
"u.u.u.u.u.u.u.u.u.u.u.u.u.u.u.u.u.u.7.%.4.u.u.u.u.u.u.u.u.u.u.u.u.u.u.u.u.u.u.u.",
"u.u.u.u.u.u.u.u.u.u.u.u.u.u. .{ | fX X|.'.wX_.A.` y.u.u.u.u.u.u.u.u.u.u.u.u.u.u.",
"u.u.u.u.u.u.u.u.u.u.u.u.] ` eX.Xc.c.|. X|./.=XdXeXB. .^ u.u.u.u.u.u.u.u.u.u.u.u.",
"u.u.u.u.u.u.u.u.u.u.$Xo.eX-X).~.9X~.=X0Xc.[.[.=X=X X&X2X] ! u.u.1.1.u.u.u.u.u.u.",
"u.u.u.u.u.u.u.u.y...A.g.V.h..X.X[.XX!.*X!.9X~.b.|. X9XS.S.Z.^ u.1.1.u.u.u.u.u.u.",
"u.u.u.u.u.u.u.y.V.A.yX=X}.V.c.*X~..X9X|.*X*X9XXX*XwX(.g.&XtXB.>.I u.u.1.1.1.6.u.",
"u.u.u.u.u.y. .o.A./.^.&Xb.j..X.XoX~.^.*X|.=XV..XV.yX2X|.&Xx.S.;XtXf.u.1.1.1.6.u.",
"u.u.u.u.u.4.M.dX%X'.[.=X^.} V.h..XoXeX=X!.|.h.'.!.|.h.{.} %X2XD.C.;XP 1.1.1.u.u.",
"u.u.u.u.I ` m.pX2X`.2XeX%.A._._.|.!.dXaXb.j.Z.aXfX/.Z.{.tXD.D.S.6X_  .0.1.1.u.u.",
"u.u.q.! ` pXm.x.g.{.A.@X@.sXS.{._.Z.*Xb.wX} eXS.h.@Xx.;Xz.N.;Xz.M.z.R.t.8.8.u.u.",
"u.u.e.5X .$.;X].;XR. . ...#.n.6XD.j.S.{.k.C._ A.A.M.{ Y.I.#.#.n.W.N.n.+.7.u.u.u.",
"u.u.' 8XK.1X;X@X6XM.o.T.+XE. .o.o.].].OXk.N.C.Y.+XO.#.,.P.#.K.R.iX7XK.I.r.u.u.u.",
"u.4.W J.O.K.Y.n.C.K.@XQ.J.;. .R.z.OXM.N.:X .#X7X8XG.U.<.X...O.R.>.>.>.<X! 4.u.u.",
"1.( ,XE.OXY.n.C.R.M.J...Y.#.Q.W.tXiXK.Y.O.! :XG.K.=.Q.U.W ,.' E.#.M.#.Y...( u.u.",
"1.Y.l.I.8X .C.7XOX| Y.O.Y.#.K.R.n.O.E.T.;.L.-.;.;.' Q.8X..,X[ ..J.:XR.K.J.[ u.u.",
"7.OX8X:XN.R.M.pX1Xl.n.;XOX .R.G.+.J.<XQ.J ;./ ;.;.;...+.#.M.Y.W.O.>.W.>.>X#.q.u.",
"^ #.W.W.rX;XS.C.M.OXD.` K.#.#.G.K.L.5X#X=.H.( J.T.J.O.G.| rXR.3X` F.N.o.o.! W u.",
"W 4X>XE yX{.3X%XN.1XR.o.C.K.#.K.K.T.O.*.;.H.J / / ..` K.4Xn.#.]  .8X:X:X>.#.^ u.",
"H.W >.>.` N.tX;XD.tX] ] rXI.;.O.I.,X[ ;.J.J.' J [ ..G.` ,XE.#.] +.o.6X%.E ` >Xr.",
"/ D ,.#.#.R.R.@.OXF.;XR.@XI.M.n.:X>X+.n.G.O.' #.[ ..#.~ ^ Q.#XT. . .@.>.n.:XH 3.",
"=.....W G.$.Z R.F.:XOXR. . .I.J ! +.K.6XOXG.K.H W ,.L.-.-.<.-.-.>.n.F.B.N.>XV u.",
") =.W D P.` >.@.>.K.>X#.n.J +X . .n.o.` @.G.Q.K.X.L.L.-.<.-.W G.n.>.Z E ;Xo.! y.",
"D 4 ( / [ O...` O.G.+.K.O.G./ P.G.#.] O.` ^ Q.,.^ [ L.=.-.D D P.>.! ! H J.` J u.",
"w ) t W ~ ! +.` [ =.W ,.-.-.Q ' ;.;.,.G.G.+.,.O.-.X.) r ;.( R ' H C C H V 7 D u.",
"m 6 t t t r ^ X.*.*.~ ~ Q ) ) / H.-.*.W J.*.[ ! / ^ V ( 3 W ^ 7 H H B Z 7 r e.u.",
"u.u.t t t = W V R D F ) F Q ) y F F ) G D A A w r 5 W 3 r 6 E 7 3 Z 7 7 3 5 u.u.",
"u.u.9.m t 4 < 4 0 t G y e S ) e L S A A G w A 5 = 5 Z B D A V 6 = 7 6 6 6 u.u.u.",
"u.u.u.u.M < 4 4 < w 2 2 8 ; 8 2 F y e < F A w w e 0 0 * V 6 6 Z 7 B 6 5 u.u.u.u.",
"u.u.u.u.u.2.1 < < < 2 2 8 ; 8 8 2 < e 0 w 9 : 9 : & * * 4 w 3 C 1 B 5 u.u.u.u.u.",
"u.u.u.u.u.u.y.y.9.. & & - 2 2 0 2 2 2 2 q : 9 - - ; . 4 4 4 w 4 r.u.u.u.u.u.u.u.",
"u.u.u.u.u.u.u.u.u.u.3.K 2 > 2 ; L 9 q > 9 q : - - X & & M e.4.u.u.u.u.u.u.u.u.u.",
"u.u.u.u.u.u.u.u.u.u.u.u.y.# + O + # i o @ , : +   + 9.u.s.s.u.u.u.u.u.u.u.u.u.u.",
"u.u.u.u.u.u.u.u.u.u.u.u.1.u # o % u a # o # d # + p 2.y.u.u.u.u.u.u.u.u.u.u.u.u.",
"u.u.u.a.p.u.a.i.u.u.u.u.N l p $ p d u p # i p p # p a y.u.u.u.u.u.u.u.u.u.u.u.u.",
"u.u.u.s.d.u.s.i.u.u.u.u.c j p g n v n j # p d u $ z d y.u.u.u.u.u.u.u.u.u.u.u.u.",
"u.u.u.u.i.s.u.u.u.u.u.9.x x h x j U Y x s z l l h h j v w.u.u.u.u.u.u.u.u.u.u.u.",
"s.s.u.u.i.s.u.u.u.u.u.u.u.5.j x U x c h s z v U k u.u.y.9.u.u.u.u.u.u.u.u.u.u.u.",
"s.s.u.u.i.s.u.u.u.u.u.u.u.y.x Y U U U x a h x Y T y.u.y.y.y.u.u.u.u.u.u.u.u.u.u.",
"u.u.u.u.u.u.u.u.u.u.u.u.u.u.y.k T Y U v h a h k k u.u.u.u.u.u.u.u.u.u.u.u.u.u.u.",
"u.u.u.u.u.u.u.u.u.u.u.u.u.u.u.u.u.5.k 9.u.u.u.u.y.u.u.u.u.u.u.u.u.u.u.u.u.u.u.u."
};
