/* XPM */
static char *wall_tree_5_w1zuJ[] = {
/* columns rows colors chars-per-pixel */
"80 80 243 2 ",
"   c #140E0D",
".  c #1B140F",
"X  c #15170D",
"o  c #1C1612",
"O  c #1D1914",
"+  c #191413",
"@  c #010801",
"#  c #221713",
"$  c #231B15",
"%  c #241C1A",
"&  c #2A1E1A",
"*  c #291A17",
"=  c #331E1B",
"-  c #291D0D",
";  c #15270D",
":  c #13380D",
">  c #1C2712",
",  c #1B3412",
"<  c #1A3A15",
"1  c #0C2F08",
"2  c #25231A",
"3  c #2B221C",
"4  c #2C2C1C",
"5  c #252516",
"6  c #32251D",
"7  c #332B1D",
"8  c #38281A",
"9  c #2C331B",
"0  c #253817",
"q  c #33381E",
"w  c #2B1F22",
"e  c #2D2321",
"r  c #2B2A22",
"t  c #332622",
"y  c #352A23",
"u  c #3A2C24",
"i  c #3A2E29",
"p  c #3A2624",
"a  c #343223",
"s  c #3C3125",
"d  c #343C24",
"f  c #3D322B",
"g  c #393927",
"h  c #2D3622",
"j  c #46321F",
"k  c #432D25",
"l  c #462D2B",
"z  c #443325",
"x  c #4B3624",
"c  c #43342C",
"v  c #4A362B",
"b  c #453A2D",
"n  c #4B3A2C",
"m  c #493825",
"M  c #533D2B",
"N  c #543C27",
"B  c #463631",
"V  c #453A32",
"C  c #4C3C33",
"Z  c #4A3531",
"A  c #523D33",
"S  c #543E39",
"D  c #014B01",
"F  c #0C4A08",
"G  c #13460D",
"H  c #085805",
"J  c #11540B",
"K  c #18560E",
"L  c #1D4B12",
"P  c #1A4312",
"I  c #1C5513",
"U  c #254718",
"Y  c #304A1E",
"T  c #265619",
"R  c #31521D",
"E  c #006500",
"W  c #026B01",
"Q  c #16680E",
"!  c #007300",
"~  c #017B00",
"^  c #0C7908",
"/  c #14780C",
"(  c #1B6712",
")  c #1C7913",
"_  c #1A7311",
"`  c #2A6A1C",
"'  c #256718",
"]  c #237918",
"[  c #34741D",
"{  c #374626",
"}  c #2E5720",
"|  c #375725",
" . c #2E4820",
".. c #2F6621",
"X. c #386828",
"o. c #3A7727",
"O. c #42492E",
"+. c #46412C",
"@. c #54422D",
"#. c #59432D",
"$. c #554A2B",
"%. c #4B542D",
"&. c #525A2A",
"*. c #4C4235",
"=. c #4D4338",
"-. c #464733",
";. c #534334",
":. c #5B4533",
">. c #5E4934",
",. c #53433A",
"<. c #5A453C",
"1. c #554B3C",
"2. c #5C4B3D",
"3. c #564C36",
"4. c #4C5636",
"5. c #56583A",
"6. c #65482D",
"7. c #624C35",
"8. c #6A4E34",
"9. c #624C3C",
"0. c #6A4D3A",
"q. c #60473D",
"w. c #6C5134",
"e. c #64513C",
"r. c #6B533C",
"t. c #69593E",
"y. c #73553B",
"u. c #755A3D",
"i. c #785A3A",
"p. c #4B6F31",
"a. c #76633D",
"s. c #666837",
"d. c #5C4C42",
"f. c #594E44",
"g. c #5D5345",
"h. c #624D41",
"j. c #655243",
"k. c #6A5443",
"l. c #6D5A43",
"z. c #6D5A4A",
"x. c #665749",
"c. c #735B44",
"v. c #725D4C",
"b. c #775A46",
"n. c #745F52",
"m. c #686745",
"M. c #74624B",
"N. c #7B644B",
"B. c #7A6345",
"V. c #687449",
"C. c #7B6551",
"Z. c #7E6B54",
"A. c #766755",
"S. c #7D7258",
"D. c #7D7449",
"F. c #5B7640",
"G. c #805B38",
"H. c #816638",
"J. c #836A4C",
"K. c #8A6A46",
"L. c #966D45",
"P. c #97764D",
"I. c #836C54",
"U. c #866A56",
"Y. c #8B7354",
"T. c #8A7558",
"R. c #927559",
"E. c #967957",
"W. c #8F7052",
"Q. c #A37D52",
"!. c #8B7662",
"~. c #957E62",
"^. c #987A66",
"/. c #018300",
"(. c #008C00",
"). c #0B8B07",
"_. c #148B0C",
"`. c #12840B",
"'. c #009500",
"]. c #009C00",
"[. c #0C9708",
"{. c #14940D",
"}. c #149B0D",
"|. c #19930F",
" X c #1C8413",
".X c #1C8C12",
"XX c #178410",
"oX c #1C9313",
"OX c #199A11",
"+X c #238C1A",
"@X c #268418",
"#X c #239B19",
"$X c #29961C",
"%X c #38831B",
"&X c #00A400",
"*X c #01AC01",
"=X c #0AAC06",
"-X c #0EA409",
";X c #0DAC09",
":X c #09A305",
">X c #13A30D",
",X c #12AB0C",
"<X c #01B301",
"1X c #0AB306",
"2X c #02BC01",
"3X c #09BC06",
"4X c #0EB40A",
"5X c #0DB90A",
"6X c #12B20D",
"7X c #16BD0F",
"8X c #19A612",
"9X c #19B912",
"0X c #22A819",
"qX c #2E8B21",
"wX c #388325",
"eX c #329822",
"rX c #35A825",
"tX c #55923B",
"yX c #49A836",
"uX c #02C401",
"iX c #00CA00",
"pX c #0AC107",
"aX c #00D600",
"sX c #00DD00",
"dX c #0AD908",
"fX c #00E400",
"gX c #03EC02",
"hX c #00F200",
"jX c #00FE00",
"kX c #589243",
"lX c #738B53",
"zX c #6AAA4D",
"xX c #9D815D",
"cX c #A78456",
"vX c #9A8569",
"bX c #948F69",
"nX c #A88C69",
"mX c #AD936D",
"MX c #B6976B",
"NX c #B79B79",
"BX c #A48D72",
"VX c #C4A77F",
"CX c #C8AD89",
/* pixels */
"iXiXiXiXiXiXiXiXiXiXiXiXiXiXiXiXiXiXiXiXiXiXuXiXiXiXiXiXiXiXiXiXiXiXiXiXiXiXiXiXiXiXiXiXiXiXiXiX}.s.>XiXiXiXiXiXiXiXiXiXiXiXiXiXiXiXiXiXiXiXiXiXiXiXiXiXiXiXiXiX",
"iXiXiXiXiXiXiXiXiXiXiXiXiXiXiXiXiXiXiXiXiXiX9X8XiXiXiXiXiXiXiXiXiXiXiXiXiXiXiXiXiXiXiXiXiXiXiXiXiXl.t.1XiXiXiXiXiXiXiXiXiXiXiXiXiXiXiXiXiXiXiXiXiXiXiXiXiXiXiXiX",
"iXiXiXiXiXiXiXiXiXiXiXiXiXiXiXiXiXiXiXiXiXiXlXX.pXiXiXiXiXiXiXiXiXiXiXiXiXiXiXiXiXiXiXiXiXiXiXiXiX4.m.|.iXiXiXiXiXiXiXiXiXiXiXiXiXiXiXiXiXiXiXiXiXiXiXiXiXiXiXiX",
"iXiXiXiXiXiXiXiXiXiXiXiXiXiXiXiXiXiXiXiXiXiXS...uXiXiXiXiXiXiXiXiXiXiXiXiXiXiXiXiXiXiXiXiXiXiXiXiX&.t.] iXiXiXiXiXiXiXiXiXiXiXiXiXiXiXiXiXiXiXiXiXiXiXiXiXiXiXiX",
"iXiXiXiXiXiXiXiXiXiXiXiXiXiXiXiXpXiXiXiXiXiXm.OXiXiXiXiXiXiXiXiXiXiXiXiXiXiXiXiXiXiXiXiXiXiXiXiXiX%.t.q 4XiXiXiXiXiXiXiXiXiXiXiXiXiXiXiXiXiXiXiXiXiXiXiXiXiXiXiX",
"iXiXiXiXiXiXiXiXiXiXiXiXiXiXiXiX XkX9XiXiXpXp.;XiXiXiXiXiXiXiXiXiXiXiXiXiXiXiXiXiXiXiXiXiXiXiXiXiX%.u.g ,XiXiXiXiXiXiXiXiXiXiXiXiXiXiXiXiXiXiXiXiXiXiXiXiXiXiXiX",
"iXiXiXiXiXiXiXiXiXiXiXiXiXiXiXiXiX>XV.wXqXf.o.2XiXiXsXfXfXiXiXfXfXfXfXiXiXiXiXiXiXiXiXiXiXiXiXiXiX3.t.q uXiXiXiXiXiXiXiXiXiXiXiX<X<X<X2XiXiXiXiXiXiXiXiXiXiXiXiX",
"iXiXiXiXiXiXiXiXiXiXiXiXiXiXiXiXiXiX>XF.X.f o.uXiXiXhXjXjXiXiXjXjXjXjXiXiXiXiXiXiXiXiXiXiXiXiXiXiXe.7.Y iXiXiXiXiXiXiXiXiXiXiXiX'.'.'.<XiXiXiXiXiXiXiXiXiXiXiXiX",
"iXiXiXiXiXiXiXiXiXiXiXiXiXiXiXiXiXiXiX#X5.z X.iXiXiXhXjXjXiXiXjXjXjXjXiXiXiXiXiXiXiXiXiXiXiXiXiXuXc.M Y iXiXiXiXiXiXiXiXiXiXiXiX'.'.'.<XiXiXiXiXiXiXiXiXiXiXiXiX",
"iXiXiXiXiXiXiXiXiXiXiXiXiXiXiXiXiXiXiXiXOX4.g ,XiXiXhXjXjXiXiXjXjXjXjXiXiXiXiXiXiXiXiXiXiXiXiXiXo.l.y }.iXiXiXiXiXiXiXiXiXiXiXiX'.'.'.<XiXiXiXiXiXiXiXiXiXiXiXiX",
"iXiXiXiXiXiXiXiXiXiXiXiXiXiXiXiXiXiXiXjXgX[ i 8XiXiXhXjXjXjXjXjXjXjXjXiXiXiXiXiXiXiXiXiXiXiXiXuX%.9.y 2XiXiXiXiXiXiXiXiXiXuX'.'.'.'.'.<XiX&X'.'.iXiXiXiX&XiXiXiX",
"iXiXiXiXiXiXiXiXiXiXiXiXiXiXiXiXiXiXiXjXjX>Xn R 2XiXiXiXiXjXjXiXiXiXiXiXiXiXiXiXiXiXiXiXiXiXuX{ v.4 XXiXiXiXiXiX'.'.'.'.iX2X'.'.iXiXiXiXiX&X'.'.'.'.'.'.&XiXiXiX",
"iXiXiXiXiXiXiXiXiXiXiXiXiXiXiXiXiXiXiXjXjX3X8.%.}.iXiXiXiXjXjXiXiXiXiXiXiXiXiXiXiXiXiXiXiXuX' g Y.7 uXiXiXiXiXiX'.'.'.'.iX2X'.'.iXiXiXiXiX&X'.'.'.'.'.'.&XiXiXiX",
"iXiXiXiXiXiXiXiXiXiXiXiXiXiXiXiXiXiXiXjXjXuXx a.] uXiXiXiXjXjXiXiXiXiXiXiXiXiXiXiXiXiXiXiX3X{ ;.z.U iXiXiXiXiXiX'.'.'.'.iX2X'.'.iXiXiXiXiX&X'.'.'.'.'.'.&XiXiXiX",
"iXiXiXiXiXiXiXiXiXiXiXiXiXiXiXiXiXiXiXjXjXaX{ N P.[ uXiXiXjXjXiXiXiXiXiXiXiXiXiXiXiXiXiX;X| k.f.O.2XiXiXiXuXiXiX'.'.'.'.kXV._.'.iXiXiXiXiX&X'.'.'.'.'.'.&XiXiXiX",
"iXiXiXiXiXiXiXiXiXiXiXiXiXiXiXiXiXiXiXiXiX&X' n H.D. XuXiXiXiXiXiXiXiXiXuXiXiXiXiXiXiXpXoX5.k.b 9 iXiXiXiXiXiXiX'.'..XlXV.;XiXiXiXiXiXiXiX&X'.'.'.'.'.'.iXiXiXiX",
"iXiXiXiXiXiXiXiXiXiXiXiXiXiXiXiXiXiXiXiXiX<X<X' k P.W.R =XiXiXiXiXiXiXpXiXiXiXiXiXiX3XY k.k.c a =XiXiXiXiXiXiXiX<XtX2.u *.j.x.m.M.x.o.iXiX<X<X<X'.'.'.).+X| ] iX",
"iXiXiXiXiXiXiXiXiXiXiXiXiXiXiXiXiXiXiXiXiXiXiX1Xg i.cX;.T 1XiXiXiXiXiXiXiXiXiXiXiXuXT C M.*.y T iXiXiXiXiXiXiXpXzXT.u f ,.-.} .._.=XuXuXiXiXiXiX'.XX..| C 4.+XiX",
"iXiXiXiXiXiXiXiXiXiXiXiXiXiXiXiXiXiXiXiXiXiXiXiX] 8 Q.J.4 ( uXiXiXiXiXiXiXiXiXiXiXOX7 h.c.b 6 {.iXiXiXiXiXiXpXlXI.B } +XoX>X3XiXiXiXiXiXiXiX1XoX| O.V -.#X5XiXiX",
"iXiXiXiXiXiXiXiX#XkX5XiXiXiXiXiXiXiXiXiXiXiXiXiXiX|.8 Q.J.# U iXiXiXiXiXiXiXiXiX}.i 1.N 7.y U 2XiXiXiXiXoXx.n.k.i ] iXiXiXiXiXiXuX{.XXp.x.*.B p i B g } iXiXiXiX",
"iXiXiXiXiXiXiXiX,Xm.kXuXiXiXiXiXiXiXiXiXiXiXiXiXiXiXR 8.Q.n 5 iXiXiXiXiXiX#X} 6X` f k.z 7.q ^ uXiXiXiX] =.M.z.z ( uXiXiXiXiXiX1XU 4 n b.c.p t 3 d ..oX;XiXiXiXiX",
"iXiXiXiXiXiXiXiXiXuXp.U.p.iXiXiXiXiXiXiXiXiXiXiXiXiXiX' N K.7.9 [.iXiXiXiXpX{ 4.6 ;.e.z &.9 :XiXiX.XZ.~.:.6 U }.;X.X) ) ' ( , 3 i w.K.# 3 g >XiXiXiXiXiXiXiXiXiX",
"iX8X$XqX$X#X8X5X2XiX}.M.BXpXiXiXiXiXiXiXiXiXiXiXiXiXiX1X7 @.w.y 2 {.iXiXiXiX) 1.7 :.@.N %X9 <XiXiXA.vXz * a O.O.=.C =.C f & e A i.7.& f O.qXiXiXiXiXiXiXiXiXiXiX",
">XO.C C C C =.5.p.wX}.] S.bXrXiXiXiXiXiXiXiXiXiXiXiXiXiX( # @.>.b 5 -XiXiXiX3X%.i @.z @.@X9 uXiX,X^.i 6 *.1.1.,.V V p o o s L.K.n # 3 X.$X3XiXiXiXiXiXiXiXiXiXiX",
"iXiXiXiXiXiXiX6XoX` | =.C C z.U.vXbXrX9XpXiXiXiXiXiXiXuXR 7 o n x w.7.P uXiXuX{ v :.2 #.U / iX6XV.q -X2XpXuXiX-X..K 3 N H.i.# o f f c f V C ,.1.d.f.p.6XiXiXiXiX",
"iXiXiXiXiXiXiXiXiXiXpX,X.XC Z C e.Z.bXBXlXwX$X@X@X.X+X] 8 t - b 8 N w.n  XiX1Xa <.z N 7.J 2X2XlXn._.iXiXiXiXiXiX2XF #.i.i.* G  X] ]  X@X] ` }  .d i B +XiXiXiXiX",
"iXiXiXiXiXiXiXiXiXiXiXiXiXiX;X@X| O.g f ,.f.x.k.h.j.1.S k t e # C ,.* x N [ _.4 k * N #.J eXh.=.h iXiXiXiXiX=X1 3 x 8.* : 3XiXiXiXiXiXiXiXiXiXiXiXiXiXiXiXiXiXiX",
"'.'.'.iXiXiXiXiXiXiXiXiXiXiXiXiXiX3X;X.X..{ Z ,.<.j.9.k.v.2.C   * 5.C s t %.U O C 8 N N +.5.,.a >XiXiXiXiX=X; 6 z w.8 G 2XiXiXiXiXiXiXiXiXiXiXiXiXiXiXiXiXiXiXiX",
"'.'.'.iXiXiXiXiXiXiXiXiXiXiXiXiXiXiXiXiXiXpX_.'  .r y C I.T.U.f * V 9.C ,.d.* # k p :.N.Z.C g >XiXiXiXiX2XP s 8 8.8., >X6X3X3XiXiXiXiXiXiXiXiXiXiXiXiXiXiXiXiXiX",
"'.'.'.iXiXiXiXiXiXiXiXiXiXiXiXiXiXiXiXiXiXiXiXiXiXiXiX3X|.0 > ;.x.V B I.h.q.,.z v c 7 f 0 2XiXiXiXiXiX{.2.C.3 #.8 , 5X6X8X$X8XuXiXiXiXiXiXiXiXiXiXiXiXiXiXiXiXiX",
"'.'.'.iXiX2X'.'.&XiXiX'.'.'.2XiXiXiXiXiXiXiXiXiXiXiXiXiXiXuX-X6 C x.V f.,.f k.z z = e y 0 2XiXiXiXiX{.t.S.C O 7 ) uXiXiXiX2X'.'.iXiXiXiXiXiXiXiXiXiXiXiXiXiXiXiX",
"<X<X<X9XpX2X'.'.].<X<X'.'.'.2XiXiXiXiXiXiXiXiXiXiXiXiXiXiXiXiXiX>X5 y C e.$.& p v C <.p 4 ,XiXiXiXf.l.V 2 2 .XiXiXiXiXiX<X*X'.'.iXiXiX<XuXiXuX*X_ L L L :XiXiXiX",
"iXiXiXyXeX2X'.'.'.'.'.'.'.'.2XiXiXiXiXiXiXiXiXiXiXiXiXiXiXiXiXiXiX3X0 i f f # p d.d.v.,.% OXiXiX=XN.2.w & ) iXiXiXiXiXiX'.'.'.'.iXiXiXL *X:XL 0 I {.uXiXiXiXiXiX",
"iXiXiXrX!.#X'.'.'.'.'.'.'.'.uXiXiXiXiXiXiXiXiXiXiXiXiXiXiXiXiXiXiXiX3X0 i f # C b.k.h.Z 3 OXiX2X< x.i 2 Y 2XiXiXiXiXiXiX'.'.'.'.iXiXiX0 T 9 U }.iXiXiXiXiXiXiXiX",
"iXiXiXuXq d.!.bXV.p.wX_.'.'.1X^ ).<XiXiXiXiXiXiXiXqX{ =XiXiXiXiXiXiXiX] 3 c Z l 9.b.h.t 6 {.[.2 1.i y U uXiXiXiXiXiXiXiX'.'.'.'.:XL 9 B.L 1XiXiXiXiXiXiXiXiXiXiX",
"iXiXiXiX@Xt V z.T.~.~.E.Z.&.5.>.&.U K / :XuXiXiXiXoX;.d ;XiXiXiXiXiXiX..7 p c k 8 d.g.y % ) ( i k.V a _.iXiXiX<XiXiXiXiX'.'.`.0 0 $.cX1 [.iXiXiXiXiXiXiXiXiXiXiX",
"iXiXiXiXiXuX'.} f C d.d.z.!.vX~.K.L.L.L.L.i.6.$.&.%X[.] z q 2XiXiXiX5Xg 3 i v ;.v y t 2 % # O f f r J iXiXiXiX*XiXiX).0 0 Y H.Q.r.. X iXiXiXiXiXiXiXiXiXiXiXiXiX",
"iXiXiXiXiXiXiXuX,XX.g y % e y B b C b :.:.:.8.6.#.6.w.H.s.;.0 uXiXuX8Xa f l :.0.z.p c c & & % y i 2 [.iXiXiXuX&X[.Q 9 9 a.E.i.u o 3 { iXiXiXiXiXiXiXiXiXiXiXiXiX",
"iXiXiXiXiXiXiXiXOX .a f V g {.3X;X{.J >   + # 3 y i j N H.K.u._ uXiX] i k Z R.k.C.;.i f.i e 3 2 t 0 K ( ' U 0 9 7 z i 3 u.z o # t p t 2XiXiXiXiXiXiXiXiXiXiXiXiX",
"iXiXiXpX#Xo.4.,.f.g.1.b T iXuXiXiXiXiXuXiXiXL 2 e 8 3 7 y 3 @.i.*.T } # Z R.E.0.;.<.c i ,.B 3 $ % + 4 f.1.j i.8.7 X > < ( OX2XiX2X2XuX6XiXiXiXiXiXiXiXiXiXiXiXiX",
"iXiXiXwXj.h.x.f.1.O...;XiXiXiXiXiXiXiXiXiXiXuX_.< o $ 3 f f y 8.G.z 3 3 <.W.y.h.S :.C r 1.C e O O o b n.2.b u + ; K ;X3XiXiXiXiXiXiXiXiXiXiXiXiXiXaXiXiXiXiXiXiX",
"iXiXiXiXiXiXiXuXiXiXiXiXiXiXiXiXiXiXiXiXiXiXiXiXiXiX2X`.> O 2 C *.v 2 6 C.mX7.^.k.C ,.t *.y O o o 3 y s  .T ) OX8X5X4X5XuXiXiXiXiXiXiXiXiXiXiXiXiXiXiXiXiXiXiXiX",
"iXiXiXiXiXiXiXiXiXiXiXiXiXiXiXiXiXiXiXiXiXiXiXiXiXiXiXiX=XP 3 s =.y * p n.nX#.BXj.,.f.p C y + . # 2 e r 4 3 f f V -.4.4.qXiXiXiXiXiXiXiXiXiXiXiXiXiXiXiXiXiXiXiX",
"iXiXiXiXiXiXiXiXiXiXiXiXiXiXiXiXiXiXiXiXiXiXiXiXiXiXiXiXuXuX) % y = t p b.^.#.vXj.v.=.B c y + . 3 P Q .XQ .X) ( I I } } +XiXiXiXiXiXiXiXiXiXiXiXiXiXiXiXiXiXiXiX",
"iXiXiXiXiXiXiXiXiXiXiXaXaXaXiXiXaXaXaXiXiXiXiXpX,XqXp.g.f.x.f.B i O c i k bXk.b.N.h.i f.=.% 3 V C I 2XiXiXiXiXiXiXiXiXiXiXiXiXiXiXiXiXiXiXiXiXiXiXiXiXiXiXiXiXiX",
"iXiXiXiXiXiXiXiXiXiXiXjXjXjXaXiXjXjXjXiXiXiX#X5.f.<.=.V V f s i 3 5 V S k R.U.:.I.S l S.V # s 2.C y OXiXiXiXiXiXiXiXiXiXiXiXiXiXiXiXiXiXiXiXiXiXiXiXiXiXiXiXiXiX",
"iXiXiXiXiXiXiXiXiXiXiXjXjXjXaXiXjXjXjXiXiXiX5X3XuXiXgXgXdX4X3X3X< 3 i <.Z.C nXS.z.y n.1.# i M.;.e.e ] iXiXiXiXiXiXiXiXiXiXiXiXiXiXiXiXiXiXiXiXiXiXiXiXiXiXiXiXiX",
"iXiXiXiXiXiXiXiXiXiXiXjXjXjXjXjXjXjXjXiXiXhXjXjXjXjXjXjXjXiXiXuXT % z k.Z.Z I.CXS m N.f # c z.i k.t OXiXiXiXiXiXiXiXiXiXiXiXiXiXiXiXiXiXiXiXiXiXiXiXiXiXiXiXiXiX",
"iXiXiXiXiXiXiXiXiXiXiXjXjXjXjXjXjXjXjXiXiXhXjXjXjXjXjXjXjXiXiXuXT * v k.U.A C mXy f.n.8 # V j.y l.0 4XiXiXiXiXiXiXiXiXiXiXiXiXiXiXiXiXiXiXiXiXiXiXiXiXiXiXiXiXiX",
"iXiXiXiXiXiXiXiXiXiXiXjXjXjXjXjXjXjXjXiXiXhXjXjXjXjXjXjXjXiXiXiX/ % c l A.k.v.U.h.Z.f & e ,.N.p ;.Q iXiXiXiXiXiXiXiXiXiXiXiXiXiXiXiXiXiXiXiXiXiXiXiXiXiXiXiXiXiX",
"iXiXiXiXiXiXiXiXiXiXiXiXiXiXhXjXiXiXiXiXiXiXiXfXjXjXaXiXiXjXjXiX/ 3 S c S U.<.s I.C e e & B M.g f [.iXiXiXiXiXiXiXiXiXiXiXiXiXiXiXiXiXiXiXiXiXiXiXiXiXiXiXiXiXiX",
"iXiXiXiXiXiXiXiXiXiXiXiXiXiXsXfXiXiXiX<X<X<X*XiXfXfXaXiXiXfXfXuXJ n b.S i 0.U.C.c 2.1.y 3 O c C s iXiXiXiXiXiXiXiXiXiXiXiXiXiXiXiXiXiXiXiXiXiXiXiXiXiXiXiXiXiXiX",
"iXiXiXiXiXiXiXiXiXiXiXiXiXiXiXiXiXiXiX'.'.'.'.<XiXiXiXiXiXiXiX1X, z.^.k.l ;.I.I.z C f f 3 X & i s iXiXiXiXiXiXiXiXiXiXiXiXiXiXiXiXiXiXiXiXiXiXiXiXiXiXiXiXiXiXiX",
"iXiXiXiXiXiXiXiXiXiXiXiXiXiXiXiXiXiXiX'.'.'.'.*XiXiXiXiXiXiXuX[.h k.0.2.Z A N.v.k C d.S e #   $ O iXiXiXiXiXiXuX&X&XiXiXiXiXiXiXiXiXiXiXiXiXiXiXiXiXiXiXiXiXiXiX",
"iXiXiXiXiXiXiXiXiXiXiXiXiXiXiXiXiXiXiX'.'.'.'.<XiXiXuXuXuXiXiXL 6 e.r.C p v :.K.,.C ,.=.a 8 y #.. iXiXiXiXiX2X/.E W iXiXiXiXiXiXiXiXiXiXiXiXiXiXiXiXiXiXiXiXiXiX",
"iXiXiXiXiXiXiXiXiXiXiXiXiXiXiXiXiXiXiX<X<X].'.<XiXiXuX]./.&X*X{ Z @.i :.v k v W.h.x.A.g.s y z 6.* iXiXiXiXiX'.E E ! iXiXiXiXiXiXiXiXiXiXiXiXiXiXiXiXiXiXiXiXiXiX",
"iXiXiXiXiXiXiXiXiXiXiXiXiXiXiXiXiXiXiXiXiX&X'.<XiXiXiXiX*XW E l 9.Y.c.0.v v u.W.2.S ,.n z 8 m y t ~ iXiX2X~ E E (.iXiXiXiXiXiXiXiXiXiXiXiXiXiXiX<X(.iXiXiXiXiXiX",
"iXiXiXiXiXiXiXiXiXiXiXiXiXiXiXiXiXiXiXiXiXiXiXiXiXiXiXiXiX*X! ;.v.k.7.7.n z K.b.<.A n i z p M u u F &X].! E E (.2XiXiXiXjXhXiXiXiXiXiXiXiXiXuX'./.].iXiXiXiXiXiX",
"iXiXiXiXiXiXiXiXiXiXiXiXiXiXiXiXiXiXiXiXiXiXiXiXiXiXiXiXiXiX`.C W.Y.3.n x S i.M p y C f z y c u z ; H E E E E ~ ~ (.uXiXjXhXiX<X'.&XiXiXiX*X(.(.2XiXiXiXiXiXiXiX",
"iXiXiXiXiXiXiXiXiXiXiXiXiXiXiXiXiXuXuXuXiXiXiXiXiXuX&XuXiX3X| e.0.v M N M y.K.R.n.Z.=.c s p s s 3.3 X ].iXiXiXfXiX<X~ E '.<X&X&X&X<X2X'.&X2X*X'.(./.~ /.&X&X<XiX",
"iXiXiXiXiXiXiXiXiXiXiXiXiXiXiXiXiXuX].(.&XiXiXiXiX2X(.~ *X}.*.l.h.r.M M <.u.L.E.~.vXg.V z u f v p z 8 J uXiX&X/.(./.2XfXiXiXiXiXuX&X/.~ ! E E E /.'.].*XiXiXiXiX",
"iXiXiXiXiXiXiXiXiXuX2X<X<X*X&X'.(.(.(./.~ E E ~ (./.&X*X'.d 2.W.r.;.@.x U.P.0.= B @.i B c p y 9.k.x * z > (.].&XaXiX'.~ E E E E ! ~ ! ~ /././.(.(.'.&XuXiXiXiXiX",
"iXiXiXiXiXiXiXiXiXiXiXiXiXiXiXiXiXiXiXuXiX2X(./.~ E E W F d.J.;.7.>.v l N.C A A ;.2.B.2.b s u l.n u s $.o ^ uXiXgXiX).~ W ~ '.uXiXuXuXuXuX].! <X<X*X2XiXiXiXiXiX",
"iXiXiXiXiXiXiXiXiXiXiXiXiXiXiXiXiXiXiXiXiXiXiXiX&X~ E W d d.;.:.0.@.8 ;.9.J.E.Q.N.i *.k.c s i n 7 i e.@.X ; E E /._.[.&X&X&X*X2XiXiXiXuX(./.2XiXiXiXiXiXiXiXiXiX",
"iXiXiXiXiXiXiXiXiXiXiX].! uXiXiXiXiXiXiXiXiXiXuX2X2X<XU z.N.j.2.#.#.7 E.NXE.0.:.b.K.2.c B y $ b C J.;.7 p 7 : E ~ ~ hXhXiX2X'.2XuX*X! ! ~ ~ /.(.&X<X2XuXiXiXiXiX",
"iXiXiXiXiXiXiXiXiXiXiX<X/.! ~ /.(.'.'.].].'.&X]./.'.^ 2 n.xXB.C >.i C mXMXk.r.b.:.^.Y.C b c $ C B.b & 8 v n 9 H E E 2XuX].! ! ! W E E W /.'.&X&X*X*X2XiXiXiXiXiX",
"iXiXiXiXiXiXiXiXiXiXuX<X&X'.~ E E W /.&X2X2X~ ~ E : 3 t.c ,.v.7.@.t c.VXE.A ^.k.Z mXMXC C f o 8 c 8 >.e.3.p m 9 D E W E E W W ! /.'.*XiXiXiXiXiXiXiXiXiXiXiXiXiX",
"iXiXiXiXiXaXfXfXsX2X'.].&X].'.].<XuXiXiXiX*X<X<XQ o 3 l.b.6 s 7.c & k.VXnX0.NXNXS nXvX0.n y # 6 n u.e.I.7.;.n @.; H E E E ! 2XiXiXiXiXiXiXiXiXiXiXiXiXiXiXiXiXiX",
"iXiXiXiXiXaXjXjXhXiXiXjXjXjXaXiXiXiXiXiXiXiXuX].: 2 e.v.e.,.C >.y O h.mXNX9.k.;.c.MXE.<.s y % 2 6 N.:.J.R.z.;.7.5 ; E E ! W ~ [.`.`.]././.^ ^ / iXiXiXiXiXiXiXiX",
"iXiXiXiXiXaXjXjXhXiXiXjXjXjXaXiXiXiXiXiXiX2X~ 0 2 9.I.c.r.u.7.s o y v v.W.nXxXJ.Y.p t y <.;.O $ # M 8 3 y v I.9.#.y ; H E E E E W ^ W /.'.2XiXiXiXiXiXiXiXiXiXiX",
"iXiXiXiXiXiXaXaXsXhXhXaXaXaXiXiXiXiXiXiX<X/.H > b j.j.5.1.b 6 3 # c n.N.0.2.N.N.i u f *.j.*.O o O v z 6 p M.~.;.M y . : E E E W 2XiX<X1XiXiXiXiXiXiXiXiXiXiXiXiX",
"iXiXiXiXiXiXiXiXaXjXjXiXiXiXiXiXiXiXiX2X/.E 5 > 5 2 5 5 * $ u O t C E.MX3.v c i e.k.B.S C p + O # 3 +.r.c.0.7.;.f 7 X P E E ! <XiXiXiXiXiXiXiXiXiXiXiXiXiXiXiXiX",
"jXjXjXiXiXiXiXiXaXjXjXiXiXiXiXiXiXiXiX2X/.E F : , > 4 O o $ 2 % i i b.MXP.Y.Y.R.J.z.;.C C i $ O O % v 3.C n l.9.i % G H E ! &XiXiXiXiXiXiXiXiXiXiXiXiXiXiXiXiXiX",
"jXjXjXiXiXiXiXiXaXjXjXiXiXiXiXiXiXiXiXuX&XW E E E E E E H G h % y Z k.R.v.W.P.W.2.n f 7.j.f 2 O $ 5 % t +.k.M.c $ ; E E E &XiXiXiXiXiXiXiXiXiXiXiXiXiXiXiXiXiXiX",
"jXjXjXiXiXiXiXiXaXjXjXiXiXiXiXiXiXiXiXiXiXuX/.! W ! ~ ! E D D $ % A.I.c.S p 6 8 c 7.b.e.;.s 3 2 F E J G G F F H H E E ! &XiXiXiXiXiXiXiXiXiXiXiXiXiXiXiXiXiXiXiX",
"jXjXjXiXiXiXiXiXaXjXjXiXiXiXiXiXiXiXiXiXiXuXuX2X<X2X2X2X'.D D : 2 ^.BXvXmXvXk.y.B.B.r.;.y e 9 J E E E E E E E E E E ! &XuXiXiXiXiXiXiXiXiXiXiXiXiXiXiXiXiXiXiXiX",
"jXjXjXiXiXiXiXiXiXiXiXiXiXiXiXiXiXiXiXiXiXiXiXiXiXiXiXiXiX2X(.D 1 e n 9.c.t.0.;.M 8.0.f e > H E E E E E E E E E ! '.iXiXiXiXiXiXiXiXiXiXiXiXiXiXiXiXiXiXiXiXiXiX",
"iXiXiXiXiXiXiXiXiXiXiXiXiXiXiXiXiXiXiXiXiXiXiXiXiXiXiXiXiXiX2XE F O z x.vX~.T.J.K.N.9.i # : E E E E E E E E ~ ].<XuXiXiXiXiXiXiXiXiXiXiXiXiXiXiXiXiXiXiXiXiXiXiX",
"iXiXiXiXiXiXiXiXiXiXiXiXiXiXiXiXiXiXiXiXiXiXiXiXiXiXiXiXiXiXiX~ Q X y C A.A.Z.T.K.J.n $ 5 H E E E E E E E ~ &XuXiXiXiXiXiXiXiXiXiXiXiXiXiXiXiXiXiXiXiXiXiXiXiXiX",
"iXiXiXiXiXiXiXiXiXiXiXiXiXiXiXiXiXiXiXiXiXiXiXiXiXiXiXiXiXiXiXiX2X/.L @   y 3 4 2 O , .XuXiXiXiXiXiXiXiXiXiXiXiXiXiXiXiXiXiXiXiXiXiXiXiXiXiXiXiXiXiXiXiXiXiXiXiX"
};
