/* XPM */
static char *wall_tree_3_srW2E[] = {
/* columns rows colors chars-per-pixel */
"80 80 237 2 ",
"   c #320D00",
".  c #3B1302",
"X  c #391603",
"o  c #2B0900",
"O  c #283000",
"+  c #471B07",
"@  c #531E09",
"#  c #4A240C",
"$  c #56230C",
"%  c #5B280E",
"&  c #5B3C14",
"*  c #4E3210",
"=  c #65290E",
"-  c #642D11",
";  c #6A2E10",
":  c #643214",
">  c #6B3214",
",  c #683916",
"<  c #733415",
"1  c #743A1A",
"2  c #7C3D1A",
"3  c #7A3716",
"4  c #375512",
"5  c #347410",
"6  c #57490E",
"7  c #4E4211",
"8  c #5A4E14",
"9  c #584C17",
"0  c #5D5215",
"q  c #5C531B",
"w  c #57571A",
"e  c #4B4F13",
"r  c #7B411D",
"t  c #625515",
"y  c #61561C",
"u  c #655A1D",
"i  c #695D1C",
"p  c #685C16",
"a  c #604513",
"s  c #4A711C",
"d  c #6D621D",
"f  c #6F6117",
"g  c #71651D",
"h  c #756A1D",
"j  c #7A6D1D",
"k  c #736615",
"l  c #7E711D",
"z  c #514F21",
"x  c #655C22",
"c  c #695E22",
"v  c #754723",
"b  c #576522",
"n  c #597726",
"m  c #4E6720",
"M  c #6C6323",
"N  c #6A6629",
"B  c #716623",
"V  c #746A24",
"C  c #796D24",
"Z  c #746B2A",
"A  c #786E2A",
"S  c #71652B",
"D  c #65782A",
"F  c #7D7123",
"G  c #7C722C",
"H  c #77742D",
"J  c #7C7432",
"K  c #7A7634",
"L  c #726D30",
"P  c #823E1A",
"I  c #843C18",
"U  c #84421E",
"Y  c #8A441E",
"T  c #94461E",
"R  c #84761E",
"E  c #8E4B24",
"W  c #874722",
"Q  c #974C24",
"!  c #94522A",
"~  c #9B5329",
"^  c #975831",
"/  c #8D5530",
"(  c #A14E23",
")  c #A3552A",
"_  c #AA5629",
"`  c #A85427",
"'  c #B55A2A",
"]  c #A75C31",
"[  c #857923",
"{  c #81762B",
"}  c #847A2C",
"|  c #897E2B",
" . c #847824",
".. c #807733",
"X. c #847B33",
"o. c #897F33",
"O. c #847D39",
"+. c #887F39",
"@. c #B86634",
"#. c #B26233",
"$. c #C15F2C",
"%. c #C06733",
"&. c #009500",
"*. c #009C00",
"=. c #188F0A",
"-. c #24960A",
";. c #358815",
":. c #2D8D0E",
">. c #00A300",
",. c #03AD01",
"<. c #17A808",
"1. c #00B100",
"2. c #00BD00",
"3. c #0BBC04",
"4. c #0EB305",
"5. c #18B20A",
"6. c #29A311",
"7. c #29B211",
"8. c #4B8D1C",
"9. c #539125",
"0. c #798339",
"q. c #04C501",
"w. c #00CA00",
"e. c #0AC304",
"r. c #00D600",
"t. c #00DD00",
"y. c #12C508",
"u. c #00E400",
"i. c #07EA01",
"p. c #00F200",
"a. c #00FE00",
"s. c #8D822D",
"d. c #8B8225",
"f. c #92862C",
"g. c #958A2C",
"h. c #9B8E2E",
"j. c #938624",
"k. c #8C8234",
"l. c #86813D",
"z. c #8C843C",
"x. c #8D8639",
"c. c #918733",
"v. c #958A34",
"b. c #9A8E32",
"n. c #91873A",
"m. c #948B3C",
"M. c #9A8F3C",
"N. c #9B923C",
"B. c #9B9236",
"V. c #9C902B",
"C. c #A49A29",
"Z. c #A3993A",
"A. c #AFA535",
"S. c #C3B83D",
"D. c #CBC13E",
"F. c #8D8642",
"G. c #8F8944",
"H. c #878441",
"J. c #938C44",
"K. c #948E49",
"L. c #958B42",
"P. c #979046",
"I. c #9B9344",
"U. c #96914B",
"Y. c #9B944C",
"T. c #9D9B41",
"R. c #9D9750",
"E. c #8D9342",
"W. c #A39B44",
"Q. c #A39B4C",
"!. c #A29847",
"~. c #A39C53",
"^. c #ABA245",
"/. c #A7A04D",
"(. c #ABA34C",
"). c #A8A449",
"_. c #B3AA4D",
"`. c #B4AB46",
"'. c #BAB24E",
"]. c #B7B047",
"[. c #A6A055",
"{. c #AAA354",
"}. c #ABA55A",
"|. c #AFA85B",
" X c #ADA756",
".X c #B3AB54",
"XX c #B3AB5C",
"oX c #B4AB56",
"OX c #BAB255",
"+X c #BBB35C",
"@X c #BAB459",
"#X c #B4AE61",
"$X c #B7B063",
"%X c #BAB364",
"&X c #BDB668",
"*X c #BEB869",
"=X c #BDB964",
"-X c #C5BD4D",
";X c #C2BB5C",
":X c #C4BC54",
">X c #C3BB64",
",X c #C3BD6B",
"<X c #C4BE71",
"1X c #BBD462",
"2X c #CBC35C",
"3X c #CBC353",
"4X c #D3CB59",
"5X c #DDD65C",
"6X c #CFC645",
"7X c #CBC364",
"8X c #CBC46B",
"9X c #CAC46A",
"0X c #D3CC6C",
"qX c #D4CB65",
"wX c #DAD368",
"eX c #CBC472",
"rX c #CFC874",
"tX c #C7C071",
"yX c #D3CC74",
"uX c #D4CD79",
"iX c #DBD574",
"pX c #DAD478",
"aX c #CED267",
"sX c #E2DA67",
"dX c #E2DC78",
"fX c #EBE57C",
"gX c #E8E278",
"hX c #F1EB7A",
"jX c #F4EE73",
"kX c #E9E05D",
"lX c #DCD580",
"zX c #E1DA83",
"xX c #EBE882",
"cX c #F3EC85",
"vX c #F3EE8B",
"bX c #F9F38A",
"nX c #FEFD93",
/* pixels */
"w.w.w.w.w.w.w.w.w.w.w.w.w.w.w.w.w.w.w.w.w.w.w.w.w.w.w.w.w.w.w.w.w.w.w.w.w.e.q.w.w.q.-.9.6.r.w.w.w.w.w.w.w.w.w.w.w.w.w.w.w.w.w.w.w.w.w.w.w.w.w.w.w.w.w.w.w.w.w.w.",
"w.w.w.w.w.w.w.w.w.w.w.w.w.w.w.w.w.w.w.w.w.w.w.w.w.w.w.w.w.w.w.w.y.7.7.q.5.9.b ;.0.1XnXnX$Xn q.w.<.<.<.q.w.w.w.w.w.w.w.w.w.w.w.w.w.w.w.w.w.w.w.w.w.w.w.w.w.w.w.w.",
"w.w.w.w.w.w.w.w.w.w.w.w.w.w.w.w.w.w.w.w.w.w.w.w.w.w.w.w.w.w.w.e.vXnXnXvXbXvXbXfXdXwXgXhXhXjXwXK H.G.G.H.H.e.w.w.w.w.w.w.w.w.w.w.w.w.w.w.w.w.w.w.w.w.w.w.w.w.w.w.",
"w.w.w.w.w.w.w.w.w.w.w.w.w.w.w.w.w.w.w.w.w.w.w.w.w.w.w.w.3.<.<.K ;XsXgXqXwXiXyX8XOX.X>X8XrXdXbXvX+XsX0XK.H.q.w.w.w.w.w.w.w.w.w.w.w.w.w.w.w.w.w.w.w.w.w.w.w.w.w.w.",
"w.w.w.w.w.w.w.w.w.w.w.w.w.w.w.w.w.w.w.w.w.w.w.w.w.w.e.L K K J pXbXcXiX>X>X>X@XXXXX}.|.%X+X>XxXxXfXdXdXiXXXK K Z s w.w.q.w.w.w.w.w.w.w.w.w.w.w.w.w.w.w.w.w.w.w.w.",
"w.w.w.w.w.w.w.w.w.w.w.w.w.w.w.w.w.w.w.w.w.w.w.w.<.6.7.Z L Z Q.cXcXfX0X9X>XXX|.|.%X$X%X>X;X;XwXdXfXaXwX0XeX4X_.x.K w.w.q.w.w.w.w.w.w.w.w.w.w.w.w.w.w.w.w.w.w.w.w.",
"w.w.w.w.w.w.w.w.w.w.w.w.w.w.w.w.w.w.w.w.w.w.w.b vXbX8Xz.l.J n.yXqXpXyX>X=X8X=XXX>X,X,X>X>X0XdXfXgXdX$X!.W.sXsX4XL L L 8.w.w.w.w.w.1.1.1.2.w.w.w.w.w.w.w.w.w.w.w.",
"w.w.w.w.w.w.w.w.w.w.w.w.w.w.w.w.w.w.w.w.w.w.5.T.gXdXyX+XI.K.G.XX2X>XrXOX8XeX>XXX&X>X,X9X9XdXfXxX+XI.X.).OXwX4X3Xk.;X;XaX#X;.w.w.w.&.&.&.1.w.w.w.w.w.w.w.w.w.w.w.",
"w.w.w.w.w.w.w.w.w.w.w.w.w.w.w.w.w.e.n Z #XbXnXbXwXsXiX'.XXQ.n.8XyXpX+XJ.Q.+XeX{.9XyX8X2XOXiXgXdXQ.L.!.:X:X-X4XqXJ..X_.^.l.K q.w.w.&.&.&.1.w.w.w.w.w.w.w.w.w.w.w.",
"w.w.w.w.w.w.w.w.w.w.w.w.w.w.w.w.n 0.F.A.vXhX5X3X@X3XiX0X8X$X#XY.Q.(.M.+.X.J H.o.>X;X8X0XiXG.J.[./.(.(.`.`.o.c.c.U.@XqXiX_.K N N n &.&.&.1.w.w.w.w.w.w.w.w.w.w.w.",
"w.w.w.w.w.w.w.w.w.w.w.w.w.w.w.w.s E.[.Z.A.`.^.}.x.OXiX0X8X>X=XQ.+X+XZ.m.l.l.H.G @X.X9X8XpXG.Y.Q.W.'.'.Z.M.!.I.L.~.=X0XdXOXJ G.G.K 5 &.&.1.w.>.&.&.w.w.w.w.>.w.w.",
"w.w.w.w.w.w.w.w.w.w.w.w.w.w.r.s nXxX1XaX}.G.l.~.G.k.[. XW.8X9X_.=X).(.W.N.x.J.J.{./.I.+XP.K K N.OX;XW.-X;XL.!.!.>XyXiXcXXX=X9X=X7XL m w.w.w.>.&.&.&.&.&.&.>.w.w.",
"w.w.w.w.w.w.w.w.w.w.w.w.w.q.3.b P.2XgXhXiX'.uX8X+X_.[.Y.T.,XrXl.I.+X+X.XW.c.l.B.W.I./.M.m.).x.B.qX;X!.2X4XA.;X+X>X:XdXvX X{.{.oXQ.{.K 4 q.q.*.&.&.&.&.&.&.>.w.w.",
"w.w.w.w.w.w.w.w.w.w.w.w.w.D H.G.Y.6XjXjX XxXfXiX`.OX@X|. X[.~.K.Y.J.W.G N.W. X@XOX;XN.).N.:X4X4XwX!.J._.:XC.,X0XuXdXfXU.I.!.I.m.XXrXuX&Xx N 5 &.&.&.&.&.&.>.w.w.",
"w.w.w.w.w.w.w.w.w.w.q.w.;.&X<XXXU.l.z.z.G.Q. XM.).6XaX9XOX).(.XX{.+XY.l.l.W.l.+X8XoXv.`.x.kX5XgXgXpX}.Y.Y.>X;X_.dXfXcXI.!. XXX%X.XOXoXzXU.$X~.b &.&.&.&.&.>.w.w.",
"w.w.w.w.w.w.w.w.w.w.q.4.1XuXrX&X}.~.K.U.[.I.J.R.'.sXiX'.:X@X9X_.>X=XR.J /._.O.Z P.l.P.I.[.5X'.sXgXpXXX~.~.qX7X+XqXhXcX!.c.(.,X9X8X{.U.l.|.#X&Xc =.&.&.&.&.w.w.w.",
"w.w.w.w.w.w.w.w.w.;.D J.uXuXuX;X,X&XXX#X{.lXuX,X{._.OXJ.v.dXwX0X8X9XU.z.I.@XU..X X~.@X.X{.K.n.K._.{.Q.qXqXOX3X{.K.!.m.W./.{.;XyXrX}.~.!.Q.{.|.X.6.&.&.&.&.w.w.w.",
"w.w.w.w.w.w.w.w.5.O.z.L.~.x.x.lXeX,X;XXXQ.uXuXrX#XXX{.Q.].bXhX3X7X{.R.P.9X7X=X>X7X7X@X7X'.3X;Xx.F.K.J.bXcX+XY.K.G.Q.{. Xv.G J.{.oXk.M.L.$X>XeXG.l.&.&.&.&.w.w.w.",
"w.w.w.w.w.w.w.w.3.J..X!.~.{.}./.}.Y.R.~.J.rXrX~. XXX~.~.N.pX0XJ.L.P.}.I.9XiX2X@XpXgXOXZ.].wXsXb.U.K.L.%XpXU.!.Q.U.I.XXtX,XyXL.I.oX~.P.Q.pXyXuXW.&Xn ;.&.*.w.w.w.",
"w.w.w.w.w.w.w.q.8.+X{.Q.#X~.}.}.{.~.U.Y.}.$X#XX.XX~.U.!.XX}.~.{.#X#X$X$X9X>XY.~.bXbXiXH.J hXwXW.#Xz.G.U.R.J.Y.Q.Q.+.n.rX8XyXJ H.+.+.L.~.XX(.!.>XeX&XR.-.1.w.w.w.",
"w.w.w.w.w.w.w.9.).>X>XW./.{.#X|.}.~.K.U.%X*X$XJ.L.J.Y.>X,X|.L.eX*X*X&X|.XX[.U.U.iXbX0Xl.l.XX.XI.$XX.G.~.}.}.!.}.{.z.l.rXuXzXJ.K.J.Y.~.+X%X%X~.&XtX<X,X9.q.q.w.w.",
"w.w.w.w.w.w.w.@X@X9XW.OX8XeXm.}.~.Y.k.>XtX>X%X}.~.~.{.<X<XI.I.pXlX8Xl.Y.U.R.}.~.~.Y.[.G.G.K.J.+.Y.H.G.x.#X$X~.|.L.J.'.Y.m.I.+XXXI.~.XX.XcXcXn.~.eXuXuXeXw.w.w.w.",
"w.w.w.w.w.w.w.N M k.R.m.n.~.,XXXR.K.%XeXuX8X[.}.Q.XX%XlXzXK.~.W.m.K.J.&X=X$X,XXX,X&X%X$X|.R.Y.K.K.z.K.G.X.I.oX%X#X'.qXiX(.,X+X{.~.~.}.Q.nXnXdX}.[.>X>XK w.w.q.w.",
"w.w.w.w.w.w.y.x.x.v.(.XXm.*X&X,X~.Y.F.Q.+.%X,X%X>X=X}.Z Z L.Q.~.K.G.m.).tX+XrX{.rXrXeX).#X}.[.|.}.[.m.J.F.|.>X<XpX_.sXdX:XXX,X(.Q.~.Q.J.7XnXzX#X*XtX,XY.L ;.q.w.",
"w.w.w.w.w.<.H v.m./.Q./.~.n.m.m.R.K.Y.U.o.,X&X%X_.>Xz.O...~.~.}.J.G.R.8XuXrX#XG.pXuXlXI.XXXX}.XX+X;X,XX.L.L.7XlX*X XsXjX:XyX,X@XQ.XX$XK.~.}.#XoXXXN.I.k.l.H.q.w.",
"w.w.w.w.3.b s.W.W.N.W./.Y.~.x.2X_.).K.L.z.,X,XOXU.n.G.H.z.Q.|.~.Y.K.G.+XuXuX<XK.@XyXzXL.}.,X}.XX>X>X7XG L.L.I.XXR.~.oXkXY./.rXW.Y.#XXXY.~.}.$X+XT.XXXXQ.O.O.w.w.",
"w.w.w.4.c x._.OX;Xx.R.x.I.G wXsX_.!.+.I.X./.Q.G.H.F.U.L.L.}.~.XX~.K.G.G.l.~.U.}.|.}.U.~.#XyXtX9X0X>XqXx A I.z.{.&X$X}.H.K.R.R.Y.z.|.|.U.K.Y.~. X XoX=X7X{.l.w.q.",
"w.&.&.w x { Z.OXW.|.!.M.m...!.3X!.+.O.x.L.L.F.+...x.I.L.X.+XOX+XR.Y.H.U.R.}.~.#X|.|.K.K.~.zXdXpX!.m.X.G.H.L U.%XeXeX#XK.R.~.}.}.~.J.n.R.Y.F.n.}.{.!.).oX[.Q.w.w.",
"w.&.&.=.[ v.M.m.k.{.Q.~.Q.n.X.z.X.X.A._.^.L.F.z.J +.c.Q.I. X$Xn./.R.l.$X$XXX[.Q.oX/.U.Y.Q.bXbXbX~.}.XX!.X.U.#X&X<X,X#X}.~.}.XXI.}.&X<XY.Q.F.H.m.N.+X+X..K K 3.q.",
"w.&.n V.A.C.C.d.x.n.z.L.!.U.L.K.J.:XsXsX-XJ J.k.O.+.oX;X XJ ..~.{.~.M.tXeX{.Q.$X&XW.z.}.}.jXbXoXU.#X$X~.n.}.#X}.8XrX}.|.Y.J.X.Y.#X|.<XA H.L.K.!.+X'._.F.J J m q.",
"w.&.d.j.C.C.C.R  .{ { X.J F.K.Y.Y..XjXkX@XG Y.| G.U.+X>X|.+.+.oXXXXXo.rXuX[.Q.&X+X!.{ }.XXW._.G.+.%X%XP.~.Q.oXQ.I.m.x.|.}.~.G.R.>X#XrX..K.K.Y.I.Z oX.XF.x.J b q.",
"w.5 w p k l l R F  .X.X...S ..{ J.J.J.J.x.+.m.{.~.~.}.L.F.K.F.,X+XXXL.K X.R. X.Xv.n.z.k.M.~.|.%X%XQ.!.%X,X|.oXQ.} L.G eX|.$XU.[.~.U.z.Y.J X.P.!.{ n.n.I.v.{ 6.w.",
"5.e 0 t f R R R  .} o.X.X.Z J z.F.L.F.m.z.~.XX|.|.#X[.R.Y.Y.R.9XeX#X[.K.K.R.#X#X~.I.L.F.+.!.$X;X<X<X X<XeX&XW.#XL.Q.~.m.Y.z.P.[.~.~.~.K.M O.F.L.I.V m.B.v.| 5.w.",
"4.d.k k R j.j.| b.| n.n.n.C n.o.L.F.n.F.n.+X&X&Xn.~.~.U.U.m.{.{.K.J.{.J.G.K.|.#X~.L.>X#X>XI.#X;XuX>X+.rXeXeX~.!.%X$XXX~.Y.Y.K P.~.~.~.{ L.H.A !.Q.X.C B.Z.Z.;.q.",
"w.} h j h.R k h.h.g z.n.+.z.+.L.L.F.J V K +X/._.N G.G G.G.Y.Q.J O.O.+.U.K.G.K.K.R.F.<XrX#XL.+.F.F.O.L.;X+X_.G.J.Y.%XI.U.Y.U.U.z.o.}.}.n.F.z.+.n.n.+.n.(.).^.e.w.",
"w.7.V  .f R k h.b.h } o.X.O...L.+.A J J X.G m.m.S c Z X.J.H.R.+.l.k.F.F.R.K.Y.Y.Y.Y.>X>X..L.F.H.Y.L.+. X|.!.+.F.G I.J.n.Y.U.J.H.} }.|.m.+.+.n.x.+.o.n.B.(.x.5 w.",
"w.w.u M |  .t |  .i M B A { A X.+.n.F.z.L.z.l.X.X.X.Z x.K.K.I.X.L.L.!.XX+.L.}.}.~.~.Q.!.K.O...J ~.I.X.F.J.V G F.J.Y.U.K.x.!.J.H...}.|.n.F.J J.!.!.+.{ M.o.J S 3.",
"w.3.w j g.C p d g g t g A A A A X...X.c m.K.K.Y.Y.Y.z.*Xn.~.~.J n.,XXX>XO.U.+X>X+X~.~.I.Z ....X.oX!.L.B x O.S n.!.!.X.~.}.{.}.~.!.} o.~.K.F.J Y.oXoX.XM.W.W.N 9 ",
"q.w 0 8  .g t h { F j j g d V ..{ G { B G F.G Q.Q.~.Z XXXX+XL.J O.X.oX..A J _._._.+.V Z O...K O.oXoXoX XF.!.Y.o.J.+.K.~.+X%X+X.XI.I.'.+Xn.n.J._.>X;X'.Q._..XX.<.",
":.9 y g  .C h.V.h.g.g g i i i d 8 G { { J +.+.XXG x.L L.L.F.F.n.L.F.X.X.J Z c W.M.X.!.I...X...G V _._.n... X{.}.~.R.U.Q.Q.(.>XQ.I.[ -XA.k.X.M.I.v.(.Z.{ _.A.i 4.",
"-.9 y f { V A.C.C.h.C g B d i t V B.o.o...O.A }...S +.x.F.L.F.F.L.J.+.J V Z x y y k.W.W.F o.o.G S b.Z.+.A  X X.X}.Y.!.~.}.W.!.X.x.d.-XS.s.} M.L.m.o.m.v.c.s.q -.",
"w.w.w q C F 6XD.-Xc.{ { { V g V s.k.v.Q.+.+.z.z...+.+.z.n.F.n.!.n.k.A i c.c.J S 9 X.W.b.t G } s.n.M.n.+.X._._.oXm.U.U.W.,X%XQ.I.k.M A.A.d.{ | n.c.A V k.G V c 5.",
"w.w.x x u y j.v.| J ....} ..{ R F } I.O.+.W.!.M.{ | d X.z.X.n.!.W...G | B.W.c Z { C | M.A y F h c.Z.B.+.A { Z.b.M.Y.J !.+XOX_.W.G G d g F F  .v.c.d.F } M i x w.",
"w.;.N M G k.x.k.o.J ..X.+.P.L.+.X...n.z.A .XQ.L.{ { i b.Z.| d c.c.u Z o.| c.{ S o.c.} { C u w g.Z.| c S S V c i n.o.q A Z.^.Z.M.C h 0 t V F p g.b.g p { F u c e.",
"w.m N N x.I._.T.B ......o.K.x.G +.X.} X.Z oXW.b.B M h g.j.B u 0 } o.c.o.} o.J S c.c.o.i c i & F f.b.} B V V S x o.u c S { d q c p { t & c C Z o.{ d 8 d.8 z b w.",
"w.-.x S T.N.I.J c X.X.X.B G M o...V { A ..n.W.o.{ } { h.| g B C } c.n.} } X.A c M.B.n.8 c { 9 9 i { Z Z A ....S { i Z i A { V B C C u 9 y M o.o.{ j p B u b e.q.",
"w.w.e.:.W...S y q B o.X...G A u a t p 0 A ..} } n.o.c.|  .C C } F f.f.i B V J A W.B.{ M 8 { i S i { { B { n.X.c ..X.{ t } { { { x.f.A C } C f.d.| t j Z K K s w.",
"w.w.w.w.q.5 w c M k.k.} B F F u d g j.j } V { | v.b.c.{ B g.v.f. .g.j.c B c A { B i c c x t c B C { i A A L.X.G B B C i Z A d g N.J.o...X.} f.f.f. . .| m.H =.w.",
"w.w.w.w.w.w.5 z C v.v.c F } } V A F l.o.M A F R s.v.v.9 q N.N.Z.A C M C C Z A G M y 0 8 8 t d g B F C { k.V A M p d h h N V A V [ N.o.| o.f.C p h c.b.{ 7.w.w.w.",
"w.w.w.w.w.w.w.5 D b.} u A s.f.V G F h u p C C C R R u d d h.f.A B B C { { o.o.X.A u d 6 * t C C F B i [ d.R f d p 6 6 F A A G V n.k.} o.c.g.g A R n.c.y q.w.w.w.",
"w.w.w.w.w.w.w.=.z Z.M w M } d.u F F k p d j j g j g d d B J } G Z C A { { n.B ..d G h 0 6 0 F {  .C d d.R 0 f p p 0 d g G G +.{ L.} A H b.b.i B g v.b.* w.w.w.w.",
"w.w.w.w.w.w.w.w.w.5.=.z b z q y d.F k f 6 0 f h t p d c V M V F j V C g x.m.Z ..M o.} 0 k 7 j j p C C C l * k k k k h h c.G k.m.{ k.y O.X.m.c 9.z._.;Xw w.w.w.w.",
"w.w.w.w.w.w.w.w.w.w.w.w.<.5 z w V F F k w V F F t p C B V g V h F F d i q t G G G k.G p a 8 i f p k R C { i j.[ R [ | v.k.d.(._.Z ;.N L m e.w.w.e.7.6.3.w.w.w.w.",
"w.w.w.w.w.w.w.w.w.w.w.w.q.w.w.w.-.D 9.y.&.e F x e F } F C A B 9 0 0 C c B G X.C y q q c x x C C C 7 V v.g.[ | [ R f.h.o.D D _.'.N =.w.w.w.w.w.w.w.w.w.w.w.w.w.w.",
"w.w.w.w.w.w.w.w.w.w.w.w.w.w.w.w.w.w.w.w.&.&.&.&.,.8.s.} B d d q u * 8 d B C l.J N x # z S c L J ..x z O 4 v.b.u 3.8.9.6.w.q.;.n K 4.w.w.w.w.w.w.w.w.w.w.w.w.w.w.",
"w.w.w.w.w.w.w.w.w.w.w.w.w.w.w.w.w.w.w.w.1.1.*.&.1.y.N.K N L q u c z y C C N # & 9 b X X z S O.L * * X =.:.!.f.n w.q.w.w.w.w.r.e.9.q.w.w.w.w.w.w.w.w.w.w.w.w.w.w.",
"w.w.w.w.w.w.w.w.w.w.w.w.w.w.w.w.w.w.w.w.w.w.,.&.1.w.w.e.4.4.2.x & # + { V #   . . o   o . + * # + .   w.w.w.w.w.w.w.w.w.w.w.w.w.w.w.w.w.w.w.w.w.w.w.w.w.w.w.w.w.",
"w.w.w.w.w.w.w.w.w.w.w.w.w.w.w.w.w.w.w.w.w.w.w.w.w.w.w.w.w.w.q.w.X o + . @ $ + $ + + + + @ % # + @   . w.w.w.w.w.i.w.w.w.w.a.p.w.w.w.w.w.w.w.w.w.w.w.w.w.w.w.w.w.",
"w.w.w.w.w.w.w.w.w.w.w.w.w.w.w.w.w.w.w.w.w.w.w.w.w.w.w.w.w.w.w.w.X X X + $ + = ; = = @ @ @ ; $ - @ $ . w.w.w.w.w.u.w.w.w.w.a.p.w.w.w.w.w.w.w.w.w.w.w.w.w.w.w.w.w.",
"w.w.w.w.w.w.w.w.w.w.w.w.w.w.w.w.w.w.w.w.w.w.w.w.w.w.w.w.w.w.w.w.X # + @ + + < I 3 3 @ - % - > > + + + w.w.w.w.w.u.w.w.w.w.a.p.w.w.w.w.w.w.w.w.w.w.w.w.w.w.w.w.w.",
"w.w.w.w.w.w.w.w.w.w.w.w.w.w.w.w.w.w.w.w.w.w.w.w.w.w.w.w.w.w.w.w.+ + + + + @ I = 2 3 @ > - % > > # + # w.w.w.w.w.w.a.a.a.a.w.w.w.w.w.w.w.w.w.w.w.w.w.w.w.w.w.w.w.",
"w.w.w.w.w.w.w.w.w.w.w.w.w.w.w.w.w.w.w.w.w.w.w.w.w.w.w.w.w.w.w.w.4 # + 1 @ = T I 2 3 = 3 < $ , : % + * w.w.w.w.w.w.a.a.a.a.w.w.w.w.w.w.w.w.w.w.w.w.w.w.w.w.w.w.w.",
"w.w.w.w.w.w.w.w.w.w.w.w.w.w.w.w.w.w.w.w.w.w.w.w.w.w.w.w.w.w.q.2.% : > r % Q T T Q ; % > r < $ , % $ =.t.r.w.w.w.w.a.a.a.a.w.w.w.w.w.w.w.w.w.w.w.w.w.w.w.w.w.w.w.",
"w.w.w.w.w.w.w.w.w.w.w.w.w.w.w.w.w.w.w.w.w.w.w.w.w.w.w.w.q.q.q.<.r r ^ % E Q ( ( ~ Y = 2 < P : % - * a.a.u.w.w.w.w.a.a.a.a.w.w.w.w.w.w.w.w.w.w.w.w.w.w.w.w.w.w.w.",
"w.w.w.w.w.w.w.w.w.w.w.w.w.w.w.w.w.w.w.w.w.w.w.w.q.2.2.q.w.w.w.:.r / W ~ ~ _ ` ( ( T ; I Y Q U 2 % * i.a.u.q.w.w.w.p.p.p.p.w.w.w.w.w.w.w.w.w.w.w.w.w.w.w.w.w.w.w.",
"w.w.w.w.w.w.w.w.w.w.w.w.w.w.w.w.w.w.w.w.w.w.w.w.1.&.&.2.w.w.q.- v / > ) ` ] ( Y ( Q ; 3 Y U Q U % % <.a.u.q.w.w.w.w.w.w.w.w.w.w.w.w.w.w.w.w.w.w.w.w.w.w.w.w.w.w.",
"w.w.w.w.w.w.w.w.w.w.w.w.w.w.w.w.w.w.w.w.w.w.w.w.1.&.&.2.w.w.:.: 1 : Y _ #.' @.' _ ` > < 2 Q E ) 2 : & a.u.w.w.w.w.w.w.w.w.w.w.w.w.w.w.w.w.w.w.w.w.w.w.w.w.w.w.w.",
"w.w.w.w.w.w.r.u.u.t.w.w.u.u.u.r.w.w.w.w.w.w.w.w.1.&.&.2.w.3.& r : < Q #.` ' %.' @.T < 3 < I ) Y ~ < > u.t.w.w.w.w.w.w.w.w.w.w.w.w.w.w.w.w.w.w.w.w.w.w.w.w.w.w.w.",
"w.w.w.w.w.w.r.a.a.p.w.w.a.a.a.r.w.w.w.w.w.w.w.w.1.&.&.2.w.& > E > 2 ) @._ $.%.T ' ( < T Q Y I Q Y ~ Y 5 w.w.w.w.w.w.w.w.w.w.w.w.w.w.w.w.w.w.w.w.w.w.w.w.w.w.w.w.",
"w.w.w.w.w.w.r.a.a.p.w.w.a.a.a.t.w.w.w.w.w.w.w.w.1.&.&.2.:.> / W < 2 ( ' _ $.` ( ' T I ( ` #.; I Q ~ ~ : 6 q.w.w.w.w.w.w.w.w.w.w.w.w.w.w.w.w.w.w.w.w.w.w.w.w.w.w.",
"w.w.w.w.w.w.w.t.r.t.p.p.r.r.r.w.w.w.w.w.w.w.w.w.q.2.2.<.& r / r 3 I Q $.' $.T ' ' Y T ` _ _ Y < T T ~ ; - q.w.w.w.w.w.w.w.w.w.w.w.w.w.w.w.w.w.w.w.w.w.w.w.w.w.w.",
"w.w.w.w.w.w.w.w.w.r.a.a.w.w.w.w.w.w.w.w.w.w.w.w.w.w.w.: > E Q r I Y T ' @.%.Q ' ` I ] ' @._ ( 3 I ~ Y - 2 :.w.w.w.w.w.w.w.w.w.w.w.w.w.w.w.w.w.w.w.w.w.w.w.w.w.w.",
"w.a.a.a.w.w.w.w.w.r.a.a.w.w.w.w.w.w.w.w.w.w.w.w.w.w.& E ~ ^ Y Y > P ( _ ' T ' ] Q 3 ] @.@.' ` ( ; U 2 ; ^ ! e w.w.w.w.r.w.w.w.w.w.w.w.w.w.w.w.w.w.w.w.w.w.w.w.w.",
"w.a.a.a.w.w.w.w.w.r.a.a.w.w.w.w.w.w.w.w.w.w.w.w.w.w., ! ~ ^ E E < < ) Q ` _ _ _ Q 3 _ @.] ' _ ` Y ; < ; ^ Q W e w.w.w.w.w.w.w.w.w.w.w.w.w.w.w.w.w.w.w.w.w.w.w.w.",
"w.a.a.a.w.w.w.w.w.r.a.a.w.w.w.w.w.w.w.w.w.w.w.w.w.w.r W ! r U E > > U ] ) ( #.W 3 3 _ @.Q ' @.E E ; ; < ^ W U a w.w.w.w.w.w.w.w.w.w.w.w.w.w.w.w.w.w.w.w.w.w.w.w.",
"w.a.a.a.w.w.w.w.w.t.a.a.w.w.w.w.w.w.w.w.w.w.w.w.w.w.6 r r 1 1 U > > U Q ] ] r E < r _ @.Q ' ] E #.> : < ^ P 6 -.w.w.w.w.w.w.w.w.w.w.w.w.w.w.w.w.w.w.w.w.w.w.w.w.",
"w.a.a.a.w.w.w.w.w.w.w.w.w.w.w.w.w.w.w.w.w.w.w.w.w.w.w.w.q.3.3.<., - / ~ Q ~ ^ W < r ( #.U ' ! Y ( r < : 0 w.w.w.w.w.w.w.w.w.w.w.w.w.w.w.w.w.w.w.w.w.w.w.w.w.w.w.",
"w.w.w.w.w.w.w.w.w.w.w.w.w.w.w.w.w.w.w.w.w.w.w.w.w.w.w.w.w.w.w.w.w.w.3.-.5 6 , : r Q ~ ] ! _ ^ Y Q r e w.w.w.w.w.w.w.w.w.w.w.w.w.w.w.w.w.w.w.w.w.w.w.w.w.w.w.w.w.",
"w.w.w.w.w.w.w.w.w.w.w.w.w.w.w.w.w.w.w.w.w.w.w.w.w.w.w.w.w.w.w.w.w.w.w.w.w.w.w.w.5 , 1 Q Q ~ ! W r 5 w.w.w.w.w.w.w.w.w.w.w.w.w.w.w.w.w.w.w.w.w.w.w.w.w.w.w.w.w.w.",
"w.w.w.w.w.w.w.w.w.w.w.w.w.w.w.w.w.w.w.w.w.w.w.w.w.w.w.w.w.w.w.w.w.w.w.w.w.w.w.w.w.w.w.3.5 6 <.w.w.w.w.w.w.w.w.w.w.w.w.w.w.w.w.w.w.w.w.w.w.w.w.w.w.w.w.w.w.w.w.w."
};
