/* XPM */
static char *wall_tree_1_zuZRs[] = {
/* columns rows colors chars-per-pixel */
"80 80 240 2 ",
"   c #1C0C03",
".  c #150802",
"X  c #1D1C03",
"o  c #230E02",
"O  c #290F03",
"+  c #251003",
"@  c #2B1204",
"#  c #2C1B04",
"$  c #261B06",
"%  c #331505",
"&  c #3A1606",
"*  c #341C05",
"=  c #3B1B06",
"-  c #331A0A",
";  c #3C1B09",
":  c #381708",
">  c #3A1518",
",  c #2C1617",
"<  c #133C01",
"1  c #1D3B03",
"2  c #1C3403",
"3  c #1B2C02",
"4  c #2D2305",
"5  c #272A04",
"6  c #332305",
"7  c #3B2206",
"8  c #3C2409",
"9  c #3C2A0A",
"0  c #382808",
"q  c #263603",
"w  c #393509",
"e  c #3E2211",
"r  c #303112",
"t  c #381822",
"y  c #393226",
"u  c #431B07",
"i  c #441D09",
"p  c #4A1E0A",
"a  c #4A180B",
"s  c #4B1311",
"d  c #422107",
"f  c #44230A",
"g  c #4C220B",
"h  c #432B0A",
"j  c #4B2B0E",
"k  c #53240D",
"l  c #542A0E",
"z  c #5A2A0F",
"x  c #58260E",
"c  c #45360D",
"v  c #4C2511",
"b  c #4C2B14",
"n  c #462816",
"m  c #532610",
"M  c #532B13",
"N  c #5C2C13",
"B  c #582813",
"V  c #4A3514",
"C  c #543313",
"Z  c #5B3215",
"A  c #543914",
"S  c #5C3419",
"D  c #593817",
"F  c #612E14",
"G  c #633216",
"H  c #653419",
"J  c #6A361A",
"K  c #653A1C",
"L  c #6C3B1D",
"P  c #693416",
"I  c #713C1E",
"U  c #431823",
"Y  c #5A182D",
"T  c #6B1B38",
"R  c #6E1A2B",
"E  c #4F302D",
"W  c #693C20",
"Q  c #723E21",
"!  c #793D21",
"~  c #692933",
"^  c #6E1610",
"/  c #014B00",
"(  c #0A4701",
")  c #134501",
"_  c #164A02",
"`  c #0A5401",
"'  c #025B00",
"]  c #0B5900",
"[  c #185902",
"{  c #264403",
"}  c #275906",
"|  c #384F0B",
" . c #006500",
".. c #006A00",
"X. c #086A01",
"o. c #007300",
"O. c #017C00",
"+. c #0B7401",
"@. c #167A02",
"#. c #186802",
"$. c #266A05",
"%. c #247305",
"&. c #3C6A0E",
"*. c #46480C",
"=. c #594219",
"-. c #4C5613",
";. c #545716",
":. c #64471D",
">. c #75431F",
",. c #69581E",
"<. c #576719",
"1. c #4A7016",
"2. c #63661D",
"3. c #594238",
"4. c #6B4324",
"5. c #6A4526",
"6. c #744322",
"7. c #7A4524",
"8. c #7C4A26",
"9. c #7C4C29",
"0. c #754927",
"q. c #6E5321",
"w. c #7D522B",
"e. c #775526",
"r. c #764E38",
"t. c #547B20",
"y. c #7B672D",
"u. c #74722D",
"i. c #691846",
"p. c #782349",
"a. c #7C2555",
"s. c #6D2C45",
"d. c #584B45",
"f. c #766651",
"g. c #6F584E",
"h. c #8B263A",
"j. c #952D3C",
"k. c #A1393E",
"l. c #814B27",
"z. c #824D29",
"x. c #884A29",
"c. c #84542C",
"v. c #89552E",
"b. c #835A2E",
"n. c #855631",
"m. c #8A5631",
"M. c #855931",
"N. c #8C5C33",
"B. c #925E35",
"V. c #985E34",
"C. c #864F3E",
"Z. c #8A6535",
"A. c #936136",
"S. c #95643A",
"D. c #99663B",
"F. c #956A3B",
"G. c #9C6B3E",
"H. c #9E6736",
"J. c #98713D",
"K. c #876D35",
"L. c #A06B3D",
"P. c #872749",
"I. c #942E4B",
"U. c #852354",
"Y. c #8C365B",
"T. c #943854",
"R. c #953150",
"E. c #922E62",
"W. c #A23B61",
"Q. c #A63356",
"!. c #934955",
"~. c #9D6D41",
"^. c #936842",
"/. c #9C7143",
"(. c #8A745B",
"). c #A26E41",
"_. c #A47344",
"`. c #A97646",
"'. c #A67A49",
"]. c #AC7C4C",
"[. c #A67748",
"{. c #B07E4E",
"}. c #954C67",
"|. c #94586D",
" X c #95746E",
".X c #A55273",
"XX c #008400",
"oX c #008C00",
"OX c #168603",
"+X c #009500",
"@X c #009C00",
"#X c #0B9A01",
"$X c #129204",
"%X c #29970B",
"&X c #33960E",
"*X c #3E8E12",
"=X c #2D9011",
"-X c #01A400",
";X c #01AB00",
":X c #0AA701",
">X c #1AAA07",
",X c #01B300",
"<X c #00BC00",
"1X c #0BBA03",
"2X c #16B707",
"3X c #27A20B",
"4X c #2FAE13",
"5X c #458816",
"6X c #479B1B",
"7X c #588721",
"8X c #608623",
"9X c #42AA15",
"0X c #02C401",
"qX c #0AC303",
"wX c #00CA00",
"eX c #0AC903",
"rX c #00D700",
"tX c #06DB01",
"yX c #12C106",
"uX c #00E400",
"iX c #00FE00",
"pX c #00F200",
"aX c #AE814D",
"sX c #B1814F",
"dX c #AE8250",
"fX c #AB8D51",
"gX c #B38552",
"hX c #B68A55",
"jX c #B98C56",
"kX c #BA8D59",
"lX c #B88656",
"zX c #BD925B",
"xX c #A89155",
"cX c #AB9271",
"vX c #C2965E",
"bX c #C79C62",
"nX c #A57483",
"mX c #B2978F",
"MX c #DDCCAE",
"NX c #C0A491",
/* pixels */
"wXwXwXwXwXwXwXwXwXwXwXwXwXwXwXwXwXwXwXwXwXwXwXwXwXwXwXwXwXwXwXwXwXwXwXwXwXwXwXwXwXwXwXwXwXwXeXeXeXwXwXwXwXwXwXwXwXwXwXwXwXwXwXwXwXwXwXwXwXwXwXwXwXwXwXwXwXwXwXwX",
"wXwXwXwXwXwXwXwXwXwXwXwXwXwXwXwXwXwXwXwXwXwXwXwXwXwXwXwXwXwXwXwXwXwXwXwXwXwXwXwXwXwXwXwXeXd.a.y  .wXwXwXwXwXwXwXwXwXwXwXwXwXwXwXwXwXwXwXwXwXwXwXwXwXwXwXwXwXwXwX",
"wXwXwXwXwXwXwXwXwXwXwXwXwXwXwXwXwXwXwXwXwXwXwXwXwXwXwXwXwXwXwXwXwXwXwXwXwXwXwXwXwXwX0X0XwXd.a.E  .wXwXwXwXwXwXwXwXwXwXwXwXwXwXwXwXwXwXwXwXwXwXwXwXwXwXwXwXwXwXwX",
"wXwXwXwXwXwXwXwXwXwXwXwXwXwXwXwXwXwXwXwXwXwXwXwXwXwXwXwXwXwXwXwXwXwXwXwXwXwXwXwXwXwXeX0XE..X.XE.a.wXwXwXwXwXwXwXwXwXwXwXwXeXeXwXwXwXwXwXwXwXwXwXwXwXwXwXwXwXwXwX",
"wXwXwXwXwXwXwXwXwXwXwXwXwXwXwXwXwXwXwXwXwXwXwXwXwXwXwXwXwXwXwXwXwXwXwXwXwXwXwXwXwXwXwXa.W.W.W.E.E.i.i.0X0XeXwXwXwXwXwX1X3X*X3X7.1.=X0XwXwX0XwXwXwXwXwXwXwXwXwXwX",
"wXwXwXwXwXwXwXwXwXwXwXwXwXwXwXwXwXwXwXwXwXwXwXwXwXwXwXwXwXwXwXwXwXwXwXwXwXwXwXwXwXwX3.E.mXW.W.a.|.a.a.t wXeXwXwXwXeX&X2.q.9.7.7.W L S =.1.4X3XwXwXwXwXwXwXwXwXwX",
"wXwXwXwXwXwXwXwXwXwXwXwXwXwXwXwXwXwXwXwXwXwXwXwXwXwXwXuXuXuXwXwXuXuXuXuXwXwXwXwXwXwXE E.mXW.}.U.|.a.a.t wXwXwXwXwX0X&X2.q.! 7.7.4.L D =.&.3X3XwXwXwXwXwXwXwXwXwX",
"wXwXwXwXwXwXwXwXwXwXwXwXwXwXwXwXwXwXwXwXwXwXwXwXwXwXwXpXiXiXwXwXiXiXiXiXwXwXwXwXwXeXY E.E.E.nXp.i.Y Y t wXwXwXwX>X,.7.7.9.9.y.M.N.w.y.e.0.K K K <.2XwXwXwXwXwXwX",
"wXwXwXwXwXwXwXwXwXwXwXwXwXwXwXwXwXwXwXwXwXwXwXwXwXwXwXpXiXiXwXwXiXiXiXiXwXwXwXwXwXwXY Q.R.R.I.P.P.T T U wXqX%X,.0.7.,.w.N.S.J._.].'.G.Z.w.q.5.=.q.5XyXwXwXwXwXwX",
"wXwXwXwXwXwXwXwXwXwXwXwXwXwXwXwXwXwXwXwXwXwXwXwXwXwXwXpXiXiXwXwXiXiXiXiXwXwXwXwXwXwX0XE T Q.I.T T U U wXqX<.7.,.w.y.A.F.L.'.].aXkXgX`.A.S.N.N.F.y.6.3XwXwXwXwXwX",
"wXwXwXwXwXwXwXwXwXwXwXwXwXwXwXwXwXwXwXwXiXiXiXiXuXwXwXpXiXiXiXiXiXiXiXiXwXwXwXwXwXwXwXY T Q.R.i.T U U wX1X<.0.,.8.K.A.F.G.'.].sXkXgX_.S.B.N.B.F.y.5.3XwXwX-XwXwX",
"wXwXwXwXwXwXwXwXwXwXwXwXwXwXwXwXwXwXwXwXiXiXrXwXwXwXwXwXwXwXiXiXwXwXwXwXwXwXwXwXwXwXwXwXr U t n S y y wX&.V u.Z.A.J.sXsXsX].].]._.G.S.G.[.gXgXkXgXr.5.0.*X-XwXwX",
"wXwXwXwXwXwXwXwXwXwXwXwXwXwXwXwXwXwXwXwXiXiXrXwXwXwXwXwXwXwXiXiXwXwXwXwXwXwXwXwXwXwXwXwX2X5Xy (.(.cXcXy n w.'.dXgXgXgX].{._.A.N.Z.G._.].gXzXkXvXkX_.A.6.t.-X0XwX",
"wXwXwXwXwXwXwXwXwXwXwXwXwXwXwXwXwXwXwXwXiXiXrXwXwXwXwXwXwXwXiXiXwXwXwXwXwXwXwXeXeXwX>X&X5X8.=.y cXMXMXf.w.~.gXzXlXkX_.).G.N.N.M.S.[.gXkXvXzXzXzXgX`.).e.5.-XwXwX",
"wXwXwXwXwXwXwXwXwXwXwXwXwXwXwXwXwXwXwXwXiXiXrXwXwXwXwXwXwXwXiXiXwXwXwXwXwXwXwXeXeXwX2X&X1.7.*.y cXMXMXf.w./.gXvXlXzX[.).F.N.N.n.S.`.gXzXvXzXzXkXgX`._.9.:.-XwXwX",
"wXwXwXwXwXwXwXwXwXwXwXwXwXwXwXwXwXwXwXwXwXwX-X+X+X+X+X<XwXwXwXwXwXwXwXwXwXwXwX2X3X3X,.q.8.b.l.b y MXMXf.'.dXgXhX].~.B.S.B.N.S.`.aXhXzXvXbXgXgX].`.J.G.m.H 3XwXwX",
"wXwXwXwXwXwXwXwXwXwXwXwXwXwXwXwXwXwXwXwXwXwX<X,X,X,X;X0XwXwXwXwXwXwXwXwXyX9X5X5X,.6.e.z.c.S.m.M.3.J./.aXgXsXL.J._.G.~._.G._.].hXzXbXzXhX].[.`.G.G.A.N.l.p 1X0XwX",
"wXwXwXwXwXwXwXwXwXwXwXwXwXwXwXwXwXwXwXwXwXwXwXwXwXwXwXwXwXwXwXwXwXwXwX2X3X2.8.w.8.w.c.N.B.F.G.`.fXfXsXsXL._.G._._.sXhXhXhXsXkXzXbX/./.'.~.~.~.A.N.A.v.I F | wXwX",
"wXwXwXwXwXwXwXwXwXwXwXwXwXwXwXwXwXwXwXwXwXwXwXwXwXwXwXwXwXwXwXwXwXwXwX>X&X2.8.w.z.e.c.N.B.S.~.`.aXaXsXsXL._.G._.).gXhXjXgXdXkXzXbX/./.`.~.G.G.A.N.A.m.Q Z w wXwX",
"wXwXwXwXwXwXrXwXwXwXwXwXwXwXwXwXwXwXwXwXwXwXwXwXwXwXwXwXwXwXwXwXeX4X&X2.8.c.N.N.H.N.N.~.'.[.'.gXvX].aX_.G./.].gXgXjXzXbXbXvXbX'.w.5.F.D.S.S.S.B.m.A.M.H h y 2XeX",
"wXwXwXwXwXwXwXwXwXwXwXwXwXwXwXwXwXwXwXwXwXwXwXwXwXwXwXwXwXeXeX2X>X2.e.x.v.'.F.M.A.G.S._.zXjXdXgXsX].]._.'.sXhXjXzXzXzXzXhXaXZ.5.4.S.D.m.N.N.N.v.c.v.J m } &XeXeX",
"wXwXwXwXwXwXwXwXwXwXwXwXwXwXwXwXwXwXwXwXwXwXwXwXwXwXwXwX1X5X6X2.z.b.N.N.S.m.N.N.)._._.].gX].{.~.`.].aXaXgXhXjXkXhXhXhX'.F.5.5.0.v.m.N.c.M.c.v.6.L P F x -.4X0XeX",
"wXwXwXwXwXwXwXwXwXwXwXwXwXwXwXwXwXwXwXwXwXwXwXwXwXwXwXwX1X5X*X2.8.c.m.B.S.N.Z.N.).`._.`.gX].dX~.`.aXaXaXhXhXkXjXhXhXgX/.^.5.5.9.v.m.N.v.M.c.n.6.W P F k -.4X1XeX",
"wXwXwXwXwXwXwXwXwXwXwXwXwXwXwXwXwXwXwXwXwXwXwXwXwXeXyX3X2.q.q.b.N./.S.V.B.S.D.~.].sXaXsX`.)._.`.'.sXgXhXzXbXzXsX'.[.[.5.W 0.w.z.8.8.c.9.W L W N k p P J =.} $.eX",
"wXwXwXwXwXwXwXwXwXwXwXwXwXwXwXwXwXwXwXwXwXwXwXwXwX4X8X>.y.M.M.J.H.A.A.A.G.`.'.].gXzXhXhX/.A.G.`.].sXaXsXgXlXgX`.D.B.B.4.c.8.z.z.8.6.I L F i i f S L 6.I F p } :X",
"wXwXwXwXwXwXwXwXwXwXwXwXwXwXwXwXwXwXwXwXwXwXeX4X8Xu.b.x.F.S.F.S.G.A.L.J.`.gXgXlXhXvXdX/./.S./.`._._._.`.'.`.[.G.B.N.c.l.7.7.8.>.L J k F v e n S c.l.Q G F g w @.",
"wXwXwXwXwXwXwXwXwXwXwXwXwXwXwXwXwXwXwXwXwXwX0X4X8Xu.y.l.F.S.S.S.S.A.G._.`.gXgXlXhXbXaX~.~.F./.'._._._.`.].`.`.~.B.v.c.l.7.7.8.7.L J m N m e e S v.l.>.G z i w @.",
"wX+X+X+XwXwXwXwXwXwXwXwXwXwXwXwXwXwXwXwXwX0X6XK.b.Z.J.D.~.~.~.S.G.].].aX{.].gXjX].'.'.N.xXP.P.F.G.).).G.L.D.S.M.c.c.l.7.I L I P m B M b S 9.9.c.7.L P G F J g 9 ",
"wX+X+X+XwXwXwXwXwXwXwXwXwXwXwXwXwXwX0X2X6X7XZ.y.J.F.].`._.aX{.{.gXgXgXgX'.S.S.'.'.S.n.P.I.~ p.T R 0.9.^.N.m.v.7.! l.Q W P P F N S S W 4.e.8.8.H N N F F N F g | ",
"wX+X+X+XwXwXwXwXwXwXwXwXwXwXwXwXwX1X4X7XS.K.J.~.]._.G.].gXzXbXkXbXgX].G.~.D.v.A.L ~ p.U.I.!.T.T.P.s.s.r.w.9.8.7.Q Q P F k N M S D c.0.H F G H p k G N N z g w %.",
"wX+X+X+XwXwX<X+X+X-XwXwX+X+X+X<XwX2X4X7XA.F.J.~.aX_.G.].gXvXkXkXbXgX].D.~.D.m.A.K ~ p.P.I.T.T.I.P.s.s.s.r.8.7.7.Q Q H F m Z Z S S n.8.H H G G p m F N N z k w %.",
"wX,X,X,XwXwX<X+X+X@X,X,X+X+X+X<XqX7XK.F.G.].dXaX{.dX'.dXjXkXkXjX].~.~.B.'.gX]._.T P.I.R.mX}.}.}.Y.p.p.i.Y 6.Q Q J H W H Z D K 0.9.I L k p g g x F F l k g f q $X",
"wXwXwXwXwXwX<X+X+X+X+X+X+X+X$X>X6XS.G.'.].].hXgX{.gXlXgXgXaXaX`._.S.[.gXjXgX'.^.~ !.j.P.}.h.!.I.R.Y.R.U.i.Y C G G G S W K 0.0.6.L N P F k p p k p g j d 8 % 1 <X",
"wXwXwXwXwXwX<X+X+X+X+X+X+X$Xt.D.J.[.'.S.S.~._.~.~._.{.gXdX`.`.A.'.aX{.y.^._.S.U Y T.k.h.P.Y..XU.Y.}.}.a.U.Y F >.M D 5.M.0.0.W N B x x m g a u u & u d 7 0 4 [ <X",
"wXwXwXwXwXwX0X+X+X+X+X+X+X$Xt.).J.'.'.~.G.~./.~./._.].gXgX`.`.A.'.aXaXr.~._.^.U Y !.j.h.P.Y. XU.U.}.}.U.a.Y N Q M D 5.M.0.7.W F x x x x g u u & : 7 h 7 6 5 [ <X",
"wXwXwXwXwXwX<X+X+X+X+X+X>X6X8X_.'./.S.w.6.7.7.Q n.B.[.aXgXdXgX`.].gX{.- M.N.N.E s h.|.!.P.P.U.U.Y.}.}.U.P.T N 9.4.9.w.S.>.F J F k k p p u : : = = 7 6 6 * q +.0X",
"wXwXwXwXwXwX<X+X+X=X=X1.K.K.'._.~.N.z.b f v f M I c.~._.].].].]._.~.w., 9.m.v.C., R ~ k.j.!.h.h.P.P.P.j.h.^ B 6.c.c.z.8.L N N x k g i % = = ; 7 0 6 6 0 4 q $X0X",
"wXwXwXwXwXwXwX2X6Xy.y.^.).G.S.Z.w.S M - + o   ; N L 6.n.D._._.G.S.N.e.n b M.0.M ~ U U R h..Xh.h.!.h.h.|.I.s b.N.9.7.L G G N g a u & = = = d 8 6 4 6 4 0 6 q 1XwX",
"wXwXwXwXwXwXwX2X*Xy.y.N.~.G.S.Z.n.S M - O o o : N L 7.n.D._._.G.N.N.0.n V m.0.E E U U Y h.|.h.I.!.h.h.|.I.a c.B.9.7.K P G z g p u & = = d d d 6 6 5 4 7 6 q ,XwX",
"wXwXwXwXwXqXyX5Xy.B.^.^.B.B.7.S b ; @ o o o : & = ; k 7.B._.`.S.B.v.V.V , C b D D E , s Y R h.T s.R R R ^ g v.>.J H x k g g p = = = d d = 7 6 0 0 0 5 q _ #.<XwX",
"wXwXwXwXeXt.u.^.Z.).).m.6.H M ; @     o + + & @ @ % ; S v.G.G.S.4.0., + o ; W I E f.g.3.y t , t s s s n S K 6.L z l g d u = = # = = 7 6 6 0 r 9 V c 4 < ' oX,X0X",
"wXwXwX>X*Xy.Z./.m.6.! S i % +       + + % O   o o o @ > v v v - - o   # M 4.H H E mX(.(.d.d.E V f b b D Z N Z G j f d 7 * * * = - 7 6 6 9 V V w 9 w * 1 X.+X,X0X",
"wXwXwX>X5Xy.Z.~.m.Q Q Z v : O       + + % +   o o o @ ; M b M - -     - M W H G y mXxX(.d.d.E V n b n Z Z S Z Z g f d = * * * 6 7 7 6 6 0 V V *.w r 6 q  .+X,X0X",
"wXwXeXt.c.Z.n.7.L l z d @   @ @     @ O +             o +         . b 6.H N p p 3.mX Xd.3.K D 7.S L L z j j f g d 7 9 7 * * * = * 7 h c c w w V 5 q ( ( o.+X;XwX",
"wXwX1X,.6.e.1.-.g = = % o   & & o                 .                 . v B F H r.(.NX XE E K ! K M C z h 7 8 = = 7 7 * # 6 = = 7 = 7 h j w 4 r 2 ) `  . .O.+X<XwX",
"wXwXqX1.;.H :X%Xh g g i + + a %     o o   O o           O       @ V S.H N I 7.n.N.cXf.5.S S Z j f h d 7 7 d f f i d = 7 7 d g d d i @ * 1 ) ) ` '  . ...oX-X0XwX",
"wXwXqX<.;.G 2X%Xd g g i @ + a % o       o O           o o       + n ^.H N I 7.n.^.cXg.5.S S S j d h h 7 7 d f d d i 7 7 d d g d f i @ - 1 ) ) / '  .' ..oX-X0XwX",
"wXwXwXwX0X0XwX<Xp N N z i : % O o O O + o +     o % % O O - # M 5.~.B.! L 7.m.N.9.7.l.7.L N j 8 6 * * 6 7 u d p g g g l z z C Z N B l h _ O.+. . . ...o.-X,XwXwX",
"wXwXwXwXwX>XOX$.k z l x p +   + - a % +         o % @ o   + + M 8.A.G.B.N.m.n.l.>.J F P z g i 6 d h h g d u u p g k x B H 6.c.l.Q J H Z A c c | { { O.+X<X0XwXwX",
"wXwXwXwXwX*.Z D x g g i = + % = u i % O   o o o o o     + + @ i P l.B.S.B.m.! I P N g k g g = & d g g l k k k x z x g g N N S L l.c.z.>.K G K P N c $.:XwXwXwXwX",
"wXwXwXwXwX*.A A k g g i & O @ & = i # +   o o o +     . + + + p H 8.A.S.B.v.7.W G N g k k g = & d g g l k k k x x x k k B Z S L 9.c.x.6.P P P P F c $.@X0XwXwXwX",
"wXwX>X-.-.>.P J g % % + @ & u u : + +     O o o o     o & & = - N 7.S.N.7.L H N k : g k g u & & u k g k k x x F P N N N F z v v K 7.x.7.>.z.l.-.$.%.$.:XwXwXwXwX",
">X-.;.q.L 4.N k : + o . % k % O o +       o         o + + + + % M 8.S.c.W F g i : i g k * % % & u u i d g g k x B B B F I I J G B G G W Q 6.6.-.OX<XwXwXwXwXwXwX",
"2.e.8.b.Q k i % % % @ - @ % O o                 O + +     o + = B 7.c.6.G g a i i g g d * = = = = % % & p p p k a & u k F F F Q 7.~.V.m.0.H K :.-.<.&XwXwXwXwXwX",
"<.e.l.v.W v ; % @ % % @ @ O O   .               O +       o + ; N 6.c.6.F m i u f g g d # * i = = % % = p u g g i ; ; g G F F Q 8.~.D.n.0.H K D -.<.&XwXwXwXwXwX",
"v.`.:.H N i @ ; v N N m % o o     .             O o     o O o f F L I F N k k p k g 8 - # 6 = g u p p p p a p k a u & ; u ; p N Q n.B.~._.~.).N.l.! W 1.2XwXwXwX",
"Z 6.| { i a u x B F H m : o                               - - B I Q >.L z l k g g d = $ X 4 7 d g g p p p k p p p k p g p p p k N 7.c.B./.`.`.`.L.H.v.<.%X1XwX0X",
"w | wXwX6 a g J B a i : o       .           o + o       o ; 8 K 8.8.8.4.P k k d f d 6 # X X * = g u a = i i i u p p g i g g p p x N H 6.7.c.z.N.B.B.l.:.*.z -.qX",
"w w wXwX6 i k J N i i : o             o o o   + o       o ; d L 7.8.7.6.Z k g g f 8 * 4 X X # i g u i u a p i u i p p p p k p p k Z K 6.7.w.z.N.B.B.z.:.*.l -.1X",
"wXwXwX$.9 f N H M @ @ o       .       o @ % O % @     + i S D 8.m.M.K Z l g d 7 9 9 0 6 $ X $ 4 5 q q 5 * & @ % : 8 9 6 ; u = * 9 9 h M M N S K 6.6.P F j k &.wX",
"wX$XwX| N L J H f + O       o     o + @ : = & : : o o @ p >.>.H.6.I j h 9 6 7 h h c 8 6 $ # 5 2 ) ` ` ` _ < 3 $ @ q _ [ { 5 # $ [ %.#.{ 5 5 4 9 f f i v p u $.wX",
"wXh *.K P 7.P x @ O o o o o o % % % % & = u % @ o o % : g L L v.P M = 7 7 0 8 V V A 8 6 & 5 ( ` ' '  . . . .` ` ( ] X.O.O.' ) ) +.@X-X#X#X@.@.[ 1 4 # : w % OXwX",
"wXh *.K H 7.P l @ o O   o O o % @ @ % & u u - O O o @ : g >.I v.H M = 7 6 7 8 V V A 8 6 u 5 ` ' '  . .X. . .` ` ( ] X.O.O.' ) < +.:X-X:X#X@.@.[ 1 $ - & w & OXwX",
"wX*.z >.H N g u : - - % % % % - i f i a & : + . . O ; m N K K K f * 4 7 9 C D C 8 w 7 6  .'  . . . .O.XXo. . . .X.O.O.XXXX . . . .o.XX+X,X<X<X;X:X#X[ q :X0X0XwX",
"wX%.A z g i = u m M B M i : = = v Q J J ; @ . + # f g 7.K C Z j - * 7 V A D S j * 1 1 `  . ... ... .O.XXo. .o.o. .O.O.O.O. . . . ....... .o.o.+X<XwX,X;X0XwXwXwX",
"wXwXj g & d x >.H N N B p & M L 8.v.x.l.g o + f x H J L j 7 8 4 4 0 A =.:.=.0 q ` `  . . . . . . . .XXoXo. .+X+XoXXXo... . . . . . . . . . .....o.XX;X0XwXwXwXwX",
"wX0Xz g % i x 6.P N N B p & M L 7.m.z.l.l +   d k P K L b 7 7 4 4 7 D =.:.=.0 q ` ` '  ... . . . . .XXXXO. .oX+XoXXXO... . . . . . . . . .o...o.o.XX-X0X0XwXwXwX",
"wX$.i & % B F 7.M - = @ + & K m.D.N.N v ; @ - K I H N M 7 4 4 0 V D K D 7 5 _ _  . . . . . . . .o.o.XXXX+X+X;X0XwX<X-X+XXXO.o... . . . . . . . .o.O.oX-X0XwXwXwX",
"u = = k k x Z p = O o O ; m 6.N.L 4.O o o p z K S M 8 * 6 7 9 j A =.V q 2 _  . . . . . . ... ... .+XoX+X,X<X0XwXwXwXwXwX0X,X-X+XXXO.o. . . . . . . . .o.oX-X0XwX",
"@.{ d J &.| %.tX$X) 1 j 8.7.6.K f #   v i k G L f * * = 8 C A A 9 w 1 ) (  . . . . . . . .o.O.oX+X;X;X0XwXwXwXwXwXwXwXwXwXwXwXwX0X;X-XoXXXXXO.o..... . .O.@X<XwX",
"@.{ d J -.| $.1XOX< ) j 7.8.Q K 8 - o v f x G I f 6 * 7 7 A C D 8 9 q < ( '  . . . . . . . .O.oX+X;X-X0XwX0XwXwXwXwXwXwXwXwXwXwX0X;X@XoXXXXXXXo. ... . .O.@X<XwX",
"wXwXwX>X0X0XwXwXwXOX>Xc z.7.N * o + ; m k u = 7 7 * d d C j j 0 3 3 ( / /  . ... ... .o.XXoX+X,X0X0X0XwXwXwXwXwXwXwXwXwXwXwXwXwXwXwXwXwX<X;X;X+X+XoXXXXXXX-X0XwX",
"wXiXiXiXwXwXwXwXwXrXiXp x.F k : # { w z p * % 6 7 h C j 6 5 4 3 ( ( / /  . . . .' o.O.oX+X,X<X0XwXwXwXwXwXwXwXwXwXwXwXwXwXwXwXwXwXwXwXwXwXwXwXwXwX<X;X-X-X,X0XwX",
"wXiXiXiXwXwXwXwXwXrXiXpX&X| 7 % @.1XwXh u * 7 l M j A w q ` < ( / / / /  . . .o.O.oX-X,X0X0XwXwXwXwXwXwXwXwXwXwXwXwXwXwXwXwXwXwXwXwXwXwXwXwXwXwXwXwXwXwXwX0XwXwX",
"wXiXiXiXwXwXwXwXwXrXiXpX&X} 7 & @.1XwXh u & = l C j D 9 q ` < ( / / / /  . . .o.O.oX-X<X0XwXwXwXwXwXwXwXwXwXwXwXwXwXwXwXwXwXwXwXwXwXwXwXwXwXwXwXwXwXwXwXwXwXwXwX",
"wXiXiXiXwXwXwXwXwXtXiXiXwXwXwX<X0X0X#X% i & 6 9 *.* q ` ` ' / / / / / /  .o.O.+X-X,X<X0XwXwXwXwXwXwXwXwXwXwXwXwXwXwXwXwXwXwXwXwXwXwXwXwXwXwXwXwXwXwXwXwXwXwXwXwX",
"wXiXiXiXwXwXwXwXwXwXwXwXwXwXwXwXwXwXwX:X$.q % 3 ) ) _  . . . . ./ / / ' O.oX;X,X0X0XwXwXwXwXwXwXwXwXwXwXwXwXwXwXwXwXwXwXwXwXwXwXwXwXwXwXwXwXwXwXwXwXwXwXwXwXwXwX",
"wXwXwXwXwXwXwXwXwXwXwXwXwXwXwXwXwXwXwX0XwXwX0X+XO.o.'  . . . . .o.O.O.+X,X,X0XwXwXwXwXwXwXwXwXwXwXwXwXwXwXwXwXwXwXwXwXwXwXwXwXwXwXwXwXwXwXwXwXwXwXwXwXwXwXwXwXwX",
"wXwXwXwXwXwXwXwXwXwXwXwXwXwXwXwXwXwXwXwXwX0X0X$XXXo.'  . . . . .o.O.O.+X,X,X0XwXwXwXwXwXwXwXwXwXwXwXwXwXwXwXwXwXwXwXwXwXwXwXwXwXwXwXwXwXwXwXwXwXwXwXwXwXwXwXwXwX",
"wXwXwXwXwXwXwXwXwXwXwXwXwXwXwXwXwXwXwXwXwXwXwXwXwXwX0X@XXX . .' o.+X-X,X0XwXwXwXwXwXwXwXwXwXwXwXwXwXwXwXwXwXwXwXwXwXwXwXwXwXwXwXwXwXwXwXwXwXwXwXwXwXwXwXwXwXwXwX"
};
