/* XPM */
static char *wall_tree_1_XW2Zs[] = {
/* columns rows colors chars-per-pixel */
"40 40 207 2 ",
"   c #1C0C03",
".  c #160A04",
"X  c #181D03",
"o  c #230E03",
"O  c #280F02",
"+  c #261003",
"@  c #2B1204",
"#  c #291C05",
"$  c #341505",
"%  c #3A1606",
"&  c #351D05",
"*  c #3B1A06",
"=  c #331A09",
"-  c #3B1C0A",
";  c #301F13",
":  c #1A3902",
">  c #292904",
",  c #332305",
"<  c #3A2207",
"1  c #3B2308",
"2  c #3C2909",
"3  c #35270A",
"4  c #283304",
"5  c #3C300A",
"6  c #38380A",
"7  c #3E2211",
"8  c #393C15",
"9  c #371320",
"0  c #393226",
"q  c #431C07",
"w  c #431C09",
"e  c #4A1E0A",
"r  c #460F10",
"t  c #442309",
"y  c #4C220B",
"u  c #432D0B",
"i  c #4B2B0E",
"p  c #412207",
"a  c #53250D",
"s  c #58260E",
"d  c #54290E",
"f  c #5A2A0F",
"g  c #43380E",
"h  c #4B2512",
"j  c #482918",
"k  c #532711",
"l  c #532A13",
"z  c #5C2C13",
"x  c #4C311A",
"c  c #473512",
"v  c #5C3115",
"b  c #5B3419",
"n  c #5B3B19",
"m  c #563716",
"M  c #612E14",
"N  c #633217",
"B  c #653419",
"V  c #6A3619",
"C  c #653A1C",
"Z  c #6C3B1D",
"A  c #6A3416",
"S  c #703C1E",
"D  c #441B22",
"F  c #40122A",
"G  c #591931",
"H  c #741A26",
"J  c #681A36",
"K  c #731C34",
"L  c #621527",
"P  c #462729",
"I  c #413B30",
"U  c #56212B",
"Y  c #723F21",
"T  c #6D2837",
"R  c #014C00",
"E  c #0A4801",
"W  c #154701",
"Q  c #095301",
"!  c #045A00",
"~  c #0A5900",
"^  c #185902",
"/  c #224501",
"(  c #285C04",
")  c #374C08",
"_  c #006500",
"`  c #006B00",
"'  c #007400",
"]  c #017C00",
"[  c #127102",
"{  c #257305",
"}  c #594319",
"|  c #485410",
" . c #74421F",
".. c #68571E",
"X. c #66451B",
"o. c #566818",
"O. c #4D7317",
"+. c #63661D",
"@. c #5F423F",
"#. c #6B472A",
"$. c #744323",
"%. c #7A4524",
"&. c #7C4A26",
"*. c #7D4C29",
"=. c #764A25",
"-. c #7E522B",
";. c #775326",
":. c #72403F",
">. c #73582B",
",. c #7B682E",
"<. c #74742D",
"1. c #641440",
"2. c #6F2150",
"3. c #7C2655",
"4. c #712545",
"5. c #5A4B43",
"6. c #766950",
"7. c #8E273A",
"8. c #804B27",
"9. c #814D29",
"0. c #84542C",
"q. c #8A552D",
"w. c #83582C",
"e. c #88582F",
"r. c #855631",
"t. c #8B5730",
"y. c #865932",
"u. c #8C5C33",
"i. c #915F35",
"p. c #856331",
"a. c #8F6034",
"s. c #816E32",
"d. c #936236",
"f. c #956439",
"g. c #99663B",
"h. c #946A3B",
"j. c #9B6B3E",
"k. c #9F703F",
"l. c #85264A",
"z. c #812151",
"x. c #8B2252",
"c. c #913152",
"v. c #953D54",
"b. c #923755",
"n. c #A63356",
"m. c #912E63",
"M. c #A13961",
"N. c #96404E",
"B. c #984959",
"V. c #9D6D41",
"C. c #9D7243",
"Z. c #8E735A",
"A. c #A16E41",
"S. c #A47344",
"D. c #A97546",
"F. c #A47648",
"G. c #A67A4A",
"H. c #AB7C4B",
"J. c #A77847",
"K. c #934D68",
"L. c #99586C",
"P. c #8F5F70",
"I. c #A45073",
"U. c #008300",
"Y. c #008C00",
"T. c #178703",
"R. c #009500",
"E. c #009C00",
"W. c #0A9E01",
"Q. c #0C9601",
"!. c #129105",
"~. c #28940A",
"^. c #3E8E12",
"/. c #01A300",
"(. c #01AC00",
"). c #0AAA01",
"_. c #1CAF09",
"`. c #17AC06",
"'. c #00B400",
"]. c #01BC00",
"[. c #0BBB03",
"{. c #16B908",
"}. c #27A20C",
"|. c #32B114",
" X c #46921A",
".X c #578721",
"XX c #02C301",
"oX c #00CA00",
"OX c #0AC703",
"+X c #00D700",
"@X c #0CD901",
"#X c #00F200",
"$X c #00FE00",
"%X c #AE814E",
"&X c #B1824F",
"*X c #AF8351",
"=X c #B38451",
"-X c #B68954",
";X c #B88C56",
":X c #BB8F59",
">X c #B88656",
",X c #BD925C",
"<X c #AC8466",
"1X c #C3985E",
"2X c #C89F64",
"3X c #B69886",
"4X c #DDCCAE",
/* pixels */
"oXoXoXoXoXoXoXoXoXoXoXoXoXoXoXoXoXoXoXoXoXoX@.I oXoXoXoXOXoXoXoXoXoXoXoXoXoXoXoX",
"oXoXoXoXoXoXoXoXoXoXoXoXoXoXoXoXoXoXoXoXoXoXI.m.oXoXoXoXoXoXOXoXoXoXoXoXoXoXoXoX",
"oXoXoXoXoXoXoXoXoXoXoXoXoXoXoXoXoXoXoXoXoXm.M.3.3.F XXoXXX+.&.%.Z } }.oXoXoXoXoX",
"oXoXoXoXoXoXoXoXoXoXoXoXoX#X$XoX$X$XoXoXoXm.m.2.G ; XXoX..=.9.y.w.>.Z N OXOXoXoX",
"oXoXoXoXoXoXoXoXoXoXoXoXoX#X$XoX$X$XoXoXoXU n.K D oX+.X.,.h.J.&X&Xf.u.h.$.oXoXoX",
"oXoXoXoXoXoXoXoXoXoX$XoXoXoXoX$XoXoXoXoXoXoXD j 0 oXc p.k.&XH.H.j.j.-X;X-.$./.oX",
"oXoXoXoXoXoXoXoXoXoX$XoXoXoXoX$XoXoXoXOXoX~.&.0 4X6.S.1X:Xk.u.e.J.:X,X:XF.-./.oX",
"oXoXoXoXoXoXoXoXoXoXoXR.R.].oXoXoXoXoX{.}.=.0.x 4X6.%X-XV.f.y.J.-X,X=XG.S.0.}.oX",
"oXoXoXoXoXoXoXoXoXoXoXoXoXoXoXoXoX`.+.-.;.u.g.D.H.=XC.S.&X;X&X,XC.F.V.d.d.$.6 oX",
"oXoXoXoXoXoXoXoXoXoXoXoXoXoXoXoX|.+.0.d.u.j.J.=XH.S.S.=X;X2X1XG.#.f.g.i.d.N 8 oX",
"oXoXoXoXoXoXoXoXoXoXoXoXoXoX^.+.w.d.e.u.S.J.%Xk.*X%X;X:X=XF.#.=.t.r.r.$.B s |.oX",
"oXoXoXoXoXoXoXoXoXoXoXoXoX}.>.w.C.d.f.S.&X&Xk.S.=X-X2X&XS.#.=.0.9.8.C z e Z ) XX",
"oXoXoXoXoXoXoXoXoXoXoX_.<.0.f.g.d.k.&X;X1Xk.g.J.S.D.D.V.t.8.%.%.C M 7 C 8.N q T.",
"R.R.oXoXoXoXoXoXoXoXOX,.p.j.V.f.H.%XH.-XD.i.l.h.A.g.g.r.q.=.V N z l *.0.Z M A 5 ",
"R.R.oXoXoXoXoXoX{..Xh.V.S.H.,X:X=Xg.g.d.T x.v.c.4.:.*.$.Y z N b -.N N e M z y { ",
"'.'.oXR.E.'.R.]..Xh.G.%X&X*X:X-XC.i.-XS.c.c.B.L.2.J $.Y V V m =.Y a a s M a * !.",
"oXoXoXR.R.R.!.f.F.V.V.V.A.=XD.f.H.>.S.P N.7.b.3.K.z.G S b y.=.z s s q q * 1 > ].",
"oXoXoXY.R.E. XG.S.*.%.Y f.=XH.S.=X; u.P 7.N.l.3.K.l.J &.-.f.M M y e % * < , 4 XX",
"oXoXXX{.,.V.j.u.b $ o % C r.S.V.t.j t.x D L L.l.7.P.r u.%.N z e * * t , , 3 4 oX",
"oXoX[. XV.i.i.b - o o % q &.S.g.r.x b b P D K K H H y  .N a y * * t , 3 3 > [ oX",
"oX_.,.C.Y v $     @ o o o - l =   = Y N 3XZ.5.x i v v v t * & & < , c g 6 : Y.oX",
"oXo.a.=.z t   @   o       o     . Y z h 3X5.b $.C f i y p , & * < c g g 4 Q Y.oX",
"oXO.N ~.e w @ $ o   o     o     j N S r.<X#.N i u < p t q < p t w & W R _ ` /.oX",
"oXoXXX].z f $ + @ @ o   @ @ = l j.=.%.u.&.%.z w & & q t y d f v k t ] _ ` ' '.oX",
"oXoX| v t q @ * w + o o     @ w 8.f.0.S z a y $ y d a a s y z Z r.%.N V c W.oXoX",
"oX|  .V $ o % * @   @     o * = %.u.Z z % a t $ y a a M M M k k %.%.8.| { ).oXoX",
";.e.y $ $ @ $ o   .     o   o % $.$.y q y t & * $ * y a * y N S g.r.C } o.oXoXoX",
"D.b w * z h o           +   + t Z N a y y & , y e q q a w q * z r.A.A.i.%.O.oXoX",
") oXw V q $         o +     1 C &.$.a y < # # q w * e q e e a w z $.9.u.d.X.f OX",
"oX( e V $ o       + $ $   + N *.r.v y < u , X # 4 > % $ 1 , q < u d z C $.z a oX",
"u b $.s o   o = @ % w o o *  .0.l < 2 c m > > ! _ _ _ E ~ ] ! : /.W.[ ^ # * $ oX",
"| Y N - % $ $ $ y e $ . @ k Z B , < i m 5 < ! ` _ ] _ ` ] U._ _ ' E.].'.R.> XXoX",
"XXy q Y z l % Z q.8.+ t N C 1 , 1 } } 4 ! _ ` _ _ Y._ E.U.` _ _ ` _ ` ` Y.].oXoX",
"( % s %.* @ % t.t.k @ C C l , , n m > W _ _ _ ` ' U.R.XX].R.] ` _ _ ` ` ] /.oXoX",
"/ V ) @X: i =.C = h a Z * , m m 5 W ! _ _ ` ` Y.(.XXoXoXoXoXoXoX(.Y.] ' ` _ E.oX",
"oX`.XXoX!.g &.- o s q * , p i 3 : R _ ` ` ` Y.'.].oXoXoXoXoXoXoXoXoX(.E.Y.U./.oX",
"$X$XoXoX+X#X) & [.u $ i i 2 W E R R ` ' Y.'.oXoXoXoXoXoXoXoXoXoXoXoXoXoXoXoXoXoX",
"$X$XoXoX+X$XoX].oX$ * 3 & ! _ R R R ' Y.'.oXoXoXoXoXoXoXoXoXoXoXoXoXoXoXoXoXoXoX",
"oXoXoXoXoXoXoXoXoXoXoXQ.' ` _ ` ' R.(.oXoXoXoXoXoXoXoXoXoXoXoXoXoXoXoXoXoXoXoXoX",
"oXoXoXoXoXoXoXoXoXoXoXoXoXE._ ! R.'.oXoXoXoXoXoXoXoXoXoXoXoXoXoXoXoXoXoXoXoXoXoX"
};
