/* XPM */
static char *wall_rocks_1_Z5Zkf[] = {
/* columns rows colors chars-per-pixel */
"80 80 22 1 ",
"  c #331F29",
". c #563A3F",
"X c #0D6310",
"o c #0D6B10",
"O c #0D7310",
"+ c #0D7B10",
"@ c #0D7F10",
"# c #79584F",
"$ c #94785C",
"% c #009500",
"& c #0D8210",
"* c #0D8A10",
"= c #00A300",
"- c #00B100",
"; c #00B700",
": c #00BD00",
"> c #0DA210",
", c #00CA00",
"< c #00FE00",
"1 c #2ECA35",
"2 c #328E41",
"3 c #BC9A78",
/* pixels */
",,,,,,,,,,,,,,,,,,,,,,,,,,###################,,,,,,,,,,,,,,,,,,,,,,,,,,,,,,,,,,,",
",,,,,,,,,,,,,,,,,,,,,,,,,,###################,,,,,,,,,,,,,,,,,,,,,,,,,,,,,,,,,,,",
",,,,,,,,,,,,,,,,,,,,,,,,,,###################,,,,,,,,,,,,,,,,,,,,,,,,,,,,,,,,,,,",
",,,,,,,,,,,,,,,,,,,,,,,,,,###################,,,,,,,,,,,,,,,,,,,,,,,,,,,,,,,,,,,",
",,,,,,,,,,,,,,,,##########$$$$$$$$$$$$$$$$$$$###,,,,,,,,,,,,,,,,,,,,,,,,,,,,,,,,",
",,,,,,,,,,,,,,,,##########$$$$$$$$$$$$$$$$$$$###,,,,,,,,,,,,,,,,,,,,,,,,,,,,,,,,",
",,,,,,,,,,,,,,,,##########$$$$$$$$$$$$$$$$$$$###,,,,,,,,,,,,,,,,,---:,,,,,,,,,,,",
",,,,,,,,,,,,,,,,##########$$$$$$$$$$$$$$$$$$$###,,,,,,,,,,,,,,,,,%%%-,,,,,,,,,,,",
",,,,,,,,,,,,,###$$$$$$$$$$$$$$$$$$$$$$$$$$$$$$$$###,,,,,,,,,,,,,,%%%-,,,,,,,,,,,",
",,,,,,,,,,,,,###$$$$$$$$$$$$$$$$$$$$$$$$$$$$$$$$###,,,,,,,,,,,,,,%%%-,,,,,,,,,,,",
",,,,,,,,,,,,,###$$$$$$$$$$$$$$$$$$$$$$$$$$$$$$$$###,,,,,,,,,,,:%%%%%-,=%%,,,,=,,",
",,,,,,,,,,###$$$$$$$$$$$$$$$$$$$$$$$$$$$$$$$$$$$$$$###,,,%%%%,:%%,,,,,=%%%%%%=,,",
",,,,,,,,,,###$$$$$$$$$$$$$$$$$$$$$$$$$$$$$$$$$$$$$$###,,,%%%%,:%%,,,,,=%%%%%%=,,",
",,,,,,,,,,###$$$$$$$$$$$$$$$$$$$$$$$$$$$$$$$$$$$$$$###,,,%%%%,:%%,,,,,=%%%%%%=,,",
",,,,,,,,,,###$$$$$$$$$$$$$$$$$$$$$$$$$$$$$$$$$$$$$$###,,,%%%%,:%%,,,,,=%%%%%%=,,",
",,,,,,####$$$$$$$$$$$$$$$$$$$$$$$$$$$$$$$$$$$$$$333###,,,%%%%,,,,,,,,,=%%%%%%,,,",
",,,,,,####$$$$$$$$$$$$$$$$$$$$$$$$$$$$$$$$$$$$$$333###,,,----,,,,,,,,,;--%%%%,,,",
",,,,,,####$$$$$$$$$$$$$$$$$$$$$$$$$$$$$$$$$$$$$$333###,,,,,,,,,,,,,,,,,,,%%%%,,,",
",,,,,,####$$$$$$$$$$$$$$$$$$$$$$$$$$$$$$$$$$$$$$333###,,,,,,,,,,,,,,,,,,,%%%%,,,",
",,,,,,####$$$$$$$$$$$$$$$$$$$$$$$$$$$$$$$$333333######....,,,,,,,,,,,,,,,----,,,",
",,,,,,####$$$$$$$$$$$$$$$$$$$$$$$$$$$$$$$$333333######....,,,,,,,,,,,,,,,,,,,,,,",
",,,,,,####$$$$$$$$$$$$$$$$$$$$$$$$$$$$$$$$333333######....,,,,,,,,,,,,,,,,,,,,,,",
",,,,,,####$$$$$$$$$$$$$$$$$$$$$$$$$$$$$$$$333333######....,,,,,,,,,,,,,,,,,,,,,,",
",,,###3333$$$$$$$$$$$$$$$$$$$$$$3333333333#########...    ,,,,,,,,,,,,,,,,,,,,,,",
",,,###3333$$$$$$$$$$$$$$$$$$$$$$3333333333#########...    ,,,,,,,,,,,,,,,,,,,,,,",
",,,###3333$$$$$$$$$$$$$$$$$$$$$$3333333333#########...    ,,,,,,,,,,,,,,,,,,,,,,",
",,,###3333$$$$$$$$$$$$$$$$$$$$$$3333333333#########...    ,,,,,,,,,,,,,,,,,,,,,,",
",%%...####3333333333333333333333#############......################,,,,,,,,,,,,,",
",%%...####3333333333333333333333#############......################,,,,,,,,,,,,,",
",%%...####3333333333333333333333#############......################,,,,,,,,,,,,,",
",%%   ....#########################.............###$$$$$$$$$$$$$$$$###,,,,,,,,,,",
",--   ....#########################.............###$$$$$$$$$$$$$$$$###,,,,,,,,,,",
",,,   ....#########################.............###$$$$$$$$$$$$$$$$###,,,,,,,,,,",
",,,   ....#########################.............###$$$$$$$$$$$$$$$$###,,,,,,,,,,",
",,,       ......................      .......###$$$$$$$$$$$$$$$$$$$$$$####,,,,,,",
",,,       ......................      .......###$$$$$$$$$$$$$$$$$$$$$$####,,,,,,",
",,,       ......................      .......###$$$$$$$$$$$$$$$$$$$$$$####,,,,,,",
",,,       ......................      .......###$$$$$$$$$$$$$$$$$$$$$$####,,,,,,",
",,,   ....###$$$$$$$$$$$$$###...   ...#######$$$$$$$$$$$$$$$$$$$$$$$$$####,,,,,,",
",,,   ....###$$$$$$$$$$$$$###...   ...#######$$$$$$$$$$$$$$$$$$$$$$$$$####,,,,,,",
",,,   ....###$$$$$$$$$$$$$###...   ...#######$$$$$$$$$$$$$$$$$$$$$$$$$####,,,,,,",
",,,   ....###$$$$$$$$$$$$$###...   ...#######$$$$$$$$$$$$$$$$$$$$$$$$$####,,,,,,",
",,,...####$$$$$$$$$$$$$$$$$$$###...###$$$$$$$$$$$$$$$$$$$$$$$$$$$$$333####,,,,,,",
",,,...####$$$$$$$$$$$$$$$$$$$###...###$$$$$$$$$$$$$$$$$$$$$$$$$$$$$333####,,,,,,",
",,,...####$$$$$$$$$$$$$$$$$$$###...###$$$$$$$$$$$$$$$$$$$$$$$$$$$$$333####,,,,,,",
",,,...####$$$$$$$$$$$$$$$$$$$###...###$$$$$$$$$$$$$$$$$$$$$$$$$$$$$333####,,,,,,",
"...###$$$$$$$$$$$$$$$$$$$$333###...3333333$$$$$$$$$$$$$$$$$$$333333###1111,,,,,,",
"...###$$$$$$$$$$$$$$$$$$$$333###...3333333$$$$$$$$$$$$$$$$$$$333333###1111,,,,,,",
"...###$$$$$$$$$$$$$$$$$$$$333###...3333333$$$$$$$$$$$$$$$$$$$333333###1111,,,,,,",
"...###$$$$$$$$$$$$$$$$$$$$333###...3333333$$$$$$$$$$$$$$$$$$$333333###1111,,,,,,",
"...#######3333333333333333###.........####3333333333333333333#########2222&&&,,,",
"...#######3333333333333333###.........####3333333333333333333#########2222&&&,,,",
"...#######3333333333333333###.........####3333333333333333333#########2222&&&,,,",
"   .......###################         ....###################.........2222&&&,,,",
"   .......###################         ....###################.........2222&&&,,,",
"   .......###################         ....###################.........2222&&&,,,",
"   .......###################         ....###################.........2222&&&,,,",
"             ...##########...111          ......######.......111      &&&&&&&&&&",
"             ...##########...111          ......######.......111      &&&&&&&&&&",
"             ...##########...111          ......######.......111      &&&&&&&&&&",
"             ...##########...111          ......######.......111      &&&&&&&&&&",
",,,   1111................   111      .......#############...222   &&&&&&&&&&&&&",
",,,   1111................   111      .......#############...222   &&&&&&&&&&&&&",
",,,   1111................   111      .......#############...222   &&&&&&&&&&&&&",
",,,   1111................   111      .......#############...222   &&&&&&&&&&&&&",
",,,   2222   ......222       222          111......111....   222&&&&&&&&&&&&&&&&",
",,,   2222   ......222       222          111......111....   222&&&&&&&&&&&&&&&&",
",,,   2222   ......222       222          111......111....   222&&&&&&&&&&&&&&&&",
",,,   2222   ......222       222          111......111....   222&&&&&&&&&&&&&&&&",
",,,&&&2222   222   222&&OXX+&222&&&       222      222    &&&&&&&&&&&&&&&&&&&,,,",
",,,&&&2222   222   222&&@++@&222ooo       222      222    &&&&&&&&&&&&&&&&&&&,,,",
",,,&&&2222   222   222&&&&&&&222XXX       222      222    &&&&&&&&&&&&&&&&&&&,,,",
",<<<,,&&&*>>&222&&&&&&&&&&&&&&XXXXXX&&&&&&222&&&&&&222&&&&&&&&&&&&&&&&&&&&,,,,,,",
",<<<,,&&&*>>&222&&&&&&&&&&&&&&XXXXXX&&&&&&222&&&&&&222&&&&&&&&&&&&&&&&&&&&,,,,,,",
",<<<,,&&&*>>&222&&&&&&&&&&&&&&XXXXXX&&&&&&222&&&&&&222&&&&&&&&&&&&&&&&&&&&,,,,,,",
",<<<,,&&&*>>&222&&&&&&&&&&&&&&XXXXXX&&&&&&222&&&&&&222&&&&&&&&&&&&&&&&&&&&,,,,,,",
",<<<,,,,,,,,,,,,,,,&&&&&&&&&&&&&XXXX&&&&&&&&&&&&&&&&&&&&&&&&&&&&&&&,,,,,,,,,,,,,",
",,,,,,,,,,,,,,,,,,,&&&&&&&&&&&&&&&&&&&&&&&&&&&&&&&&&&&&&&&&&&&&&&&&,,,,,,,,,,,,,",
",,,,,,,,,,,,,,,,,,,&&&&&&&&&&&&&&&&&&&&&&&&&&&&&&&&&&&&&&&&&&&&&&&&,,,,,,,,,,,,,",
",,,,,,,,,,,,,,,,,,,&&&&&&&&&&&&&&&&&&&&&&&&&&&&&&&&&&&&&&&&&&&&&&&&,,,,,,,,,,,,,"
};
