/* XPM */
static char *wall_tree_3_gbnTN[] = {
/* columns rows colors chars-per-pixel */
"40 40 215 2 ",
"   c #310D00",
".  c #3C1202",
"X  c #391D09",
"o  c #471A07",
"O  c #521F09",
"+  c #4D210A",
"@  c #57250D",
"#  c #5B290E",
"$  c #5D260E",
"%  c #493609",
"&  c #4D3616",
"*  c #662E11",
"=  c #682C10",
"-  c #653212",
";  c #6B3314",
":  c #7B3816",
">  c #753B1A",
",  c #7D3C19",
"<  c #743515",
"1  c #2F5C14",
"2  c #2E7112",
"3  c #4E400A",
"4  c #584A0D",
"5  c #52550F",
"6  c #4F4413",
"7  c #594E16",
"8  c #564B16",
"9  c #5D5316",
"0  c #5B561B",
"q  c #455018",
"w  c #7B411C",
"e  c #655A1D",
"r  c #6A5E1D",
"t  c #655917",
"y  c #46781B",
"u  c #6C621D",
"i  c #71651D",
"p  c #74691D",
"a  c #7A6D1D",
"s  c #716313",
"d  c #7E711D",
"f  c #474921",
"g  c #555E20",
"h  c #655B22",
"j  c #695E23",
"k  c #7E4725",
"l  c #586523",
"z  c #587423",
"x  c #6D6324",
"c  c #6E6826",
"v  c #6D6428",
"b  c #716625",
"n  c #756A24",
"m  c #796E23",
"M  c #746B2B",
"N  c #796E2A",
"B  c #71652B",
"V  c #657827",
"C  c #7B7125",
"Z  c #7C722C",
"A  c #74732F",
"S  c #6E6C30",
"D  c #726D30",
"F  c #757332",
"G  c #7D7532",
"H  c #7E7A33",
"J  c #797938",
"K  c #833C18",
"L  c #89451E",
"P  c #93441C",
"I  c #80741F",
"U  c #8F4A24",
"Y  c #854621",
"T  c #9D4C22",
"R  c #924D25",
"E  c #9A5228",
"W  c #925731",
"Q  c #A14D23",
"!  c #A95628",
"~  c #BC5E2C",
"^  c #B3592A",
"/  c #A85C31",
"(  c #847924",
")  c #80762B",
"_  c #847A2C",
"`  c #897E2D",
"'  c #877B25",
"]  c #847A33",
"[  c #897E32",
"{  c #847D3A",
"}  c #817730",
"|  c #BA6936",
" . c #C05E2C",
".. c #1A8708",
"X. c #009500",
"o. c #1D910E",
"O. c #0D8B04",
"+. c #259409",
"@. c #2F8C11",
"#. c #338813",
"$. c #2F8409",
"%. c #00A300",
"&. c #16AD06",
"*. c #00B100",
"=. c #00BD00",
"-. c #0CBD04",
";. c #0FB303",
":. c #18B209",
">. c #20BB0C",
",. c #38AF16",
"<. c #51851F",
"1. c #5A8329",
"2. c #519825",
"3. c #04C502",
"4. c #00CA00",
"5. c #09C204",
"6. c #00D600",
"7. c #00DD00",
"8. c #12C80A",
"9. c #00E400",
"0. c #00FE00",
"q. c #00F200",
"w. c #8C812D",
"e. c #878225",
"r. c #958A2D",
"t. c #9B8E2E",
"y. c #938525",
"u. c #8C8234",
"i. c #8C843C",
"p. c #8B8639",
"a. c #908634",
"s. c #958A34",
"d. c #91873B",
"f. c #948C3C",
"g. c #9A8F3C",
"h. c #998E32",
"j. c #9B923C",
"k. c #9B9236",
"l. c #A39B3C",
"z. c #A1973A",
"x. c #B2A839",
"c. c #ADA238",
"v. c #8D8642",
"b. c #8F8944",
"n. c #878541",
"m. c #948C44",
"M. c #958E49",
"N. c #998F42",
"B. c #979045",
"V. c #9C9344",
"C. c #96904B",
"Z. c #9B944C",
"A. c #9C9750",
"S. c #8D9342",
"D. c #A49B45",
"F. c #A0974C",
"G. c #A29B4C",
"H. c #A49B48",
"J. c #A49C52",
"K. c #ACA243",
"L. c #AAA34C",
"P. c #A7A04D",
"I. c #B4AB4D",
"U. c #B3AB47",
"Y. c #BDB44F",
"T. c #AAA354",
"R. c #AFA855",
"E. c #ABA55A",
"W. c #AEA85A",
"Q. c #B3AB55",
"!. c #B2AB5D",
"~. c #B0A753",
"^. c #BAB253",
"/. c #BBB45D",
"(. c #BAB359",
"). c #B6AF61",
"_. c #B7B063",
"`. c #BAB363",
"'. c #BEB865",
"]. c #BCB668",
"[. c #BEB869",
"{. c #C7BF4F",
"}. c #C3BC5B",
"|. c #C6BF50",
" X c #C3BB64",
".X c #C3BC6B",
"XX c #CEC540",
"oX c #CDC55C",
"OX c #DAD35A",
"+X c #C7C16C",
"@X c #CCC56C",
"#X c #CAC367",
"$X c #D4CD6D",
"%X c #D7CE63",
"&X c #CBC572",
"*X c #CFC874",
"=X c #D3CC73",
"-X c #D5CE79",
";X c #DBD475",
":X c #DCD678",
">X c #DAD266",
",X c #E1DA68",
"<X c #E3DC77",
"1X c #EBE57C",
"2X c #E5E07B",
"3X c #F1EA79",
"4X c #F2EC72",
"5X c #DBD481",
"6X c #E1D982",
"7X c #EFE880",
"8X c #F3EE8B",
"9X c #F3ED84",
"0X c #FAF58C",
"qX c #F9F587",
"wX c #FFFD94",
/* pixels */
"4.4.4.4.4.4.4.4.4.4.4.4.4.4.4.4.4.4.4.4.4.2.4.4.4.4.4.4.4.4.4.4.4.4.4.4.4.4.4.4.",
"4.4.4.4.4.4.4.4.4.4.4.4.4.4.4.5.wX9X0X1X,X1X4XJ b.n.-.4.4.4.4.4.4.4.4.4.4.4.4.4.",
"4.4.4.4.4.4.4.4.4.4.4.4.4.F F :X7X X X!.W.`.+X3X2X,XF S 4.4.4.4.4.4.4.4.4.4.4.4.",
"4.4.4.4.4.4.4.4.4.4.4.l 8Xp.G =X:X X@X!.+X'.$X2X<XA.,XOXF y 4.4.X.X.4.4.4.4.4.4.",
"4.4.4.4.4.4.4.4.3.S 0XqX2XY.G.@X:Xm.(.T.*XoX;X2Xd.}.{.%XQ.K.J 4.X.X.4.4.4.4.4.4.",
"4.4.4.4.4.4.4.4.S.l.Y.E.^.*X XG./.f.i.G Q.&Xb.P.I.l.V.N.`.2XH m.#.4.4.X.X.X.%.4.",
"4.4.4.4.4.4.4.g /.1XY.&XI.Z..Xi./.Q.u.k.V.k.P.t.}.oXx.(.|.8XH.Q.T.1 4.X.X.X.%.4.",
"4.4.4.4.4.4.[.W.p.p.G.b.XX#XK.!.(.{ A./.!.U.,X,X;XZ. XI.7XZ.R.`.(.6X_.g X.X.4.4.",
"4.4.4.4.@.m.-X/.[._.5X+X~.f.<X$X#Xb.(.R.T.Q.M.m.J.$XY.J.G.H.T.;XE.G.L.H X.X.4.4.",
"4.4.4.4.b.V.T.P.H.A.&XT.!.J.;Xf.B.j.;X/.:Xj.>Xh.m. XC.F.V..X*XV.E.H.-XD.1.*.4.4.",
"4.4.4.2. XD.T.W.J.C.[.M.m.].W.&X[.W.E.C.0Xi.Q.V.] J.J.E.{ *X<Xm.Z.!.`.`..X1.4.4.",
"4.4.4.x u.f.J.!.C.&X&XE.!.:XM.D.C.[._.(.[._.A.m.v.b.V.`.^.=X.XR.J.H.wXE..X] 4.4.",
"4.4.:.d.H.H.d.f.M.C..X_. X{ F.T.b.&X&Xb.-XV.!.!./.] C.6XR.4X;X X).M.E.!.V.{ { 4.",
"X.O.u.^.d.d.G OXD.V.T.b.i.m.T.!.C.b.P.W.E.J.&X.X Xj N.J.`.b.Z.Z.!.Z.C.R.Q.+Xi.4.",
"X.+.s.s.T.G.d.i.] U.i.i.{ H.R.i.A._.!.A.T.C.0X0X!.F.Z.]..XE.J.Z.].Z.b.d./.{ F 3.",
"2 r a I ) ] b ] m.m.] E.J.M.M. X!.H A.Q.d.u.J.`.H.`.!.H.m.&X].J.C.Z.] V.i.g.Z 4.",
"e.p y.' ` a.N ] v.v.`.`.J.C.f.E.B.b.C.!.f.).g.}.).*X.XG.`.J.Z.M.J.] i.H.] j.z.4.",
",.( a t.i [ { N.) N } f.j { i.{ p.i.C.Z.Z. Xm.n.v.T.F.v.N.v.C.v.E.f.] i.i.k.d.4.",
"-.a m i i b N N } x N.Z.Z..XG.} .X XC.'.J.Z.} { F.b } m.J.J.T.J.] J.v.V.T.f.D.7 ",
"8 u d t.r.i e i m _ { !.i.i.v.d.m.] M D.[ N.] N I.d.R.T.Z.F.Q.H.` x.[ j.K._ c.-.",
"4.9 C XXs.) n N a.L.i.i.{ u.v.F.u.r a.B ] t.) ` g.{ I.Q.C.H. XV.u x.) s.n u.n :.",
"@.c u.u.Z } Z.[ ] i.Q.N._ k.[ s.e [ s.M a.C e r.w.M M r [ N U.s.n t C r.i ( j 5.",
"+.c V.Z ] { Z [ n Z d.[ _ t.b n u.] [ x g.7 ) 7 ) M } v r r N b C 7 x [ p i g 3.",
"4.4.y h u.] C t b a m ' s.) h.r.y.u x Z r j t x ) N f.A n t Z n f._ _ r.( w.F 4.",
"4.4.4.2 k.e ` b m r m m I r t.n b ) ] } t 7 t ( n ' C s 4 C M n u.` s.Z s.t 4.4.",
"4.4.4.4.:.f f e ( s 4 p t j x ) m b g.} _ 9 % a m a % s u a ) d.[ { f.<.I.0 4.4.",
"4.4.4.4.4.4.4.4.1.>.q 0 C ) m 8 7 r ) N 0 h h m 6 y.1.( r.[ V ^.o.4.4.4.4.4.4.4.",
"4.4.4.4.4.4.4.4.4.4.*.X.8.Z M h 8 m b & h X B B & 2 c.V 4.4.4.5.4.4.4.4.4.4.4.4.",
"4.4.4.4.4.4.4.4.4.4.4.4.4.4.4.4.  o O O o o $ o . 4.4.4.4.4.0.4.4.4.4.4.4.4.4.4.",
"4.4.4.4.4.4.4.4.4.4.4.4.4.4.4.4.+ O o , < = * = o 4.4.4.4.4.0.4.4.4.4.4.4.4.4.4.",
"4.4.4.4.4.4.4.4.4.4.4.4.4.4.4.4.o > = L : > @ - o 4.4.4.0.0.4.4.4.4.4.4.4.4.4.4.",
"4.4.4.4.4.4.4.4.4.4.4.4.4.4.3.&.w $ T T Y , K $ % 0.4.4.0.0.4.4.4.4.4.4.4.4.4.4.",
"4.4.4.4.4.4.4.4.4.4.4.4.X.=.4.- W E / P E , , L @ 0.4.4.4.4.4.4.4.4.4.4.4.4.4.4.",
"4.4.4.7.7.4.9.6.4.4.4.4.X.=.-.k < ^  .^ T < K K > 9.4.4.4.4.4.4.4.4.4.4.4.4.4.4.",
"4.4.4.0.q.4.0.6.4.4.4.4.X.=.; k :  . .! P T ^ K E - 4.4.4.4.4.4.4.4.4.4.4.4.4.4.",
"4.4.4.4.6.0.4.4.4.4.4.4.4.- U L L ~ | ^ K ^ ! < Q - $.4.4.4.4.4.4.4.4.4.4.4.4.4.",
"0.0.4.4.6.0.4.4.4.4.4.4.4.E W U < T ! ! < | ^ ! ; = R 5 4.4.4.4.4.4.4.4.4.4.4.4.",
"0.0.4.4.6.0.4.4.4.4.4.4.4.> > w ; T / U , | ^ U ; < L +.4.4.4.4.4.4.4.4.4.4.4.4.",
"4.4.4.4.4.4.4.4.4.4.4.4.4.4.4.4.4.+.8 - R / ! Y > 4.4.4.4.4.4.4.4.4.4.4.4.4.4.4.",
"4.4.4.4.4.4.4.4.4.4.4.4.4.4.4.4.4.4.4.4.4.;.7 4.4.4.4.4.4.4.4.4.4.4.4.4.4.4.4.4."
};
