/* XPM */
static char *wall_top_QaivT[] = {
/* columns rows colors chars-per-pixel */
"40 82 12 1 ",
"  c #200A15",
". c #46272D",
"X c #077E19",
"o c #125520",
"O c #6C483E",
"+ c #8A6B4D",
"@ c #0D9919",
"# c #1F832F",
"$ c #27B82F",
"% c #05D11B",
"& c #0FFF1B",
"* c #5CDA3A",
/* pixels */
"$$$$$$$$$$$$$$$$$$*$$$*$$$$$$$$$$$$$$$$*",
"$*$$$$$$$$*$$$$$$$#*$$$$$$$$*$$$$$$$$$$$",
"$**$*$$$$$*$$$$$$$$*$*$$$$*$**$$$$$$$$$$",
"O****$$$$$#$$$$$$$$#$*$$$$*****$$$$$$$$O",
"+O##$$$$$$$$$*#$$$$$$$$$$$$####$$$$$$$$.",
"O#$$$$$$$$$$$*$$$$$$$$$$*$$$$$$$$$$$$$#.",
"O$$$$$$*$$$$$#$$$$$$$$$$$$$$$$$$$$*$$$.O",
"#$$$$$*#$$$$$$$$$$$$$$$$$$$$$$$$$*#$$$.O",
"$$$$$**$$$$$$$$$$*$$$$$$$$$$$$$*$*$$$$#.",
"#$$$$$$$$**$$$$$*****$*$$$$$$$$$$$$$*$$.",
"O$$$$$$$$$$$$$$$*#**#$#$$$$$$$$$$$$$$$#.",
"O#$*$$$$$$$$$$$$####$$$$$$$$$$*$$$$$$$.O",
"+.$$$$$$$$$$$$$$$$$$$$$$$$$$$$$$$$$$$$.O",
".#$$$$$$$$$$$$$$$$$$$$$$$$$$$$$$$$$$$$.O",
".$$$$$$$$$$*$$*$$$$$$$$$$$$$*$$$$$$$$$#.",
".#$$$$$$$$$*$$*$$$$$$$$$$$*$**$$$$$$$$$.",
"O.$$$*$$$$$#$$#$$$$$$$$$$$#**#$$$$$*$$#.",
"O.$$*#$$$$$$$$$$$$$$$$$$$$$##$$$$*$**$ O",
"O $$*$$$$$$$$$$$$$$$$$$$$$$$$$$$$****#.O",
".#$$$$$$$$$$$$$$$$$*$$$$$$$$$$$$$$##$ OO",
" $$$$$$$$$$$$$$$$*$*$$$$$$$*$$$$$$$$$#.O",
"#$$$$$$$$$$$$$$$$*$#$$$$*$$$$$$$$$$$$* O",
"#$$$$$$$$$$$$$$$$#$$$$$$$$$$$*$*$*$$$##.",
" $$$$$$$*$$$$$$$$$$$$$$$$$$$$*****$*$$$.",
" #$$$$*$*$$$$$$$$$$$$$$$$$$$$$###$$$$$ O",
"O.$$$$#$#$$$$$$$$$$$$$$$$$$$$$$$$$$$$$.O",
"O.$$$$$$$$$$$$$$$$$$$$$$$$$$$$$$$$$$$$.O",
"O.$$$$$$$$$$$$$$$$*$$$*$$$$$$$$$$$$$$$ O",
" $$$$$$$$$*$$$$$$$#*$$$$$$$$$$$$$$$$$*#.",
".#*$***$$$#$$$$$$$$#$*$$$$$$$*$*$$$$$#$.",
"O *****$$$$$$$*$$$$$$$$$$$$$$*$#$$$$$$$.",
"O.#*#*#$$$$$$*#$$$$$$$$$$$$$$*$$$$$$$$#.",
".#$###$$$$$$$*$$$$$$$$$$*$$$$#$$$$*$$$#.",
".$$$$$$*$$$$$#$$$$$$$$$$$$$$$$$$*$**$$ O",
"##$$$$#$$$$$$$$$$$$$$$$$$$$$$$$$#*#**##.",
"o##$$$$###$$###$##$#####$$$$#$##$######.",
" o#########################$##########o.",
". o##oo  ###o  #### o ###############o .",
"OO. ..OO. ........o....... o. ..o  . .. ",
"OOOOO.OOO...O.OO.. ...O..OO ...O .OO.O. ",
"OOOOOOOOO...O.OOO....OO.OOOO...OO.OOOO. ",
"OOOOOOOOOO.OOOOOO....OO.OOOOO.OOO.OOOO  ",
".OO.OOOOOO.OOOOOOO...OOOOOOOO.OOO.OO.. .",
".OOOOOOOOO.OOOO.OO...OOOOOOOO.OOOOOOO. .",
".OOOOOOOOO.OOOO.OO...OOOOOOOOOOOOOOOO  .",
".O.OOOOOOOOOOOOOOOO.OOOOOOOOOOOOOOOOO  .",
".O.OOOOOOOOOOOOOOOO.OOOOOOOOOOOOOOOOO  .",
".O.OOOOOOO.OOOOOOOO.OOOOOOOOO.OOO.OOO  .",
".O.OOOOOOO.OOOOOOOOOOOOOOOOO..OOO.OOOO .",
"OO.OOOOOOO.OOOOOOOOOOOOOO.OO..OOOOOOOO  ",
"OO.OOOOO.O.OOOOOOOO.OOOOO.OOO.OOOOOOOO. ",
"OO.OO.OO.O..OOOOOOO.OOOOO.OOO.OOOOOOOOO ",
"OOOOOOOO.O..OOOOOOO..OOOO.O...OOO..OOOO ",
"OOOOOOOOOO..OOOOOOO.OOOOOOOO..OOO.O.OO. ",
"OOOOOOOOOO.OO.OOOOO..OOOOOOOO.OOO.OO.O .",
".OO.OOOOOO.OO.OOOOO..OOOOOOOO.OOOOOOOO .",
".OOOOOOOOO.OO.OOOOO..OOOOOOOO.OOOOOOOO .",
".OOOOOOOOO.OOOOO.OO.OOOOOOOOOOOOOOOOOO .",
".O.OOOOOOO.OOOOOOO..OOOOOOOOO.OOOOOOOO .",
".O.OOOOOOO.OOOOOOO..OOOOOOOOO.OOOOOOOO .",
".O.OOOOOOO.OOOOOOO.OOOOOOOOOO.OOO.OOOO .",
".O.OOOOOOO..OOOOOO..OOOOOOOO..OOO.OOOO .",
".O.OOOOOOO..OOO.OO..OOOOOOOO..OOO.OOOO .",
"OO.OOOOO.O..OOO.OOO.OOOOO.OO..OOOOOOOO. ",
"OO.OOOOO.O..OOOOOOO.OOOOO.OO..OOOOOOOO. ",
"OOOOOOOO.O.OOOOOOOO.OOOOO.OOO.OOOOOOOO. ",
"OOOOOOOOOO.OOOOOOO...OOOO.OOO..OOOOOOO .",
".OOOOOOOO..OOOOOOOO..OOOO.OOO..OOOOOOO X",
".OOOOOOOO..OOOOOOOO.OOOOOOOOO..OOOOO.. X",
".OOOO.OOO..OOOOOOOO.OOOOOOOOO. OOOOO. .X",
"X.OO.OOO. .OOOOOOO..OOOO.OOOO. OOOOOO XX",
"X.OOO.OO. .OOOOOOO..OOOO.OOOO. OOOOO. XX",
"X.O.OOOO.  .O.OOOO. OO.O.OOO.  OOOOO. XX",
"X.O.OOO.   .O.O.OO. .OO. OOO.  .OOOO. .X",
"..O.O.O. O. O.. OO  .O.  .O. OO.OO.O   X",
".   O . ... ..  . O. .   .   O.  O O   .",
" O..  . .. O  .. O..  O   O.  .     O   ",
" ..  O .   .  .. .. O ..  .. .   O.  .  ",
"&@@@. .XXXXXXXXXXX.  .  ..XXXXXX.  .XXXX",
"%%%XXXXXXXXXXXXXXXXXXXXXXXXXXXXXXXXXXXXX",
"%%%%%XXXXXXXXXXXXXXXXXXXXXXXXXXXXXXXXXXX",
"%%%%%%%%XXX%XXXXXXXXXX%%XXXXXXXX%%%XXXXX"
};
