/* XPM */
static char *wall_tree_2_enDIh[] = {
/* columns rows colors chars-per-pixel */
"80 80 249 2 ",
"   c #131A10",
".  c #250D01",
"X  c #290F01",
"o  c #2B1103",
"O  c #231509",
"+  c #341405",
"@  c #3A1907",
"#  c #3E1C09",
"$  c #3A1706",
"%  c #0D241B",
"&  c #0C291E",
"*  c #06261B",
"=  c #14251A",
"-  c #12291D",
";  c #1B2B1D",
":  c #162317",
">  c #0A391D",
",  c #272A14",
"<  c #0C2D23",
"1  c #052D22",
"2  c #142D23",
"3  c #1B2E22",
"4  c #063325",
"5  c #0C3125",
"6  c #0C3429",
"7  c #063A2A",
"8  c #0B3B2C",
"9  c #083727",
"0  c #143125",
"q  c #1D3324",
"w  c #143429",
"e  c #133A2C",
"r  c #1A3A2B",
"t  c #1C3628",
"y  c #0D3E31",
"u  c #123C31",
"i  c #1A3E31",
"p  c #223D2C",
"a  c #441D0A",
"s  c #491E0B",
"d  c #44230D",
"f  c #4C230D",
"g  c #4B290F",
"h  c #53260F",
"j  c #4D2A11",
"k  c #4D2610",
"l  c #542B12",
"z  c #5B2D13",
"x  c #522510",
"c  c #5C3116",
"v  c #5B351A",
"b  c #573518",
"n  c #4B3213",
"m  c #622E14",
"M  c #643316",
"N  c #6B391B",
"B  c #663619",
"V  c #733C1C",
"C  c #773D1C",
"Z  c #6D3F21",
"A  c #0B501D",
"S  c #0D7111",
"D  c #28760A",
"F  c #0C402E",
"G  c #0C4432",
"H  c #0C4A35",
"J  c #0C4C38",
"K  c #134233",
"L  c #1A4334",
"P  c #154639",
"I  c #134C3B",
"U  c #1C4C3B",
"Y  c #124936",
"T  c #0D533C",
"R  c #13523E",
"E  c #17593B",
"W  c #17502B",
"Q  c #117A2A",
"!  c #146639",
"~  c #0E742D",
"^  c #2E5418",
"/  c #4E4815",
"(  c #78401F",
")  c #744323",
"_  c #7A4422",
"`  c #7C4826",
"'  c #6F4222",
"]  c #194F40",
"[  c #0E5640",
"{  c #0E5B43",
"}  c #155542",
"|  c #1B5543",
" . c #145C45",
".. c #1B5A46",
"X. c #165E49",
"o. c #1B5C4A",
"O. c #1B5748",
"+. c #235A49",
"@. c #0B6A49",
"#. c #15644C",
"$. c #1A644D",
"%. c #146B4E",
"&. c #1C694E",
"*. c #136546",
"=. c #097748",
"-. c #14744E",
";. c #1E6551",
":. c #156C52",
">. c #1B6B53",
",. c #0D7854",
"<. c #157355",
"1. c #1B7256",
"2. c #157A55",
"3. c #1D755A",
"4. c #157B5A",
"5. c #1C7B5D",
"6. c #187857",
"7. c #226B55",
"8. c #236856",
"9. c #227156",
"0. c #23735B",
"q. c #237A5D",
"w. c #29745E",
"e. c #24614F",
"r. c #1D7E62",
"t. c #237D62",
"y. c #297D63",
"u. c #267762",
"i. c #844D28",
"p. c #8C522A",
"a. c #009500",
"s. c #069906",
"d. c #0A8B1C",
"f. c #09981A",
"g. c #0C8C09",
"h. c #248509",
"j. c #00A300",
"k. c #06A908",
"l. c #00B101",
"z. c #03BD03",
"x. c #07B607",
"c. c #08A515",
"v. c #13AC05",
"b. c #0E8823",
"n. c #0F872B",
"m. c #12B92E",
"M. c #03C402",
"N. c #00CA00",
"B. c #05C10D",
"V. c #00D600",
"C. c #00DD00",
"Z. c #06C410",
"A. c #00E400",
"S. c #00F200",
"D. c #00FE00",
"F. c #10C727",
"G. c #0D8354",
"H. c #0B8A55",
"J. c #0B885C",
"K. c #14835D",
"L. c #1B825E",
"P. c #14885B",
"I. c #0C955A",
"U. c #0F9154",
"Y. c #0C8D62",
"T. c #1D8463",
"R. c #158C64",
"E. c #1C8A65",
"W. c #1D8C69",
"Q. c #178663",
"!. c #0E9664",
"~. c #149364",
"^. c #159569",
"/. c #1C946B",
"(. c #139B6A",
"). c #1B9A6D",
"_. c #169665",
"`. c #1D9B72",
"'. c #1D9671",
"]. c #238365",
"[. c #248569",
"{. c #238C6B",
"}. c #298D6C",
"|. c #288567",
" X c #23926D",
".X c #29916F",
"XX c #288E71",
"oX c #239571",
"OX c #2A9473",
"+X c #239B75",
"@X c #2A9B76",
"#X c #249D79",
"$X c #2B9C7A",
"%X c #2B9478",
"&X c #309D7B",
"*X c #0EA568",
"=X c #13A36C",
"-X c #12A868",
";X c #15A472",
":X c #1BA375",
">X c #14AB74",
",X c #1FA37A",
"<X c #1BAB7C",
"1X c #17AC78",
"2X c #13B276",
"3X c #15B37C",
"4X c #1CB47D",
"5X c #13BA7D",
"6X c #17BC7C",
"7X c #0FAE6F",
"8X c #24A37B",
"9X c #2AA27D",
"0X c #26A97E",
"qX c #2DA876",
"wX c #0AA05C",
"eX c #1EAD81",
"rX c #1CB383",
"tX c #15BB83",
"yX c #1CBC8B",
"uX c #19B985",
"iX c #1DBF90",
"pX c #2CA582",
"aX c #24AB82",
"sX c #2BAB85",
"dX c #2CAE88",
"fX c #31A986",
"gX c #24B284",
"hX c #2CB38C",
"jX c #25B88A",
"kX c #32B28D",
"lX c #31B88F",
"zX c #2BBB92",
"xX c #32BB94",
"cX c #36BA95",
"vX c #1AC18D",
"bX c #1CC392",
"nX c #1EC994",
"mX c #22C38D",
"MX c #2CCB9C",
"NX c #27C797",
"BX c #34C49B",
"VX c #34C69C",
"CX c #26D29D",
"ZX c #33CBA1",
"AX c #39C9A2",
"SX c #2CD5A5",
"DX c #37D6AA",
"FX c #31D4A8",
"GX c #39E5B4",
/* pixels */
"N.N.N.N.N.N.N.N.N.N.N.N.N.N.N.N.N.N.N.N.N.N.N.N.N.N.N.N.N.N.N.N.N.N.N.N.N.N.b.Q N.N.N.N.N.N.N.N.N.N.N.N.N.N.N.N.N.N.N.N.N.N.N.N.N.N.N.N.N.N.N.N.N.N.N.N.N.N.N.N.",
"N.N.N.N.N.N.N.N.N.N.N.N.N.N.N.N.N.N.N.N.N.N.N.N.N.N.N.N.N.N.N.N.N.N.N.M.c.k.#.,. .f.N.N.N.N.N.N.N.N.N.N.N.N.N.N.N.N.N.N.N.N.N.N.N.N.N.N.N.N.N.N.N.N.N.N.N.N.N.N.",
"N.N.N.N.N.N.N.N.N.N.N.N.N.N.N.N.N.N.N.N.N.N.N.N.N.N.N.N.N.N.N.N.N.N.x.! ,.4.#X'.Q.%.x.x.Q ~ ! Q M.N.N.N.N.N.N.N.N.N.N.N.N.N.N.N.N.N.N.N.N.N.N.N.N.N.N.N.N.N.N.N.",
"N.N.N.N.N.N.N.N.N.N.N.N.N.N.N.N.N.N.N.N.N.N.N.N.N.N.N.N.b.%.:.%.-.-.FXGXmX4XuX3X=X>X2XiX4X;XI./.>.#.n.M.N.N.N.N.N.N.N.N.N.N.N.N.N.N.N.N.N.N.N.N.N.N.N.N.N.N.N.N.",
"N.N.N.N.N.N.N.N.N.N.N.N.N.N.N.N.N.N.N.N.N.N.N.N.N.N.N.f...,.,.@.=.,.SXnXiX>XtX3X!.3X;X(.eXiXMXSXR.,.,.! z.N.M.N.N.N.N.N.N.N.N.N.N.N.N.N.N.N.N.N.N.N.N.N.N.N.N.N.",
"N.N.N.N.N.N.N.N.N.N.N.N.N.N.N.N.N.N.N.N.N.N.N.N.b.%.%.%.BXCXNX6XI.!.,.Y.tXuXtX5X2X2X!.=XtXiXnXFXMXNXSXQ.r.%.:.X.n.N.N.N.N.N.N.N.N.N.N.N.N.N.N.N.N.N.N.N.N.N.N.N.",
"N.N.N.N.N.N.N.N.N.N.N.N.N.N.N.N.N.N.N.N.N.N.N.N.*.2./.G.6XCXNX7X2XtXbXvX2XtXuXtX3XtXH.;XrXuXrXuXnXbXbX/.Q.@.,.,.*.N.N.N.N.N.N.N.N.l.l.l.z.N.N.N.N.N.N.N.N.N.N.N.",
"N.N.N.N.N.N.N.N.N.N.N.N.N.N.N.N.N.N.N.N.N.qX].,.P.NXNXuX7X7X5X*XnXvX2X*XiXyXbXtX2XY.7XeXuX1XuXbXiXiXiXrX1XrXiXhXE.:.*. .f.N.N.N.N.a.a.a.l.N.N.N.N.N.N.N.N.N.N.N.",
"N.N.N.N.N.N.N.N.N.N.N.N.N.N.N.N.N.N.M.-.%.BXBX_.,.,.=.=.~ 7X5X7X7X3XH.nXvXtXtXtXtXtXtXtX*X*X=.!.!.>X3X-XyXvXuX~.~.:XrXzXE Q N.N.M.a.a.a.l.N.N.N.N.N.N.N.N.N.N.N.",
"N.N.N.N.N.N.N.N.N.N.N.N.N.N.N.N.N.N.! >.%._.=XH.!.!.!.H.tX5X5X5X7X3X7XvXtX!.vXtXI.*X>XyXtX*X,.J.(.3X3XrX<XjXmX(.:X_.eX^.:.X.c.N.M.a.a.a.l.N.N.N.N.N.N.N.N.N.N.N.",
"N.N.N.N.N.N.N.N.N.N.N.N.N.N.N.N.U 5.4.K.aXBXNXjX5X>X2XJ.(.vX7XvX5X7X5X5X~ rXuXtXI.tXtXCXbXbXCXI.mXuXuXmXbXyXmX~.~.eXrXzXVX@.L.O.~ a.a.a.l.N.j.a.a.N.N.N.N.j.N.N.",
"N.N.N.N.N.N.N.N.N.N.N.N.N.N.N.M.] I.:X).ZXSXMXyX5X2X7XY.I.U.nXvX5X*X5X5X=.iXtXuXY.tXtXtXbXiXyXtXSXtX6XmXNX>X>XG.J.rXjXMXMXR.W.T.#.! N.N.N.N.j.a.a.a.a.a.a.j.N.N.",
"N.N.N.N.N.N.N.N.N.N.N.N.N.b.#.:.-.`.1X;X:XmXmX*XI.,.@.Y.Y.vX5X5X5X5X5X*X7X*X7X=X>X2XbXyX(.>XSX>X-XNXCXNXCXGXP.!.(.(.SXDXxXR.,XaX0X+X&.B.N.N.j.a.a.a.a.a.a.j.N.N.",
"N.N.N.N.N.N.N.N.N.N.N.N.d.1.<.2.@.^.;X(.>X=X-X4X;XY.@.J.Y.5X5X5X5X7X5X7X7X*X2X5X*X2XnXyX(.!.=XtX3X!.-XCXSXjXG.rX4XeX(.P.K.^.<XaXhXBX3.F.N.N.j.a.a.a.a.a.a.j.N.N.",
"N.N.N.N.N.N.N.N.N.N.N.N.U 5.2.ZXMXzX=X=X=X-XbX2X*X!.Y.J.J.:XrXH.5X5X5X5X!.!.tX3X2X2XtX>X(.I.2XtX7X1X2X>X>X(.;X(.=XjX`.yXjXgX(.G.jX4XoX5.f.N.j.a.a.a.a.a.a.j.N.N.",
"N.N.N.N.N.N.N.N.N.N.z.f.>.E.BXFXzXaX=X1X<X<X>XiX1X=X!.=.!.!.J.H.5X5X5X7XH.nXyXvX*X(.tX3XY.H.tX;XyX*X3X3X>XJ.>X<X^.=.,.eXjXjX_.).^.E.gXsX0.~ j.a.a.a.a.a.a.N.N.N.",
"N.N.N.N.N.N.N.N.M.k.>.4.E.^.=.zXjX<XU.(.;XNXSXNXyX(.J.@.=.I.(.4X5X2X2XI.!.GXSXnX,.J.uX:X;XI.tXNXNXNX-X4X1XI.<X<X<X:XK.`.,X:X/.^.0XaXT H { *.~ l.l.a.a.a.a.N.N.N.",
"N.N.N.N.N.N.N.N.~ ! [ #.L.R.`.FXMXjX;X:X).jXDXNXjX@.R.).uX;X=X:XvX2XU.*X!.FXCXSXY.Y.K.J.;X(.SXSXMXDXI.=XU.(.G.<X0XNXR.).`.`.`._.gXhX0X@.:.:.:.z.M.a.a.a.a.N.N.N.",
"N.N.N.N.N.N.f.X. .X.BXVX8X).P.VXGXMXU.(.:X(.).^.^.4.2.BXNX<X^.(.!.!.!.G.5X7X!.;X=.rX5X=.mXjXG.:XmX4X-X<X1X(.`./.8X^./.W.8X8X2.).4XDXxXxX+X+X|.F.N.a.a.a.a.N.N.N.",
"N.N.N.N.N.c.O.} X.X.DXDXP.R.K.P.P.G.BX<X,X).P.,X,X4.<.DXDX/.,.1X1X-XG.(.3X3X^.Y.~.yXrX=.MXCXP.^.E.G.1XeX<XP.`.aX@.P.L./.8XsX^.L.E.W.gXP.oX#X9Xm.N.l.l.l.l.N.N.N.",
"N.N.N.N.N.o.pXkX0X@X{.6.'.'./.R.4.sXZXZXgX2.NXsX0X1.:.:.4.L.).aXaX<X,.hXiXiXY.K.P.MXG.P.ZXDX(.).).^.U.8X,XK.`.oX#XT.6.-.hXBXoXR.+X+X/.T.6.%. .*.Q N.N.N.N.N.N.N.",
"N.N.N.N.N.d.%XfX5.:.T.2.hXdX,X8X,XaX^.`.oX:.*.%.#.>.*.r.5.Q.BXzXgX:XR.P.jX^.eX<XK.4.R./.R.@.^.).).+X`.E.K.*.{.oXE. XoX5.L.T.E.5.+X8X X/.<.T.T.3.O.k.N.N.N.N.N.N.",
"N.N.N.N.N.| ..X.[.[.6.VXxXgX8X`.BXzX0X8X/.<.:.>.5.R 1.{.[.E.xXhX8X,.^.^.`.).jXrXr.,.r.Q.4.%./.).).8X+X+X X1.*.oXG.].@X5.T.[.{.T.8XsXaX#X$XE.E.{.} x.N.N.N.N.N.N.",
"N.N.N.N.N.o.L.cX X{.hXhXzXpX).8XVXhX+XT.T.1.%.OX.X9X%X%XXX:.5.<.K.<.`.,X`.,X8X<XJ.K.W.W././.{ +X0X9X9X:.1.3.5.t.].|.@X5.[.oX@XoX6.AXcXlX].{.[.{.2.b.B.N.N.N.N.N.",
"N.N.N.N.b.X. .pX5.#. XAXxX2.4.+XDXVX4.6.].%. X@X.X9XOX$X[.>.#.T.6.<.^.^.~.+XoX'.gXsX5.E.oX+X .9XkXpX9X#.3.q.q.y.>..XOX9.].q.@X#X:.+XcXkX>.r.XXOX#. .! N.N.N.N.N.",
"N.N.N.d.} ] [.[.3.>.[. XW.oXE.T./. X X{.E.9X@X@X X|.pXt.r.:. X+XE.K.pX8XsXR.+XW.gXsX>.:.0X9X#.xXVXcXcX].}.}.}.|.q.7.;.:.*.1.}.+XpX5.3.T.W.r.cXdX} O. .f.N.N.N.N.",
"N.N.N.n.O.pX%XXX6.#.E.{.T.{.T.E././. XE.W.gX$XfX1.XX%X[.3.1.+X#XoXE.sXhXdXW.+X{.hXpX:.5.9XqX0.{.DXAXAXq.t.%X}.w.9. .;.3.&.$. X@XkXr.6.5.[.[. .{. . .O.d.N.N.N.N.",
"N.a.a.o.:.kXpX%XoX9X+X X%.E.W./.oX#XL.E.{.[.].>.#.XXOXr.].@X8X@XT.VXBXVXaXXX+XOX|.1.$.X.cXfX].t.|.}.OX7.$.%X&XOX|.R 0.t.5.#.kX@X9X5.[.T.T.L. XoX3.>.J } X.N.N.N.",
"N.a.a.#.W.fXcXT.BX9X+X+X{ 6.+X#X8X8X X-.{.T.5.>.:.5. X5.T.+XoX#X XhXcXDXr.[.pX$X1.>.>.>.0.q.].].q.|.].$.;.pX&X&XOX} ].[.q.;.{.cX[.].{.{.E.E.8XpXX.X.[ } O.N.N.N.",
"N.a.g.oX8XL.T. XcXBX X:.<.).DXxXsX9X+X-.2.+X+X<.oXoXoX5.#.{.+XoXoX[.3.:.[ +XOXoX*.0..X}.&.9.w.q.w.q.7.$.>.%XkXcXcX3.r.kX:.:.>.1.T.[.+XdX9XoX#. Xr.[.{.;.~ N.N.N.",
"N.a.g.q.9XE.pX$XOXoXT.W.L._.DXVXhX0X#X6./.+X+X X+X+X+X1.%.oX@XoX{.<.>.>.$.qXXX X$.q.OX}.} $.9.0.q.q.&.} ;.*.lXcXAX0.3.>.>.:.>.3.[.[.6.AXxXdX%.r.r.{.{.3.! N.N.N.",
"N.k.E 8XL.BXhXsX XW.W.+XE.E.DXAXVXhX<.K.5.T.E.9X8X8X X:.%.+XoX{. .3.|.].@XfX@X$X .R ..q.$.o.].q.].q.q.q.q.>.0.3.>.3.T.E.oXoXK.#X6.1.].5.+X8X[.r.3.pXpX5.o.c.N.N.",
"N.b.3.1. .zXBXxX<.*.:X8XQ.T.Q.W.W.<.Q.4.T.T.Q. XzXdX<.1.} dXsX*.1.]. X}.9XqX&X&X..7.$.} >.$.OXq.q.q.q.q.q.3.3.1.3.%.oXoX~.oX8XsX#X*.5.1.r.r.T.5.%.fXpX].#.f.N.N.",
"N.X.} r.dX#XpX+X<.AXaX<X,.^.'.W.R.E.E.#X#X+X{.%.W.{.{.6.3.0.r.T.{.{.}. Xq.dX@X&X8.0.7.|.w.o.O.[.}.XX .|.fX3.3.T.{.-.0XVXsXoXVXdXBX#.4.{.W.W.W.<.{.<.2.X.X.O.G.N.",
"N.| Y zXzXhX#X[ aXFXZXgXK.K.`.eXW.Q.ZXdXjX#XW.T [ T.[. X X1.T.|.{.{.}..X|.0.7.0.u.u.%X].q.R ;.o.o.o.o.;.>.1.3.E.oXsX-.5.5.T.#.xXhX#.W.xXdX#X4.pX X5.:.>.>.} } N.",
"N.} J cXkXpX[ [ `.VXMX<X-.gXeXeX'./.ZXhXzX`.K.<.{  X). X{.5.T.[.{.{..X.X[.0.>.7.u.w.%Xy.w.R $.o.o.o.#.>.1.$.3. XsXlX=.E.5.6.>.%.W.:.r.xXzXhXT.sX'.T.#.3.3.X.$.N.",
"M.7.{.t.3.1.:.:.:.<.r.W.DXcXdXgX,X8XDXzXhXE.*.:.sXcXaX XE.0.].[.oX{.OXpX>.$.;.3.t.y. X].7.} 7.R ;.J [ 3.3.].1.5.BXAXE.+X X5.E.<.1.:.r.6.xXzXsX<.8X6.#.r.OXOX3.c.",
"c.[.|.} [ r.r.T.#.@.Q./.GXVXhXgXR.#XDXzXNX@.4.%.xXAXhX XL.q.[.<.@XoXpXdX#.#.>.5.|.].>.|.I $.1.R 1.>.$.>.5.].5.*.+XkX5.%X#XL.E.%.r.r.:.<.kXxX#X<.6.[ #.#.pXpX:.n.",
"! 7.7.J 1.t.T.OX[ 4.W.#XZXSXaX%.<.T.%.<.W.8X8XP.VXBXBXE.E.E.6.>.8X9XkXcX#.>.#.5.{.L.3.>.o.X.X.].].#.$.} 1.OX}.X.O.q.u.pXpX$X}.[.r.].[ :.<.<.<.,.<.6.T.#XX.$XX.f.",
"Q o.8.I u.t.%X5. .4.W.%X0X+X:.4.`.8XE.'.0XaX8X+X+X0XE.{. X{.L.L.6.sXdXpX3.3. .T.{.[.t.3.;.$.$.5.E.;.>.>.q.1.1.o.} X.$.&XpX$XOXOX .:.X.:.Q.r.@.r.Q.Q.W.dX5.R 3.d.",
"M.] 8...&.&.&.$.6.L.dX{.T.*.9X X#X`.9XhX8X8X8X#X{.r.5.T.oX{.{.<.[.:.1.6.r.r.J sX9XoX[.].].{.*.#.*.#.&.{.|.}.[.;.;.>.E w.;.[.t.|.3.5.T.r.'.'.Q.Q.r.W.W.#X[.T.t.z.",
"c.;.7.>.7.1.X.E 5.].0X6.5.H +X+X#X'.8XsX#X8X#X+XoX%.6.:.{.{.W.T  .{ :.1.4.W.[ lXsX#X].].|. XL.E ;.} T |.|.}.0.0.$.0.9.u.y.0.1.5.r.r.[.T.oX'.Q.Q.r.W.T.pXr.G y N.",
"c.o...7.9.} } G [.{.T X.<.#.{. X%.L.oX+X+X#XkX5.5.1.#.{ 5.oXOX .:.X.1.%.:.#.X.`.hXBXr.r.{.+X{.5.>.#.J |.}.|.9.w.8.y.y.w.0.0.q.q.r.r.T.r.J @.%.{ W.aXr.<.:.[ I N.",
"M.o.+.7.u.] | I OX|. .$.3.r.2.L.6.r.[.[.{.sX%X5.E.T.6. .{.8X9X>.q.:.6.T.Q.<.:.#.BX4.].T. X+X@X[.3.$.J |..X}.0.w.0.y.y.7.;.R q.|.r.r.r.r. .H { [ W.aXW.<.<.} [ M.",
"b.] P ] P | O.o...X.X.>.q.5.*.>.].6.L.[.[.t.:.{.|.6.{.t.>.9X[.|.[.t.[. X+X6.X.#.#. .[ H oX@X9X.Xt.X.o.pX&X&X$.e.u.8.o.I P P 0.].r.r.#.X.H @.{ H W.pX:.:.>. .I M.",
"Q U | 5 P O.o.o.$.$. .1.3.1.%.*.#.&.T.[.].3.%.}.|.-..X].>.O.;.|.[.t.|.5.T.%.r.5.:.:. .X.W.9X@Xq.u.#.X.>.%X}.| e.w.7.;.I P I q.|.r.r.:.X.J { [ T W.[.J #.#.R } N.",
"N.| u ..| y | |  .$.H H T 5.].5.1.*.q.].w. .[.|.|.$.o.y.w.} R }.q.|.|.{.>.3.].t.[.5.1.%.#.}  .$.X.1.>.u.u.8.Y K 8.7.>.} } 8 ;.>.:.3.G J [ [ T T J J 7 { X.H I N.",
"N.w 1 | L y < } | ..} ..3.3.5.$.$.$.X.>.0.} t.y.q.0.>.0.$.| ..e.9.q.q.q.R t.t.r.[.].].3.X.t.X.1.} 0.0.e.8.o.8 e ].w.0.O.X.] P $.{ [ J J 4 J T [ [ G [ 7 7 I I N.",
"N.6 6 u P 6 1 O.$.I I ] >.>.#.X.&.$. .7.9.| Y } 7.8...e.O...e.8.&.w.}.y.R t.t.y.].|.].w.} 0.$.>.&.0.$.Y ;.U y P q.q.t.O.O.I y G T T T T G 4 H J T F 4 F 6 } E N.",
"N.A < e U u u u u u 8 y  .X.G $.1.9.8 &.e...| +.o.| R ....e.8.+.|.|.|.0.K >.w.} q.t.9.7.I &.9...7.o.....I P u O.I 4 9 } #.*.8 7 T T J T 7 F H J F 7 G 7 G d.M.N.",
"N.z.A 9 8 P u e 6 6 8 6 I | 8 $.7.7.8 8.$.E | +.+.E U e.+...8.| y.|.y.+.Y K Y y ].q.8.o.G 7.9.E 8.| I | R P G K ] 8 8 7 #.#.8 7 T T 4 H * G 4 F 7 y G 8 6 N.N.N.",
"N.N.N.N.S u u u 1 u K * } E 5 F o.| u P +.U U +.U U U +.| | L u L U +.U O.+.P Y L P ..P 6 G 8.8 * 8 5 6 P R F < 8 y Y 7 X.{ 7 8 F 7 7 G 7 7 4 7 1 4 y 8 c.N.N.N.",
"N.N.N.N.g.6 6 9 1 1 < 1 P I 6 e P P u 6 u L L ] L U U U U +.L L L L U U +.e.| U P L u u e 1 4 1 6 6 6 K ] } R F G F G F y H 9 8 G 1 7 G 7 7 7 * 7 8 6 ! M.N.N.N.",
"N.N.N.N.M.z.S F 6 u < < u 1 5 6 6 < e u u L i i L r i L p +.w r p U L L U L U L ] P u u L K e 6 6 * 4 6 6 Y G F I I G G H G y 7 1 1 4 7 * F * 8 8 8 G N.N.N.N.N.",
"N.N.N.N.N.N.N.k.6 e 6 % * < 5 6 < < w i L i u i 0 2 0 i L r t w U U L L 0 P P K U P u K P K F 8 8 6 1 6 6 8 K 4 Y I Y G J G G H 4 4 4 7 7 1 1 y 4 G ! N.N.N.N.N.",
"N.N.N.N.N.N.N.N.c.S 5 * * 5 6 0 5 w 6 w e < 2 2 0 w 2 = 3 w i 2 p U L i 0 e 0 < e U U K K r t e e r w w e 6 5 * K G I F 8 7 H G 7 9 G 8 4 7 6 6 d.M.N.N.N.N.N.N.",
"N.N.N.N.N.N.N.N.M.N.l.* 1 6 5 w 5 w < w 0 < < 2 3 w 2 2 3 w w 2 p L i w i 2 w w < L L r 0 t r q q t q > 5 w e * w > Y G e 9 Y G 7 4 y y 4 1 6 I M.N.N.N.N.N.N.N.",
"N.N.N.N.N.N.N.N.N.N.M.s.1 & * < 5 5 < % < 0 0 = % 2 2 % 2 2 2 3 2 2 2 2 < w u w < r p q 3 ; ; q = - % % > & & & & < G e 8 < E J 6 1 [ 8 1 6 N.N.N.N.N.N.N.N.N.N.",
"N.N.N.N.N.N.N.N.N.N.N.N.A > g.* 1 % < * < 2 2 2 % 2 2 = 2 2 2 w 0 2 2 0 2 r r 0 3 3 ; q ; ; : : = : % = = % & 5 5 * F 5 e e 8 8 4 7 * 4 ! f.N.N.N.N.N.N.N.N.N.N.",
"N.N.N.N.N.N.N.N.N.N.N.N.N.N.M.M.l.l.  * % % % % 2 % 2 3 w 2 = w 2 0 w 0 0 2 r 2 3 p ; ; ; q : = = : - - *   2 5 < 0 e 5 9 K 8 < S b.b.M.M.N.N.N.N.N.N.N.N.N.N.N.",
"N.N.N.N.N.N.N.N.N.N.N.N.N.N.N.N.N.N.x.s.l.% % = 2 2 = 2 2 2 2 w 2 p i t 3 q 3 = p q ; ; q q : 3 - = : % % = * < % < c.2 & e f.f.N.N.N.N.N.N.N.N.N.N.N.N.N.N.N.N.",
"N.N.N.N.N.N.N.N.N.N.N.N.N.N.N.N.N.N.N.N.N.g.A W ~ = = : 3 3 2 : 3 U i t 3 t t : p q : q ; : : : - = : O = = = % % S D.b.Q f.N.N.N.N.N.N.N.N.N.N.N.N.N.N.N.N.N.N.",
"N.N.N.N.N.N.N.N.N.N.N.N.N.N.N.N.N.N.N.N.N.N.N.N.N.M.S + + O O . O 2 , + $ $ , X ; ; ; q q ; : : & . . X = > W z.M.D.D.D.D.N.N.N.N.N.N.N.N.N.N.N.N.N.N.N.N.N.N.N.",
"N.N.N.N.N.N.N.N.N.N.N.N.N.N.N.N.N.N.N.N.N.N.N.N.N.M.S $ + X . . X o d $ $ a + X . O , q , ; X O O . . + . M.N.N.N.D.D.D.D.N.N.N.N.N.N.N.N.N.N.N.N.N.N.N.N.N.N.N.",
"N.N.N.N.N.N.N.N.N.N.N.N.N.N.N.N.N.N.N.N.N.N.N.N.M.z., a a + X . X $ h # s s s + . X o + s h X o X X X s a k.M.N.N.S.S.S.S.N.N.N.N.N.N.N.N.N.N.N.N.N.N.N.N.N.N.N.",
"N.N.N.N.N.N.N.N.N.N.N.N.N.N.N.N.N.N.N.N.N.N.N.N.l.a.@ s f + o X o $ h s x k x + . X o + h h $ $ + X o f f s.M.N.N.N.N.N.N.N.N.N.N.N.N.N.N.N.N.N.N.N.N.N.N.N.N.N.",
"N.N.N.N.N.N.N.N.N.N.N.N.N.N.N.N.N.N.N.N.N.N.N.N.l.S f m l # # + $ s m a a a z s X X + # m h s s + o $ x h ^ N.M.N.N.N.N.N.N.N.N.N.N.N.N.N.N.N.N.N.N.N.N.N.N.N.N.",
"N.N.N.N.N.M.V.A.A.C.N.N.A.A.A.V.N.N.N.N.N.N.N.N.l.D z m c d # @ # s x h a s z s + + + a V f h h s + # k h g M.M.N.N.N.N.N.N.N.N.N.N.N.N.N.N.N.N.N.N.N.N.N.N.N.N.",
"N.N.N.N.N.N.V.D.D.S.N.N.D.D.D.V.N.N.N.N.N.N.N.N.l./ N N l d d d h C M N s m M l @ + a f V f M s l @ # d N f / N.M.N.N.N.N.N.N.N.N.N.N.N.N.N.N.N.N.N.N.N.N.N.N.N.",
"N.N.N.N.N.N.V.D.D.S.N.N.D.D.D.V.N.N.N.N.N.N.N.N.l.N ( b c g d f z N V V h C M c @ @ d f M h M s l $ @ c h h z z.N.N.N.N.N.N.N.N.N.N.N.N.N.N.N.N.N.N.N.N.N.N.N.N.",
"N.N.N.N.N.N.N.V.V.C.S.S.V.V.V.V.N.N.N.N.N.N.N.N.D N N B M j l B z z C C C C B m a # d M h m C h x d a ' ) b V ) B N.N.N.N.N.N.N.N.N.N.N.N.N.N.N.N.N.N.N.N.N.N.N.",
"N.N.N.N.N.N.N.N.N.V.D.D.N.N.N.N.N.N.N.N.N.N.N.z./ N ( N v l j N m M C V N C ( N # d d M h M C m x l d j v c ( ( ` v.N.N.N.N.N.N.N.N.N.N.N.N.N.N.N.N.N.N.N.N.N.N.",
"N.D.D.D.N.N.N.N.N.V.D.D.N.N.N.N.N.N.N.N.N.N.N.v B N N v v j l N N C i.m ( ( ( M d d g z z V ( V M b f b M v v ' ' ' v.N.N.N.N.N.N.N.N.N.N.N.N.N.N.N.N.N.N.N.N.N.",
"N.D.D.D.N.N.N.N.N.V.D.D.N.N.N.N.N.N.N.N.N.N.N.N.N.N.N.h.n c c N C C i.N m N B l g d h M M V ( ( ( b g N.N.M.M.M.M.x.N.N.N.N.N.N.N.N.N.N.N.N.N.N.N.N.N.N.N.N.N.N.",
"N.D.D.D.N.N.N.N.N.V.D.D.N.N.N.N.N.N.N.N.N.N.N.N.N.N.N.N.h.c M V V ( p.( ( B c l g g h c M N _ ( _ b n M.N.M.M.N.N.N.N.N.N.N.N.N.N.N.N.N.N.N.N.N.N.N.N.N.N.N.N.N.",
"N.D.D.D.N.N.N.N.N.V.D.D.N.N.N.N.N.N.N.N.N.N.N.N.N.N.N.M.z.B B ( N ( i.( ( ` i.N j g g l N B ` _ C ) j M.M.N.M.M.N.M.M.N.N.N.N.N.N.N.N.N.N.N.N.N.N.N.N.N.N.N.N.N.",
"N.D.D.D.N.N.N.N.N.N.N.N.N.N.N.N.N.N.N.N.N.N.N.N.N.N.N.M.N.v N ( ' ( ` _ ( ( ( ( g g g g B N ) i.` ) l M.M.N.N.N.N.N.N.N.N.N.N.N.N.N.N.N.N.N.N.N.N.N.N.N.N.N.N.N.",
"N.N.N.N.N.N.N.N.N.N.N.N.N.N.N.N.N.N.N.N.N.N.N.N.N.N.N.N.M.N.D b N ` ( ( ` ( V C l l n j j b c c M b h.N.N.N.N.N.N.N.N.N.N.N.N.N.N.N.N.N.N.N.N.N.N.N.N.N.N.N.N.N.",
"N.N.N.N.N.N.N.N.N.N.N.N.N.N.N.N.N.N.N.N.N.N.N.N.N.N.N.N.N.N.N./ c v ' ' N N B M ^ x.z.v.h.D n n b / z.N.N.N.N.N.N.N.N.N.N.N.N.N.N.N.N.N.N.N.N.N.N.N.N.N.N.N.N.N.",
"N.N.N.N.N.N.N.N.N.N.N.N.N.N.N.N.N.N.N.N.N.N.N.N.N.N.N.N.N.N.N.V.N.N.z.h.b c h.M.N.N.N.N.N.N.N.N.M.N.N.N.N.N.N.N.N.N.N.N.N.N.N.N.N.N.N.N.N.N.N.N.N.N.N.N.N.N.N.N."
};
