/* XPM */
static char *wall_tree_4_u1zJe[] = {
/* columns rows colors chars-per-pixel */
"80 80 230 2 ",
"   c #291A16",
".  c #311E18",
"X  c #36221A",
"o  c #39281E",
"O  c #23371C",
"+  c #393B26",
"@  c #3F2922",
"#  c #422B1E",
"$  c #40271E",
"%  c #482D22",
"&  c #462A20",
"*  c #4A3223",
"=  c #543525",
"-  c #5C3B27",
";  c #5D3C2A",
":  c #55372A",
">  c #5C3F31",
",  c #613E29",
"<  c #14451D",
"1  c #13491D",
"2  c #13541E",
"3  c #347C17",
"4  c #154E20",
"5  c #184D22",
"6  c #165523",
"7  c #195525",
"8  c #165C24",
"9  c #195B26",
"0  c #1C5629",
"q  c #1C5D2A",
"w  c #235B2B",
"e  c #2A5F30",
"r  c #166425",
"t  c #186227",
"y  c #166A25",
"u  c #1C642C",
"i  c #1C6A2D",
"p  c #167322",
"a  c #1C732E",
"s  c #1B7A2D",
"d  c #187A25",
"f  c #1E6630",
"g  c #1E6C31",
"h  c #1E7331",
"j  c #1E7B32",
"k  c #21632E",
"l  c #206C2E",
"z  c #236531",
"x  c #226C33",
"c  c #227434",
"v  c #227B35",
"b  c #267438",
"n  c #2A743A",
"m  c #247C39",
"M  c #2A7C3B",
"N  c #297736",
"B  c #207A2E",
"V  c #46751E",
"C  c #4F5B23",
"Z  c #64412B",
"A  c #6B442E",
"S  c #624929",
"D  c #634132",
"F  c #6B4432",
"G  c #694A38",
"H  c #744B35",
"J  c #7A4D36",
"K  c #734A36",
"L  c #7D533B",
"P  c #775435",
"I  c #4D7422",
"U  c #4F712D",
"Y  c #69622F",
"T  c #785442",
"R  c #84553B",
"E  c #85583D",
"W  c #87573B",
"Q  c #8C5E42",
"!  c #865A42",
"~  c #8E6143",
"^  c #956748",
"/  c #009500",
"(  c #009C00",
")  c #0E8714",
"_  c #0D9913",
"`  c #14951D",
"'  c #0D8714",
"]  c #289911",
"[  c #3A951B",
"{  c #2B8F12",
"}  c #00A300",
"|  c #08AC0D",
" . c #06A709",
".. c #1CAB0C",
"X. c #00B200",
"o. c #01BD01",
"O. c #08B30D",
"+. c #06BC09",
"@. c #09BD0C",
"#. c #07B608",
"$. c #0CAC13",
"%. c #0BA010",
"&. c #11AC1B",
"*. c #0CB312",
"=. c #0CBB13",
"-. c #0FB618",
";. c #11B51B",
":. c #12BD1C",
">. c #12BA17",
",. c #24A210",
"<. c #1A8728",
"1. c #199728",
"2. c #1F8333",
"3. c #1F8A34",
"4. c #1F9D31",
"5. c #228235",
"6. c #228B36",
"7. c #25843A",
"8. c #2A843D",
"9. c #258B3B",
"0. c #298B3E",
"q. c #229336",
"w. c #219B36",
"e. c #25933C",
"r. c #2A933E",
"t. c #259C3C",
"y. c #299C3E",
"u. c #1AA828",
"i. c #1BB42B",
"p. c #17B923",
"a. c #1FB531",
"s. c #25A43C",
"d. c #25AA3B",
"f. c #26A739",
"g. c #26B63A",
"h. c #02C503",
"j. c #00CA00",
"k. c #06C409",
"l. c #06C90A",
"z. c #09C80E",
"x. c #08C408",
"c. c #00D700",
"v. c #00DD00",
"b. c #0CC513",
"n. c #0DC615",
"m. c #11C41B",
"M. c #01E302",
"N. c #04E807",
"B. c #01F201",
"V. c #01FD01",
"C. c #06F60A",
"Z. c #06F70A",
"A. c #15C223",
"S. c #23C134",
"D. c #18E224",
"F. c #2C8640",
"G. c #2C8C42",
"H. c #278F40",
"J. c #318644",
"K. c #338D45",
"L. c #3B8A47",
"P. c #279640",
"I. c #2C9443",
"U. c #279C41",
"Y. c #2C9B44",
"T. c #2E9C48",
"R. c #319346",
"E. c #319B47",
"W. c #349449",
"Q. c #39954E",
"!. c #349C4B",
"~. c #399B4E",
"^. c #3D9445",
"/. c #3B9E51",
"(. c #3C9750",
"). c #27A240",
"_. c #2BA344",
"`. c #2BAC44",
"'. c #2EA449",
"]. c #2EAB4A",
"[. c #27AF40",
"{. c #31AA47",
"}. c #33A44C",
"|. c #39A34F",
" X c #32AB4D",
".X c #34A649",
"XX c #2BB344",
"oX c #2EB14A",
"OX c #2DB948",
"+X c #31B34D",
"@X c #39B34E",
"#X c #32BA4E",
"$X c #31B146",
"%X c #36A650",
"&X c #3BA452",
"*X c #36AD52",
"=X c #3BAB54",
"-X c #3EAF58",
";X c #34B452",
":X c #3BB355",
">X c #34BA53",
",X c #39BB55",
"<X c #3DB459",
"1X c #3DBC5A",
"2X c #449B58",
"3X c #41A456",
"4X c #41AB56",
"5X c #42A659",
"6X c #44AC5B",
"7X c #48AD5F",
"8X c #43B45C",
"9X c #49B65E",
"0X c #42BB5D",
"qX c #40B056",
"wX c #40A64E",
"eX c #46BC61",
"rX c #49BD63",
"tX c #4DB464",
"yX c #51BB68",
"uX c #4CAF60",
"iX c #3CC25B",
"pX c #39C656",
"aX c #2CC146",
"sX c #3ECA62",
"dX c #3FD065",
"fX c #42C15D",
"gX c #44C262",
"hX c #4AC265",
"jX c #49C968",
"kX c #49CD69",
/* pixels */
"j.j.j.j.j.j.j.j.j.j.j.j.j.j.j.j.j.j.j.j.j.j.j.j.j.j.j.j.j.j.j.j.j.j.j.j.j.j.j.j.j.j.j.j.j.j.j.j.j.j.j.j.h.j.j.j.j.j.j.j.j.j.j.j.j.j.j.j.j.j.j.j.j.j.j.j.j.j.j.j.",
"j.j.j.j.j.j.j.j.j.j.j.j.j.j.j.j.j.j.j.j.j.j.j.j.j.j.j.j.j.j.j.j.j.j.j.j.j.j.j.j.j.j.j.j.l.j.j.j.l.j.j.j.j.j.j.j.j.j.j.j.j.j.j.j.j.j.j.j.j.j.j.j.j.j.j.j.j.j.j.j.",
"j.j.j.j.j.j.j.j.j.j.j.j.j.j.j.j.j.j.j.j.j.j.j.j.j.j.j.j.j.j.l.j.j.j.j.l.j.l.p.j.j.l.l.j.j.j.l.j.j.j.j.j.j.j.j.j.j.j.l.j.j.j.j.j.j.j.j.j.j.j.j.j.j.j.j.j.j.j.j.j.",
"j.j.j.j.j.j.j.j.j.j.j.j.j.j.j.j.j.j.j.j.j.j.j.j.j.j.j.j.j.j.j.j.j.j.j.j.j.a.,Xa.j.j.j.j.j.j.j.j.j.j.l.j.j.j.j.j.j.j.j.j.j.j.j.j.j.j.j.j.j.j.j.j.j.j.j.j.j.j.j.j.",
"j.j.j.j.j.j.j.j.j.j.j.j.j.j.j.j.j.j.j.j.j.j.j.j.j.j.j.j.j.j.j.j.j.j.h.j.l.`.:X%Xm.j.j.j.j.l.j.j.h.j.j.j.j.l.l.j.j.j.j.j.j.j.j.j.j.j.j.j.j.j.j.j.j.j.j.j.j.j.j.j.",
"j.j.j.j.j.j.j.j.j.j.j.j.j.j.j.j.j.j.j.j.j.j.j.j.j.j.j.j.j.j.j.j.l.j.h.k.g.<X-X%X Xl.l.j.j.j.j.l.j.j.j.j.j.j.j.j.j.j.j.j.j.j.j.j.j.j.j.j.j.j.j.j.j.j.j.j.j.j.j.j.",
"j.j.j.j.j.j.j.j.j.j.j.j.j.j.j.j.j.j.j.j.j.j.j.j.j.j.j.M.M.M.j.j.M.M.M.N.%X-X=X8X9Xg.l.j.l.j.j.j.l.j.j.j.j.j.j.j.j.j.j.j.j.j.j.j.j.X.X.X.o.j.j.j.j.j.j.j.j.j.j.j.",
"j.j.j.j.j.j.j.j.j.j.j.j.j.j.j.j.j.j.j.j.j.j.j.j.j.j.j.B.V.V.j.h.V.Z.Z.Z.~./.8XeXjX1XS.l.l.j.j.j.j.j.l.j.j.j.j.j.l.j.j.j.j.j.j.j.j./ / / X.j.j.j.j.j.j.j.j.j.j.j.",
"j.j.j.j.j.j.j.j.j.j.j.j.j.j.j.j.j.j.j.j.j.j.j.j.j.j.j.B.V.V.j.j.Z.Z.D.1XeXrXrXeX1X:Xg.l.l.j.j.j.j.j.j.j.j.j.j.j.j.j.j.j.j.j.j.j.j./ / / X.j.j.j.j.j.j.j.j.j.j.j.",
"j.j.j.j.j.j.j.j.j.j.j.j.j.j.c.j.j.j.j.j.j.j.j.j.j.j.j.B.V.V.l.h.V.Z.%X8XeXeXeX8X<X:X;XXXl.j.l.j.h.l.j.j.j.j.h.j.j.j.j.j.j.j.j.j.j./ / / X.j.j.j.j.j.j.j.j.j.j.j.",
"j.j.j.j.j.j.j.j.j.j.j.j.j.j.j.j.j.j.j.j.V.V.V.V.M.j.h.B.V.V.V.Z.Z.Z.pX8XeX<X8X:X*X XoX].g.h.j.h.j.j.j.j.j.j.j.j.j.j.j.j.j.j.o./ / / / / X.j.} / / j.j.j.j.} j.j.",
"j.j.j.j.j.j.j.j.j.j.j.j.j.j.j.j.j.j.j.j.V.V.c.j.j.j.j.j.j.l.Z.Z.l.b.jX|.!.:X:X;X*X X].'.l.l.l.l.l.j.l.j.j.j.j.j.j.( / / / j.o./ / j.j.j.j.j.} / / / / / / } j.j.",
"j.j.j.j.j.j.j.j.j.j.j.j.j.j.j.j.j.j.j.j.V.V.c.j.j.j.j.j.h.l.V.Z.z.b.G.}.<X<X<X:X;X;X+X].z.l.l.h.j.j.j.j.j.j.j.j.j./ / / / j.o./ / j.j.j.j.j.} / / / / / / } j.j.",
"j.j.j.j.j.j.j.j.j.j.j.j.j.j.j.j.j.j.j.j.V.V.c.j.j.j.j.j.j.j.Z.Z.z.n.*X:X0X0X0X1X,X;X+X+X+Xa.l.k.l.j.j.j.j.j.j.j.j./ / / / j.o./ / j.j.j.j.j.} / / / / / / } j.j.",
"j.j.j.j.j.j.j.j.j.j.j.j.j.j.j.j.j.j.j.j.V.V.c.j.j.h.j.j.j.l.Z.Z.b.`.*X1X0XgX0XiX1X>X>X+X>X+X+Xn.l.l.j.j.j.j.j.j.j./ / / / j.o./ / j.j.j.j.j.} ( / / / / / } j.j.",
"j.j.j.j.j.j.j.j.j.j.j.j.j.j.j.j.j.j.j.j.j.j.} / ( / / o.j.j.l.l.A. X*X:X1XfXiXiXiX>X;X+X>X>X1X[.n.j.j.l.j.j.j.j.j./ / / / j.j.j.j.j.j.j.j.j.} / / / / / / j.j.j.",
"j.j.j.j.j.j.j.j.j.j.j.j.j.j.j.j.j.j.j.j.j.j.o.X.X.X.X.h.j.h.l.m.'.*X>X>X>X>XiX>X>X>X+X+X]. X].`.A.h.j.j.j.j.j.j.j.X.X.X.X.j.j.j.j.j.j.j.j.j.o.X.X./ / / / j.j.j.",
"j.j.j.j.j.j.j.j.j.j.j.j.j.j.j.j.j.j.j.j.j.j.j.j.j.j.h.j.j.h.b.}.*X<X<X>X>X+X>X>X>X+X+X].].;X].'.n.l.j.l.l.j.j.j.j.j.j.j.j.j.j.j.j.j.j.j.j.j.j.j.j./ / / / j.j.j.",
"j.j.j.j.j.j.j.j.j.j.j.j.j.j.j.j.j.j.j.j.j.j.j.j.j.j.j.j.j.%X%XI.%X%X*X*X;X+X+X>X>XOX X].'.'.].}.8Xl.l.j.j.j.j.j.j.j.j.j.j.j.j.j.j.j.j.j.j.j.j.j.h./ / / ( j.j.j.",
"j.j.j.j.j.j.j.j.j.j.j.j.j.j.j.j.j.j.j.j.j.j.j.j.j.j.j.b.!.%X%Xm T.%X*X].].].].;X+X+X X].'.'.%X0X;X4.l.l.j.l.j.j.j.j.j.j.j.j.j.j.j.j.j.j.j.j.j.j.j.X.X.X.X.j.j.j.",
"j.j.j.j.j.j.j.j.j.j.j.j.j.j.j.j.j.j.j.j.j.j.j.j.j.j.j.l.s.}.!.T.T.T.I.T.'.'.'.+X].;X].].'.'.'.T.T.p.l.l.h.j.j.j.j.j.j.j.j.j.j.j.j.j.j.j.j.j.j.j.j.j.j.j.j.j.j.j.",
"j.j.j.j.j.j.j.j.j.j.j.j.j.j.j.j.j.j.j.j.j.j.j.j.j.+.}.W.I./.!.R.I.I.T.T.'.'.'.].].].].;X'.'.T.T.T.R.U.l.j.l.j.j.j.j.j.j.j.j.j.j.j.j.j.j.j.j.j.j.j.j.j.j.j.j.j.j.",
"j.j.j.j.j.j.j.j.j.j.j.j.j.j.j.j.j.j.j.j.j.j.j.j.-.H.<X'.I.7X%XI.I.I.T.T.T.'.'.].'.+X].;X].'.'.Y.T.T.R.n.l.j.j.j.j.j.j.j.j.j.j.j.j.j.j.j.j.j.j.j.j.j.j.j.j.j.j.j.",
"j.j.j.j.j.j.j.j.j.j.j.j.j.j.j.j.j.j.j.j.j.j.j.j.O.d h F.F.F.G.G.I.H.H.T.T.'.'.].].+X].].].'.].Y.T.T.!./._.p.j.j.j.j.j.j.j.j.j.j.j.j.j.j.j.j.j.j.j.h.j.j.l.j.j.j.",
"j.j.j.j.j.j.j.j.j.j.j.j.j.j.j.j.j.j.j.j.j.j.j.j.-.Y. X].!.~.E.I.T.H.H.H.T.T.T.T.].]. X]. X]. X}.Y.=X&X4X&X|.u.l.j.j.j.j.j.j.j.j.j.j.j.j.j.j.j.j.j.j.j.j.j.j.j.j.",
"j.j.j.j.j.j.j.j.j.j.j.j.j.j.j.j.j.j.j.j.j.o.&.q.<X;X*XI.F.}.!.9.m m H.H.P.T.P.]..X X}. X*X*X}..X!.%X~.9X9XrXN 1.j.j.j.j.j.j.j.j.j.j.j.j.j.j.j.j.j.j.j.j.j.j.j.j.",
"j.j.j.j.j.j.j.j.j.j.j.j.j.j.j.j.j.j.j.j.j.9 v c 0 0 w e 0 5 i 6.7.m H.H.H.7.T.%XE..X X X;X X:XE.I.=X XM k u i 6 j.j.j.j.j.j.j.j.j.j.j.j.j.j.j.j.j.j.j.j.j.j.j.j.",
"j./ / ( j.j.j.j.j.j.j.j.j.j.j.j.j.j.j.j.j.j.j.h.K.n n n x 7 r.y.H.7.H.H.H.I.h H.*X.X*X@X,X:X=X9X&X:X:X7.c 4 | o.j.j.j.j.j.j.j.j.j.j.j.j.j.j.j.j.j.j.l.j.j.j.l.j.",
"j./ / / j.j.j.j.j.j.j.j.j.j.j.j.j.j.j.j.j.j.j.` m b x b z q W.5.i F..X_.H.!.G.'.*XN E.:X@X,X!.z z z w t 6 2 < 1 | h.j.j.j.j.j.j.j.j.j.j.j.j.j.j.j.j.j.j.j.j.j.j.",
"j./ / / j.j.j.j.j.j.j.j.j.j.j.j.j.j.j.j.j.j.j.p K.K.g f u 6 v 5 k G. X].m f q ~.:XN c E.4X9XK.k z z z 7 6 6 6 t 6 ` h.j.j.j.j.j.j.j.j.j.j.j.j.j.j.j.j.j.j.j.j.j.",
"j./ / / j.j.o./ ( } j.j./ / / o.j.j.j.j.j.) J.W.7.j h g u 8 6 k z e /.~.b w x z x x n x i 6 c 7 7 q q q t t a c r.r.4.j.j.j.h./ / j.j.j.j.j.j.j.j.j.j.j.j.l.j.j.",
"j.X.X.X.j.j.o./ / ( X.X./ / / o.j.j.j. .<.I.0.9.9.j j h i i u x z z 5 4 w z x x N x l k 9 6 7 9 9 t i a s B 5.7.0.v e.j +.X.} / ( j.j.j.j.j.j.j.j.j.j.j.j.j.j.j.",
"j.j.j.j.j.j.o./ / / / / / / / o.j.-.s.].].5.=XP.9.r.a W.G.h h h x k q 0 0 0 u f i c a c i t t l 8.5.6.6.3.2.0.r.E.7.c $.$./ / / / j.j.j.j.j.j.j.j.j.j.j.j.j.j.j.",
"j.j.j.j.j.j.o./ / / / / / / / o.Y.jXgX.Xh 9 u *XY.6.i 7.8.j m h c i q 6 8 8 t t i a a s s 2.2.6.6.y.s.t.y.e.y.|.r.7.I.a %./ / / / j.j.j.j.j.j.j.j.j.j.j.j.j.j.j.",
"j.j.j.j.j.j.o./ / / / / / / / o.h.h.j.+.2 k 0 0 6 J.P.P.U.P.9.7.7.h v g u i f h c 2.5.6.6.e.e.y.s.{.{.y..Xr.qX*XwXR.R.^.J.x 6 ' / j.j.j.j.j.j.j.j.j.j.j.j.j.j.j.",
"j.j.j.j.j.j.o./ / / / / j.j.j.j.j.j.k.a i k f f M -XY.}.=Xr H.2.7.h W.v 7.8.0.7.7.9.6.6.e.e.Y..X_.f.@X@X:X.X9X&XqX3X!.|.L.2 6 t y +.j.j.j.j.j.j.j.j.j.j.j.j.j.j.",
"j.j.j.j.j.j.o./ / / / / j.j.j.j.*.1.9.I.7.g g f j !.&XW.h 2.H.h 9.y v m F.G.I.0.0.9.6.r.r.'.}.I..Xf.{.r..XE.K.&X5XM 5.b 9 q f f i O.j.j.j.j.j.j.j.j.j.j.j.j.j.j.",
"j.j.j.j.j.j.j.j.j.o./ / j.j.$.t I.]._.y i u h b g f u u f q r G.*XY.a 9.h F.G.I.5.r.!.0.e.s a 3..Xy..Xi t t k x x x z q 0 f f t O.j.j.j.j.j.j.j.j.j.j.j.j.j.j.j.",
"j.j.j.j.j.j.j.j.j.o./ / j.j.j.h.j P.Y.T.T.F.H.F.m h g x g g h =X]..X7.9.5.~.E.=XE. X8XW.%XY.q g k t 8 9 6 9 u i x f g c m 9.9.a s k.j.j.j.j.j.j.j.j.j.j.j.j.j.j.",
"j.j.j.j.j.j.j.j.j.h.X.X.j.j.y !.+XT.'.-X%X!.T.R.I.H.F.7.m b h f t u t i 0.:X X8XE.R.R.l i i f g l k q u i u c v 7.m m m m H.P.4.&.;.j.j.j.j.j.j.j.j.j.j.j.j.j.j.",
"j.j.j.j.j.j.j.j.j.j.j.j.j._ hX;XgX>X Xr.E.9X|.}.!.I.0.F.9.c g h b c b h i U.*XT.9.b b x b b 8.F.5.m m j m 0.I.}.P.Y.P._.Y.r.}.:X&.h.j.j.j.j.j.j.j.j.j.j.j.j.j.j.",
"j.j.j.j.j.j.j.j.j.j.j.j.j.h.a h 5.c q ~..X6X9X4XK.&XE.G.G.7.m M H.H.F.m g 8 i i v 7.7.F.H.I.P.Y.Y.I.I.I.y.I.%X].'.U.P.Y.I.XXY.a 5.1.j.j.j.j.j.j.j.j.j.j.j.j.j.j.",
"j.j.j.j.j.j.j.j.j.j.j.j.j.j.j.j.+.a 9 c K.~.<X8X&XW.!.%X5XG.F.P.P.P.P.F.8.9.5.P.P._.'.].].].`.'.].'._.y._.Y.q.U.`. XY.}.q.i p r <.+.j.j.j.j.j.j.j.j.j.j.j.j.j.j.",
"j.j.j.j.j.j.j.j.j.j.j.j.j.j.j.j.8 u i x n 7X6XK.rX:X*XY.=XW.}.P.I.%XP.P.U.!.].e.].+X>XgXoXoX].].;X].].y 8 a s q r a a 9 4 ) +.j.h.j.j.j.j.j.j.j.j.j.j.j.j.j.j.j.",
"j.j.j.j.j.j.j.j.j.j.j.j.c.c.c.j.2 k l k k k k m 1X;X;X9.9.&X'.3.%X=XY.P.Y.!. XE.].+X+X0X#X+X].].eXoX`.i i q 9 i x u u 0 0 q p O.j.j.j.j.j.j.j.j.j.j.j.j.j.j.j.j.",
"j.j.j.j.j.j.j.j.j.j.j.j.V.V.z.l c v N N x k l i '.P.K.q r h F.P.1X;X+XP._.P.a R._.:X_.v #X,X6.Y.0XpXt.r g i x b b b c z f M R.I.u.j.j.j.j.j.j.j.j.j.j.j.j.j.j.j.",
"j.j.j.j.j.j.j.j.j.j.j.j.V.C.B 8.5.7.N c c i u u 6 q q t q 9 9 y R.pXpXr.:X+X].i n /.i f m r.2.U.1X#X6.h i x b n M M N N M M M 3X4XE.j.j.j.j.j.j.j.j.j.j.j.j.j.j.",
"j.j.j.j.j.j.j.j.j.j.j.@.4.7.5.8.5.8.7.m m j c x g g y f f t q u i j }.8.4X#X#X5.z u u f l i c 8 a a 5.h h c M M 8.8.M 8.8.R.~.~.&X=Xp.j.j.j.j.j.j.j.j.j.j.j.j.j.",
"j.j.j.j.j.j.j.j.j.j.p.].'.T.G.E.W.E.K.8.7.v j h j h h c b g f u u i i u t /.].j h g g g f i i a a h j 2.5.5.r.r.0.0.8.8.0.^.R.^.&X/.-X*X'.h.j.j.j.j.j.j.j.j.j.j.",
"j.j.j.j.j.j.j.h.m.8X0X:X}.'.=X&X-X&X~.G.8.7.7.m v v m 7.M m m g g g i g g i 8 j j j 2.2.3.3.3.3.2.9.9.e.e.e.y.y.y.r.r.9.0.0.K.W./.&XM M <.h.j.j.j.j.j.j.j.j.j.j.",
"j.j.j.j.j.+.7.Q.J.rX:X X.X0.Q.&X8X8X=X/.~.8.8.8.5.8.K.W.W.G.F.m j j h j 2.3.H.3.4.4.4.t.d.s.f.f.s.s.).t.t.s.{._._.y.r.9.6.0.G.&X5XtXQ.b s j.j.j.j.j.j.j.j.j.j.j.",
"j.j.j.j.k.a G.K.8.<X*X!.I.0.6X=X8X8X=X5XW.9.F.9.F.G.W.Q.~.R.G.7.m m 2.2.H.e.e.4.e.4.4.f.`.d.d.d.d.d.).)._.s.@X{.y..Xt.q.6.0.G.W././.7X2Xz | j.j.j.j.j.j.j.j.j.j.",
"j.j.j.j.j.j.j. ._ <.d u q 7 (.Q.6X:X=X0.I.T.R.G.G.R.!.&X/.!.R.H.H.9.9.e.U.U.).U.P.s.s.4..XXXXXOXOX[.`.`.[.`. X@X`.1X`.).t.r._. X*X<X%XT.F.f f *.j.j.j.j.j.j.j.j.",
"j.j.j.j.j.j.j.j.h.j.| 0 0 0 q q T.%X*X X%XW.I.I.R.T.~.!.%X!.T.Y.P.P.P.P.U.U.).).).).).).f.w.XXXXXX[.XXXXXX`.d.s.r.q.[.[.`.:X].+X1X1X<X1X%Xb f b c 3.j.j.j.j.j.j.",
"c.j.j.j.j.j.j.j.h.r t h f q q u f M %X;X X%X!.W.F.&X~.!.T.T.'.'.'.'.].].`.'.`.oXoX`.XXXX`.XXXXXX[.XXXXXXXXf.OXg.$XwX+XXX[.d Y.4XW.hX1X'.*X/.f x x i E.P.b.h.j.j.",
"j.j.j.j.j.h.y.!.0.i F.g u q z q t ~.R.P.W.H.I.I.h m H.T.T.'.'.].].].+XoX].].].].].].].`.XX`.`.d.[.[.[.XXOXOXq..X,Xr.j P.U.a i q g g (.Q.f q x x b 8.G.!. XT.i.j.",
"j.j.j.j./.*XoX].`.e.i 7.7.c f x u 1 4 6 6 7 0 u ~.T.Y.Y.U.`.].oXU.iX+X+X].].].oXXX{.oX+X`.s.@XXX+X`.[.).OXXX].s s a a y u u r r f f g g x b b F.9.W.!.!.b.j.j.j.",
"j.j.j.;.W.W.Q.W.J.8.i a i a m v f u u q q q u u t i h }.)._.`.oX3.].+XoX].].].oX+X].+X`.`.:XE.@X`.r. Xd t.].`.).a a a a a h h h h h b b Q.F.F.G.G.G.6X8X*X=Xw.j.",
"j.j.j.j.@.O._ 1.5.9.0.m m m m c f i t q u q u u i g h }.)._.`.`.3.3.3.`.;XoX+X].].`.oXXX`.`.a E.0XB s y r r y s h h a h s j j j j j j b b 5X(.I.7.m 8.R.7X%XI.j.",
"j.j.j.j.r Q.*X%XT.Y.I.G.~.8.7.m a g i i u i i f h g t }.e.).U.2.s ].oX3.iX+X>X>X>X X`.).`._.v v a j h g g f i g j 5.2.2.2.H.3.H.2.F.F.F.J.K.T.!.-X%X~.8X!.=.j.j.",
"j.j.j.j. .a H.I.P.F.F.-X%X%XW.H.v j j a i c h g f g t i h 2 t a i r 3.3.iXpXpXpXiX*X.X2.s y g g i h a a h g a h 2.2.3.3.e.).).'.'.%X!.T.!.%X<X'.P.j u.k.j.j.j.j.",
"j.j.h.u.sXpX;X'.&X'.P.Y.Y.I.P.h v c i v v 5.m c i u u u u f u i y g y h W.iXpXoXgX2.u t r i g h v 5.5.j j 3.4.P.U.).).[.[.oX].;X:X/.yXuX8X&XR.:X X X;.h.j.j.j.j.",
"h.)  XgXpXsXu.q.;Xj &X}.}.~.T.I.7.5.7.7.0.F.8.M x u t u f y f y f f u g g f b i g u f f g g h v v 9.9.9.9.P.`.oXsXiX>X#X+X>X>X,X0X0X~.=XtX%X*XF.%X0XP.>.j.j.j.j.",
"j.+.' ' | l.j.h.+.!.8XR.5.m G.'.h 7.G.E.R.W.R.G.b c i f g h h h g u u u g g h g g h j c j j 5.5.9.9.r.Y.P.%X].].*X0X+X+X#X>X>X;X:X!.=X0X0X<X&XpXiX;Xj.j.j.j.j.j.",
"j.j.j.j.j.j.j.j.j.h.h.j.` 4X;X*Xm Y.G.W.~./././.!.}.T.I.I.9.8.7.v h h h v c c c c m 5.7.5.9.R.8.9.G.T.G.G.6X X].].~.].+X X0XiX>X8Xp.F.:XiXsX0X!.fXkXi.j.j.j.j.j.",
"j.j.j.j.j.j.j.j.j.j.j.#.N 8X;X;Xh 2.8.!.&X5X&X&X%X=X%X!.!.I.9.9.5.v 7.7.7.7.m m b 7.9.9.7.9.~.9.H.R.Q.G.M -X X%X].!.%X+X+X5.=XjX=Xi.) x *XiXsXu.3.7.A.j.j.j.j.j.",
"j.j.j.j.j.j.j.j.j.j.j.) K.0XgX.X+X>X1X<X4X/.yXtXuX8X8X-X4X}.T.T.G.9.T.Y.I.G.G.R.G.G.P.H.r.9.m 8.J.M G.T.F.v <X*X:Xg.:.T.'.l.j.l.l.j.l.l.k.i.d.k.j.j.j.j.j.j.j.j.",
"j.j.j.j.j.j.c.M.M.M.j.h.b.| $.9.dXkXsXeX0XK.W.7XeXrXeXeXeX5XW.P.P.j I.F.Y.T.I.%XT.-XI.(.Y.I.9.0.F.&XR. X=XG.c 8.v k.j.j.j.j.h.l.h.l.j.j.j.j.j.j.j.j.j.j.j.j.j.j.",
"j.j.j.j.j.j.c.V.V.B.j.j.V.V.Z.s dXaX].:XG.>.E.hXjXjX4X>.h.B 4X'.'.T.5.&X'.%X%XK.5XR.'.F.0XG.!..X!.e 2XeX;X5.l.j.l.j.h.l.j.l.h.l.l.j.j.l.j.j.j.j.j.j.j.j.j.j.j.j.",
"j.j.j.j.j.j.c.V.V.B.j.j.V.V.V.c.j.j.h.*.h.j.j.h.O./ / o.j.w ^.9X/.O w eX,X>X;Xo + T. XF.n + J.3XwXG % @.k.k.j.j.j.j.j.j.j.j.j.j.j.l.j.j.j.l.l.j.l.j.j.j.j.j.j.j.",
"j.j.j.j.j.j.j.c.c.v.B.B.c.c.c.c.j.j.j.j.j.j.j.j.h.o.h.h.j.T D * . X O %XsXgXrX& : X     . : G J Z H , h.j.j.j.j.j.l.j.l.l.j.l.j.j.j.j.j.j.j.j.j.j.j.j.j.j.j.j.j.",
"j.j.j.j.j.j.j.j.j.c.V.V.j.j.j.j.j.j.j.j.j.j.j.j.j.j.j.j.+.T : : @ @ X + Q.U ; > D %     & = T R K F L h.j.j.j.j.j.j.j.j.j.j.j.j.j.j.l.j.j.j.j.j.j.j.j.j.j.j.j.j.",
"j.V.V.V.j.j.j.j.j.c.V.V.j.j.j.j.j.j.j.j.j.j.j.j.j.j.j.j.3 D A = # # # # A Q T K L ; $ . & ; Q W L ; P [ j.j.j.j.j.j.j.j.j.j.j.j.j.j.j.j.j.j.j.j.j.j.j.j.j.j.j.j.",
"j.V.V.V.j.j.j.j.j.c.V.V.j.j.j.j.j.j.j.j.j.j.j.j.j.j.j.j.C F A = * % = = A J T K T F # X & ; ~ ~ E ; J Y j.j.j.j.j.j.j.j.j.j.j.j.j.h.j.j.j.j.j.j.j.j.j.j.j.j.j.j.",
"j.V.V.V.j.j.j.j.j.c.V.V.j.j.j.j.j.j.j.j.j.j.j.j.j.j.j.I L R H - = = = = A ! Q R ! J = = ; A W ~ ^ A A W ..j.j.j.j.j.j.j.j.j.j.j.j.j.j.j.j.j.j.j.j.j.j.j.j.j.j.j.",
"j.V.V.V.j.j.j.j.j.c.V.V.j.j.j.j.j.j.j.j.j.j.j.j.j.j.j.I H J H - - Z Z = H J R Q ^ R Z ; , A P W Q A K I j.j.j.j.j.j.j.j.j.j.j.j.j.j.j.j.j.j.j.j.j.j.j.j.j.j.j.j.",
"j.V.V.V.j.j.j.j.j.j.j.j.j.j.j.j.j.j.j.j.j.j.j.j.j.j.j.j.j...I Z Z A Z Z J R W ~ W R A A Z Z A W P ,.h.j.j.j.j.j.j.j.j.j.j.j.j.j.j.j.j.j.j.j.j.j.j.j.j.j.j.j.j.j.",
"j.j.j.j.j.j.j.j.j.j.j.j.j.j.j.j.j.j.j.j.j.j.j.j.j.j.j.j.j.j.j...Z A Z Z A R R ~ W R A Z Z Z A P J j.j.j.j.j.j.j.j.j.j.j.j.j.j.j.j.j.j.j.j.j.j.j.j.j.j.j.j.j.j.j.",
"j.j.j.j.j.j.j.j.j.j.j.j.j.j.j.j.j.j.j.j.j.j.j.j.j.j.j.j.j.j.j.j.h.3 Z S A R P W W J C { j.+.,.,.x.j.j.j.j.j.j.j.j.j.j.j.j.j.j.j.j.j.j.j.j.j.j.j.j.j.j.j.j.j.j.j.",
"j.j.j.j.j.j.j.j.j.j.j.j.j.j.j.j.j.j.j.j.j.j.j.j.j.j.j.j.j.j.j.j.j.j.h.{ C P P V [ j.j.j.j.j.j.j.j.j.j.j.j.j.j.j.j.j.j.j.j.j.j.j.j.j.j.j.j.j.j.j.j.j.j.j.j.j.j.j."
};
