/* XPM */
static char *wall_tree_5_bN4Rf[] = {
/* columns rows colors chars-per-pixel */
"40 40 197 2 ",
"   c #010801",
".  c #1C120F",
"X  c #15180D",
"o  c #1C1613",
"O  c #1B1913",
"+  c #221B14",
"@  c #241C1B",
"#  c #291E1A",
"$  c #211717",
"%  c #381E1B",
"&  c #122A0C",
"*  c #15370E",
"=  c #113F0C",
"-  c #1E2C13",
";  c #1A3712",
":  c #0D2909",
">  c #212A15",
",  c #23221A",
"<  c #2C231C",
"1  c #212B18",
"2  c #322317",
"3  c #31261E",
"4  c #322A1F",
"5  c #243B14",
"6  c #2B341C",
"7  c #243519",
"8  c #322622",
"9  c #3C2623",
"0  c #352A23",
"q  c #3B2D24",
"w  c #392D29",
"e  c #3B3127",
"r  c #353D22",
"t  c #3B3A23",
"y  c #353328",
"u  c #3D322A",
"i  c #333624",
"p  c #47321F",
"a  c #432C24",
"s  c #452F2B",
"d  c #443423",
"f  c #4F3824",
"g  c #43352C",
"h  c #4A362A",
"j  c #443B2D",
"k  c #4B3A2C",
"l  c #473525",
"z  c #553F2B",
"x  c #503B25",
"c  c #463631",
"v  c #4B3631",
"b  c #443A32",
"n  c #4B3D34",
"m  c #513D33",
"M  c #12480B",
"N  c #035302",
"B  c #055C03",
"V  c #0E5609",
"C  c #194211",
"Z  c #1E4B11",
"A  c #1D5213",
"S  c #0B4508",
"D  c #274819",
"F  c #294F1A",
"G  c #30401D",
"H  c #314E1F",
"J  c #255B19",
"K  c #016500",
"L  c #016A01",
"P  c #19650F",
"I  c #007300",
"U  c #007A00",
"Y  c #15790D",
"T  c #1B6612",
"R  c #1E7914",
"E  c #28681A",
"W  c #227C15",
"Q  c #25771A",
"!  c #30751C",
"~  c #3A4C2A",
"^  c #374523",
"/  c #2E5720",
"(  c #2F6721",
")  c #326A24",
"_  c #3F6E2C",
"`  c #3A7F2B",
"'  c #414B2F",
"]  c #54422E",
"[  c #514C2C",
"{  c #5B472D",
"}  c #4B552E",
"|  c #505628",
" . c #4C4434",
".. c #534234",
"X. c #5B4632",
"o. c #5E4932",
"O. c #53443A",
"+. c #544F3C",
"@. c #5B4C3E",
"#. c #4C5535",
"$. c #56573D",
"%. c #62482D",
"&. c #624B35",
"*. c #634D3B",
"=. c #694D3C",
"-. c #674B38",
";. c #6C5135",
":. c #64523D",
">. c #69523D",
",. c #74553B",
"<. c #75583C",
"1. c #7D5F3B",
"2. c #4A672C",
"3. c #766139",
"4. c #5E4F41",
"5. c #5E5545",
"6. c #6A5442",
"7. c #6D5B43",
"8. c #685549",
"9. c #655749",
"0. c #745C45",
"q. c #7B5E43",
"w. c #725D4B",
"e. c #5B7640",
"r. c #776046",
"t. c #7D6448",
"y. c #7E7445",
"u. c #7F6953",
"i. c #7B6857",
"p. c #7F7059",
"a. c #806937",
"s. c #836A4C",
"d. c #8E6E4C",
"f. c #876848",
"g. c #95754D",
"h. c #836D57",
"j. c #8B6E51",
"k. c #826959",
"l. c #8B765A",
"z. c #93745A",
"x. c #9F7D5A",
"c. c #A07E52",
"v. c #967F61",
"b. c #967966",
"n. c #018301",
"m. c #008D00",
"M. c #12840D",
"N. c #138C0C",
"B. c #009500",
"V. c #019C00",
"C. c #0B9407",
"Z. c #13960D",
"A. c #129B0C",
"S. c #18950F",
"D. c #1A8712",
"F. c #1C8B12",
"G. c #1B9A13",
"H. c #288717",
"J. c #208516",
"K. c #24981B",
"L. c #00A500",
"P. c #01AC01",
"I. c #0BAD06",
"U. c #0DAD09",
"Y. c #13A60D",
"T. c #10AE0A",
"R. c #00B100",
"E. c #02BB01",
"W. c #09BC06",
"Q. c #0FB20B",
"!. c #0CB608",
"~. c #10B10C",
"^. c #19BA13",
"/. c #25A51A",
"(. c #3B8426",
"). c #39A528",
"_. c #548C3B",
"`. c #01C501",
"'. c #00CA00",
"]. c #00D400",
"[. c #00E400",
"{. c #00F200",
"}. c #00FE00",
"|. c #598E45",
" X c #68824A",
".X c #7E8E5B",
"XX c #9C825E",
"oX c #A48255",
"OX c #9B8268",
"+X c #9F9E71",
"@X c #AB8B65",
"#X c #AF916E",
"$X c #AD9A6E",
"%X c #B19878",
"&X c #B69767",
"*X c #C6A980",
"=X c #CAB192",
/* pixels */
"'.'.'.'.'.'.'.'.'.'.'.Y.'.'.'.'.'.'.'.'.'.'.'.'.7.!.'.'.'.'.'.'.'.'.'.'.'.'.'.'.",
"'.'.'.'.'.'.'.'.'.'.'._ '.'.'.'.'.'.'.'.'.'.'.'.} W '.'.'.'.'.'.'.'.'.'.'.'.'.'.",
"'.'.'.'.'.'.'.'.|.'.^.U.'.'.'.'.'.'.'.'.'.'.'.'.} t '.'.'.'.'.'.'.'.'.'.'.'.'.'.",
"'.'.'.'.'.'.'.'.].2.j '.'.}.'.}.}.'.'.'.'.'.'.'.:.r '.'.'.'.'.'.B.R.'.'.'.'.'.'.",
"'.'.'.'.'.'.'.'.'.'.#.~.'.}.'.}.}.'.'.'.'.'.'.'.7.A.'.'.'.'.'.'.B.R.'.'.'.'.'.'.",
"'.'.'.'.'.'.'.'.'.}.Y.H '.'.}.'.'.'.'.'.'.'.'.^ 4 '.'.'.B.B.E.B.'.'.L.B.B.B.'.'.",
"'.'.'.'.'.'.'.'.'.}.'.3.`.'.}.'.'.'.'.'.'.'.!...D '.'.'.B.B.E.B.'.'.L.B.B.B.'.'.",
"'.'.'.'.'.'.'.'.'.'.L.k s.`.'.'.'.'.'.'.'.`.$.n '.'.'.'.B. XQ.'.'.`.L.B.B.B.'.'.",
"'.'.'.'.'.'.'.'.'.'.'.!.1.m W.'.'.'.'.'.`.b O.F '.'.'.`.h.w  .E I.'.'.'.M.~ #.'.",
"'.'.'.'._.'.'.'.'.'.'.'.S.c.$ '.'.'.'.'.y f 0 `.'.'.9.7.Q '.'.'.A.2.n 0 c / '.'.",
"'.'.'.'.'.k.'.'.'.'.'.'.'.E f.6 '.'.W.#...l 6 '.F.b.2 A.F.R T < ;., t '.'.'.'.'.",
"' b n +.(.W OX'.'.'.'.'.'.'.+ o.1 '.'.} ] ] 6 '.b.< +.O.j o d d.@ 2.!.`.'.'.'.'.",
"'.'.'.'.'.U. .n k.+X(.H.F.! 3 k f h '.i a %.E. XN.'.'.`.S ,.+ D.W J.E / u F.'.'.",
"B.'.'.'.'.'.'.'.W.D.^ O.5.8.@.o 5.y [ O 2 z 4.i '.'.I.< ;.M '.'.'.'.'.'.'.'.'.'.",
"B.'.'.'.'.'.'.'.'.'.'.'.'.W.5 O.b p.@.s h g E.'.'.N.u.{ ; ~.K.`.'.'.'.'.'.'.'.'.",
"R.^.E.B.R.B.B.'.'.'.'.'.'.'.'.'.- n X.4 k 0 ~.'.4.j < '.'.'.P.B.'.R.'.I.A Z '.'.",
"'.)./.B.B.B.B.'.'.'.'.'.'.'.'.'.'.7 g n 6.v G.E.9.< `.'.'.'.B.B.'.7 7 A.'.'.'.'.",
"'.'.8 w.b.XX| o.Z Y `.'.G.r '.'.'.( 9 a 4.0 Y y g N.'.R.'.'.B.5 [ : `.'.'.'.'.'.",
"'.'.'.`.) < @ b v m o.%.&.a...`.'.w s -.q b @ 0 , '.'.L.T 6 c.a 3 '.'.'.'.'.'.'.",
"'.'.` O.5.b '.'.'.'.'.# 3 0 8 3./ o z.*.O.e c $ o +.l -.. ; Z.'.`.!.'.'.'.'.'.'.",
"'.'.'.'.'.'.'.'.'.'.'.'.'.M.O v g 0 $X@Xn 8 w o # u J G.~.W.'.'.'.'.'.'.'.'.'.'.",
"'.'.'.'.'.'.'.'.'.'.'.'.'.'.'.# < 9 b.OXw.b 8 . C D.D.T A / '.'.'.'.'.'.'.'.'.'.",
"'.'.'.'.'.}.}.'.}.'.'.$.O.n u w + m l.X.m p.o 4.8 '.'.'.'.'.'.'.'.'.'.'.'.'.'.'.",
"'.'.'.'.'.}.}.}.}.'.{.}.}.}.'.`.< 6.v =Xg u c w < '.'.'.'.'.'.'.'.'.'.'.'.'.'.'.",
"'.'.'.'.'.}.}.}.}.'.{.}.}.}.'.'.# v 6.h.h.# ..8 T '.'.'.'.'.'.'.'.'.'.'.'.'.'.'.",
"'.'.'.'.'.'.'.[.'.R.R.'.[.'.[.`.h m 6.u.@.e O ..'.'.'.'.'.'.'.'.'.'.'.'.'.'.'.'.",
"'.'.'.'.'.'.'.'.'.B.B.R.'.'.'.C.6.@.n w.n n $ $ '.'.'.`.L.'.'.'.'.'.'.'.'.'.'.'.",
"'.'.'.'.'.'.'.'.'.R.V.R.'.V.P.r ..z a d.8.5.0 %.'.'.'.L I '.'.'.'.'.'.'.'.'.'.'.",
"'.'.'.'.'.'.'.'.'.'.'.'.'.'.P.m 6.&.s q.m u 0 0 S V.K m.'.'.{.'.'.'.'.B.V.'.'.'.",
"'.'.'.'.'.'.'.'.'.`.'.'.`.'.W.:.h f ,.l.u.g q e < B.'.[.E.K R.L.R.B.E.B.n.U P.'.",
"'.'.'.'.`.R.P.B.m.n.L U n.P.i j.m k g.% ] c 0 *.z l n.L.'.n.K L U U n.m.B.`.'.'.",
"'.'.'.'.'.'.'.'.'.'.'.'.I L 4.X.X.m f.c.e 6.q k e ] & L N.L.P.E.'.E.n.'.'.`.'.'.",
"'.'.'.'.'.R.I n.B.B.B.B.B., XX..q #X>.q.OXc g k h 3 k B K `.I I K L B.P.R.'.'.'.",
"'.'.].[.E.V.V.L.`.'.R.P.O 6.< &.# *X*.%X#X:.4 3 0.s...z B L L '.'.'.'.'.'.'.'.'.",
"'.'.].}.'.}.}.'.'.'.E.7 *.w.<.u 0 7.@Xs.0 w O.+ ] 2 h *.8 B K K L U E.'.'.'.'.'.",
"'.'.'.'.}.'.'.'.'.E.L - , > + O b &Xh w 6.m 0 o < >.*...4 C K R.'.'.'.'.'.'.'.'.",
"}.'.'.'.}.'.'.'.'.`.L K K K = # c z.j.g.j o.u $ < 4 6.g : K L.'.'.'.'.'.'.'.'.'.",
"}.'.'.'.}.'.'.'.'.'.'.E.E.E.N * v.OXOX>.r...8 V K K K L K L.'.'.'.'.'.'.'.'.'.'.",
"'.'.'.'.'.'.'.'.'.'.'.'.'.'.'.K @ 8.x.u.f.q * K K K L B.`.'.'.'.'.'.'.'.'.'.'.'.",
"'.'.'.'.'.'.'.'.'.'.'.'.'.'.'.'.n.  0 8 o N.'.`.'.'.'.'.`.'.'.'.'.'.'.'.'.'.'.'."
};
