/* XPM */
static char *a3463cc00a544ae291585c3045179d2bZbitzG0RKvHECCeg[] = {
/* columns rows colors chars-per-pixel */
"80 163 12 1 ",
"  c #200A15",
". c #46272D",
"X c #077E19",
"o c #125520",
"O c #6C483E",
"+ c #8A6B4D",
"@ c #0D9919",
"# c #1F832F",
"$ c #27B82F",
"% c #05D11B",
"& c #0FFF1B",
"* c #5CDA3A",
/* pixels */
"$$$$$$$$$$$$$$$$$$$$$$$$$$$$$$$$$$$$$*$$$$$$$**$$$$$$$$$$$$$$$$$$$$$$$$$$$$$$$$*",
"$$$**$$$$$$$$$$$$$$$**$$$$$$$$$$$$$$$#**$$$$$$$$$$$$$$$$$*$$$$$$$$$$$$$$$$*$$$$$",
"$$$**$$$$$$$$$$$$$$$**$$$$$$$$$$$$$$$#**$$$$$$$$$$$$$$$$$*$$$$$$$$$$$$$$$$*$$$$$",
"*$$****$**$$$$$$$$$$**$$$$$$$$$$$$$$$$**$$**$$$$$$$$$**$$***$$*$$$$$$$$$$$*$$$$$",
"*$$****$**$$$$$$$$$$**$$$$$$$$$$$$$$$$**$$**$$$$$$$$$**$$***$$*$$$$$$$$$$$*$$$$$",
"*OO*******$$$$$$$$$$##$$$$$$$$$$$$$$$$##$$**$$$$$$$$$**********$$$$$$$$$$$#$$$$O",
"*OO*******$$$$$$$$$$##$$$$$$$$$$$$$$$$##$$**$$$$$$$$$**********$$$$$$$$$$$#$$$$O",
"#++OO##*##$$$**$$$$$$$$$$$$$**$$$$$$$$$$$$$$$$$$$$$$$##***##**#$$$$**$$$$$$$$$$.",
"$++OO###$$$$$$$$$$$$$$$$$$$*##$$$$$$$$$$$$$$$$$$$$$$$$$#######$$$$$$$$$$$$$$$$$.",
"$++OO###$$$$$$$$$$$$$$$$$$$*##$$$$$$$$$$$$$$$$$$$$$$$$$#######$$$$$$$$$$$$$$$$$.",
"$OO##$$$$$$$$$$$$$$$$$$$$$$*$$$$$$$$$$$$$$$$$$$$$*$$$$$$$$$$$$$$$$$$$$$$$$$$$##.",
"$OO##$$$$$$$$$$$$$$$$$$$$$$*$$$$$$$$$$$$$$$$$$$$$*$$$$$$$$$$$$$$$$$$$$$$$$$$$##.",
"+OO$$$$$$$$$$$$**$$$$$$$$$$#$$$$$$$$$$$$$$$$$$$$$$$$$$$$$$$$$$$$$$$$$*$$$$$$$..O",
"O##$$$$$$$$$$**##$$$$$$$$$$$$$$$$$$$$$$$$$$$$$$$$$$$$$$$$$$$$$$$$$$**#$$$$$$$..O",
"O##$$$$$$$$$$**##$$$$$$$$$$$$$$$$$$$$$$$$$$$$$$$$$$$$$$$$$$$$$$$$$$**#$$$$$$$..O",
"O$$$$$$$$$**$**$$$$$$$$$$$$$$$$$$$$**$$$$$$$$$$$$$$$$$$$$$$$$$$**$$**$$$$$$$$##.",
"O$$$$$$$$$**$**$$$$$$$$$$$$$$$$$$$$**$$$$$$$$$$$$$$$$$$$$$$$$$$**$$**$$$$$$$$##.",
"O$$$$$$$$$##$##$$$****$$$$$$$$$$*$$***$$**$$$**$$$$$$$$$$$$$$$$##$$##$$$$$$$$$$.",
"O##$$$$$$$$$$$$$$$****$$$$$$$$$$**********$$$**$$$$$$$$$$$$$$$$$$$$$$$$$**$$$$$.",
"O##$$$$$$$$$$$$$$$****$$$$$$$$$$**********$$$**$$$$$$$$$$$$$$$$$$$$$$$$$**$$$$$.",
"+OO$$$$$$$$$$$$$$$$$$$$$$$$$$$$$#**##***##$$$##$$$$$$$$$$$$$$$$$$$$$$$$$$$$$$##.",
"+OO$$$$$$$$$$$$$$$$$$$$$$$$$$$$$#**##***##$$$##$$$$$$$$$$$$$$$$$$$$$$$$$$$$$$##.",
"+OO##$$*$$$$$$$$$$$$$$$$$$$$$$$$$#######$$$$$$$$$$$$$$$$$$$$**$$$$$$$$$$$$$$$..O",
"+++..$$$$$$$$$$$$$$$$$$$$$$$$$$$$$$$$$$$$$$$$$$$$$$$$$$$$$$$$$$$$$$$$$$$$$$$$..O",
"+++..$$$$$$$$$$$$$$$$$$$$$$$$$$$$$$$$$$$$$$$$$$$$$$$$$$$$$$$$$$$$$$$$$$$$$$$$..O",
"OOO..$$$$$$$$$$$$$$$$$$$$$$$$$$$$$$$$$$$$$$$$$$$$$$$$$$$$$$$$$$$$$$$$$$$$$$$$..O",
"O..##$$$$$$$$$$$$$$$$$$$$$$$$$$$$$$$$$$$$$$$$$$$$$$$$$$$$$$$$$$$$$$$$$$$$$$$$..O",
"O..##$$$$$$$$$$$$$$$$$$$$$$$$$$$$$$$$$$$$$$$$$$$$$$$$$$$$$$$$$$$$$$$$$$$$$$$$..O",
"O..$$$$$$$$$$$$$$$$$$$**$$$$**$$$$$$$$$$$$$$$$$$$$$$$$$$$*$$$$$$$$$$$$$$$$$$$##.",
"O..$$$$$$$$$$$$$$$$$$$**$$$$**$$$$$$$$$$$$$$$$$$$$$$$$$$$*$$$$$$$$$$$$$$$$$$$##.",
"O..##$$$$$$$$$$$$$$$$$**$$$$**$$$$$$$$$$$$$$$$$$$$$$$**$$***$$$$$$$$$$$$$$$$$$$.",
"O..##$$$$$$$$$$$$$$$$$**$$$$**$$$$$$$$$$$$$$$$$$$$$$$**$$***$$$$$$$$$$$$$$$$$$$.",
"OOO..$$$$$**$$$$$$$$$$##$$$$##$$$$$$$$$$$$$$$$$$$$$$$##***##$$$$$$$$$$**$$$$$##.",
"OOO..$$$**##$$$$$$$$$$$$$$$$$$$$$$$$$$$$$$$$$$$$$$$$$$$###$$$$$$$$$**$****$$$  O",
"OOO..$$$**##$$$$$$$$$$$$$$$$$$$$$$$$$$$$$$$$$$$$$$$$$$$###$$$$$$$$$**$****$$$  O",
"OOO  $$$**$$$$$$$$$$$$$$$$$$$$$$$$$$$$$$$$$$$$$$$$$$$$$$$$$$$$$$$$$*******$##..O",
"OOO  $$$**$$$$$$$$$$$$$$$$$$$$$$$$$$$$$$$$$$$$$$$$$$$$$$$$$$$$$$$$$*******$##..O",
"O..$$$$$##$$$$$$$$$$$$$$$$$$$$$$$$$$$$$$$$$$$$$$$$$$$$$$$$$$$$$$$$$##***##$..OOO",
"O..##$$$$$$$$$$$$$$$$$$$$$$$$$$$$$$$$$**$$$$$$$$$$$$$$$$$$$$$$$$$$$$$###$$$  OOO",
"O..##$$$$$$$$$$$$$$$$$$$$$$$$$$$$$$$$$**$$$$$$$$$$$$$$$$$$$$$$$$$$$$$###$$$  OOO",
"O  $$$$$$$$$$$$$$$$$$$$$$$$$$$$$$$$**$**$$$$$$$$$$$$$$$**$$$$$$$$$$$$$$$$$$##..O",
"O  $$$$$$$$$$$$$$$$$$$$$$$$$$$$$$$$**$**$$$$$$$$$$$$$$$**$$$$$$$$$$$$$$$$$$##..O",
".##$$$$$$$$$$$$$$$$$$$$$$$$$$$$$$$$**$##$$$$$$$$$*$$$$$$$$$$$$*$$$$$$$$$$$$**  O",
".##$$$$$$$$$$$$$$$$$$$$$$$$$$$$$$$$##$$$$$$$$$$$$$$$$$$$$$**$$***$$**$$$$$*####.",
".##$$$$$$$$$$$$$$$$$$$$$$$$$$$$$$$$##$$$$$$$$$$$$$$$$$$$$$**$$***$$**$$$$$*####.",
"O  $$$$$$$$$*$$$$*$$$$$$$$$$$$$$$$$$$$$$$$$$$$$$$$$$$$$$$$***********$**$$*$$$$.",
"O  $$$$$$$$$*$$$$*$$$$$$$$$$$$$$$$$$$$$$$$$$$$$$$$$$$$$$$$***********$**$$*$$$$.",
"O..##$$$$$$$#**$$*$$$$$$$$$$$$$$$$$$$$$$$$$$$$$$$$$$$$$$$$##**#****##$$$$$#$$##.",
"O  ##$$$$$$$$**$$*$$$$$$$$$$$$$$$$$$$$$$$$$$$$$$$$$$$$$$$$$$#######$$$$$$$$$$  O",
"O  ##$$$$$$$$**$$*$$$$$$$$$$$$$$$$$$$$$$$$$$$$$$$$$$$$$$$$$$#######$$$$$$$$$$  O",
"OOO..$$$$$$$$##$$#$$$$$$$$$$$$$$$$$$$$$$$$$$$$$$$$$$$$$$$$$$$$$$$$$$$$$$$$$$$..O",
"OOO..$$$$$$$$$$$$$$$$$$$$$$$$$$$$$$$$$$$$$$$$$$$$$$$$$$$$$$$$$$$$$$$$$$$$$$$$..O",
"OOO..$$$$$$$$$$$$$$$$$$$$$$$$$$$$$$$$$$$$$$$$$$$$$$$$$$$$$$$$$$$$$$$$$$$$$$$$..O",
"OOO..$$$$$$$$$$$$$$$$$$$$$$$$$$$$$$$$*$$$$$$$**$$$$$$$$$$$$$$$$$$$$$$$$$$$$$$  O",
"OOO..$$$$$$$$$$$$$$$$$$$$$$$$$$$$$$$$*$$$$$$$**$$$$$$$$$$$$$$$$$$$$$$$$$$$$$$  O",
"O  $$$$$$$$$$$$$$$$$**$$$$$$$$$$$$$$$#**$$$$$$$$$$$$$$$$$$$$$$$$$$$$$$$$$$$**##.",
"O  $$$$$$$$$$$$$$$$$**$$$$$$$$$$$$$$$#**$$$$$$$$$$$$$$$$$$$$$$$$$$$$$$$$$$$**##.",
"O..##$$$**$$$$$$$$$$**$$$$$$$$$$$$$$$$**$$**$$$$$$$$$$$$$$$$$$$$$$$$$$$$$$$**$$.",
"O..##**$****$**$$$$$##$$$$$$$$$$$$$$$$##$$**$$$$$$$$$$$$$$**$$$**$$$$$$$$$$##$$.",
"O..##**$****$**$$$$$##$$$$$$$$$$$$$$$$##$$**$$$$$$$$$$$$$$**$$$**$$$$$$$$$$##$$.",
"OOO  **********$$$$$$$$$$$$$**$$$$$$$$$$$$$$$$$$$$$$$$$$$$**$$*##$$$$$$$$$$$$$$.",
"OOO  **********$$$$$$$$$$$$$**$$$$$$$$$$$$$$$$$$$$$$$$$$$$**$$*##$$$$$$$$$$$$$$.",
"OOO..##*##***##$$$$$$$$$$$$*##$$$$$$$$$$$$$$$$$$$$$$$$$$$$**$$*$$$$$$$$$$$$$$##.",
"O..##$$######$$$$$$$$$$$$$$*$$$$$$$$$$$$$$$$$$$$$*$$$$$$$$##$$#$$$$$$*$$$$$$$##.",
"O..##$$######$$$$$$$$$$$$$$*$$$$$$$$$$$$$$$$$$$$$*$$$$$$$$##$$#$$$$$$*$$$$$$$##.",
"O..$$$$$$$$$$$$**$$$$$$$$$$#$$$$$$$$$$$$$$$$$$$$$$$$$$$$$$$$$$$$$**$$***$$*$$  O",
"O..$$$$$$$$$$$$**$$$$$$$$$$#$$$$$$$$$$$$$$$$$$$$$$$$$$$$$$$$$$$$$**$$***$$*$$  O",
"O  $$$$$$$$$$**##$$$$$$$$$$$$$$$$$$$$$$$$$$$$$$$$$$$$$$$$$$$$$$$$**********$$##O",
".####$$$$$$$$##$$$$$$$$$$$$$$$$$$$$$$$$$$$$$$$$$$$$$$$$$$$$$$$$$$##**#****#####.",
".####$$$$$$$$##$$$$$$$$$$$$$$$$$$$$$$$$$$$$$$$$$$$$$$$$$$$$$$$$$$##**#****#####.",
".oo####$$$$$#$$#####$$$$$#####$$$####$######$####$$$$$$$$#$$#####$$############.",
".  oo##################################################$$####################oo.",
".  oo##################################################$$####################oo.",
"...  oo###oo oo   #######oo   ########  oo  ###############################oo  .",
"...  oo###oo oo   #######oo   ########  oo  ###############################oo  .",
".....  o    .  ...oo    o  ...  o    #..  ..o       o#### oo     ####o  oo   ...",
".OOOO.. .....OOOO.  .... ....... ....o...... .......   oo.  .....oo   ..  ..... ",
".OOOO.. .....OOOO.  .... ....... ....o...... .......   oo.  .....oo   ..  ..... ",
".OOOOOOOOO...OOOOO......OOO.OOOO..... ......OOO...OOOOO  .....OOO  ..OOO..OOO.. ",
".OOOOOOOOO...OOOOO......OOO.OOOO..... ......OOO...OOOOO  .....OOO  ..OOO..OOO.. ",
".OOOOOOOOOOO.OOOOO......OOO.OOOOOOO.......OOOOO..OOOOOOOO.....OOOOO..OOOOOOOO.. ",
".OOOOOOOOOOO.OOOOOOO..OOOOOOOOOOOOO.......OOOOO..OOOOOOOOO..OOOOOOO..OOOOOOOO   ",
".OOOOOOOOOOO.OOOOOOO..OOOOOOOOOOOOO.......OOOOO..OOOOOOOOO..OOOOOOO..OOOOOOOO   ",
"O..OOOO.OOOOOOOOOOOO..OOOOOOOOOOOOOOO.....OOOOOOOOOOOOOOOO..OOOOOOO..OOO..O..  .",
"O..OOOO.OOOOOOOOOOOO..OOOOOOOOOOOOOOO.....OOOOOOOOOOOOOOOO..OOOOOOO..OOO..O..  .",
"O..OOOOOOOOOOOOOOOOO..OOOOOOOO..OOOOO.....OOOOOOOOOOOOOOOO..OOOOOOOOOOOOOOO..  .",
"O..OOOOOOOOOOOOOOOOO..OOOOOOOO..OOOOO.....OOOOOOOOOOOOOOOO..OOOOOOOOOOOOOOO..  .",
"O..OOOOOOOOOOOOOOOOO..OOOOOO..OO.OOOO.....OOOOOOOOOO.OOOOO..OOOOOOOOOOOOOOO..  .",
"O..OOOOOOOOOOOOOOOOO..OOOOOOOO..OOOOO.....OOOOOOOOOO.OOOOOOOOOOOOOOOOOOOOOO    .",
"O..OOOOOOOOOOOOOOOOO..OOOOOOOO..OOOOO.....OOOOOOOOOO.OOOOOOOOOOOOOOOOOOOOOO    .",
"O..OO..OOOOOOOOOOOOOOOOOOOOOOOOOOOOOOO..OOOOOOOOOOOO.OOOOOOOOOOOOOOOOOOOOO.    .",
"O..OO..OOOOOOOOOOOOOOOOOOOOOOOOOOOOOOO..OOOOOOOOOOOO.OOOOOOOOOOOOOOOOOOOOO.    .",
"O..OO..OOOOOOOOOOOOOOOOOOOOOOOOOOOOOOO..OOOO.OOOOOOOOOOOOOOOOOOOOOOOOOOOOO.    .",
"O..OO..OOOOO.OOOOOOO..OOOOOOOOOOOOOOOO..OOOO.OOOOOOOOOOOOO..OOOOOOO..OOOOO.    .",
"O..OO..OOOOO.OOOOOOO..OOOOOOOOOOOOOOOO..OOOO.OOOOOOOOOOOOO..OOOOOOO..OOOOO.    .",
"O..OO..OOOOO.OOOOOOO....OOOOOOOOOOOOOO..OOOO.OOOOOOOOOOOO...OOOOOOO..OOOOO...  .",
"O..OO..OOOOO.OOOOOOO..OOOOOOOOOOOOOOOOOOOOOO.OOOOOOOOOOOO...OOOOOOO..OOOOO.OO  .",
"O..OO..OOOOO.OOOOOOO..OOOOOOOOOOOOOOOOOOOOOO.OOOOOOOOOOOO...OOOOOOO..OOOOO.OO  .",
".OOOO..OOOOOOOOOOOOO..OOOOOOOOOOOOOOOOOOOOOOOOOOOO..OOOOO...OOOOOOOOOOOOOO.OO   ",
".OOOO..OOOOOOOOOOOOO..OOOOOOOOOOOOOOOOOOOOOOOOOOOO..OOOOO...OOOOOOOOOOOOOO.OO   ",
".OOOO..OOOOOOOOOO.OO..OOOOOOOOOOOOOOOO..OOOOOOOOOO..OOOOOO..OO.OOOOOOOOOOO.OO.. ",
".OOOO..OOO..OOOOO.OO....OOOOOOOOOOOOOO..OOOOOOOOOO..OOOOOO..OO.OOOOOOOOOOO.OOOO ",
".OOOO..OOO..OOOOO.OO....OOOOOOOOOOOOOO..OOOOOOOOOO..OOOOOO..OO.OOOOOOOOOOO.OOOO ",
".OOOOOOOOOOO.OOOO.OO.....OOOOOOOOOOOOO....OOOOOOOO..OOO.....OO.OOOO...OOOOOOOOO ",
".OOOOOOOOOOO.OOOO.OO.....OOOOOOOOOOOOO....OOOOOOOO..OOO.....OO.OOOO...OOOOOOOOO ",
".OOOOOOOOOOO.OOOOO......OOOOOOOOOOOOOO..OOOOOOOOO.OOOOOOO.....OOOOO..OOO..OOOOO ",
".OOOOOOOOOOO.OOOOOOO....OOOOOOOOOOOOOO..OOOOOOOOOOOOOOOOO...OOOOOOO..O..OO.OO.. ",
".OOOOOOOOOOO.OOOOOOO....OOOOOOOOOOOOOO..OOOOOOOOOOOOOOOOO...OOOOOOO..O..OO.OO.. ",
".OOOOOOOOOOO.OOOOOOO..OOOOO.OOOOOOOOOO....OOOOOOOOOOOOOOOO..OOOOOOO..OOO..OOO  .",
".OOOOOOOOOOO.OOOOOOO..OOOOO.OOOOOOOOOO....OOOOOOOOOOOOOOOO..OOOOOOO..OOO..OOO  .",
"O..OOOO.OOOOOOOOOOOO..OOOOO.OOOOOOOOOO....OOOOOOOOOOOOOOOO..OOOOOOOOOOOOOOOOO  .",
"O..OOOO.OOOOOOOOOOOO..OOOOO.OOOOOOOOOO....OOOOOOOOOOOOOOOO..OOOOOOOOOOOOOOOOO  .",
"O..OOOOOOOOOOOOOOOOO..OOOOO.OOOOOOOOOO....OOOOOOOOOOOOOOOO..OOOOOOOOOOOOOOOOO  .",
"O..OOOOOOOOOOOOOOOOO..OOOOOOOOOOO..OOO..OOOOOOOOOOOO.OOOOOOOOOOOOOOOOOOOOOOOO  .",
"O..OOOOOOOOOOOOOOOOO..OOOOOOOOOOO..OOO..OOOOOOOOOOOO.OOOOOOOOOOOOOOOOOOOOOOOO  .",
"O..OOOOOOOOOOOOOOOOO..OOOOOOOOOOOOOOO...OOOOOOOOOOOO.OOOOO..OOOOOOOOOOOOOOOOO  .",
"O..OO..OOOOOOOOOOOOO..OOOOOOOOOOOOOOO...OOOOOOOOOOOO.OOOOO..OOOOOOOOOOOOOO.OO  .",
"O..OO..OOOOOOOOOOOOO..OOOOOOOOOOOOOOO...OOOOOOOOOOOO.OOOOO..OOOOOOOOOOOOOO.OO  .",
"O..OO..OOOOOOOOOOOOO..OOOOOOOOOOOOOOO...OOOOOOOOOOOOOOOOOO..OOOOOOOOOOOOOO.OO  .",
"O..OO..OOOOOOOOOOOOO..OOOOOOOOOOOOOOO...OOOOOOOOOOOOOOOOOO..OOOOOOOOOOOOOO.OO  .",
"O..OO..OOOOO.OOOOOOO..OOOOOOOOOOOOOOO.OOOOOO.OOOOOOOOOOOOO..OOOOOOO..OOOOO.OO  .",
"O..OO..OOOOO.OOOOOOO....OOOOOOOOOOOOO...OOOO.OOOOOOOOOOOO...OOOOOOO..OOOOO.OO  .",
"O..OO..OOOOO.OOOOOOO....OOOOOOOOOOOOO...OOOO.OOOOOOOOOOOO...OOOOOOO..OOOOO.OO  .",
"O..OO..OOOOO.OOOOOOO....OOOOOO..OOOOO...OOOO.OOOOOOOOOOOO...OOOOOOO..OOOOO.OO  .",
"O..OO..OOOOO.OOOOOOO....OOOOOO..OOOOO...OOOO.OOOOOOOOOOOO...OOOOOOO..OOOOO.OO  .",
".OOOO..OOOOOOOOOOOOO....OOOOOO..OOOOOO..OOOOOOOOOO..OOOOO...OOOOOOOOOOOOOO.OO  .",
".OOOO..OOOOOOOOOO.OO....OOOOOO..OOOOOO..OOOOOOOOOO..OOOOO...OO.OOOOOOOOOOO.OO.. ",
".OOOO..OOOOOOOOOO.OO....OOOOOO..OOOOOO..OOOOOOOOOO..OOOOO...OO.OOOOOOOOOOO.OO.. ",
".OOOO..OOOOOOOOOO.OO....OOOOOOOOOOOOOO..OOOOOOOOOO..OOOOO...OO.OOOOOOOOOOO.OO.. ",
".OOOO..OOOOOOOOOO.OO....OOOOOOOOOOOOOO..OOOOOOOOOO..OOOOO...OO.OOOOOOOOOOO.OO.. ",
".OOOOOOOOOOOOOOOO.OO..OO.OOOOOOOOOOOOO..OOOOOOOOOO..OOOOOO..OO.OOOOOOOOOOOOOO.. ",
".OOOOOOOOOOOOOOOOOOO..OOOOOOOOOOOOOOO.....OOOOOOOO..OOOOOO....OOOOOOOOOOOOOOO  .",
".OOOOOOOOOOOOOOOOOOO..OOOOOOOOOOOOOOO.....OOOOOOOO..OOOOOO....OOOOOOOOOOOOOOO  .",
"X..OOOOOOOOOOOOOOO....OOOOOOOOOOOOOOOO....OOOOOOOO..OOOOOO....OOOOOOOOOOOOOOO  X",
"X..OOOOOOOOOOOOOOO....OOOOOOOOOOOOOOOO....OOOOOOOO..OOOOOO....OOOOOOOOOOOOOOO  X",
"X..OOOOOOOOOOOOOOO....OOOOOOOOOOOOOOOO..OOOOOOOOOOOOOOOOOO....OOOOOOOOOO..O..  X",
"X..OOOOOOOOOOOOOOO....OOOOOOOOOOOOOOOO..OOOOOOOOOOOOOOOOOO....OOOOOOOOOO..O..  X",
"X..OOOOOOO..OOOOOO....OOOOOOOOOOOOOOOO..OOOO.OOOOOOOOOOOOO....OOOOOOOO..OO...  X",
"X..OOOOOOO..OOOOOO....OOOOOOOOOOOOOOOO..OOOO.OOOOOOOOOOOOO..  OOOOOOOOOO..O  ..X",
"X..OOOOOOO..OOOOOO....OOOOOOOOOOOOOOOO..OOOO.OOOOOOOOOOOOO..  OOOOOOOOOO..O  ..X",
"XXX..OOO..OOOOOOO.  ..OOOOOOOOOOOOOOO...OOOOOOOOO.OOOOOOOO..  .OOOOOOOOOOOO  XXX",
"XXX..OOOOO..OOOOO.  ..OOOOOOOOOOOOOOO...OOOOOOOOO.OOOOOOOO..  .OOOOOOOOO..O  XXX",
"XXX..OOOOO..OOOOO.  ..OOOOOOOOOOOOOOO...OOOOOOOOO.OOOOOOOO..  .OOOOOOOOO..O  XXX",
"XXX..OO.OOOOOOOOO.    ..OOO.OOOOOOOOO.  OOOOO..OO.OOOOOOO.    .OOOOOOOOO..O  XXX",
"XXX..OO.OOOOOOOOO.    ..OOO.OOOOOOOOO.  OOOOO..OO.OOOOOOO.    .OOOOOOOOO..O  XXX",
"XXX..OO.OOOOOOOOO.    ..OOO.OOOOOOOOO.  OOOOO..OO OOOOOOO.    .OOOOOOOOO..O  XXX",
"XXX..OO.OOOOOOO..     ..OOO.OO..OOOOO.  ..OOOOO.. OOOOOOO.    ...OOOOOOO..O  ..X",
"XXX..OO.OOOOOOO..     ..OOO.OO..OOOOO.  ..OOOOO.. OOOOOOO.    ...OOOOOOO..O  ..X",
"X....OO.OO..OOO.. OO..  .OO...  .OOOO   ..OOO..   ..OOO.. OOOO ..OOOO.OO       X",
"X....OO.OO..OOO.. OO..  .OO...  .OOOO   ..OOO..   ..OOO.. OOOO ..OOOO.OO       X",
"X..     OO  O..  .....   ...    ...  O..  ..      ..O     OO...    OO OO       .",
"X  OO...     ..  ...  OO.   ....   OO...    OOO      OO..   ...         OO.     ",
"X  OO...     ..  ...  OO.   ....   OO...    OOO      OO..   ...         OO.     ",
"X  ....   OO.  ..     ...   ....   ...  OO  O....    .... ..       OO.    ...   ",
"X  ....   OO.  ..     ...   ....   ...  OO  O....    .... ..       OO.    ...   ",
"X@@    .  ...  ..XXX..   ...    ...   OO..  O.... ...    .XXXXX..  ...  ..     .",
"%&&@@@@@..   ..XXXXXXXXXXXXXXXXXXXXXX.    ..     ....XXXXXXXXXXXX..   ..XXXXXXXX",
"%&&@@@@@..   ..XXXXXXXXXXXXXXXXXXXXXX.    ..     ....XXXXXXXXXXXX..   ..XXXXXXXX",
"%%%%%%%XXXXXXXXXXXXXXXXXXXXXXXXXXXXXXXXXXXXXXXXXXXXXXXXXXXXXXXXXXXXXXXXXXXXXXXXX",
"%%%%%%%XXXXXXXXXXXXXXXXXXXXXXXXXXXXXXXXXXXXXXXXXXXXXXXXXXXXXXXXXXXXXXXXXXXXXXXXX",
"%%%%%%%%%%XXXXXXXXXXXXXXXXXXXXXXXXXXXXXXXXXXXXXXXXXXXXXXXXXXXXXXXXXXXXXXXXXXXXXX",
"%%%%%%%%%%XXXXXXXXXXXXXXXXXXXXXXXXXXXXXXXXXXXXXXXXXXXXXXXXXXXXXXXXXXXXXXXXXXXXXX",
"%%%%%%%%%%%%%%%%%XXXXX%%%XXXXXXXXXXXXXXXXXXXX%%%%XXXXXXXXXXXXXXXX%%%%%XXXXXXXXXX"
};
